<svg width="617" height="325" viewBox="0 0 617 325" fill="none" xmlns="http://www.w3.org/2000/svg">
<g clip-path="url(#clip0)">
<path d="M0.399994 31.7C0.399994 31.7 92.8 73.7 76.4 177.6C58 294.1 164.7 344.2 237.6 315.3C310.5 286.4 305.4 179.5 444 176.2C585.7 172.8 615.5 38.3 615.5 38.3" stroke="#6C22B3" stroke-width="2" stroke-miterlimit="10"/>
<path d="M107.2 0.399994C107.2 0.399994 147.2 89.2 132.9 177.5C118.5 265.8 183.2 276.2 208.9 265.8C262.3 244.4 272.6 129.8 358.8 122.4C423.6 116.8 510.8 161.1 557 60.6" stroke="#6C22B3" stroke-width="2" stroke-miterlimit="10"/>
<path d="M150.3 40C150.3 40 135.9 130.7 199.6 114.5C272.6 95.9 271.5 52.3 363.9 93.5C396.8 108.2 529.2 112.5 502.5 31.7" stroke="#6C22B3" stroke-width="2" stroke-miterlimit="10"/>
<path d="M196.5 234.5C211.798 234.5 224.2 216.233 224.2 193.7C224.2 171.167 211.798 152.9 196.5 152.9C181.202 152.9 168.8 171.167 168.8 193.7C168.8 216.233 181.202 234.5 196.5 234.5Z" stroke="#6C22B3" stroke-width="2" stroke-miterlimit="10"/>
</g>
<defs>
<clipPath id="clip0">
<rect width="616.5" height="324.3" fill="white"/>
</clipPath>
</defs>
</svg>
