<svg width="272" height="34" viewBox="0 0 272 34" fill="none" xmlns="http://www.w3.org/2000/svg">
<g clip-path="url(#clip0)">
<path d="M262 4.7C262 7.3 264.1 9.4 266.7 9.4C269.3 9.4 271.4 7.3 271.4 4.7C271.4 2.1 269.3 0 266.7 0C264.1 0 262 2.1 262 4.7Z" fill="#3E0A6E"/>
<path d="M231.2 4.7C231.2 7.3 233.3 9.4 235.9 9.4C238.5 9.4 240.6 7.3 240.6 4.7C240.6 2.1 238.5 0 235.9 0C233.3 0 231.2 2.1 231.2 4.7Z" fill="#3E0A6E"/>
<path d="M200.4 4.7C200.4 7.3 202.5 9.4 205.1 9.4C207.7 9.4 209.8 7.3 209.8 4.7C209.8 2.1 207.7 0 205.1 0C202.5 0 200.4 2.1 200.4 4.7Z" fill="#3E0A6E"/>
<path d="M169.6 4.7C169.6 7.3 171.7 9.4 174.3 9.4C176.9 9.4 179 7.3 179 4.7C179 2.1 176.9 0 174.3 0C171.7 0 169.6 2.1 169.6 4.7Z" fill="#3E0A6E"/>
<path d="M138.8 4.7C138.8 7.3 140.9 9.4 143.5 9.4C146.1 9.4 148.2 7.3 148.2 4.7C148.2 2.1 146.1 0 143.5 0C140.9 0 138.8 2.1 138.8 4.7Z" fill="#3E0A6E"/>
<path d="M108 4.7C108 7.3 110.1 9.4 112.7 9.4C115.3 9.4 117.4 7.3 117.4 4.7C117.4 2.1 115.3 0 112.7 0C110.1 0 108 2.1 108 4.7Z" fill="#3E0A6E"/>
<path d="M77.2 4.7C77.2 7.3 79.3 9.4 81.9 9.4C84.5 9.4 86.6 7.3 86.6 4.7C86.6 2.1 84.5 0 81.9 0C79.3 0 77.2 2.1 77.2 4.7Z" fill="#3E0A6E"/>
<path d="M46.4 4.7C46.4 7.3 48.5 9.4 51.1 9.4C53.7 9.4 55.8 7.3 55.8 4.7C55.8 2.1 53.7 0 51.1 0C48.5 0 46.4 2.1 46.4 4.7Z" fill="#3E0A6E"/>
<path d="M15.6 4.7C15.6 7.3 17.7 9.4 20.3 9.4C22.9 9.4 25 7.3 25 4.7C25 2.1 22.9 0 20.3 0C17.7 0 15.6 2.1 15.6 4.7Z" fill="#3E0A6E"/>
<path d="M246.4 29C246.4 31.6 248.5 33.7 251.1 33.7C253.7 33.7 255.8 31.6 255.8 29C255.8 26.4 253.7 24.3 251.1 24.3C248.5 24.4 246.4 26.5 246.4 29Z" fill="#3E0A6E"/>
<path d="M220.3 33.7C222.896 33.7 225 31.5957 225 29C225 26.4043 222.896 24.3 220.3 24.3C217.704 24.3 215.6 26.4043 215.6 29C215.6 31.5957 217.704 33.7 220.3 33.7Z" fill="#3E0A6E"/>
<path d="M189.5 33.7C192.096 33.7 194.2 31.5957 194.2 29C194.2 26.4043 192.096 24.3 189.5 24.3C186.904 24.3 184.8 26.4043 184.8 29C184.8 31.5957 186.904 33.7 189.5 33.7Z" fill="#3E0A6E"/>
<path d="M154 29C154 31.6 156.1 33.7 158.7 33.7C161.3 33.7 163.4 31.6 163.4 29C163.4 26.4 161.3 24.3 158.7 24.3C156.1 24.4 154 26.5 154 29Z" fill="#3E0A6E"/>
<path d="M123.2 29C123.2 31.6 125.3 33.7 127.9 33.7C130.5 33.7 132.6 31.6 132.6 29C132.6 26.4 130.5 24.3 127.9 24.3C125.3 24.4 123.2 26.5 123.2 29Z" fill="#3E0A6E"/>
<path d="M92.4 29C92.4 31.6 94.5 33.7 97.1 33.7C99.7 33.7 101.8 31.6 101.8 29C101.8 26.4 99.7 24.3 97.1 24.3C94.5 24.4 92.4 26.5 92.4 29Z" fill="#3E0A6E"/>
<path d="M66.3 33.7C68.8957 33.7 71 31.5957 71 29C71 26.4043 68.8957 24.3 66.3 24.3C63.7043 24.3 61.6 26.4043 61.6 29C61.6 31.5957 63.7043 33.7 66.3 33.7Z" fill="#3E0A6E"/>
<path d="M35.5 33.7C38.0957 33.7 40.2 31.5957 40.2 29C40.2 26.4043 38.0957 24.3 35.5 24.3C32.9043 24.3 30.8 26.4043 30.8 29C30.8 31.5957 32.9043 33.7 35.5 33.7Z" fill="#3E0A6E"/>
<path d="M0 29C0 31.6 2.1 33.7 4.7 33.7C7.3 33.7 9.4 31.6 9.4 29C9.4 26.4 7.3 24.3 4.7 24.3C2.1 24.4 0 26.5 0 29Z" fill="#3E0A6E"/>
</g>
<defs>
<clipPath id="clip0">
<rect width="271.3" height="33.7" fill="white"/>
</clipPath>
</defs>
</svg>
