<svg width="61" height="66" viewBox="0 0 61 66" fill="none" xmlns="http://www.w3.org/2000/svg">
<path d="M59.4197 2.56042C59.2373 2.45508 59.0303 2.39963 58.8196 2.39963C58.609 2.39963 58.402 2.45508 58.2196 2.56042L57.6075 2.84845C53.3809 5.12863 48.5717 6.10077 43.7913 5.64132C39.0109 5.18187 34.475 3.31157 30.76 0.26812C30.5462 0.094665 30.2792 0 30.0039 0C29.7286 0 29.4616 0.094665 29.2478 0.26812C25.5329 3.31157 20.9969 5.18187 16.2165 5.64132C11.4361 6.10077 6.62698 5.12863 2.40035 2.84845L1.81228 2.53641C1.62983 2.43108 1.42287 2.37562 1.2122 2.37562C1.00153 2.37562 0.794567 2.43108 0.61212 2.53641C0.424955 2.64161 0.269436 2.79509 0.161779 2.98085C0.0541216 3.16661 -0.00173217 3.37785 4.09383e-05 3.59255V30.476C-0.00030968 36.6857 1.72859 42.7728 4.99301 48.0553C8.25743 53.3377 12.9284 57.6067 18.4824 60.3839L29.4638 65.8686C29.6314 65.953 29.8163 65.997 30.0039 65.997C30.1915 65.997 30.3765 65.953 30.544 65.8686L41.5254 60.3839C47.0795 57.6067 51.7504 53.3377 55.0148 48.0553C58.2792 42.7728 60.0081 36.6857 60.0078 30.476V3.59255C60.0078 3.38427 59.9535 3.17959 59.8504 2.99862C59.7473 2.81766 59.5989 2.66664 59.4197 2.56042ZM57.6075 30.476C57.6042 36.2398 55.9972 41.8891 52.9662 46.7916C49.9352 51.6941 45.5999 55.6566 40.4453 58.2356L30.0039 63.4563L19.5626 58.2356C14.4079 55.6566 10.0726 51.6941 7.04162 46.7916C4.01066 41.8891 2.40363 36.2398 2.40035 30.476V5.5608C6.8164 7.67764 11.7317 8.5323 16.6031 8.03033C21.4746 7.52837 26.1123 5.68932 30.0039 2.71644C33.8955 5.68932 38.5333 7.52837 43.4047 8.03033C48.2761 8.5323 53.1914 7.67764 57.6075 5.5608V30.476Z" fill="white"/>
<path d="M11.6535 25.5433C11.4275 25.3173 11.121 25.1904 10.8014 25.1904C10.4818 25.1904 10.1753 25.3173 9.9493 25.5433C9.72331 25.7693 9.59634 26.0758 9.59634 26.3954C9.59634 26.7151 9.72331 27.0216 9.9493 27.2476L24.3512 41.6494C24.4633 41.7606 24.5963 41.8486 24.7425 41.9084C24.8887 41.9681 25.0453 41.9984 25.2033 41.9975C25.4893 41.9975 25.766 41.8953 25.9834 41.7094L49.9865 21.3068C50.1062 21.2043 50.2047 21.0793 50.2761 20.9388C50.3476 20.7983 50.3907 20.6452 50.4029 20.488C50.4152 20.3309 50.3964 20.1729 50.3476 20.023C50.2988 19.8731 50.2209 19.7344 50.1185 19.6146C50.016 19.4948 49.891 19.3964 49.7505 19.3249C49.61 19.2534 49.4569 19.2104 49.2997 19.1981C49.1426 19.1858 48.9846 19.2046 48.8347 19.2535C48.6848 19.3023 48.546 19.3801 48.4263 19.4826L25.2753 39.1651L11.6535 25.5433Z" fill="white"/>
</svg>
