<svg width="65" height="62" viewBox="0 0 65 62" fill="none" xmlns="http://www.w3.org/2000/svg">
<path d="M56.8719 4.18772H49.0369V1.48597C49.0369 0.675439 48.3614 0 47.5509 0C46.7404 0 46.0649 0.675439 46.0649 1.48597V4.18772H18.1018V1.48597C18.1018 0.675439 17.4263 0 16.6158 0C15.8053 0 15.1298 0.675439 15.1298 1.48597V4.18772H7.29474C3.24211 4.18772 0 7.42983 0 11.4825V54.3053C0 58.3579 3.24211 61.6 7.29474 61.6H42.0123C44.5114 61.6 46.8079 60.6544 48.5641 58.8983L61.3974 46.0649C63.1535 44.3088 64.0991 42.0123 64.0991 39.5132V11.55C64.1667 7.42983 60.9246 4.18772 56.8719 4.18772ZM7.29474 7.09211H15.1298V9.79386C15.1298 10.6044 15.8053 11.2798 16.6158 11.2798C17.4263 11.2798 18.1018 10.6044 18.1018 9.79386V7.09211H46.1325V9.79386C46.1325 10.6044 46.8079 11.2798 47.6184 11.2798C48.429 11.2798 49.1044 10.6044 49.1044 9.79386V7.09211H56.9395C59.3711 7.09211 61.3298 9.05088 61.3298 11.4825V19.1149H2.90439V11.4825C2.90439 9.05088 4.86316 7.09211 7.29474 7.09211ZM7.29474 58.6281C4.86316 58.6281 2.90439 56.6693 2.90439 54.2377V22.0193H61.2623V39.4456C61.2623 39.7158 61.1948 39.9184 61.1948 40.1886H47.0781C44.714 40.1886 42.7553 42.1474 42.7553 44.5114V58.6281C42.4851 58.6281 42.2825 58.6956 42.0123 58.6956L7.29474 58.6281ZM46.5377 56.8044C46.2676 57.0746 45.9974 57.2772 45.6597 57.5474V44.5114C45.6597 43.7009 46.2676 43.093 47.0781 43.093H60.1141C59.9114 43.4307 59.6413 43.7009 59.3711 43.9711L46.5377 56.8044Z" fill="white"/>
<path d="M25.8594 37.1582L26.6543 29.3594H34.668V31.1963H28.3408L27.8682 35.4609C28.6344 35.0098 29.5046 34.7842 30.4785 34.7842C31.9036 34.7842 33.0352 35.2568 33.873 36.2021C34.7109 37.1403 35.1299 38.4115 35.1299 40.0156C35.1299 41.627 34.693 42.8981 33.8193 43.8291C32.9528 44.7529 31.7389 45.2148 30.1777 45.2148C28.7956 45.2148 27.6676 44.8317 26.7939 44.0654C25.9202 43.2992 25.4225 42.2393 25.3008 40.8857H27.1807C27.3024 41.7809 27.6211 42.4577 28.1367 42.916C28.6523 43.3672 29.3327 43.5928 30.1777 43.5928C31.1016 43.5928 31.8249 43.2777 32.3477 42.6475C32.8776 42.0173 33.1426 41.1471 33.1426 40.0371C33.1426 38.9915 32.8561 38.1536 32.2832 37.5234C31.7174 36.8861 30.9619 36.5674 30.0166 36.5674C29.1501 36.5674 28.4697 36.7572 27.9756 37.1367L27.4492 37.5664L25.8594 37.1582Z" fill="white"/>
</svg>
