<svg width="65" height="77" viewBox="0 0 65 77" fill="none" xmlns="http://www.w3.org/2000/svg">
<path d="M28.3773 11.8013C19.2086 11.8013 11.6208 14.1725 7.35266 21.6022C3.08451 29.032 2.29411 35.3552 3.24259 45.6303C4.19107 55.9055 1.50371 52.902 1.02947 61.4383C0.555231 69.9746 5.77186 75.9817 19.0506 75.3494C32.3293 74.717 48.7696 62.5449 51.1408 39.4652C53.512 15.5952 37.5459 11.8013 28.3773 11.8013Z" stroke="white" stroke-width="2" stroke-miterlimit="10" stroke-linecap="round" stroke-linejoin="round"/>
<path d="M36.6454 12.9078L40.6025 1" stroke="white" stroke-width="2" stroke-miterlimit="10" stroke-linecap="round" stroke-linejoin="round"/>
<path d="M38.6247 7.84921C38.6247 7.84921 63.7885 15.8582 55.9894 47.2642C55.9894 47.2642 70.744 32.5097 60.2045 15.437C60.2045 15.437 51.3115 1.52602 44.1828 10.6403" stroke="white" stroke-width="2" stroke-miterlimit="10" stroke-linecap="round" stroke-linejoin="round"/>
<path d="M21.3953 69.5484C20.8312 69.6938 20.295 69.8127 19.793 69.9113" stroke="white" stroke-width="2" stroke-miterlimit="10" stroke-linecap="round" stroke-linejoin="round"/>
<path d="M44.012 47.2642C39.3291 59.3099 32.1775 65.0804 26.1895 67.8374" stroke="white" stroke-width="2" stroke-miterlimit="10" stroke-linecap="round" stroke-linejoin="round"/>
</svg>
