<svg width="70" height="71" viewBox="0 0 70 71" fill="none" xmlns="http://www.w3.org/2000/svg">
<path d="M4.76237 37.9935C6.10094 39.4365 7.51071 40.764 8.97032 42.0411C8.30815 43.7726 7.58903 45.497 6.8343 47.1708C5.84462 49.3352 4.76237 51.4997 3.60892 53.5992C3.51252 53.7654 3.46169 53.9547 3.46169 54.1475C3.46169 54.3403 3.51252 54.5296 3.60892 54.6959C3.7103 54.8579 3.85162 54.9904 4.01893 55.0802C4.18623 55.17 4.37376 55.2141 4.56301 55.2081C6.77527 55.1131 8.99115 55.1517 11.1989 55.3236C12.8507 55.4534 14.5168 55.6627 16.1829 55.9512C16.4891 57.8127 16.7525 59.703 16.9733 61.5788C17.2509 63.9886 17.4645 66.4416 17.5998 68.8586C17.61 69.0397 17.665 69.2153 17.7597 69.3693C17.8543 69.5233 17.9857 69.6507 18.1417 69.7398C18.2977 69.8288 18.4732 69.8768 18.6523 69.8791C18.8313 69.8815 19.008 69.8382 19.1662 69.7532C21.3592 68.5555 23.4952 67.329 25.6312 66.0664C27.4896 64.9626 29.3479 63.8154 31.1635 62.6538C32.2814 63.5052 33.385 64.3926 34.4459 65.2944C36.3896 66.9466 38.2836 68.7071 40.0707 70.5252C40.2708 70.7282 40.5423 70.8424 40.8254 70.8426H40.8682C41.0154 70.8361 41.1598 70.7988 41.2921 70.733C41.4245 70.6672 41.5419 70.5743 41.6371 70.4603L48.9565 61.8025L60.5195 63.8515C60.6928 63.8821 60.8709 63.8688 61.0379 63.8128C61.2049 63.7569 61.3557 63.66 61.4769 63.5308C61.598 63.4016 61.6858 63.244 61.7325 63.0722C61.7791 62.9003 61.7831 62.7194 61.7442 62.5456C61.2025 60.0763 60.8337 57.5714 60.6405 55.0494C60.5195 53.4333 60.4697 51.7955 60.491 50.1794C61.915 49.1765 63.339 48.1159 64.6705 47.0337C66.3935 45.6557 68.081 44.2055 69.6545 42.7048C69.8617 42.5131 69.9855 42.2461 69.9988 41.9622C70.0121 41.6782 69.914 41.4005 69.7257 41.1897C68.1095 39.3499 66.5431 37.4164 65.0835 35.4179C64.1721 34.1913 63.2821 32.9287 62.4419 31.6445C65.0386 28.1541 66.8161 24.1101 67.6396 19.8194C67.6927 19.5433 67.6377 19.2571 67.4862 19.0214C67.3347 18.7857 67.0986 18.6191 66.8279 18.5568C64.5281 18.0301 62.1856 17.5106 59.8645 17.0273C58.1272 16.6593 56.3685 16.3058 54.6241 15.9595C54.8092 13.8617 54.8092 11.7514 54.6241 9.6537C54.3914 7.12812 53.895 4.63467 53.1431 2.21522C53.0517 1.93415 52.8548 1.70088 52.5949 1.56588C52.4649 1.50181 52.3235 1.46495 52.1791 1.45751C52.0348 1.45007 51.8904 1.47221 51.7547 1.52259C49.2629 2.44909 46.8604 3.60593 44.5777 4.97849C42.7998 6.04322 41.0986 7.23424 39.4869 8.54262C38.2266 7.3161 36.9308 6.11844 35.6136 4.93521C33.7267 3.31908 31.7474 1.72461 29.7324 0.223924C29.6162 0.133528 29.483 0.0683066 29.3409 0.0323125C29.1988 -0.00368152 29.0509 -0.00967861 28.9065 0.014694C28.7616 0.0393856 28.6234 0.094503 28.5008 0.176508C28.3782 0.258512 28.2738 0.365592 28.1945 0.490873C26.863 2.59039 25.5387 4.74041 24.2642 6.89042C23.4311 8.28289 22.6123 9.69699 21.822 11.0967C19.9423 10.8225 18.0413 10.6133 16.1616 10.469C13.8832 10.2958 11.5691 10.2092 9.27648 10.2165C9.12424 10.2161 8.97369 10.2488 8.83493 10.3123C8.69617 10.3757 8.57239 10.4685 8.47192 10.5844C8.37284 10.7003 8.29883 10.8359 8.25468 10.9826C8.21053 11.1292 8.19722 11.2836 8.21559 11.4358C8.536 13.9465 8.97744 16.4861 9.52568 18.9608C9.92441 20.7645 10.3872 22.5682 10.907 24.3647C9.426 25.2666 7.93791 26.2189 6.48542 27.1424C4.47757 28.4195 2.46259 29.7326 0.476096 31.0385C0.354442 31.1205 0.250707 31.227 0.171314 31.3514C0.091921 31.4757 0.0385591 31.6153 0.0145314 31.7613C-0.00949624 31.9074 -0.00367823 32.057 0.0316253 32.2007C0.0669288 32.3444 0.130967 32.4792 0.219774 32.5969C1.63453 34.4793 3.15105 36.281 4.76237 37.9935ZM7.61039 28.9822C9.29072 27.9144 11.0067 26.8178 12.7155 25.8077C12.9237 25.6824 13.0841 25.4896 13.1706 25.2605C13.2572 25.0313 13.2649 24.7792 13.1925 24.5451C12.5944 22.561 12.0604 20.5264 11.6119 18.4919C11.1633 16.4573 10.8002 14.4443 10.5083 12.4026C12.3452 12.4026 14.1893 12.5108 16.0049 12.6479C18.0769 12.8066 20.1702 13.0519 22.235 13.3693C22.4468 13.4036 22.664 13.3716 22.8574 13.2774C23.0508 13.1833 23.2112 13.0316 23.3172 12.8427C24.2144 11.2482 25.1542 9.63206 26.1012 8.03758C27.1692 6.23387 28.2728 4.43017 29.3835 2.66254C31.0354 3.92513 32.6587 5.25266 34.218 6.61626C35.7773 7.97986 37.244 9.34346 38.6752 10.772C38.8631 10.9591 39.113 11.0686 39.3762 11.0792C39.6394 11.0899 39.8971 11.001 40.0992 10.8297C41.8412 9.35239 43.6985 8.02051 45.6528 6.84714C47.4965 5.73594 49.4223 4.77108 51.413 3.9612C51.934 5.88851 52.2866 7.85855 52.4667 9.8485C52.6744 12.1321 52.6505 14.4312 52.3955 16.7098C52.3657 16.9807 52.4378 17.2531 52.5975 17.4725C52.7572 17.6918 52.9928 17.842 53.257 17.893C55.3005 18.2899 57.3724 18.7083 59.423 19.134C61.4736 19.5597 63.3675 19.9925 65.3327 20.4327C64.8989 22.3049 64.2663 24.124 63.4458 25.8582C62.5792 27.6531 61.5215 29.3466 60.2917 30.9086C60.1502 31.0866 60.0684 31.3057 60.0581 31.534C60.0479 31.7624 60.1097 31.9881 60.2347 32.1784C61.2315 33.7512 62.2853 35.2736 63.3675 36.7382C64.6491 38.4769 66.0162 40.1869 67.4259 41.8246C66.0945 43.0367 64.7061 44.2127 63.3034 45.3382C61.9008 46.4637 60.3273 47.6325 58.7965 48.7148C58.6564 48.8109 58.5412 48.9397 58.4607 49.0904C58.3801 49.2411 58.3366 49.4092 58.3336 49.5806C58.2851 51.4576 58.3326 53.336 58.476 55.2081C58.6343 57.3002 58.9101 59.3814 59.302 61.4417L48.7501 59.5514C48.5667 59.5187 48.378 59.5355 48.203 59.6001C48.028 59.6647 47.8729 59.7748 47.7532 59.9194L40.7827 68.1732C39.1949 66.6003 37.536 65.078 35.8414 63.635C34.5598 62.5528 33.2212 61.4706 31.8755 60.4749C31.6907 60.3344 31.4658 60.2585 31.2347 60.2585C31.0333 60.259 30.8361 60.3165 30.6651 60.4244C28.6644 61.7159 26.6209 62.9857 24.5704 64.1978C22.9399 65.1646 21.2809 66.1169 19.5863 67.0404C19.4582 65.1357 19.2802 63.2166 19.0594 61.3263C18.8031 59.1618 18.4898 56.9974 18.1267 54.833C18.0894 54.6145 17.9867 54.4129 17.8326 54.2555C17.6786 54.098 17.4805 53.9924 17.2652 53.9527C15.3221 53.5869 13.3614 53.3244 11.3911 53.1663C9.72504 53.0365 8.04471 52.9787 6.4071 52.9932C7.25439 51.377 8.05895 49.7321 8.81368 48.0727C9.69656 46.1246 10.5225 44.1189 11.2772 42.0988C11.3549 41.8899 11.3666 41.6616 11.3104 41.4457C11.2543 41.2297 11.1332 41.0369 10.9639 40.8939C9.35449 39.5084 7.81462 38.0419 6.35014 36.5001C5.06141 35.1365 3.82964 33.7007 2.66195 32.2217C4.27108 31.125 5.95142 30.0356 7.61751 28.9822H7.61039Z" fill="white"/>
<path d="M26.7277 50.5185C33.2355 42.0291 39.4679 33.3304 45.425 24.4225C46.3577 23.03 44.1434 21.7314 43.2178 23.1022C37.3793 31.8321 31.2798 40.3648 24.9193 48.7004C23.9224 50.0063 25.7238 51.8605 26.7277 50.5185Z" fill="white"/>
<path d="M31.0781 34.4006C33.4206 32.3588 33.9261 28.0732 31.7474 25.8078C29.8392 23.8237 26.3433 22.4745 23.9865 24.1483C23.7958 24.1123 23.5994 24.123 23.4137 24.1795C23.2279 24.236 23.0581 24.3366 22.9185 24.473C21.7696 25.5272 21.0574 26.9833 20.9253 28.5482C20.7932 30.113 21.251 31.6705 22.2065 32.9071C24.2072 35.4468 28.4793 36.6877 31.0781 34.4006ZM29.7395 27.4311C31.0354 28.6865 30.6936 31.6734 29.0702 32.6041C25.7238 34.5305 22.2421 30.0861 24.0862 27.0992C24.2613 27.1165 24.4378 27.0901 24.6005 27.0222C24.7631 26.9542 24.9068 26.8469 25.0189 26.7096C26.2649 25.2666 28.5789 26.3056 29.7395 27.4311Z" fill="white"/>
<path d="M41.7368 38.3471C41.5288 38.3646 41.3282 38.434 41.153 38.5491C38.305 39.3138 36.881 43.8303 37.714 46.3988C38.7891 49.7465 42.4702 51.3049 45.7098 50.4535C48.5578 49.732 50.4375 45.8216 49.8822 42.9862C49.2057 39.5591 44.7415 38.0512 41.7368 38.3471ZM46.0089 47.4594C44.3784 48.9023 41.3951 47.9356 40.4339 46.2184C40.2155 45.8314 40.0782 45.403 40.0305 44.9599C39.9827 44.5167 40.0255 44.0684 40.1562 43.6427C40.3627 42.9213 41.1103 41.2186 41.9433 41.0165C42.0468 40.996 42.1473 40.962 42.2423 40.9155C43.6484 40.8164 45.0448 41.2142 46.194 42.041C47.8458 43.3036 47.5254 46.1246 45.9946 47.4594H46.0089Z" fill="white"/>
</svg>
