<svg width="37" height="52" viewBox="0 0 37 52" fill="none" xmlns="http://www.w3.org/2000/svg">
<path d="M18.1153 25.366C23.1415 25.366 27.231 21.2765 27.231 16.2504C27.231 11.2237 23.1415 7.13469 18.1153 7.13469C13.0892 7.13469 8.99967 11.2237 8.99967 16.2504C8.99967 21.2765 13.0892 25.366 18.1153 25.366ZM18.1153 7.92939C22.7034 7.92939 26.4358 11.6623 26.4358 16.2498C26.4358 20.838 22.7029 24.5703 18.1153 24.5703C13.5277 24.5703 9.79488 20.838 9.79488 16.2498C9.79488 11.6623 13.5272 7.92939 18.1153 7.92939ZM27.6111 27.9353C28.9186 27.2195 30.4103 26.901 31.2239 25.7832C32.1763 24.4741 31.8512 22.4609 32.3615 20.8883C32.854 19.3712 34.3167 17.941 34.3167 16.259C34.3167 14.5775 32.854 13.1479 32.3615 11.6302C31.8502 10.0576 32.1758 8.04437 31.2233 6.7353C30.2613 5.413 28.2394 5.10469 26.9176 4.1426C25.608 3.18967 24.8647 1.59721 23.1237 0.846266C21.9321 0.362932 19.4453 1.28432 18.1153 1.28432C16.7864 1.28432 14.7987 0.439248 13.108 0.846266C11.2937 1.43644 10.9722 2.948 9.31358 4.1426C7.88037 5.20899 5.96993 5.413 5.00734 6.7353C4.05441 8.04437 4.38002 10.0576 3.86921 11.6302C3.37672 13.1474 1.914 14.5775 1.914 16.259C1.914 17.941 3.37723 19.3707 3.86972 20.8883C4.38104 22.4609 4.05542 24.4741 5.00734 25.7832C5.80255 26.875 7.32021 27.276 8.56976 27.9246L0 45.8578L8.44714 43.7154L12.4522 51.5831L18.0757 39.3547L23.782 51.5775L27.784 43.7154L36.2724 45.868L27.6111 27.9353ZM5.61735 25.3396C4.7097 24.0916 5.02005 22.172 4.53265 20.6726C4.06305 19.2257 2.668 17.8621 2.668 16.2585C2.668 14.6554 4.06305 13.2918 4.53265 11.8449C5.01955 10.3455 4.7092 8.42595 5.61786 7.17743C6.53569 5.91669 8.35709 5.72285 9.72365 4.70581C11.3049 3.56667 11.6112 2.12583 13.3415 1.56313C14.9533 1.17493 16.8485 1.98032 18.1158 1.98032C19.3842 1.98032 21.7551 1.10218 22.8907 1.56313C24.5508 2.27897 25.26 3.79765 26.5086 4.70581C27.7688 5.62364 29.6965 5.9172 30.6138 7.17743C31.5215 8.42595 31.2116 10.3455 31.699 11.8449C32.1686 13.2918 33.5637 14.6554 33.5637 16.2585C33.5637 17.8616 32.1692 19.2257 31.699 20.6726C31.2127 22.172 31.5225 24.0916 30.6143 25.3396C29.696 26.6003 27.8746 26.7947 26.5086 27.8112C24.9278 28.9503 24.6205 30.3917 22.8907 30.9544C21.2789 31.3426 19.3837 30.5372 18.1164 30.5372C16.8485 30.5372 14.4771 31.4158 13.3415 30.9544C11.6814 30.2385 10.9717 28.7199 9.72314 27.8112C8.46241 26.8944 6.53467 26.6003 5.61735 25.3396ZM12.4156 49.7596L8.86688 42.7889L1.44847 44.6704L9.25456 28.3342C9.27441 28.3474 9.29425 28.3617 9.31307 28.3754C10.6227 29.3278 11.3665 30.9208 13.1075 31.6717C14.2985 32.1551 16.7854 31.2342 18.1153 31.2342C18.8454 31.2342 19.7744 31.4891 20.7431 31.6509L12.4156 49.7596ZM27.3638 42.7889L23.8131 49.7647L18.5107 38.4079L21.5694 31.7577C22.097 31.8025 22.6226 31.7918 23.1237 31.6712C24.938 31.0816 25.259 29.57 26.9176 28.3749C26.9232 28.3703 26.9288 28.3663 26.9349 28.3627L34.8148 44.679L27.3638 42.7889Z" fill="white"/>
</svg>
