<svg width="46" height="47" viewBox="0 0 46 47" fill="none" xmlns="http://www.w3.org/2000/svg">
<path d="M33.9506 0C32.0981 0.000103684 30.2928 0.583621 28.7907 1.66774C23.7493 0.240123 18.3687 0.606459 13.5674 2.70422C8.76598 4.80198 4.8415 8.50111 2.4638 13.1702C0.0861066 17.8393 -0.597403 23.1888 0.529946 28.3058C1.65729 33.4227 4.52561 37.9897 8.64529 41.2273C12.765 44.4649 17.8806 46.1723 23.119 46.0582C28.3574 45.944 33.3938 44.0153 37.3685 40.6012C41.3432 37.1872 44.0098 32.4995 44.9131 27.3384C45.8164 22.1772 44.9004 16.8625 42.3216 12.3014C42.6493 11.19 42.8204 10.0383 42.8301 8.87956C42.8273 6.5254 41.8909 4.26847 40.2263 2.60383C38.5616 0.939191 36.3047 0.00277726 33.9506 0ZM41.2157 8.87956C41.2157 14.6287 35.7176 20.54 33.9506 22.2917C32.1819 20.5416 26.6855 14.6375 26.6855 8.87956C26.6855 6.95273 27.4509 5.10483 28.8134 3.74236C30.1758 2.37989 32.0237 1.61446 33.9506 1.61446C35.8774 1.61446 37.7253 2.37989 39.0878 3.74236C40.4502 5.10483 41.2157 6.95273 41.2157 8.87956ZM1.68144 24.217H8.23375C8.38275 24.7938 8.68843 25.3182 9.11698 25.7321C9.54553 26.1459 10.0802 26.4332 10.6619 26.562C10.8176 28.766 11.1639 30.9523 11.6968 33.0965H4.03937C2.60269 30.3489 1.79715 27.3154 1.68144 24.217ZM25.5287 12.1085H23.4565V2.45157C24.7681 2.49822 26.0723 2.66767 27.3522 2.9577C25.8849 4.58114 25.072 6.69125 25.071 8.87956C25.0802 9.97136 25.2342 11.0571 25.5287 12.1085ZM21.8421 2.49193V12.1085H13.8456C15.6022 6.7299 18.5518 3.01905 21.8421 2.49193ZM21.8421 13.723V22.6025H14.4624C14.3228 22.0683 14.0482 21.5789 13.665 21.1814C13.2818 20.7838 12.8027 20.4916 12.2739 20.3326C12.434 18.1005 12.7996 15.8879 13.3661 13.723H21.8421ZM11.3481 25.0242C11.0287 25.0242 10.7166 24.9295 10.4511 24.7521C10.1856 24.5747 9.97867 24.3226 9.85648 24.0276C9.73428 23.7326 9.70231 23.4079 9.76461 23.0948C9.8269 22.7816 9.98066 22.4939 10.2065 22.2681C10.4322 22.0424 10.7199 21.8886 11.0331 21.8263C11.3463 21.764 11.6709 21.796 11.9659 21.9182C12.2609 22.0404 12.513 22.2473 12.6904 22.5128C12.8678 22.7783 12.9625 23.0904 12.9625 23.4097C12.9625 23.8379 12.7924 24.2486 12.4896 24.5513C12.1869 24.8541 11.7762 25.0242 11.3481 25.0242ZM10.6619 20.2615C10.0807 20.39 9.54637 20.6767 9.11787 21.0898C8.68937 21.5029 8.3834 22.0264 8.23375 22.6025H1.68144C1.79715 19.5041 2.60269 16.4706 4.03937 13.723H11.6968C11.1636 15.8685 10.8174 18.0562 10.6619 20.2615ZM12.2764 26.4909C12.8052 26.3313 13.284 26.0382 13.6669 25.64C14.0497 25.2417 14.3236 24.7517 14.4624 24.217H21.8421V30.7895C21.287 30.9338 20.7805 31.2238 20.3749 31.6293C19.9693 32.0349 19.6794 32.5414 19.535 33.0965H13.3661C12.7996 30.9316 12.434 28.719 12.2739 26.4869L12.2764 26.4909ZM22.6493 35.5182C22.33 35.5182 22.0179 35.4235 21.7524 35.2461C21.4869 35.0687 21.2799 34.8166 21.1577 34.5216C21.0355 34.2266 21.0036 33.902 21.0659 33.5888C21.1282 33.2756 21.2819 32.9879 21.5077 32.7622C21.7335 32.5364 22.0212 32.3826 22.3343 32.3203C22.6475 32.258 22.9721 32.29 23.2671 32.4122C23.5621 32.5344 23.8143 32.7413 23.9917 33.0068C24.1691 33.2723 24.2638 33.5844 24.2638 33.9038C24.2638 34.3319 24.0937 34.7426 23.7909 35.0454C23.4881 35.3481 23.0775 35.5182 22.6493 35.5182ZM19.535 34.711C19.6794 35.2661 19.9693 35.7726 20.3749 36.1782C20.7805 36.5838 21.287 36.8737 21.8421 37.0181V44.3276C18.5518 43.8004 15.6022 40.0896 13.8456 34.711H19.535ZM23.4565 44.3292V37.0181C24.0116 36.8737 24.5181 36.5838 24.9237 36.1782C25.3293 35.7726 25.6192 35.2661 25.7636 34.711H31.4853C29.753 40.1041 26.8267 43.8142 23.4565 44.3292ZM25.7636 33.0965C25.6192 32.5414 25.3293 32.0349 24.9237 31.6293C24.5181 31.2238 24.0116 30.9338 23.4565 30.7895V24.217H33.1328C33.0893 27.2128 32.6938 30.1931 31.9543 33.0965H25.7636ZM34.7473 24.217H43.6172C43.5015 27.3154 42.6959 30.3489 41.2592 33.0965H33.6277C34.3317 30.1879 34.7073 27.2094 34.7473 24.217ZM23.4565 22.6025V13.723H26.0566C27.47 17.0231 29.4813 20.0335 31.989 22.6025H23.4565ZM17.2974 3.11592C15.142 5.08556 13.3451 8.22005 12.1472 12.1085H4.97737C7.81609 7.67682 12.2113 4.46869 17.2974 3.11592ZM4.97737 34.711H12.1472C13.3451 38.5994 15.1428 41.7339 17.2974 43.7036C12.2113 42.3508 7.81609 39.1427 4.97737 34.711ZM28.0892 43.6785C30.2373 41.7057 32.0075 38.5857 33.1821 34.711H40.3212C37.4989 39.1154 33.1387 42.312 28.0892 43.6785ZM43.6107 22.6025H35.9121C38.2486 20.1943 40.1644 17.411 41.5797 14.3687C42.8099 16.9465 43.501 19.7483 43.6107 22.6025Z" fill="black"/>
<path d="M33.9504 14.5302C35.068 14.5302 36.1605 14.1988 37.0898 13.5779C38.019 12.957 38.7432 12.0745 39.1709 11.042C39.5986 10.0095 39.7105 8.8733 39.4925 7.77719C39.2745 6.68108 38.7363 5.67423 37.946 4.88398C37.1558 4.09372 36.1489 3.55555 35.0528 3.33752C33.9567 3.11949 32.8205 3.23139 31.788 3.65907C30.7555 4.08676 29.873 4.81101 29.2521 5.74025C28.6312 6.66949 28.2998 7.76198 28.2998 8.87957C28.3017 10.3776 28.8977 11.8138 29.957 12.873C31.0162 13.9323 32.4524 14.5283 33.9504 14.5302ZM33.9504 4.84341C34.7487 4.84341 35.5291 5.08013 36.1928 5.52363C36.8565 5.96713 37.3739 6.59749 37.6794 7.335C37.9848 8.07251 38.0648 8.88405 37.909 9.66699C37.7533 10.4499 37.3689 11.1691 36.8044 11.7336C36.24 12.298 35.5208 12.6824 34.7378 12.8382C33.9549 12.9939 33.1434 12.914 32.4059 12.6085C31.6683 12.303 31.038 11.7857 30.5945 11.1219C30.151 10.4582 29.9143 9.67785 29.9143 8.87957C29.9156 7.80951 30.3412 6.78364 31.0979 6.02699C31.8545 5.27034 32.8804 4.84469 33.9504 4.84341Z" fill="black"/>
<path d="M34.758 16.1447H33.1436V17.7591H34.758V16.1447Z" fill="black"/>
</svg>
