<svg width="59" height="30" viewBox="0 0 59 30" fill="none" xmlns="http://www.w3.org/2000/svg">
<path d="M33.1861 18.605H37.0381C37.2713 18.605 37.4948 18.5124 37.6597 18.3475C37.8245 18.1827 37.9171 17.9591 37.9171 17.726C37.9171 17.4929 37.8245 17.2693 37.6597 17.1044C37.4948 16.9396 37.2713 16.847 37.0381 16.847H33.1861C32.953 16.847 32.7294 16.9396 32.5646 17.1044C32.3997 17.2693 32.3071 17.4929 32.3071 17.726C32.3071 17.9591 32.3997 18.1827 32.5646 18.3475C32.7294 18.5124 32.953 18.605 33.1861 18.605Z" fill="black"/>
<path d="M33.1861 22.042H37.0381C37.2713 22.042 37.4948 21.9494 37.6597 21.7845C37.8245 21.6197 37.9171 21.3961 37.9171 21.163C37.9171 20.9299 37.8245 20.7063 37.6597 20.5415C37.4948 20.3766 37.2713 20.284 37.0381 20.284H33.1861C32.953 20.284 32.7294 20.3766 32.5646 20.5415C32.3997 20.7063 32.3071 20.9299 32.3071 21.163C32.3071 21.3961 32.3997 21.6197 32.5646 21.7845C32.7294 21.9494 32.953 22.042 33.1861 22.042Z" fill="black"/>
<path d="M9.32822 3.59998H3.59922C3.48378 3.59998 3.36948 3.62271 3.26284 3.66689C3.15619 3.71106 3.05929 3.7758 2.97767 3.85743C2.89605 3.93905 2.8313 4.03595 2.78712 4.1426C2.74295 4.24924 2.72021 4.36354 2.72021 4.47898C2.72021 4.59441 2.74295 4.70871 2.78712 4.81535C2.8313 4.922 2.89605 5.0189 2.97767 5.10052C3.05929 5.18214 3.15619 5.24689 3.26284 5.29107C3.36948 5.33524 3.48378 5.35798 3.59922 5.35798H9.32822C9.44365 5.35798 9.55795 5.33524 9.66459 5.29107C9.77124 5.24689 9.86814 5.18214 9.94976 5.10052C10.0314 5.0189 10.0961 4.922 10.1403 4.81535C10.1845 4.70871 10.2072 4.59441 10.2072 4.47898C10.2072 4.36354 10.1845 4.24924 10.1403 4.1426C10.0961 4.03595 10.0314 3.93905 9.94976 3.85743C9.86814 3.7758 9.77124 3.71106 9.66459 3.66689C9.55795 3.62271 9.44365 3.59998 9.32822 3.59998Z" fill="black"/>
<path d="M9.32796 23.276H6.46396C6.23084 23.276 6.00726 23.3686 5.84241 23.5335C5.67757 23.6983 5.58496 23.9219 5.58496 24.155C5.58496 24.3881 5.67757 24.6117 5.84241 24.7766C6.00726 24.9414 6.23084 25.034 6.46396 25.034H9.32796C9.56109 25.034 9.78466 24.9414 9.94951 24.7766C10.1144 24.6117 10.207 24.3881 10.207 24.155C10.207 23.9219 10.1144 23.6983 9.94951 23.5335C9.78466 23.3686 9.56109 23.276 9.32796 23.276Z" fill="black"/>
<path d="M9.32815 10.162H1.20015C1.08229 10.158 0.964832 10.1778 0.854775 10.2202C0.744718 10.2625 0.644309 10.3266 0.559528 10.4086C0.474746 10.4905 0.407325 10.5887 0.361279 10.6973C0.315233 10.8058 0.291504 10.9226 0.291504 11.0405C0.291504 11.1584 0.315233 11.2751 0.361279 11.3837C0.407325 11.4923 0.474746 11.5905 0.559528 11.6724C0.644309 11.7544 0.744718 11.8185 0.854775 11.8608C0.964832 11.9032 1.08229 11.923 1.20015 11.919H9.32815C9.44601 11.923 9.56346 11.9032 9.67352 11.8608C9.78358 11.8185 9.88399 11.7544 9.96877 11.6724C10.0535 11.5905 10.121 11.4923 10.167 11.3837C10.2131 11.2751 10.2368 11.1584 10.2368 11.0405C10.2368 10.9226 10.2131 10.8058 10.167 10.6973C10.121 10.5887 10.0535 10.4905 9.96877 10.4086C9.88399 10.3266 9.78358 10.2625 9.67352 10.2202C9.56346 10.1778 9.44601 10.158 9.32815 10.162Z" fill="black"/>
<path d="M9.328 16.717H0.879C0.645875 16.717 0.422297 16.8096 0.257453 16.9744C0.0926085 17.1393 0 17.3629 0 17.596C0 17.8291 0.0926085 18.0527 0.257453 18.2175C0.422297 18.3824 0.645875 18.475 0.879 18.475H9.328C9.56113 18.475 9.7847 18.3824 9.94955 18.2175C10.1144 18.0527 10.207 17.8291 10.207 17.596C10.207 17.3629 10.1144 17.1393 9.94955 16.9744C9.7847 16.8096 9.56113 16.717 9.328 16.717Z" fill="black"/>
<path d="M23.1002 23.29C22.9847 23.2898 22.8704 23.3125 22.7637 23.3566C22.657 23.4007 22.56 23.4655 22.4784 23.5471C22.3967 23.6288 22.332 23.7257 22.2878 23.8324C22.2437 23.9391 22.2211 24.0535 22.2212 24.169V24.962C22.2212 25.1951 22.3138 25.4187 22.4786 25.5835C22.6435 25.7484 22.8671 25.841 23.1002 25.841C23.3333 25.841 23.5569 25.7484 23.7217 25.5835C23.8866 25.4187 23.9792 25.1951 23.9792 24.962V24.162C23.9773 23.9301 23.8839 23.7083 23.7193 23.545C23.5546 23.3816 23.3321 23.29 23.1002 23.29Z" fill="black"/>
<path d="M48.8922 23.29C48.7767 23.2898 48.6624 23.3125 48.5557 23.3566C48.449 23.4007 48.352 23.4655 48.2704 23.5471C48.1887 23.6288 48.124 23.7257 48.0798 23.8324C48.0357 23.9391 48.0131 24.0535 48.0132 24.169V24.962C48.0092 25.0798 48.029 25.1973 48.0714 25.3074C48.1137 25.4174 48.1778 25.5178 48.2598 25.6026C48.3417 25.6874 48.4399 25.7548 48.5485 25.8008C48.657 25.8469 48.7738 25.8706 48.8917 25.8706C49.0096 25.8706 49.1263 25.8469 49.2349 25.8008C49.3435 25.7548 49.4417 25.6874 49.5236 25.6026C49.6056 25.5178 49.6697 25.4174 49.712 25.3074C49.7544 25.1973 49.7742 25.0798 49.7702 24.962V24.162C49.7686 23.9302 49.6754 23.7084 49.5109 23.545C49.3464 23.3817 49.124 23.29 48.8922 23.29Z" fill="black"/>
<path d="M53.1781 6.694C53.0954 6.5874 52.9892 6.50128 52.8678 6.44231C52.7464 6.38335 52.6131 6.35313 52.4781 6.354H42.2131V0.879C42.2131 0.645874 42.1205 0.422298 41.9557 0.257454C41.7908 0.0926094 41.5672 0 41.3341 0H13.3531C13.1201 0.000264673 12.8967 0.0929586 12.7319 0.257746C12.5671 0.422533 12.4744 0.645956 12.4741 0.879V24.562C12.4741 24.7951 12.5667 25.0187 12.7316 25.1835C12.8964 25.3484 13.12 25.441 13.3531 25.441H17.8151C18.0231 26.6923 18.6684 27.8292 19.6361 28.6494C20.6038 29.4695 21.8311 29.9196 23.0996 29.9196C24.3681 29.9196 25.5954 29.4695 26.5632 28.6494C27.5309 27.8292 28.1761 26.6923 28.3841 25.441H43.6071C43.8151 26.6923 44.4604 27.8292 45.4281 28.6494C46.3958 29.4695 47.6231 29.9196 48.8916 29.9196C50.1601 29.9196 51.3874 29.4695 52.3552 28.6494C53.3229 27.8292 53.9681 26.6923 54.1761 25.441H57.5971C57.7126 25.4411 57.827 25.4185 57.9337 25.3744C58.0404 25.3302 58.1373 25.2655 58.219 25.1838C58.3006 25.1022 58.3654 25.0052 58.4095 24.8985C58.4536 24.7918 58.4762 24.6775 58.4761 24.562V13.83C58.4765 13.6349 58.4118 13.4452 58.2921 13.291L53.1781 6.694ZM56.7181 15.474H48.5311C48.2426 15.4737 47.9661 15.359 47.7621 15.155C47.5581 14.9511 47.4434 14.6745 47.4431 14.386V8.111H52.0521L56.7181 14.13V15.474ZM40.4551 1.762V3.784H14.2321V1.762H40.4551ZM14.2321 5.542H40.4551V8.931H14.2321V5.542ZM14.2321 10.689H40.4551V23.689H28.3851C28.1771 22.4374 27.5317 21.3003 26.5638 20.48C25.5959 19.6597 24.3684 19.2094 23.0996 19.2094C21.8309 19.2094 20.6033 19.6597 19.6354 20.48C18.6675 21.3003 18.0221 22.4374 17.8141 23.689H14.2321V10.689ZM23.1001 28.162C22.3881 28.162 21.6921 27.9509 21.1001 27.5553C20.5081 27.1597 20.0466 26.5975 19.7742 25.9397C19.5017 25.2818 19.4304 24.558 19.5693 23.8597C19.7082 23.1613 20.0511 22.5199 20.5545 22.0164C21.058 21.5129 21.6995 21.1701 22.3978 21.0312C23.0961 20.8923 23.82 20.9636 24.4778 21.236C25.1356 21.5085 25.6978 21.9699 26.0934 22.5619C26.489 23.154 26.7001 23.85 26.7001 24.562C26.7001 25.0348 26.607 25.5029 26.4261 25.9397C26.2452 26.3764 25.98 26.7733 25.6457 27.1076C25.3114 27.4419 24.9146 27.7071 24.4778 27.888C24.041 28.0689 23.5729 28.162 23.1001 28.162ZM48.8921 28.162C48.1801 28.162 47.4841 27.9509 46.8921 27.5553C46.3 27.1597 45.8386 26.5975 45.5662 25.9397C45.2937 25.2818 45.2224 24.558 45.3613 23.8597C45.5002 23.1613 45.8431 22.5199 46.3465 22.0164C46.85 21.5129 47.4915 21.1701 48.1898 21.0312C48.8881 20.8923 49.612 20.9636 50.2698 21.236C50.9276 21.5085 51.4898 21.9699 51.8854 22.5619C52.281 23.154 52.4921 23.85 52.4921 24.562C52.4921 25.5168 52.1128 26.4325 51.4377 27.1076C50.7626 27.7827 49.8469 28.162 48.8921 28.162ZM54.1771 23.683C53.9691 22.4314 53.3237 21.2943 52.3558 20.474C51.3879 19.6537 50.1604 19.2034 48.8916 19.2034C47.6229 19.2034 46.3953 19.6537 45.4274 20.474C44.4595 21.2943 43.8141 22.4314 43.6061 23.683H42.2131V8.111H45.6851V14.386C45.6862 15.1404 45.9864 15.8636 46.5199 16.3969C47.0535 16.9302 47.7767 17.2302 48.5311 17.231H56.7181V23.687L54.1771 23.683Z" fill="black"/>
</svg>
