<svg width="41" height="51" viewBox="0 0 41 51" fill="none" xmlns="http://www.w3.org/2000/svg">
<g clip-path="url(#clip0)">
<path d="M10.5563 20.75V20.6H10.4062H5.28126C5.28126 20.6 5.28126 20.6 5.28125 20.6C4.65582 20.5999 4.15008 20.0956 4.15 19.475C4.15 19.475 4.15 19.475 4.15 19.475V12.4625C4.15 10.5801 5.70514 8.15 8.48438 8.15H32.1875C34.2126 8.15 35.8813 9.81154 35.8813 11.825V33.5V33.65H36.0312H38.5937C39.2192 33.6501 39.7249 34.1544 39.725 34.775V38.6C39.725 41.318 37.4831 43.55 34.75 43.55H14.8906C13.807 43.55 12.7227 43.2024 11.9116 42.4934C11.1036 41.7872 10.5563 40.7137 10.5563 39.2375V20.75ZM10.4062 18.35H10.5563V18.2V12.4625C10.5563 11.2974 9.65341 10.4 8.48438 10.4C7.31534 10.4 6.4125 11.2974 6.4125 12.4625V18.2V18.35H6.5625H10.4062ZM12.5133 10.4H12.2739L12.3783 10.6154C12.6523 11.1809 12.8188 11.8021 12.8188 12.4625V39.2375C12.8188 39.8092 12.999 40.3333 13.3459 40.7162C13.6945 41.101 14.2016 41.3323 14.8312 41.3323C16.0678 41.3323 16.9625 40.2604 16.9625 39.2375V34.775C16.9625 34.4836 17.0411 34.2028 17.2146 33.9974C17.3845 33.7964 17.6601 33.65 18.0938 33.65H33.4688H33.6187V33.5V11.825C33.6187 11.0131 33.0016 10.4 32.1875 10.4H12.5133ZM19.375 35.9H19.225V36.05V39.2375C19.225 39.9099 19.1028 40.459 18.7859 41.082L18.675 41.3H18.9196H34.75C36.2626 41.3 37.4625 40.107 37.4625 38.6V36.05V35.9H37.3125H19.375Z" fill="black" stroke="white" stroke-width="0.3"/>
<path d="M28.1244 16.8311L28.1244 16.8311L28.1255 16.8298C28.3348 16.581 28.6006 16.4419 28.8758 16.4171C29.1503 16.3924 29.447 16.4802 29.7208 16.7085C30.1948 17.1126 30.2498 17.8222 29.8439 18.2939L22.1565 27.2189L22.1564 27.219C21.6853 27.767 20.8248 27.739 20.3905 27.1618L20.3905 27.1617L16.5467 22.0618C16.1723 21.5646 16.2739 20.8593 16.7743 20.4868L16.7743 20.4868C17.2748 20.1135 17.9847 20.2152 18.359 20.7131L18.3591 20.7133L21.2445 24.5408L21.3565 24.6894L21.4779 24.5484L28.1244 16.8311Z" fill="black" stroke="white" stroke-width="0.3"/>
</g>
<defs>
<clipPath id="clip0">
<rect width="41" height="51" fill="white"/>
</clipPath>
</defs>
</svg>
