<svg width="148" height="117" viewBox="0 0 148 117" fill="none" xmlns="http://www.w3.org/2000/svg">
<path d="M139.634 35.2503C139.542 34.3917 138.921 33.6832 138.082 33.4753L106.78 25.7839C106.746 25.7714 106.708 25.7684 106.673 25.7576L106.508 25.7171C106.459 25.7056 106.408 25.7265 106.358 25.7184C106.208 25.6972 106.071 25.6502 105.908 25.6621C105.823 25.6668 105.753 25.709 105.672 25.7235C105.617 25.7333 105.559 25.71 105.505 25.7248L100.078 27.1353C100.084 26.9608 100.13 26.7641 100.13 26.5936C100.13 12.1862 88.4109 0.467529 74.0035 0.467529C59.6957 0.467529 48.0667 12.0327 47.9067 26.3033L42.1443 24.6637C42.0916 24.6485 42.0383 24.6745 41.985 24.6637C41.8864 24.6434 41.7997 24.5941 41.696 24.5884C41.528 24.5793 41.3673 24.6292 41.2043 24.6637C41.1445 24.6755 41.0814 24.6461 41.0227 24.6637L9.84731 33.5432C9.04131 33.7733 8.45774 34.4669 8.36762 35.2979L0.0112927 113.539C-0.0612741 114.23 0.219206 114.908 0.757213 115.346C1.29522 115.784 2.01886 115.922 2.67737 115.709L37.3954 104.564L73.7257 116.265C73.9309 116.33 74.1412 116.363 74.3541 116.363C74.5496 116.363 74.7447 116.335 74.9323 116.28L110.181 105.916L145.4 115.672C146.056 115.85 146.757 115.697 147.275 115.262C147.793 114.821 148.059 114.155 147.989 113.479L139.634 35.2503ZM35.4256 100.89L4.42505 110.84L12.3011 37.108L39.3773 29.3974L35.4256 100.89ZM71.9534 111.385L39.5309 100.944L43.49 29.3113L48.4853 30.7326C51.7811 44.2841 68.7695 64.997 71.9534 68.789V111.385ZM74.0035 64.8438C66.6533 55.9238 51.9779 36.1441 51.9779 26.5933C51.9779 14.449 61.8592 4.56772 74.0035 4.56772C86.1478 4.56772 96.029 14.449 96.029 26.5933C96.029 36.1394 81.3536 55.9214 74.0035 64.8438ZM76.0539 111.675V68.789C79.1719 65.0753 95.5416 45.1258 99.3134 31.5727L104.109 30.3263L108.028 102.273L76.0539 111.675ZM112.131 102.201L108.219 30.3617L135.707 37.1155L143.587 110.915L112.131 102.201Z" fill="white"/>
<path d="M74.0035 15.7009C67.3793 15.7009 61.9918 21.0884 61.9918 27.7099C61.9918 34.3341 67.3793 39.7216 74.0035 39.7216C80.6277 39.7216 86.0152 34.3341 86.0152 27.7099C86.0152 21.0884 80.6277 15.7009 74.0035 15.7009ZM74.0035 35.621C69.6424 35.621 66.0927 32.071 66.0927 27.7102C66.0927 23.3491 69.6427 19.8018 74.0035 19.8018C78.3646 19.8018 81.9143 23.3491 81.9143 27.7102C81.9146 32.0713 78.3646 35.621 74.0035 35.621Z" fill="white"/>
</svg>
