<svg width="75" height="75" viewBox="0 0 75 75" fill="none" xmlns="http://www.w3.org/2000/svg">
<path d="M10.9459 10.9283C3.88812 17.9861 0 27.3705 0 37.3531C0 47.3356 3.88812 56.7215 10.9459 63.7793C18.2322 71.0641 27.8015 74.7072 37.3722 74.7072C46.943 74.7072 56.5122 71.0641 63.7985 63.7793C78.368 49.2083 78.368 25.4978 63.7985 10.9283C49.2274 -3.64426 25.517 -3.64126 10.9459 10.9283ZM62.7359 62.7168C48.751 76.7017 25.9934 76.7017 12.0085 62.7168C5.23325 55.9415 1.50294 46.9343 1.50294 37.3531C1.50294 27.7718 5.23325 18.7661 12.0085 11.9909C19.0002 4.99917 28.1877 1.50182 37.3722 1.50182C46.5567 1.50182 55.7442 4.99917 62.7359 11.9909C76.7208 25.9743 76.7208 48.7304 62.7359 62.7168Z" fill="white"/>
<path d="M51.4984 34.0765L33.0437 23.4206C31.8579 22.7368 30.4452 22.7368 29.2578 23.4206C28.0735 24.1044 27.3656 25.3308 27.3656 26.6985V48.0088C27.3656 49.3764 28.0735 50.6029 29.2578 51.2867C29.8515 51.6294 30.4993 51.7992 31.15 51.7992C31.8008 51.7992 32.4501 51.6294 33.0437 51.2852L51.4984 40.6308C52.6842 39.947 53.3921 38.7206 53.3921 37.3514C53.3891 35.9852 52.6827 34.7588 51.4984 34.0765ZM50.7469 39.3293L32.2923 49.9836C31.5754 50.3939 30.7232 50.3969 30.0093 49.9836C29.2954 49.5718 28.8686 48.8324 28.8686 48.0088V26.6985C28.8686 25.8734 29.2939 25.1355 30.0093 24.7236C30.367 24.5162 30.7593 24.414 31.1515 24.414C31.5438 24.414 31.9346 24.5162 32.2923 24.7221L50.7469 35.378C51.4623 35.7898 51.8877 36.5293 51.8892 37.3529C51.8877 38.178 51.4608 38.916 50.7469 39.3293Z" fill="white"/>
</svg>
