<svg width="177" height="118" viewBox="0 0 177 118" fill="none" xmlns="http://www.w3.org/2000/svg">
<path d="M36.4974 58.2853H9.97051V63.8879H36.4974V102.856H46.1508C47.4651 110.886 54.4319 117.037 62.8268 117.037C71.2216 117.037 78.1884 110.884 79.5028 102.856H133.993C135.307 110.886 142.274 117.037 150.669 117.037C159.063 117.037 166.03 110.884 167.347 102.856H177V51.8371L150.262 25.0988H123.041V0H36.4994V22.3843H17.9505V27.9868H36.4994V40.3348H0V45.9373H36.4994V58.2853H36.4974ZM62.8288 111.435C56.59 111.435 51.512 106.359 51.512 100.118C51.512 93.8772 56.588 88.8012 62.8288 88.8012C69.0696 88.8012 74.1456 93.8772 74.1456 100.118C74.1436 106.359 69.0676 111.435 62.8288 111.435ZM150.671 111.435C144.432 111.435 139.354 106.359 139.354 100.118C139.354 93.8772 144.43 88.8012 150.671 88.8012C156.911 88.8012 161.987 93.8772 161.987 100.118C161.987 106.359 156.911 111.435 150.671 111.435ZM123.041 30.6994H147.942L171.399 54.1567V97.2539H167.329C165.96 89.2878 159.022 83.2006 150.671 83.2006C142.32 83.2006 135.381 89.2878 134.015 97.2539H79.4849C78.1166 89.2878 71.1798 83.2006 62.8288 83.2006C54.4778 83.2006 47.5389 89.2878 46.1727 97.2539H42.1019V80.895H123.043V30.6994H123.041ZM42.0999 40.3348V27.9868H59.835V22.3843H42.0999V5.60056H117.438V75.2924H42.0999V63.8879H63.824V58.2853H42.0999V45.9373H51.857V40.3348H42.0999Z" fill="white"/>
<path d="M162.636 57.9081L144.188 39.4609H131.89V70.2062H162.636V57.9081ZM157.035 64.6036H137.493V45.0615H141.869L157.035 60.2277V64.6036Z" fill="white"/>
</svg>
