<svg width="32" height="32" viewBox="0 0 32 32" fill="none" xmlns="http://www.w3.org/2000/svg">
<path d="M20 4.21875H22V10.5625H20V4.21875Z" fill="#EDF1F7"/>
<path d="M8 3.5C8 3.22386 7.77614 3 7.5 3C7.22386 3 7 3.22386 7 3.5H8ZM7 10.1094C7 10.3855 7.22386 10.6094 7.5 10.6094C7.77614 10.6094 8 10.3855 8 10.1094H7ZM6 3.5C6 3.22386 5.77614 3 5.5 3C5.22386 3 5 3.22386 5 3.5H6ZM5 7.14989C5 7.42604 5.22386 7.64989 5.5 7.64989C5.77614 7.64989 6 7.42604 6 7.14989H5ZM6 9.5C6 9.22386 5.77614 9 5.5 9C5.22386 9 5 9.22386 5 9.5H6ZM5 10.5625C5 10.8386 5.22386 11.0625 5.5 11.0625C5.77614 11.0625 6 10.8386 6 10.5625H5ZM3.49999 2.57617H2.99999V2.57617L3.49999 2.57617ZM23.751 5.57617L24.251 5.58381V5.57617H23.751ZM7 3.5V10.1094H8V3.5H7ZM5 3.5V7.14989H6V3.5H5ZM5 9.5V10.5625H6V9.5H5ZM3.5 11.0625H25.0625V10.0625H3.5V11.0625ZM26.375 12.375V28.6875H27.375V12.375H26.375ZM25.0625 30H3.3125V31H25.0625V30ZM2 28.6875V12.375H1V28.6875H2ZM3.3125 30C2.58763 30 2 29.4124 2 28.6875H1C1 29.9647 2.03534 31 3.3125 31V30ZM26.375 28.6875C26.375 29.4124 25.7874 30 25.0625 30V31C26.3397 31 27.375 29.9647 27.375 28.6875H26.375ZM25.0625 11.0625C25.7874 11.0625 26.375 11.6501 26.375 12.375H27.375C27.375 11.0978 26.3397 10.0625 25.0625 10.0625V11.0625ZM3.5 10.0625C2.86892 10.0625 2.25401 10.3158 1.79538 10.7171C1.33552 11.1194 1 11.7017 1 12.375H2C2 12.0472 2.16398 11.7233 2.45386 11.4697C2.74498 11.215 3.13007 11.0625 3.5 11.0625V10.0625ZM4.57616 2H13.5361V1H4.57616V2ZM4 10.5625L3.99999 2.57617L2.99999 2.57617L3 10.5625L4 10.5625ZM14.1123 2.57617V10.5625H15.1123V2.57617H14.1123ZM4.57616 1C3.70566 1 2.99999 1.70568 2.99999 2.57617H3.99999C3.99999 2.25796 4.25795 2 4.57616 2V1ZM13.5361 2C13.8543 2 14.1123 2.25796 14.1123 2.57617H15.1123C15.1123 1.70568 14.4066 1 13.5361 1V2ZM22.6748 4H14.7168V5H22.6748V4ZM24.1748 10.5701L24.2509 5.58381L23.251 5.56853L23.1749 10.5549L24.1748 10.5701ZM22.6748 5C22.993 5 23.251 5.25796 23.251 5.57617H24.251C24.251 4.70568 23.5453 4 22.6748 4V5Z" fill="#EDF1F7"/>
<path d="M12.4063 3C12.7342 3 13 3.26583 13 3.59375V6.17285C13 6.50077 12.7342 6.7666 12.4062 6.7666H10.9033C10.5754 6.7666 10.3096 6.50077 10.3096 6.17285L10.3096 3.59375C10.3096 3.26583 10.5754 3 10.9033 3L12.4063 3Z" fill="#EDF1F7"/>
<path fill-rule="evenodd" clip-rule="evenodd" d="M24 17C22.8954 17 22 17.8955 22 19V21C22 22.1046 22.8954 23 24 23H29C30.1046 23 31 22.1046 31 21V19C31 17.8955 30.1046 17 29 17H24ZM25 19C24.4477 19 24 19.4477 24 20C24 20.5523 24.4477 21 25 21C25.5523 21 26 20.5523 26 20C26 19.4477 25.5523 19 25 19Z" fill="#EDF1F7"/>
</svg>
