<svg width="45" height="29" viewBox="0 0 45 29" fill="none" xmlns="http://www.w3.org/2000/svg">
<g clip-path="url(#clip0)">
<path d="M8.11475 20.3288C8.11475 18.7493 8.48361 17.098 9.29508 15.4467C8.18853 15.6621 7.30328 16.0929 6.27049 16.739V14.3698C6.27049 14.3698 5.90164 10.9954 9.22131 10.9954H10.3279V8.12364C10.3279 7.62108 10.3279 7.11851 10.4016 6.68774H7.67213C3.09836 6.68774 1.62295 10.4211 1.47541 12.3595V12.4313V17.1698C0.516393 18.6775 0 20.4006 0 22.1236C0 25.5698 1.91803 27.3647 3.7623 28.7288C3.98361 28.8724 4.20492 28.9442 4.42623 28.9442H11.6557C9.29508 26.6467 8.11475 23.7031 8.11475 20.3288Z" fill="#3E516F"/>
<path d="M43.5246 17.1698V12.4313V12.3595C43.377 10.4211 41.9016 6.68774 37.3278 6.68774H34.5983C34.5983 6.75954 34.5983 6.75954 34.5983 6.83133C34.6721 7.19031 34.6721 7.54928 34.6721 7.83646C34.6721 7.98005 34.6721 8.05185 34.6721 8.12364V10.9236H35.7787C39.0983 10.9236 38.7295 14.298 38.7295 14.298V16.739C37.6967 16.0929 36.8114 15.5903 35.6311 15.4467C36.2951 16.8108 36.8115 18.4621 36.8852 20.257V20.3288C36.8852 23.7031 35.7049 26.6467 33.3442 28.9442H40.5737C40.7951 28.9442 41.0164 28.8724 41.2377 28.7288C43.0819 27.3647 45 25.5698 45 22.1236C45 20.4006 44.4836 18.6057 43.5246 17.1698Z" fill="#3E516F"/>
<path fill-rule="evenodd" clip-rule="evenodd" d="M19.5489 0.944214H19.6227H25.4506C27.1473 0.944214 28.5489 1.30319 29.6555 2.02114C30.6145 2.66729 31.2785 3.52883 31.7948 4.60575C32.1637 5.3955 32.385 6.18524 32.4588 7.04678V7.90832V8.1237V8.1955V13.9391C32.4588 14.1545 32.4588 14.3699 32.6063 14.5134C33.8604 16.4519 34.5981 18.4622 34.6719 20.3288C34.6719 23.8468 33.1965 26.575 30.1719 28.7288C29.9506 28.8724 29.7293 28.9442 29.508 28.9442H15.4916C15.2703 28.9442 15.0489 28.8724 14.8276 28.7288C11.803 26.575 10.3276 23.8468 10.3276 20.3288C10.3276 18.4622 10.9916 16.5237 12.3932 14.5134C12.467 14.3699 12.5408 14.1545 12.5408 13.9391V8.1237C12.5408 6.47242 12.9096 5.10832 13.6473 3.8878C14.3112 3.02627 15.1227 2.23652 16.1555 1.73396C16.8194 1.37498 17.6309 1.1596 18.5162 1.01601C18.885 0.944214 19.1063 0.944214 19.3276 0.944214H19.5489ZM28.0326 11.7134V9.05703C28.0326 9.05703 27.9588 5.96985 24.7129 5.96985H20.2867C20.2867 5.96985 16.967 5.96985 16.967 8.98524V11.7134C18.5899 10.7083 20.4342 10.2775 22.4998 10.2775C24.4916 10.2775 26.4096 10.7083 28.0326 11.7134ZM23.6805 18.175L22.5002 14.5852L21.3198 18.175H17.7051L20.5821 20.3288L19.4756 23.9186L22.4264 21.6929L25.451 23.9186L24.3444 20.3288L27.2952 18.175H23.6805Z" fill="#3E516F"/>
</g>
<defs>
<clipPath id="clip0">
<rect width="45" height="28" fill="white" transform="translate(0 0.944214)"/>
</clipPath>
</defs>
</svg>
