<svg width="48" height="51" viewBox="0 0 48 51" fill="none" xmlns="http://www.w3.org/2000/svg">
<path d="M24.5184 42.8378C14.6532 43.1157 6.42323 35.3561 6.14534 25.4908C5.85675 15.6256 13.6271 7.40639 23.4923 7.11781C33.3575 6.83992 41.5768 14.5996 41.8653 24.4648C42.1432 34.33 34.3729 42.5599 24.5184 42.8378ZM47.9897 24.2938C47.6156 11.0404 36.564 0.60869 23.3106 0.993465C10.0679 1.37824 -0.374475 12.4192 0.0103011 25.6725C0.395077 38.9259 11.436 49.3576 24.6894 48.9728C37.9428 48.5988 48.3745 37.5471 47.9897 24.2938Z" fill="#0066B3"/>
<path d="M23.9952 42.421C14.5041 42.421 6.85133 34.982 6.58413 25.4908C6.30623 15.8715 13.8949 7.83392 23.5036 7.55603C23.6746 7.55603 23.8456 7.54534 24.0166 7.54534C33.5077 7.54534 41.1605 14.9843 41.4277 24.4755C41.5666 29.1248 39.8779 33.5604 36.6821 36.9379C33.4864 40.3261 29.1576 42.2607 24.5083 42.3996C24.3372 42.4103 24.1555 42.421 23.9952 42.421ZM23.9952 42.8485C24.1662 42.8485 24.3372 42.8485 24.5189 42.8378C34.3735 42.5599 42.1438 34.33 41.8659 24.4648C41.588 14.7813 33.6467 7.10712 24.0166 7.11781C23.8456 7.11781 23.6746 7.11781 23.4929 7.11781C13.6277 7.40639 5.86802 15.6256 6.14591 25.4908C6.4238 35.1851 14.3651 42.8485 23.9952 42.8485Z" fill="white"/>
<path d="M24.0041 7.9837C23.8438 7.9837 23.6728 7.9837 23.5124 7.99439C14.1389 8.2616 6.74264 16.1067 7.00984 25.4696C7.27705 34.7256 14.7374 41.9829 23.9934 41.9829C24.1537 41.9829 24.3248 41.9829 24.4851 41.9722C29.0169 41.844 33.2387 39.9521 36.3597 36.6495C39.4806 33.3468 41.1266 29.0288 40.9877 24.497C40.7205 15.241 33.2601 7.9837 24.0041 7.9837ZM23.9934 43.2869C19.2158 43.2869 14.6947 41.4485 11.2638 38.1245C7.82215 34.7897 5.84483 30.3114 5.71657 25.5124C5.57762 20.6279 7.35187 15.9785 10.6973 12.43C14.0534 8.87082 18.5959 6.84006 23.4804 6.70112C23.6621 6.69043 23.8331 6.69043 24.0148 6.69043C28.7924 6.69043 33.3135 8.5288 36.7445 11.8528C40.1861 15.1876 42.1527 19.6659 42.2916 24.4649C42.4306 29.3494 40.667 33.9988 37.3109 37.558C33.9548 41.1065 29.4123 43.1479 24.5278 43.2869C24.3461 43.2762 24.1644 43.2869 23.9934 43.2869Z" fill="#0066B3"/>
<path d="M40.946 38.6054L40.1871 37.4297L39.6313 38.1244L40.946 38.6054ZM38.2632 38.3061C38.2098 38.2847 38.1563 38.2633 38.135 38.2527C38.1029 38.2313 38.0922 38.2099 38.0815 38.1885C38.0815 38.1672 38.0922 38.1351 38.1136 38.0923C38.1456 38.0496 38.1777 38.0068 38.2312 37.9427C38.2846 37.8786 38.3273 37.8251 38.3594 37.7931C38.3915 37.761 38.4129 37.7396 38.4342 37.7182C38.4556 37.6969 38.477 37.6969 38.4877 37.6969C38.4984 37.6969 38.5197 37.7076 38.5411 37.7076L39.161 37.932L39.8878 37.0128L39.5351 36.4784C39.5244 36.457 39.5137 36.4357 39.5031 36.425C39.5031 36.4036 39.5031 36.3822 39.5031 36.3608C39.5137 36.3395 39.5244 36.3074 39.5565 36.2753C39.5779 36.2433 39.6099 36.1898 39.6527 36.1364C39.6954 36.083 39.7382 36.0295 39.7703 36.0081C39.8023 35.9761 39.8237 35.9654 39.8558 35.9654C39.8771 35.9654 39.9092 35.9761 39.9306 35.9974C39.952 36.0188 39.984 36.0616 40.0161 36.115L41.5873 38.5947C41.5979 38.6161 41.6086 38.6374 41.6193 38.6588C41.6193 38.6802 41.6193 38.7016 41.6086 38.7336C41.5979 38.755 41.5766 38.7978 41.5445 38.8298C41.5124 38.8726 41.4804 38.926 41.4269 38.9901C41.3628 39.065 41.32 39.1291 41.288 39.1612C41.2452 39.2039 41.2132 39.236 41.1918 39.2574C41.1597 39.2787 41.1383 39.2787 41.117 39.2787C41.0956 39.2787 41.0635 39.2787 41.0422 39.268L38.2632 38.3061ZM41.1704 35.4951C41.2345 35.5272 41.288 35.5485 41.3521 35.5592C41.4162 35.5699 41.4697 35.5592 41.5231 35.5378C41.5766 35.5165 41.63 35.4844 41.6834 35.431C41.7369 35.3882 41.7903 35.3134 41.8438 35.2065L42.0468 34.8538L41.2666 34.4156L41.0635 34.779C41.0101 34.8645 40.978 34.95 40.9673 35.0141C40.9566 35.0783 40.946 35.1424 40.9566 35.2065C40.9673 35.26 40.9887 35.3241 41.0315 35.3668C41.0528 35.4203 41.1063 35.463 41.1704 35.4951ZM40.8925 36.083C40.7643 36.0081 40.6681 35.9333 40.5932 35.8264C40.5184 35.7302 40.465 35.6127 40.4329 35.4844C40.4115 35.3562 40.4115 35.2172 40.4436 35.0676C40.4757 34.9179 40.5505 34.7362 40.6681 34.5225L41.0742 33.8064C41.0956 33.7529 41.1383 33.7209 41.1811 33.7102C41.2239 33.6888 41.2773 33.6995 41.3414 33.7422L43.7035 35.0676C43.7676 35.0996 43.7997 35.1424 43.8104 35.1958C43.8211 35.2493 43.8104 35.292 43.789 35.3348L42.9233 36.8739C42.9126 36.8846 42.9019 36.8953 42.8912 36.9059C42.8805 36.9059 42.8591 36.9166 42.8378 36.9166C42.8164 36.9166 42.7843 36.9059 42.763 36.8953C42.7309 36.8846 42.6988 36.8632 42.6561 36.8418C42.6133 36.8204 42.5813 36.7991 42.5599 36.7777C42.5385 36.7563 42.5171 36.7349 42.4958 36.7242C42.4851 36.7029 42.4744 36.6922 42.4744 36.6815C42.4744 36.6601 42.4744 36.6494 42.4851 36.6387L43.137 35.4844L42.4637 35.0996L42.2072 35.5485C42.111 35.7196 42.0148 35.8585 41.9186 35.9547C41.8224 36.0509 41.7155 36.115 41.6086 36.1578C41.5017 36.2005 41.3842 36.2112 41.2666 36.2005C41.1277 36.1898 41.0101 36.1471 40.8925 36.083ZM41.5979 33.0582C41.5766 33.0475 41.5659 33.0475 41.5552 33.0261C41.5445 33.0154 41.5445 32.9941 41.5445 32.9727C41.5445 32.9513 41.5445 32.9086 41.5552 32.8765C41.5659 32.8337 41.5766 32.7803 41.6086 32.7162C41.63 32.652 41.6514 32.5986 41.6621 32.5558C41.6728 32.5131 41.6941 32.4917 41.7155 32.4596C41.7262 32.4383 41.7476 32.4276 41.769 32.4169C41.7903 32.4062 41.8117 32.4062 41.8331 32.4062L42.5706 32.4169C42.6774 32.4169 42.763 32.4169 42.8378 32.4062C42.9126 32.3955 42.9767 32.3741 43.0302 32.3421C43.0836 32.31 43.1264 32.2779 43.1584 32.2245C43.1905 32.1711 43.2225 32.1176 43.2439 32.0428L43.2867 31.9252L42.1003 31.5298C42.0789 31.5191 42.0682 31.5191 42.0682 31.4977C42.0575 31.487 42.0468 31.4656 42.0468 31.4443C42.0468 31.4229 42.0468 31.3908 42.0575 31.3481C42.0682 31.3053 42.0789 31.2626 42.1003 31.1984C42.1217 31.1343 42.143 31.0916 42.1537 31.0595C42.1644 31.0167 42.1858 30.9954 42.2072 30.974C42.2179 30.9526 42.2392 30.9419 42.2499 30.9419C42.2606 30.9419 42.282 30.9419 42.3034 30.9419L43.4898 31.3374L43.5325 31.2198C43.5539 31.145 43.5646 31.0809 43.5646 31.0167C43.5646 30.9526 43.5539 30.8885 43.5325 30.835C43.5004 30.7816 43.4684 30.7175 43.4149 30.6747C43.3615 30.6213 43.2974 30.5678 43.2225 30.5144L42.624 30.0762C42.6026 30.0655 42.5919 30.0441 42.5813 30.0334C42.5706 30.012 42.5706 29.9907 42.5706 29.9693C42.5706 29.9372 42.5706 29.9052 42.5813 29.8624C42.5919 29.8197 42.6026 29.7662 42.624 29.7021C42.6454 29.638 42.6668 29.5845 42.6881 29.5525C42.6988 29.5097 42.7202 29.4883 42.7309 29.4669C42.7523 29.4456 42.763 29.4349 42.7736 29.4242C42.7843 29.4242 42.8057 29.4242 42.8164 29.4242C42.8271 29.4242 42.8378 29.4349 42.8485 29.4349C42.8591 29.4349 42.8698 29.4456 42.8805 29.4563C42.8912 29.4669 42.9126 29.4776 42.9233 29.4883C42.9447 29.499 42.966 29.5204 42.9874 29.5418L43.5111 29.9479C43.6073 30.0227 43.6928 30.0869 43.7463 30.151C43.8104 30.2151 43.8638 30.2686 43.8959 30.3327C43.928 30.3968 43.96 30.4503 43.9707 30.5144C43.9921 30.5785 43.9921 30.6427 44.0028 30.7068C44.0349 30.664 44.0776 30.6213 44.1204 30.5785C44.1631 30.5358 44.2165 30.5144 44.2807 30.493C44.3448 30.4716 44.4196 30.4503 44.4944 30.4396C44.5799 30.4289 44.6761 30.4182 44.7937 30.4182H45.3816C45.435 30.4182 45.4778 30.4182 45.5098 30.4289C45.5419 30.4289 45.5633 30.4396 45.5846 30.4396C45.606 30.4503 45.6167 30.4503 45.6274 30.4716C45.6381 30.4823 45.6381 30.5037 45.6381 30.5251C45.6381 30.5465 45.6274 30.5785 45.6274 30.6213C45.6167 30.664 45.606 30.7175 45.5846 30.7709C45.5633 30.835 45.5419 30.8885 45.5205 30.9205C45.5098 30.9633 45.4884 30.9954 45.4671 31.006C45.4564 31.0274 45.435 31.0381 45.4136 31.0488C45.3923 31.0488 45.3816 31.0595 45.3495 31.0595L44.6655 31.0381C44.5693 31.0381 44.4944 31.0381 44.4196 31.0488C44.3448 31.0595 44.2914 31.0809 44.2379 31.1022C44.1845 31.1343 44.1417 31.1664 44.1097 31.2198C44.0776 31.2626 44.0455 31.3267 44.0242 31.4015L43.9921 31.5191L45.1037 31.8718C45.125 31.8825 45.1357 31.8932 45.1464 31.9039C45.1571 31.9145 45.1571 31.9359 45.1571 31.9573C45.1571 31.9787 45.1571 32.0107 45.1464 32.0535C45.1357 32.0856 45.125 32.139 45.1037 32.1924C45.093 32.2459 45.0609 32.2993 45.0502 32.3314C45.0289 32.3635 45.0182 32.3955 44.9968 32.4169C44.9861 32.4383 44.9647 32.449 44.954 32.4596C44.9434 32.4703 44.922 32.4703 44.9113 32.4596L43.7997 32.0856L43.757 32.2031C43.7356 32.2779 43.7249 32.3421 43.7249 32.3955C43.7249 32.449 43.7356 32.5131 43.7676 32.5665C43.789 32.62 43.8318 32.6734 43.8745 32.7269C43.928 32.7803 43.9814 32.823 44.0669 32.8765L44.6227 33.2719C44.6441 33.2826 44.6548 33.304 44.6655 33.3147C44.6761 33.3254 44.6868 33.3468 44.6868 33.3788C44.6868 33.4002 44.6868 33.4323 44.6761 33.475C44.6655 33.5178 44.6548 33.5712 44.6334 33.6353C44.612 33.6995 44.5906 33.7422 44.58 33.7743C44.5693 33.817 44.5479 33.8384 44.5372 33.8598C44.5265 33.8812 44.5051 33.8919 44.4944 33.9026C44.4838 33.9026 44.4624 33.9026 44.4517 33.9026C44.4303 33.8919 44.4089 33.8812 44.3769 33.8705C44.3555 33.8598 44.3127 33.8277 44.27 33.7957L43.8104 33.443C43.7249 33.3788 43.6501 33.3147 43.5966 33.2613C43.5432 33.1971 43.4898 33.1437 43.4577 33.0903C43.4256 33.0368 43.3936 32.9834 43.3829 32.9299C43.3615 32.8765 43.3615 32.8124 43.3508 32.7482C43.2974 32.8017 43.2546 32.8551 43.2012 32.8872C43.1477 32.9299 43.0943 32.962 43.0195 32.9834C42.9553 33.0154 42.8805 33.0261 42.795 33.0368C42.7095 33.0475 42.6026 33.0582 42.4744 33.0582L41.8117 33.0689C41.7796 33.0689 41.7583 33.0689 41.7369 33.0689C41.7155 33.0689 41.6941 33.0689 41.6834 33.0689C41.6621 33.0689 41.6514 33.0689 41.6407 33.0689C41.6086 33.0582 41.6086 33.0582 41.5979 33.0582ZM43.7249 28.2699C43.5539 28.1737 43.4149 28.0882 43.3081 28.0027C43.2012 27.9172 43.1157 27.8316 43.0622 27.7461C42.9981 27.6606 42.966 27.5644 42.9553 27.4789C42.9447 27.3827 42.9447 27.2759 42.9553 27.1583C42.9553 27.1155 42.966 27.0728 42.9767 27.03C42.9874 26.9873 42.9981 26.9552 43.0195 26.9125C43.0302 26.8804 43.0515 26.8483 43.0622 26.8163C43.0729 26.7949 43.0943 26.7735 43.105 26.7628C43.1157 26.7521 43.1264 26.7415 43.1477 26.7415C43.1584 26.7415 43.1798 26.7308 43.2012 26.7308C43.2225 26.7308 43.2546 26.7308 43.2867 26.7308C43.3187 26.7308 43.3615 26.7415 43.4149 26.7415C43.5111 26.7521 43.5753 26.7735 43.6073 26.7842C43.6394 26.8056 43.6608 26.827 43.6608 26.859C43.6608 26.8697 43.6501 26.8911 43.6394 26.9018C43.6287 26.9125 43.6073 26.9338 43.5966 26.9552C43.5859 26.9766 43.5646 27.0087 43.5539 27.0407C43.5432 27.0728 43.5325 27.1049 43.5218 27.1583C43.5111 27.1904 43.5111 27.2224 43.5218 27.2545C43.5218 27.2866 43.5325 27.3079 43.5539 27.34C43.5646 27.3721 43.5966 27.3934 43.6287 27.4255C43.6608 27.4576 43.7035 27.4896 43.7676 27.5324L45.9801 26.7842C46.0336 26.7735 46.0763 26.7628 46.1084 26.7628C46.1404 26.7628 46.1618 26.7735 46.1832 26.7949C46.1939 26.8163 46.2046 26.8483 46.2046 26.8911C46.2046 26.9338 46.1939 26.998 46.1832 27.0728C46.1725 27.1476 46.1618 27.201 46.1511 27.2545C46.1404 27.2972 46.1297 27.3293 46.1191 27.3614C46.1084 27.3827 46.087 27.4041 46.0656 27.4148C46.0442 27.4255 46.0122 27.4362 45.9801 27.4469L44.9861 27.7568C44.8792 27.7889 44.7723 27.821 44.6655 27.853C44.5586 27.8851 44.4517 27.9065 44.3448 27.9385V27.9492C44.441 27.992 44.5479 28.0454 44.6441 28.0989C44.7403 28.1523 44.8472 28.2057 44.9434 28.2592L45.8412 28.7401C45.8625 28.7508 45.8839 28.7615 45.8946 28.7829C45.9053 28.7936 45.916 28.815 45.916 28.847C45.916 28.8791 45.9267 28.9112 45.916 28.9539C45.916 28.9967 45.9053 29.0608 45.8946 29.1249C45.8839 29.1997 45.8732 29.2532 45.8625 29.2959C45.8518 29.3387 45.8412 29.3708 45.8198 29.3814C45.7984 29.4028 45.777 29.4028 45.7557 29.4028C45.7343 29.3921 45.7022 29.3814 45.6595 29.3601L43.7249 28.2699ZM43.2119 25.7581C43.2012 25.7581 43.1798 25.7581 43.1691 25.7474C43.1584 25.7368 43.1477 25.7261 43.137 25.694C43.1264 25.6726 43.1264 25.6406 43.1157 25.5978C43.105 25.5551 43.105 25.5123 43.105 25.4482C43.105 25.384 43.105 25.3306 43.105 25.2985C43.105 25.2558 43.1157 25.2237 43.1157 25.2024C43.1264 25.181 43.1264 25.1596 43.1477 25.1489C43.1691 25.1382 43.1691 25.1382 43.1905 25.1382L45.7022 25.0634L45.6808 24.39C45.3067 24.358 44.9861 24.3259 44.7082 24.2832C44.4303 24.2404 44.1952 24.2083 43.9921 24.1549C43.7997 24.1122 43.6287 24.0587 43.5004 23.9946C43.3722 23.9305 43.276 23.8663 43.2012 23.7808C43.1264 23.706 43.0729 23.6098 43.0409 23.5136C43.0088 23.4067 42.9874 23.2998 42.9874 23.1609C42.9874 23.1395 42.9874 23.1181 42.9981 23.0968C43.0088 23.0754 43.0195 23.0647 43.0302 23.054C43.0515 23.0433 43.0729 23.0326 43.105 23.0326C43.137 23.022 43.1798 23.022 43.2225 23.022C43.2974 23.022 43.3508 23.022 43.3936 23.022C43.4363 23.022 43.4684 23.0326 43.4898 23.0326C43.5111 23.0433 43.5325 23.0433 43.5432 23.0647C43.5539 23.0754 43.5539 23.0968 43.5539 23.1075C43.5539 23.1609 43.5646 23.2037 43.5859 23.2464C43.6073 23.2892 43.6501 23.3319 43.7035 23.3747C43.7676 23.4174 43.8532 23.4602 43.96 23.4922C44.0669 23.5243 44.2165 23.5671 44.3876 23.5991C44.5693 23.6312 44.783 23.6632 45.0289 23.6953C45.2854 23.7274 45.5846 23.7488 45.9374 23.7808C46.0122 23.7915 46.0763 23.8022 46.1084 23.8343C46.1404 23.8663 46.1618 23.9091 46.1618 23.9625L46.2046 25.4909C46.2046 25.5444 46.1939 25.5978 46.1618 25.6299C46.1297 25.6619 46.0763 25.6833 46.0122 25.6833L43.2119 25.7581ZM43.4363 22.5624C43.3936 22.573 43.3615 22.573 43.3401 22.573C43.3081 22.573 43.2867 22.5837 43.2653 22.573C43.2439 22.573 43.2225 22.573 43.2119 22.5624C43.2012 22.5517 43.1798 22.5517 43.1584 22.5303C43.137 22.5196 43.105 22.4875 43.0729 22.4448C43.0408 22.402 42.9981 22.3486 42.9553 22.2845C42.9126 22.2203 42.8805 22.1348 42.8378 22.0493C42.8057 21.9638 42.7736 21.8569 42.7523 21.7501C42.7095 21.547 42.7095 21.3439 42.7416 21.1622C42.7736 20.9805 42.8378 20.8202 42.9447 20.6812C43.0515 20.5423 43.1905 20.414 43.3722 20.3178C43.5539 20.2216 43.7676 20.1361 44.0242 20.0934C44.2807 20.0399 44.5158 20.0293 44.7403 20.0613C44.954 20.0934 45.1464 20.1575 45.3067 20.2537C45.4671 20.3499 45.5953 20.4782 45.7022 20.6492C45.8091 20.8095 45.8839 20.9912 45.9267 21.205C45.9374 21.2905 45.948 21.376 45.948 21.4615C45.948 21.547 45.948 21.6218 45.9374 21.6966C45.9267 21.7607 45.916 21.8356 45.8946 21.889C45.8732 21.9531 45.8518 21.9852 45.8412 22.0173C45.8198 22.0386 45.8091 22.06 45.7984 22.0707C45.7877 22.0814 45.7663 22.0921 45.745 22.1028C45.7236 22.1135 45.7022 22.1241 45.6701 22.1241C45.6381 22.1348 45.606 22.1455 45.5633 22.1455C45.5098 22.1562 45.4778 22.1562 45.435 22.1669C45.4029 22.1669 45.3709 22.1669 45.3495 22.1669C45.3281 22.1669 45.3067 22.1562 45.2961 22.1455C45.2854 22.1348 45.2747 22.1241 45.2747 22.1135C45.2747 22.0921 45.2747 22.06 45.2961 22.0173C45.3174 21.9745 45.3388 21.9211 45.3602 21.8569C45.3816 21.7928 45.4029 21.718 45.4136 21.6325C45.4243 21.547 45.4243 21.4508 45.4029 21.3332C45.3816 21.2156 45.3281 21.1088 45.264 21.0233C45.1999 20.9378 45.1144 20.8736 45.0075 20.8202C44.9006 20.7667 44.783 20.7454 44.6441 20.7347C44.5051 20.724 44.3555 20.7347 44.1845 20.7667C44.0028 20.7988 43.8532 20.8522 43.7249 20.9164C43.5966 20.9805 43.5004 21.0553 43.4363 21.1408C43.3615 21.2263 43.3187 21.3225 43.2974 21.4294C43.276 21.5363 43.276 21.6432 43.2974 21.7714C43.3187 21.8783 43.3508 21.9745 43.3936 22.0493C43.4363 22.1241 43.4791 22.1883 43.5218 22.2417C43.5646 22.2952 43.5966 22.3379 43.6394 22.37C43.6715 22.402 43.6928 22.4341 43.6928 22.4448C43.6928 22.4662 43.6928 22.4769 43.6928 22.4875C43.6928 22.4982 43.6715 22.5089 43.6608 22.5196C43.6394 22.5303 43.618 22.541 43.5859 22.5517C43.5432 22.5303 43.5004 22.5517 43.4363 22.5624ZM43.3187 15.1554L43.1691 14.8668C43.105 14.7493 43.0408 14.6638 42.9981 14.6103C42.9447 14.5569 42.8912 14.5248 42.8378 14.5034C42.7843 14.4821 42.7309 14.4821 42.6668 14.4928C42.6026 14.5034 42.5492 14.5248 42.4851 14.5569C42.4209 14.589 42.3782 14.6317 42.3354 14.6745C42.3034 14.7172 42.2713 14.7707 42.2606 14.8241C42.2499 14.8775 42.2392 14.9417 42.2606 15.0165C42.2713 15.0913 42.314 15.1768 42.3675 15.2837L42.5278 15.583L43.3187 15.1554ZM41.3842 16.9297C41.3735 16.9404 41.3521 16.9404 41.3414 16.9404C41.3307 16.9404 41.3094 16.9297 41.288 16.9083C41.2666 16.8869 41.2559 16.8655 41.2239 16.8335C41.2025 16.8014 41.1704 16.7587 41.149 16.7052C41.117 16.6518 41.0956 16.609 41.0849 16.5663C41.0635 16.5235 41.0635 16.5021 41.0528 16.4701C41.0528 16.438 41.0528 16.4273 41.0528 16.406C41.0528 16.3953 41.0635 16.3846 41.0849 16.3739L42.111 15.8181L41.9934 15.615C41.9506 15.5295 41.9079 15.4654 41.8651 15.4333C41.8224 15.4013 41.7796 15.3692 41.7262 15.3585C41.6728 15.3478 41.6086 15.3371 41.5445 15.3371C41.4804 15.3371 41.4056 15.3478 41.32 15.3585L40.6146 15.4761C40.5932 15.4761 40.5719 15.4761 40.5612 15.4761C40.5398 15.4761 40.5184 15.4547 40.5077 15.444C40.4864 15.4226 40.465 15.4013 40.4436 15.3585C40.4222 15.3264 40.3902 15.273 40.3581 15.2089C40.326 15.1447 40.294 15.0913 40.2833 15.0485C40.2726 15.0058 40.2619 14.9737 40.2512 14.9524C40.2512 14.931 40.2512 14.9096 40.2619 14.8989C40.2726 14.8882 40.2726 14.8775 40.2833 14.8775C40.294 14.8668 40.3154 14.8668 40.3367 14.8562C40.3581 14.8455 40.4009 14.8455 40.4436 14.8348L41.0956 14.7493C41.1811 14.7386 41.2559 14.7279 41.3307 14.7279C41.3949 14.7279 41.459 14.7386 41.5231 14.7493C41.5872 14.76 41.6407 14.7813 41.6834 14.8027C41.7369 14.8241 41.7796 14.8562 41.8224 14.8989C41.801 14.8027 41.7903 14.7065 41.7903 14.6103C41.7903 14.5248 41.8117 14.4393 41.8438 14.3645C41.8758 14.2897 41.9186 14.2149 41.9827 14.1507C42.0468 14.0866 42.1217 14.0332 42.2072 13.9797C42.3354 13.9156 42.453 13.8728 42.5813 13.8622C42.7095 13.8515 42.8271 13.8728 42.9447 13.9156C43.0622 13.9584 43.1691 14.0439 43.2867 14.14C43.3936 14.2469 43.5111 14.4073 43.6287 14.6317L43.9921 15.3051C44.0242 15.3478 44.0242 15.4013 44.0135 15.444C44.0028 15.4868 43.96 15.5295 43.8959 15.5616L41.3842 16.9297ZM41.0528 11.8207L39.7275 12.2803L40.2726 12.975L41.0528 11.8207ZM40.123 14.3538C40.0909 14.4073 40.0588 14.4393 40.0375 14.4714C40.0161 14.4928 39.9947 14.5034 39.9626 14.5034C39.9413 14.5034 39.9092 14.4821 39.8771 14.45C39.8451 14.4179 39.8023 14.3645 39.7596 14.3111C39.7061 14.2469 39.6741 14.1935 39.642 14.1614C39.6206 14.1187 39.5992 14.0973 39.5886 14.0759C39.5779 14.0545 39.5779 14.0332 39.5779 14.0118C39.5779 14.0011 39.5886 13.9797 39.5992 13.9584L39.9626 13.4026L39.2465 12.4834L38.6373 12.6971C38.6159 12.7078 38.5946 12.7078 38.5732 12.7078C38.5518 12.7078 38.5304 12.6971 38.5197 12.6865C38.4984 12.6758 38.477 12.6544 38.4449 12.6223C38.4129 12.5903 38.3808 12.5475 38.338 12.4941C38.2953 12.4406 38.2632 12.3872 38.2418 12.3551C38.2205 12.3231 38.2098 12.291 38.2205 12.2589C38.2205 12.2375 38.2418 12.2162 38.2739 12.1948C38.306 12.1734 38.3487 12.1627 38.4022 12.1414L41.1811 11.2008C41.2132 11.1901 41.2345 11.1901 41.2559 11.1901C41.2773 11.1901 41.2987 11.2008 41.32 11.2115C41.3414 11.2329 41.3735 11.2542 41.4056 11.297C41.4376 11.3397 41.4804 11.3825 41.5338 11.4466C41.5979 11.5214 41.6407 11.5856 41.6728 11.6283C41.7048 11.6711 41.7262 11.7138 41.7369 11.7459C41.7476 11.778 41.7476 11.7993 41.7476 11.8207C41.7476 11.8421 41.7369 11.8635 41.7155 11.8955L40.123 14.3538ZM38.8404 9.75788C38.8831 9.71513 38.9152 9.66169 38.9366 9.61894C38.958 9.5655 38.9686 9.52274 38.958 9.4693C38.9473 9.41586 38.9366 9.36242 38.9045 9.31967C38.8724 9.26622 38.819 9.2021 38.7549 9.13797L38.5197 8.91351L37.9639 9.50137L38.2205 9.74719C38.2846 9.81132 38.3487 9.85408 38.4022 9.87545C38.4556 9.89683 38.509 9.90752 38.5625 9.90752C38.6159 9.90752 38.6587 9.88614 38.7121 9.86476C38.7549 9.8327 38.7976 9.80064 38.8404 9.75788ZM38.0388 10.8481C38.0922 10.7946 38.1243 10.7412 38.1456 10.6878C38.167 10.6343 38.1777 10.5702 38.167 10.5061C38.1563 10.4419 38.135 10.3885 38.0922 10.3137C38.0495 10.2495 37.996 10.1747 37.9105 10.0999L37.6433 9.84339L37.0341 10.4954L37.3654 10.8053C37.4295 10.8695 37.4937 10.9122 37.5471 10.9336C37.6005 10.9657 37.6647 10.9763 37.7181 10.9763C37.7716 10.9763 37.8357 10.9657 37.8891 10.9443C37.9426 10.9336 37.996 10.8908 38.0388 10.8481ZM38.5411 11.2756C38.4663 11.3611 38.3808 11.4146 38.306 11.468C38.2205 11.5107 38.135 11.5428 38.0495 11.5535C37.9639 11.5642 37.8784 11.5642 37.7822 11.5535C37.6967 11.5428 37.6112 11.5107 37.515 11.4787C37.4295 11.4359 37.344 11.3932 37.2585 11.3291C37.173 11.2649 37.0875 11.2008 36.9913 11.1153L36.3928 10.5488C36.35 10.5167 36.3287 10.474 36.3287 10.4206C36.318 10.3778 36.3393 10.3244 36.3928 10.2709L38.2525 8.28291C38.2953 8.22947 38.3487 8.20809 38.3915 8.20809C38.4449 8.20809 38.477 8.22947 38.5197 8.26153L39.0969 8.79594C39.2358 8.9242 39.3427 9.05246 39.4175 9.15934C39.4924 9.27691 39.5458 9.38379 39.5672 9.49068C39.5886 9.59756 39.5779 9.70444 39.5458 9.81132C39.5137 9.91821 39.4496 10.0144 39.3534 10.1213C39.3 10.1747 39.2465 10.2175 39.1824 10.2602C39.1183 10.2923 39.0648 10.3244 39.0007 10.335C38.9366 10.3457 38.8724 10.3564 38.7976 10.3457C38.7335 10.3457 38.6587 10.3244 38.5946 10.2923C38.648 10.3671 38.6907 10.4419 38.7121 10.5167C38.7442 10.5916 38.7549 10.6771 38.7549 10.7626C38.7549 10.8481 38.7335 10.9336 38.7014 11.0191C38.6694 11.126 38.6052 11.2008 38.5411 11.2756ZM35.9653 8.24016C36.0614 8.10121 36.1256 7.97295 36.179 7.84469C36.2325 7.71643 36.2538 7.59886 36.2538 7.48129C36.2538 7.36372 36.2218 7.25684 36.1683 7.16065C36.1149 7.06445 36.0187 6.96826 35.8904 6.88275C35.7622 6.79725 35.6339 6.75449 35.5163 6.74381C35.3988 6.73312 35.2812 6.75449 35.1743 6.79725C35.0674 6.84 34.9712 6.91482 34.8751 7.01101C34.7789 7.10721 34.6934 7.21409 34.6078 7.34235C34.5117 7.48129 34.4475 7.62024 34.3941 7.7485C34.3406 7.87676 34.3086 7.99433 34.3086 8.1119C34.3086 8.22947 34.3406 8.33635 34.3941 8.43254C34.4475 8.52874 34.5437 8.62493 34.672 8.71044C34.8002 8.79594 34.9285 8.8387 35.0461 8.84938C35.1636 8.86007 35.2812 8.8387 35.3881 8.79594C35.495 8.7425 35.6019 8.67837 35.698 8.58218C35.7942 8.4753 35.8904 8.36841 35.9653 8.24016ZM36.5424 8.58218C36.4035 8.79594 36.2538 8.97764 36.0828 9.1059C35.9225 9.24485 35.7408 9.33035 35.5591 9.38379C35.3774 9.42655 35.185 9.43724 34.9819 9.39448C34.7789 9.35173 34.5865 9.26622 34.3727 9.13797C34.1696 8.99902 34.0093 8.86007 33.8917 8.71044C33.7742 8.5608 33.6993 8.38979 33.6673 8.21878C33.6352 8.03708 33.6566 7.85538 33.71 7.6523C33.7742 7.44923 33.8704 7.23546 34.0307 7.01101C34.1696 6.79725 34.3193 6.62624 34.4796 6.49798C34.6399 6.35903 34.8216 6.27353 35.0033 6.22008C35.185 6.16664 35.3774 6.16664 35.5805 6.2094C35.7836 6.25215 35.9759 6.33765 36.1897 6.46591C36.3928 6.59417 36.5424 6.73312 36.66 6.89344C36.7776 7.04308 36.8524 7.2034 36.8844 7.3851C36.9165 7.55611 36.9058 7.7485 36.8417 7.95157C36.7882 8.14396 36.6921 8.35773 36.5424 8.58218ZM34.0948 5.5681C34.0734 5.61086 34.0521 5.65361 34.0414 5.67499C34.02 5.70705 34.0093 5.72843 33.9879 5.73911C33.9772 5.7498 33.9559 5.76049 33.9452 5.77118C33.9345 5.77118 33.9131 5.77118 33.9024 5.76049L32.9619 5.33296L31.9037 7.62024C31.9037 7.63093 31.893 7.64162 31.8717 7.6523C31.861 7.6523 31.8396 7.66299 31.8075 7.6523C31.7862 7.6523 31.7541 7.64162 31.7113 7.63093C31.6686 7.62024 31.6258 7.59886 31.5617 7.5668C31.5083 7.54542 31.4655 7.51336 31.4228 7.50267C31.3907 7.48129 31.3586 7.45992 31.3479 7.44923C31.3266 7.42785 31.3159 7.41716 31.3159 7.39579C31.3052 7.3851 31.3159 7.36372 31.3159 7.35303L32.5023 4.77718C32.5343 4.71305 32.5664 4.68098 32.6092 4.65961C32.6519 4.63823 32.7053 4.64892 32.7588 4.67029L34.1055 5.29021C34.1269 5.3009 34.1483 5.33296 34.1483 5.37572C34.1483 5.41847 34.1269 5.4826 34.0948 5.5681ZM30.3646 5.41847C30.4074 5.25815 30.4394 5.10851 30.4501 4.98025C30.4608 4.8413 30.4501 4.72373 30.4181 4.61685C30.386 4.50997 30.3219 4.41378 30.2364 4.33896C30.1509 4.26414 30.0333 4.20001 29.8837 4.15726C29.734 4.11451 29.6058 4.10382 29.4882 4.13588C29.3706 4.16795 29.2637 4.22139 29.1782 4.29621C29.0927 4.37102 29.0179 4.46722 28.9538 4.59548C28.8897 4.71305 28.8469 4.8413 28.8041 4.98025C28.7614 5.14057 28.7293 5.29021 28.7186 5.42916C28.708 5.5681 28.7186 5.68567 28.7507 5.80324C28.7828 5.91013 28.8469 6.00632 28.9324 6.08114C29.0179 6.15596 29.1355 6.22008 29.2851 6.26284C29.4348 6.30559 29.563 6.30559 29.6806 6.28421C29.7982 6.26284 29.8943 6.19871 29.9905 6.12389C30.076 6.04907 30.1509 5.94219 30.215 5.82462C30.2684 5.69636 30.3219 5.55742 30.3646 5.41847ZM31.0059 5.55742C30.9418 5.80324 30.8456 6.01701 30.728 6.19871C30.6105 6.38041 30.4715 6.51935 30.3112 6.62624C30.1509 6.72243 29.9692 6.78656 29.7661 6.80794C29.563 6.82931 29.3492 6.80794 29.1141 6.74381C28.879 6.67968 28.6866 6.59417 28.5263 6.4766C28.3659 6.36972 28.2484 6.23077 28.1735 6.07045C28.088 5.91013 28.056 5.72843 28.0453 5.51466C28.0453 5.3009 28.0774 5.06576 28.1522 4.79855C28.2163 4.55272 28.3125 4.34965 28.4301 4.16795C28.5476 3.98625 28.6866 3.8473 28.8469 3.75111C29.0072 3.64422 29.1889 3.59078 29.392 3.56941C29.5951 3.54803 29.8088 3.56941 30.0547 3.63354C30.2791 3.69767 30.4822 3.78317 30.6318 3.90074C30.7815 4.00762 30.9097 4.14657 30.9845 4.29621C31.07 4.45653 31.1128 4.63823 31.1128 4.8413C31.1128 5.06576 31.0807 5.3009 31.0059 5.55742ZM26.9872 6.10251C26.9872 6.12389 26.9765 6.13458 26.9658 6.14527C26.9551 6.15595 26.9337 6.16664 26.9123 6.16664C26.891 6.17733 26.8589 6.17733 26.8161 6.17733C26.7734 6.17733 26.7199 6.17733 26.6665 6.16664C26.6024 6.15595 26.5489 6.15595 26.5169 6.14527C26.4741 6.13458 26.4421 6.12389 26.4207 6.1132C26.3993 6.10251 26.3779 6.09183 26.3779 6.08114C26.3672 6.07045 26.3672 6.05976 26.3672 6.03838L26.6024 3.53734L25.9397 3.47321C25.8542 3.83661 25.7794 4.14657 25.7153 4.41378C25.6404 4.68098 25.5763 4.91612 25.5015 5.10851C25.4267 5.3009 25.3625 5.45053 25.2877 5.5681C25.2129 5.68567 25.1274 5.78187 25.0419 5.846C24.9564 5.91013 24.8602 5.95288 24.7533 5.97426C24.6464 5.99563 24.5396 5.99563 24.4006 5.98494C24.3792 5.98494 24.3579 5.97426 24.3365 5.96357C24.3151 5.95288 24.3044 5.94219 24.2937 5.92081C24.283 5.89944 24.283 5.87806 24.283 5.846C24.283 5.81393 24.283 5.77118 24.283 5.72843C24.2937 5.6643 24.2937 5.60017 24.3044 5.55742C24.3151 5.51466 24.3258 5.4826 24.3258 5.46122C24.3365 5.43984 24.3472 5.41847 24.3579 5.41847C24.3685 5.40778 24.3899 5.40778 24.4006 5.40778C24.454 5.41847 24.4968 5.40778 24.5502 5.39709C24.593 5.3864 24.6464 5.34365 24.6892 5.29021C24.7319 5.23677 24.7854 5.15126 24.8388 5.05507C24.8923 4.94819 24.9457 4.80924 24.9991 4.63823C25.0526 4.46722 25.1167 4.25345 25.1702 4.00762C25.2343 3.7618 25.2984 3.46253 25.3732 3.1205C25.3946 3.035 25.416 2.98156 25.4481 2.94949C25.4801 2.91743 25.5229 2.90674 25.5763 2.91743L27.1047 3.06706C27.1582 3.07775 27.2009 3.09913 27.233 3.13119C27.265 3.16326 27.2757 3.2167 27.265 3.28083L26.9872 6.10251ZM22.2737 3.51597L21.9316 4.87337L22.8188 4.80924L22.2737 3.51597ZM23.8769 5.69636C23.8983 5.7498 23.9196 5.79256 23.9196 5.83531C23.9303 5.86737 23.9196 5.88875 23.9089 5.91013C23.8983 5.9315 23.8662 5.94219 23.8234 5.95288C23.7807 5.96357 23.7166 5.96357 23.6311 5.97426C23.5562 5.98494 23.4921 5.98494 23.4387 5.98494C23.3959 5.98494 23.3532 5.98494 23.3318 5.97426C23.3104 5.97426 23.289 5.96357 23.2783 5.95288C23.2677 5.94219 23.257 5.92081 23.2463 5.89944L22.9898 5.29021L21.8354 5.36503L21.6858 5.98494C21.6751 6.00632 21.6751 6.0277 21.6644 6.04907C21.6537 6.05976 21.6324 6.08114 21.6217 6.09183C21.6003 6.10251 21.5682 6.1132 21.5255 6.1132C21.4827 6.12389 21.4293 6.12389 21.3545 6.13458C21.2796 6.13458 21.2262 6.14527 21.1835 6.14527C21.1407 6.14527 21.1086 6.13458 21.0979 6.1132C21.0766 6.09183 21.0659 6.07045 21.0766 6.03838C21.0766 6.00632 21.0873 5.96357 21.0979 5.89944L21.8568 3.06706C21.8675 3.04569 21.8782 3.01362 21.8889 3.00293C21.8996 2.98156 21.9209 2.97087 21.9423 2.96018C21.9744 2.94949 22.0064 2.9388 22.0599 2.9388C22.1133 2.92811 22.1775 2.92811 22.2523 2.91743C22.3485 2.90674 22.4233 2.90674 22.4767 2.90674C22.5302 2.90674 22.5729 2.90674 22.6157 2.91743C22.6477 2.92811 22.6691 2.9388 22.6905 2.94949C22.7012 2.96018 22.7226 2.99224 22.7332 3.02431L23.8769 5.69636ZM20.4246 6.17733C20.4246 6.18802 20.4246 6.2094 20.4246 6.22008C20.4139 6.23077 20.4032 6.25215 20.3818 6.26284C20.3605 6.27353 20.3284 6.2949 20.2963 6.30559C20.2536 6.31628 20.2108 6.33765 20.1467 6.34834C20.0826 6.35903 20.0398 6.38041 19.9971 6.38041C19.9543 6.3911 19.9222 6.3911 19.9009 6.3911C19.8795 6.3911 19.8581 6.38041 19.8474 6.36972C19.8367 6.35903 19.8261 6.34834 19.8261 6.32697L19.5161 5.10851L18.3831 5.3864L18.6931 6.61555C18.6931 6.62624 18.6931 6.64761 18.6931 6.6583C18.6824 6.66899 18.6717 6.69037 18.6503 6.70105C18.629 6.71174 18.5969 6.73312 18.5648 6.74381C18.5221 6.75449 18.4793 6.77587 18.4152 6.78656C18.3511 6.79725 18.3083 6.80794 18.2656 6.81862C18.2228 6.82931 18.1908 6.82931 18.1694 6.82931C18.148 6.82931 18.1266 6.81862 18.1159 6.80794C18.1052 6.79725 18.0946 6.78656 18.0839 6.76518L17.3678 3.91143C17.3678 3.89005 17.3678 3.87937 17.3678 3.86868C17.3785 3.85799 17.3891 3.83661 17.4105 3.82592C17.4319 3.81524 17.464 3.79386 17.5067 3.78317C17.5495 3.77248 17.5922 3.75111 17.6563 3.74042C17.7205 3.72973 17.7632 3.71904 17.806 3.70835C17.8487 3.69767 17.8808 3.69767 17.9022 3.70835C17.9235 3.70835 17.9449 3.71904 17.9556 3.72973C17.9663 3.74042 17.977 3.75111 17.977 3.77248L18.2549 4.88406L19.3878 4.59548L19.1099 3.4839C19.1099 3.47321 19.1099 3.45184 19.1099 3.44115C19.1206 3.43046 19.1313 3.40908 19.1527 3.3984C19.1741 3.38771 19.2061 3.36633 19.2382 3.35564C19.281 3.34496 19.3237 3.32358 19.3878 3.31289C19.452 3.29151 19.4947 3.29151 19.5375 3.28083C19.5802 3.28083 19.6123 3.27014 19.6337 3.28083C19.655 3.28083 19.6764 3.29151 19.6871 3.3022C19.6978 3.31289 19.7085 3.32358 19.7192 3.33427L20.4246 6.17733ZM12.6863 6.46591L12.4084 6.63692C12.2909 6.71174 12.216 6.77587 12.1626 6.82931C12.1198 6.88275 12.0878 6.93619 12.0664 6.98964C12.0557 7.04308 12.045 7.10721 12.0664 7.16065C12.0771 7.22478 12.1092 7.27822 12.1412 7.33166C12.1733 7.3851 12.216 7.43854 12.2695 7.4706C12.3122 7.50267 12.3657 7.52405 12.4298 7.54542C12.4832 7.55611 12.5474 7.55611 12.6222 7.53473C12.697 7.51336 12.7825 7.4706 12.8894 7.40648L13.178 7.22478L12.6863 6.46591ZM14.5781 8.28291C14.5888 8.2936 14.5888 8.31497 14.5888 8.32566C14.5888 8.33635 14.5781 8.35773 14.5568 8.3791C14.5461 8.40048 14.514 8.42186 14.4819 8.44323C14.4499 8.4753 14.4071 8.49667 14.3537 8.52874C14.3002 8.5608 14.2575 8.58218 14.2254 8.60356C14.1827 8.62493 14.1613 8.63562 14.1292 8.63562C14.1079 8.64631 14.0865 8.64631 14.0651 8.63562C14.0544 8.62493 14.0437 8.62493 14.033 8.60356L13.4131 7.62024L13.21 7.7485C13.1245 7.80194 13.0711 7.84469 13.039 7.88744C13.007 7.9302 12.9856 7.98364 12.9749 8.03708C12.9642 8.09052 12.9642 8.15465 12.9642 8.21878C12.9749 8.28291 12.9856 8.35773 13.007 8.44323L13.1673 9.13797C13.1673 9.15934 13.1673 9.18072 13.1673 9.2021C13.1673 9.22347 13.1566 9.24485 13.1352 9.26622C13.1139 9.2876 13.0925 9.30898 13.0604 9.34104C13.0283 9.36242 12.9749 9.39448 12.9215 9.43724C12.8573 9.47999 12.8039 9.50137 12.7718 9.52274C12.7291 9.54412 12.7077 9.55481 12.6756 9.55481C12.6543 9.56549 12.6329 9.56549 12.6222 9.55481C12.6115 9.55481 12.6008 9.54412 12.5901 9.53343C12.5794 9.52274 12.5688 9.50137 12.5688 9.47999C12.5581 9.45861 12.5474 9.41586 12.5367 9.37311L12.4084 8.73181C12.3871 8.64631 12.3871 8.57149 12.3764 8.49667C12.3657 8.43254 12.3764 8.36841 12.3764 8.30429C12.3871 8.24016 12.3977 8.18672 12.4191 8.13327C12.4405 8.07983 12.4619 8.03708 12.5046 7.99433C12.4084 8.02639 12.3122 8.03708 12.2267 8.04777C12.1412 8.04777 12.0557 8.03708 11.9809 8.0157C11.9061 7.99433 11.8313 7.95157 11.7671 7.89813C11.703 7.84469 11.6389 7.76988 11.5854 7.68437C11.5106 7.5668 11.4572 7.43854 11.4358 7.32097C11.4144 7.19271 11.4251 7.07514 11.4679 6.95757C11.5106 6.84 11.5747 6.72243 11.6709 6.60486C11.7671 6.48729 11.9275 6.36972 12.1412 6.23077L12.7932 5.82462C12.836 5.79256 12.8787 5.78187 12.9322 5.79256C12.9749 5.80324 13.0177 5.83531 13.0604 5.88875L14.5781 8.28291ZM9.50124 8.95627L10.0463 10.2389L10.709 9.651L9.50124 8.95627ZM12.0878 9.71513C12.1412 9.74719 12.184 9.76857 12.2054 9.78995C12.2374 9.81132 12.2481 9.8327 12.2481 9.85408C12.2481 9.87545 12.2267 9.90752 12.1947 9.93958C12.1626 9.97165 12.1198 10.0144 12.0557 10.0678C11.9916 10.1213 11.9488 10.164 11.9061 10.1961C11.8633 10.2282 11.842 10.2389 11.8206 10.2602C11.7992 10.2709 11.7778 10.2709 11.7671 10.2709C11.7458 10.2709 11.7351 10.2602 11.7137 10.2495L11.1365 9.91821L10.2601 10.6984L10.5166 11.2863C10.5273 11.3077 10.5273 11.3291 10.538 11.3504C10.538 11.3718 10.538 11.3932 10.5273 11.4146C10.5166 11.4359 10.4952 11.4573 10.4632 11.4894C10.4311 11.5214 10.3884 11.5535 10.3456 11.6069C10.2922 11.6497 10.2494 11.6924 10.2067 11.7138C10.1746 11.7352 10.1425 11.7459 10.1212 11.7459C10.0998 11.7459 10.0784 11.7245 10.057 11.6924C10.0356 11.6604 10.0143 11.6283 9.9929 11.5642L8.88132 8.86007C8.87063 8.8387 8.85994 8.80663 8.85994 8.78525C8.85994 8.76388 8.87063 8.7425 8.88132 8.72113C8.9027 8.69975 8.92407 8.66769 8.95614 8.62493C8.9882 8.59287 9.04164 8.55011 9.10577 8.49667C9.18059 8.43254 9.23403 8.3791 9.27678 8.34704C9.31954 8.31497 9.36229 8.28291 9.38367 8.27222C9.41573 8.26153 9.43711 8.25084 9.45848 8.25084C9.47986 8.25084 9.50124 8.27222 9.5333 8.28291L12.0878 9.71513ZM9.64018 12.1948C9.65087 12.2055 9.66156 12.2162 9.66156 12.2375C9.66156 12.2589 9.66156 12.2696 9.65087 12.3017C9.64018 12.3231 9.6295 12.3551 9.60812 12.3872C9.58674 12.4192 9.55468 12.462 9.52261 12.5154C9.47986 12.5582 9.4478 12.6009 9.41573 12.633C9.38367 12.6651 9.36229 12.6865 9.34091 12.6971C9.31954 12.7078 9.29816 12.7185 9.28747 12.7185C9.2661 12.7185 9.25541 12.7185 9.24472 12.7078L8.2614 11.9169L7.53461 12.8254L8.51792 13.6163C8.52861 13.627 8.5393 13.6377 8.5393 13.6484C8.5393 13.6591 8.5393 13.6805 8.52861 13.7125C8.51792 13.7339 8.50723 13.766 8.48586 13.798C8.46448 13.8301 8.43242 13.8728 8.38966 13.9263C8.34691 13.9797 8.31484 14.0118 8.29347 14.0439C8.2614 14.0759 8.24003 14.0973 8.21865 14.108C8.19727 14.1187 8.1759 14.1294 8.16521 14.1294C8.14383 14.1294 8.13315 14.1294 8.12246 14.1187L5.82449 12.2803C5.8138 12.2696 5.80311 12.2589 5.79243 12.2375C5.79243 12.2269 5.79243 12.2055 5.80311 12.1734C5.8138 12.152 5.82449 12.12 5.84587 12.0879C5.86724 12.0558 5.89931 12.0131 5.93137 11.9597C5.97413 11.9062 6.00619 11.8741 6.02757 11.8421C6.05963 11.81 6.08101 11.7886 6.10238 11.778C6.12376 11.7673 6.14514 11.7566 6.15583 11.7566C6.1772 11.7566 6.18789 11.7566 6.19858 11.7673L7.09639 12.4834L7.82319 11.5749L6.92538 10.8588C6.91469 10.8481 6.904 10.8374 6.904 10.816C6.904 10.7946 6.904 10.784 6.91469 10.7519C6.92538 10.7305 6.93607 10.6984 6.95744 10.6664C6.97882 10.6343 7.01088 10.5916 7.05364 10.5381C7.09639 10.4954 7.12845 10.4526 7.16052 10.4206C7.19258 10.3885 7.21396 10.3671 7.23533 10.3564C7.25671 10.3457 7.27809 10.335 7.28878 10.335C7.31015 10.335 7.32084 10.335 7.33153 10.3457L9.64018 12.1948ZM6.6368 14.8027C6.56198 14.76 6.49785 14.7386 6.43372 14.7279C6.36959 14.7172 6.30546 14.7172 6.24133 14.7386C6.1772 14.76 6.12376 14.792 6.07032 14.8455C6.01688 14.8989 5.95275 14.9844 5.87793 15.1127L5.69623 15.4333L6.56198 15.9143L6.74368 15.583C6.81849 15.444 6.86125 15.3478 6.87194 15.2623C6.88262 15.1875 6.88262 15.1127 6.86125 15.0485C6.83987 14.9844 6.80781 14.9417 6.76505 14.8989C6.7223 14.8668 6.67955 14.8348 6.6368 14.8027ZM6.904 14.2042C7.03226 14.279 7.13914 14.3645 7.22465 14.4607C7.31015 14.5569 7.37428 14.6745 7.40635 14.8027C7.43841 14.931 7.43841 15.0806 7.40635 15.2409C7.37428 15.4013 7.29946 15.615 7.16052 15.8502L6.78643 16.5342C6.77574 16.5556 6.75437 16.577 6.74368 16.5983C6.7223 16.6197 6.71161 16.6304 6.67955 16.6304C6.65817 16.6411 6.6368 16.6411 6.60473 16.6411C6.57267 16.6411 6.55129 16.6304 6.51923 16.609L4.03956 15.2196C4.02887 15.2089 4.01818 15.1982 4.00749 15.1875C4.00749 15.1768 4.00749 15.1554 4.00749 15.1234C4.01818 15.102 4.02887 15.0592 4.03956 15.0272C4.06094 14.9951 4.08231 14.9417 4.10369 14.8882C4.13575 14.8348 4.15713 14.792 4.18919 14.76C4.21057 14.7279 4.23195 14.6958 4.25332 14.6851C4.2747 14.6638 4.28539 14.6531 4.30676 14.6531C4.31745 14.6531 4.33883 14.6531 4.34952 14.6638L5.27939 15.1768L5.49316 14.792C5.61073 14.589 5.71761 14.4286 5.82449 14.3324C5.93137 14.2362 6.03826 14.1614 6.15583 14.108C6.2734 14.0652 6.40165 14.0439 6.52991 14.0545C6.6368 14.0973 6.77574 14.1294 6.904 14.2042ZM6.21995 17.5175C6.23064 17.5175 6.25202 17.5282 6.25202 17.5496C6.26271 17.5603 6.26271 17.5817 6.26271 17.603C6.26271 17.6244 6.25202 17.6565 6.25202 17.6992C6.24133 17.742 6.21995 17.7847 6.19858 17.8489C6.1772 17.913 6.15583 17.9557 6.14514 17.9878C6.12376 18.0199 6.11307 18.0519 6.0917 18.0733C6.07032 18.0947 6.05963 18.1054 6.04894 18.1054C6.02757 18.1161 6.01688 18.1161 6.00619 18.1054L3.63341 17.261L3.40896 17.8916C3.74029 18.0626 4.02887 18.2123 4.2747 18.3512C4.52053 18.4902 4.72361 18.6184 4.89462 18.7253C5.05494 18.8429 5.19389 18.9497 5.29008 19.0566C5.38627 19.1635 5.4504 19.2597 5.49316 19.3559C5.53591 19.4628 5.5466 19.559 5.5466 19.6659C5.53591 19.7727 5.51453 19.8903 5.47178 20.0079C5.46109 20.0293 5.4504 20.0506 5.43972 20.0613C5.42903 20.072 5.40765 20.0827 5.38627 20.0934C5.3649 20.0934 5.34352 20.0934 5.31146 20.0934C5.27939 20.0827 5.23664 20.072 5.19389 20.0613C5.12976 20.0399 5.07632 20.0186 5.03356 19.9972C4.99081 19.9865 4.96943 19.9651 4.94806 19.9437C4.92668 19.9224 4.91599 19.9117 4.91599 19.901C4.91599 19.8903 4.91599 19.8689 4.91599 19.8476C4.93737 19.8048 4.93737 19.7514 4.93737 19.6979C4.93737 19.6445 4.9053 19.591 4.87324 19.5376C4.83049 19.4735 4.76636 19.4093 4.68085 19.3345C4.59535 19.2597 4.46709 19.1742 4.31745 19.078C4.16782 18.9818 3.97543 18.8749 3.75098 18.7574C3.52653 18.6398 3.25932 18.5008 2.93867 18.3405C2.86386 18.2978 2.8211 18.2657 2.78904 18.2229C2.76766 18.1802 2.76766 18.1374 2.78904 18.084L3.30207 16.6411C3.32345 16.5877 3.35551 16.5449 3.39827 16.5342C3.44102 16.5128 3.49446 16.5128 3.55859 16.5449L6.21995 17.5175ZM2.5539 21.4508L3.78304 22.1135L3.93268 21.2477L2.5539 21.4508ZM5.05494 20.4354C5.11907 20.4247 5.16182 20.4247 5.19389 20.4247C5.22595 20.4247 5.24733 20.4354 5.2687 20.4568C5.27939 20.4782 5.29008 20.5102 5.27939 20.553C5.27939 20.5957 5.2687 20.6599 5.25802 20.7347C5.24733 20.8202 5.22595 20.8843 5.21526 20.9271C5.20457 20.9698 5.19389 21.0019 5.1832 21.0339C5.17251 21.0553 5.16182 21.066 5.14045 21.0767C5.12976 21.0874 5.10838 21.0874 5.087 21.0874L4.43502 21.1836L4.23195 22.3379L4.79842 22.6372C4.8198 22.6479 4.83049 22.6586 4.85186 22.6692C4.86255 22.6799 4.87324 22.7013 4.88393 22.7227C4.89462 22.7441 4.89462 22.7868 4.88393 22.8296C4.88393 22.8723 4.87324 22.9258 4.86255 22.9899C4.85186 23.0647 4.84118 23.1181 4.83049 23.1609C4.8198 23.2037 4.79842 23.225 4.78773 23.2464C4.76636 23.2571 4.74498 23.2571 4.70223 23.2464C4.67016 23.2357 4.62741 23.2143 4.57397 23.193L2.0088 21.7714C1.98742 21.7607 1.96605 21.7394 1.94467 21.7287C1.93398 21.718 1.92329 21.6859 1.92329 21.6646C1.92329 21.6325 1.92329 21.6004 1.92329 21.547C1.93398 21.4935 1.94467 21.4294 1.95536 21.3546C1.97673 21.2584 1.98742 21.1836 1.99811 21.1301C2.0088 21.0767 2.01949 21.0339 2.04086 21.0019C2.05155 20.9698 2.07293 20.9484 2.0943 20.9378C2.11568 20.9271 2.13706 20.9271 2.16912 20.9164L5.05494 20.4354ZM2.66078 24.0694C2.5539 24.0694 2.4577 24.0801 2.39357 24.1228C2.31876 24.1549 2.26532 24.2083 2.23325 24.2618C2.20119 24.3152 2.16912 24.3794 2.15843 24.4435C2.14775 24.5076 2.13706 24.5717 2.13706 24.6359L2.12637 24.9031L3.1845 24.9351L3.19519 24.6466C3.19519 24.5504 3.1845 24.4649 3.16313 24.39C3.14175 24.3259 3.099 24.2618 3.05624 24.219C3.01349 24.1763 2.94936 24.1335 2.88523 24.1122C2.8211 24.0801 2.74629 24.0694 2.66078 24.0694ZM2.6394 23.396C2.81042 23.396 2.97074 23.4388 3.099 23.4922C3.23794 23.5457 3.34483 23.6312 3.43033 23.7381C3.51584 23.8449 3.59065 23.9732 3.63341 24.1335C3.67616 24.2832 3.69754 24.4649 3.68685 24.6679L3.67616 24.9245L4.67016 24.9565C4.69154 24.9565 4.70223 24.9672 4.71292 24.9779C4.72361 24.9886 4.73429 25.01 4.74498 25.0313C4.75567 25.0527 4.75567 25.0848 4.76636 25.1275C4.76636 25.1703 4.76636 25.2237 4.76636 25.2772C4.76636 25.3413 4.75567 25.3947 4.75567 25.4375C4.75567 25.4802 4.74498 25.5123 4.73429 25.5337C4.72361 25.5551 4.71292 25.5764 4.70223 25.5871C4.69154 25.5978 4.67016 25.5978 4.65948 25.5978L1.84848 25.523C1.77366 25.523 1.72022 25.5016 1.67746 25.4589C1.6454 25.4161 1.62402 25.3627 1.62402 25.2985L1.6454 24.5611C1.6454 24.4862 1.65609 24.4114 1.65609 24.3473C1.66678 24.2832 1.67746 24.1977 1.69884 24.1122C1.72022 24.0266 1.75228 23.9198 1.80572 23.8343C1.85916 23.7381 1.92329 23.6632 1.99811 23.5884C2.07293 23.5243 2.16912 23.4709 2.276 23.4388C2.39357 23.4067 2.51115 23.396 2.6394 23.396ZM4.53122 26.4315C4.57397 26.4315 4.61672 26.4208 4.64879 26.4208C4.68085 26.4208 4.70223 26.4208 4.72361 26.4315C4.74498 26.4422 4.75567 26.4422 4.76636 26.4529C4.77705 26.4636 4.78773 26.4742 4.78773 26.4956L4.96943 28.0561C4.96943 28.1095 4.95875 28.1523 4.93737 28.195C4.9053 28.2378 4.86255 28.2592 4.78773 28.2699L2.08362 28.5798C2.0088 28.5905 1.96605 28.5798 1.92329 28.5371C1.89123 28.505 1.86985 28.4623 1.85916 28.4088L1.67746 26.859C1.67746 26.8483 1.67746 26.8376 1.68815 26.8163C1.69884 26.8056 1.70953 26.7949 1.73091 26.7842C1.75228 26.7735 1.77366 26.7628 1.80572 26.7628C1.83779 26.7521 1.88054 26.7521 1.92329 26.7415C1.96605 26.7308 2.0088 26.7308 2.04086 26.7308C2.07293 26.7308 2.0943 26.7308 2.11568 26.7415C2.13706 26.7415 2.14775 26.7521 2.15843 26.7628C2.16912 26.7735 2.16912 26.7842 2.17981 26.8056L2.30807 27.9065L3.06693 27.821L2.96005 26.8804C2.96005 26.8697 2.96005 26.859 2.97074 26.8376C2.98143 26.827 2.99211 26.8163 3.01349 26.8056C3.03487 26.7949 3.05624 26.7842 3.08831 26.7735C3.12037 26.7628 3.15244 26.7628 3.20588 26.7521C3.24863 26.7415 3.29138 26.7415 3.32345 26.7415C3.35551 26.7415 3.37689 26.7415 3.39827 26.7521C3.41964 26.7521 3.43033 26.7628 3.44102 26.7735C3.45171 26.7842 3.4624 26.7949 3.4624 26.8163L3.56928 27.7461L4.44571 27.65L4.31745 26.5384C4.31745 26.5277 4.31745 26.5063 4.32814 26.4956C4.33883 26.4849 4.34952 26.4742 4.36021 26.4636C4.38158 26.4529 4.40296 26.4422 4.43502 26.4315C4.4564 26.4422 4.48846 26.4422 4.53122 26.4315ZM2.84248 30.6213L3.04556 31.316C3.29138 31.2733 3.50515 31.2412 3.68685 31.2198C3.86855 31.1984 4.03956 31.1771 4.17851 31.1664C4.31745 31.1557 4.44571 31.1557 4.55259 31.1557C4.65948 31.1557 4.75567 31.1557 4.83049 31.1664C4.9053 31.1771 4.98012 31.1877 5.04425 31.2091C5.10838 31.2305 5.16182 31.2412 5.20457 31.2626L4.86255 30.0548L2.84248 30.6213ZM5.78174 28.7295C5.80311 28.7188 5.8138 28.7188 5.82449 28.7295C5.83518 28.7401 5.85656 28.7508 5.86724 28.7615C5.87793 28.7829 5.88862 28.8043 5.91 28.8363C5.92068 28.8684 5.94206 28.9112 5.95275 28.9646C5.97413 29.018 5.97413 29.0608 5.98481 29.0929C5.98481 29.1249 5.9955 29.157 5.9955 29.1784C5.9955 29.1997 5.98481 29.2211 5.98481 29.2318C5.97413 29.2425 5.96344 29.2532 5.95275 29.2532L5.24733 29.4563L5.8138 31.455L6.51923 31.2519C6.52991 31.2412 6.55129 31.2412 6.56198 31.2519C6.57267 31.2626 6.58335 31.2733 6.60473 31.2946C6.61542 31.316 6.6368 31.3374 6.64748 31.3694C6.65817 31.4015 6.67955 31.4443 6.69024 31.4977C6.70092 31.5511 6.71161 31.5939 6.7223 31.6367C6.73299 31.6687 6.73299 31.7008 6.73299 31.7222C6.73299 31.7435 6.73299 31.7649 6.7223 31.7756C6.71161 31.7863 6.70092 31.797 6.67955 31.797L5.60004 32.1069C5.55729 32.1283 5.52522 32.1283 5.50384 32.1069C5.48247 32.0962 5.46109 32.0642 5.4504 32.0321L5.40765 31.8932C5.34352 31.8718 5.27939 31.8504 5.21526 31.8397C5.15113 31.8184 5.07632 31.8077 4.99081 31.797C4.9053 31.7863 4.80911 31.7863 4.69154 31.7863C4.57397 31.7863 4.43502 31.797 4.2747 31.8077C4.11438 31.8184 3.92199 31.8397 3.70823 31.8718C3.49446 31.9039 3.23794 31.9359 2.93867 31.9894C2.86386 32.0001 2.81042 32.0001 2.77835 31.9787C2.7356 31.9573 2.71422 31.9252 2.69284 31.8718L2.25463 30.3434C2.23325 30.2899 2.24394 30.2365 2.26532 30.2044C2.28669 30.1617 2.32945 30.1403 2.39357 30.1189L4.70223 29.4563L4.62741 29.1997C4.61672 29.157 4.61672 29.1249 4.6381 29.1035C4.65948 29.0822 4.68085 29.0608 4.72361 29.0501L5.78174 28.7295ZM5.94206 32.5131C5.98481 32.4917 6.01688 32.481 6.04894 32.4703C6.08101 32.4596 6.10238 32.4596 6.12376 32.4596C6.14514 32.4596 6.16651 32.4596 6.1772 32.4703C6.18789 32.481 6.19858 32.4917 6.19858 32.5024L6.87194 33.9239C6.89331 33.9774 6.904 34.0201 6.88262 34.0629C6.87194 34.1056 6.82918 34.1484 6.76505 34.1804L4.30676 35.3455C4.24264 35.3775 4.18919 35.3775 4.14644 35.3668C4.10369 35.3455 4.07162 35.3134 4.05025 35.26L3.38758 33.8491C3.37689 33.8384 3.37689 33.8277 3.37689 33.8064C3.37689 33.7957 3.38758 33.7743 3.40896 33.7636C3.41964 33.7529 3.44102 33.7315 3.47308 33.7102C3.50515 33.6888 3.53721 33.6781 3.57997 33.6567C3.62272 33.6354 3.65478 33.6247 3.68685 33.614C3.71891 33.6033 3.74029 33.6033 3.76167 33.6033C3.78304 33.6033 3.80442 33.6033 3.81511 33.614C3.8258 33.6247 3.83648 33.6353 3.84717 33.646L4.32814 34.6507L5.01219 34.3301L4.61672 33.475C4.60603 33.4643 4.60603 33.4536 4.60603 33.4323C4.60603 33.4216 4.61672 33.4002 4.62741 33.3895C4.6381 33.3788 4.65948 33.3575 4.69154 33.3361C4.72361 33.3147 4.75567 33.304 4.78773 33.2826C4.83049 33.2613 4.86255 33.2506 4.89462 33.2399C4.92668 33.2292 4.94806 33.2292 4.96943 33.2185C4.99081 33.2185 5.0015 33.2185 5.01219 33.2292C5.02288 33.2399 5.03356 33.2506 5.04425 33.2613L5.4504 34.1163L6.24133 33.7422L5.76036 32.7269C5.74967 32.7162 5.74967 32.7055 5.76036 32.6841C5.76036 32.6734 5.77105 32.652 5.78174 32.6413C5.79243 32.6307 5.8138 32.6093 5.84587 32.5879C5.86724 32.5558 5.89931 32.5345 5.94206 32.5131ZM6.44441 37.6862C6.52991 37.7824 6.60473 37.8465 6.69024 37.8893C6.77574 37.932 6.85056 37.9641 6.93607 37.9641C7.01088 37.9748 7.09639 37.9641 7.17121 37.932C7.24602 37.9106 7.32084 37.8679 7.39566 37.8144C7.48116 37.7503 7.55598 37.6862 7.60942 37.6221C7.66286 37.5579 7.70562 37.4831 7.72699 37.4083C7.74837 37.3335 7.74837 37.248 7.73768 37.1518C7.71631 37.0663 7.68424 36.9594 7.62011 36.8525L6.44441 37.6862ZM6.30546 36.2219C6.21995 36.2753 6.15583 36.3395 6.10238 36.4143C6.04894 36.4784 6.00619 36.5532 5.98481 36.628C5.96344 36.7029 5.96344 36.7884 5.97413 36.8846C5.9955 36.9808 6.02757 37.077 6.0917 37.1838L7.2674 36.3608C7.18189 36.2646 7.10708 36.2005 7.02157 36.1578C6.93607 36.1043 6.86125 36.083 6.77574 36.083C6.69024 36.0723 6.61542 36.083 6.52991 36.115C6.4551 36.1364 6.38028 36.1791 6.30546 36.2219ZM5.92069 35.7196C6.05963 35.6234 6.20927 35.5485 6.3589 35.5165C6.50854 35.4737 6.65817 35.4737 6.79712 35.5058C6.94675 35.5378 7.09639 35.602 7.23533 35.6982C7.38497 35.7944 7.52392 35.9226 7.65218 36.0936L7.95145 35.8906C7.96213 35.8799 7.98351 35.8799 7.9942 35.8799C8.00489 35.8799 8.02626 35.8906 8.04764 35.9013C8.06902 35.9119 8.09039 35.944 8.11177 35.9654C8.14383 35.9974 8.16521 36.0402 8.20796 36.083C8.24003 36.1364 8.27209 36.1791 8.29347 36.2112C8.31484 36.2433 8.32553 36.2753 8.33622 36.2967C8.34691 36.3181 8.34691 36.3395 8.34691 36.3502C8.34691 36.3608 8.33622 36.3822 8.31485 36.3929L8.01557 36.596C8.13315 36.7777 8.20796 36.9487 8.2614 37.109C8.30416 37.2693 8.32553 37.419 8.30416 37.5686C8.28278 37.7182 8.22934 37.8465 8.14383 37.9748C8.05833 38.103 7.93007 38.2206 7.78043 38.3382C7.64149 38.4344 7.50254 38.4985 7.35291 38.5305C7.20327 38.5626 7.06432 38.5733 6.91469 38.5412C6.76505 38.5092 6.62611 38.445 6.47647 38.3489C6.32684 38.2527 6.18789 38.1244 6.05963 37.9641L5.78174 38.1565C5.77105 38.1671 5.74967 38.1672 5.73899 38.1672C5.7283 38.1672 5.70692 38.1565 5.68554 38.1351C5.66417 38.1244 5.64279 38.0923 5.62141 38.0603C5.58935 38.0282 5.56797 37.9855 5.52522 37.9427C5.49316 37.8893 5.46109 37.8572 5.43972 37.8144C5.41834 37.7824 5.40765 37.7503 5.39696 37.7289C5.38627 37.7076 5.38627 37.6862 5.38627 37.6755C5.38627 37.6648 5.39696 37.6434 5.40765 37.6434L5.68554 37.451C5.56797 37.2693 5.49316 37.0983 5.43972 36.938C5.39696 36.7777 5.37559 36.6174 5.39696 36.4784C5.41834 36.3288 5.46109 36.2005 5.5466 36.0723C5.65348 35.944 5.77105 35.8264 5.92069 35.7196Z" fill="white"/>
<path d="M33.87 40.0697L33.7738 39.9521C33.6776 39.8345 33.2822 39.4391 32.3416 39.4391C32.0103 39.4391 31.6362 39.4925 31.23 39.5887C30.8667 39.6742 30.4177 39.8238 29.8833 40.0055C29.8299 39.888 29.7551 39.7704 29.6696 39.6742C29.2848 39.236 28.5901 39.0222 27.6281 39.0222C26.3028 39.0329 24.4644 39.4497 22.594 40.1659C21.3007 40.6575 20.125 40.914 19.1096 40.9247C17.5278 40.9354 16.5765 40.3689 15.7428 39.8773L15.3046 39.6208L14.7595 39.3001L14.6526 39.9307L13.5518 46.6002L13.9579 46.7819L14.1503 45.6275L15.0802 40.0055L15.0909 40.0162V40.0055L15.5291 40.2621C16.1597 40.6361 16.9079 41.0744 17.9553 41.2667C18.2973 41.3309 18.6821 41.3629 19.0989 41.3629C20.1784 41.3522 21.3969 41.0957 22.7329 40.572C24.5606 39.8773 26.3349 39.4604 27.6174 39.4604C27.9274 39.4604 28.2053 39.4818 28.4404 39.5246C28.8466 39.5994 29.1458 39.749 29.3382 39.9628C29.4879 40.1231 29.5627 40.3262 29.5734 40.5506C30.236 40.3262 30.856 40.1124 31.3156 40.0055C31.6896 39.9093 32.021 39.8666 32.3202 39.8666C32.3523 39.8666 32.3844 39.8666 32.4164 39.8773C32.4592 39.8773 32.4913 39.8773 32.5233 39.8773C32.5554 39.8773 32.5768 39.8773 32.6088 39.888C32.673 39.8987 32.7371 39.9093 32.8012 39.92H32.8119C32.9829 39.9628 33.1219 40.0055 33.2181 40.059C33.3463 40.1338 33.6135 39.888 33.6135 39.888L32.4592 47.4445L32.844 47.2842C32.8653 47.1025 32.8974 46.9101 32.9295 46.707C33.0577 45.9268 33.1539 45.3603 33.1539 45.3603L33.1753 45.2107L33.2074 45.029L33.1967 45.0076C33.2822 44.4732 33.3677 43.9495 33.4425 43.4471C33.6776 41.9615 33.8807 40.7537 33.9128 40.572C33.9128 40.5613 33.9128 40.5506 33.9128 40.5506L33.9342 40.401L33.9662 40.2086L33.87 40.0697Z" fill="#0066B3"/>
<path d="M23.9952 42.421C14.5041 42.421 6.85133 34.982 6.58413 25.4908C6.30623 15.8715 13.8949 7.83392 23.5036 7.55603C23.6746 7.55603 23.8456 7.54534 24.0166 7.54534C33.5077 7.54534 41.1605 14.9843 41.4277 24.4755C41.5666 29.1248 39.8779 33.5604 36.6821 36.9379C33.4864 40.3261 29.1576 42.2607 24.5083 42.3996C24.3372 42.4103 24.1555 42.421 23.9952 42.421ZM23.9952 42.8485C24.1662 42.8485 24.3372 42.8485 24.5189 42.8378C34.3735 42.5599 42.1438 34.33 41.8659 24.4648C41.588 14.7813 33.6467 7.10712 24.0166 7.11781C23.8456 7.11781 23.6746 7.11781 23.4929 7.11781C13.6277 7.40639 5.86802 15.6256 6.14591 25.4908C6.4238 35.1851 14.3651 42.8485 23.9952 42.8485Z" fill="white"/>
<path d="M27.6283 39.4712C28.462 39.4712 29.0391 39.6422 29.3384 39.9735C29.488 40.1445 29.5735 40.3476 29.5735 40.5721C30.2469 40.3476 30.8668 40.1339 31.3264 40.027C31.7005 39.9308 32.0318 39.888 32.3311 39.888C33.1007 39.888 33.2824 40.0484 33.3358 40.1018L33.6137 39.8987L32.0639 49.7746L31.6471 49.5395C31.444 49.4219 31.1982 49.3685 30.8989 49.3685C30.0545 49.3685 29.0071 49.8067 27.981 50.2235C27.2008 50.5442 26.4633 50.8434 25.8647 50.9396C25.6403 50.9717 25.4479 50.9931 25.2769 50.9931C24.3577 51.0038 24.2081 50.5014 24.1974 50.2556L24.2508 49.7425C24.005 49.8387 23.7592 49.9349 23.524 50.0204C23.0324 50.2128 22.5728 50.3838 22.1773 50.5228C21.4826 50.7686 20.6168 50.8969 19.6763 50.9076C17.4959 50.9182 15.1658 50.2663 13.7443 49.2402L13.584 49.1226L15.091 40.0056L15.5292 40.2621C16.3736 40.7538 17.4104 41.3844 19.1205 41.3737C20.2 41.363 21.4184 41.1065 22.7545 40.5828C24.5822 39.888 26.3564 39.4712 27.6283 39.4712Z" fill="white"/>
<path d="M25.0424 46.472L24.54 50.0525C24.4118 50.7045 25.1493 50.7152 25.8226 50.6083C27.4579 50.3518 30.3117 48.4065 31.8187 49.2402C32.0432 47.4446 32.428 45.168 32.428 45.168C32.428 45.168 32.0539 44.6443 30.643 44.9863C29.2322 45.339 26.0898 46.6857 25.0424 46.472Z" fill="#ED1C24"/>
<path d="M32.2678 46.2046C32.4281 45.2106 32.5885 44.1417 32.7488 43.2012C32.535 43.0622 31.9685 42.8271 30.889 43.0836C29.5209 43.4149 26.5283 44.6975 25.3846 44.5693L24.9678 47.2413C25.096 47.6795 25.5877 47.7864 26.2717 47.7223C27.907 47.5834 30.7608 45.4136 32.2678 46.2046Z" fill="#0066B3"/>
<path d="M24.5078 50.2981C24.604 49.6141 25.5446 49.5927 26.1645 49.6248C26.7951 49.6568 27.9387 49.6355 28.0242 49.1331C28.1418 48.4598 28.1845 47.6475 28.1845 47.6475L24.914 47.6902L24.5078 50.2981Z" fill="#BE1E2D"/>
<path d="M13.9375 48.973L14.6964 44.4412C16.011 45.2215 18.0845 46.3437 22.317 44.7084C25.7052 43.4045 28.8582 43.18 28.6979 44.516C28.7193 44.5374 28.0139 49.1547 28.0139 49.1547C28.2597 47.5622 24.2089 49.4647 22.0819 50.2021C19.7733 51.0144 15.9683 50.4373 13.9375 48.973Z" fill="#ED1C24"/>
<path d="M22.4554 43.7679C18.3618 45.339 16.2242 43.9389 14.8881 43.1373L14.3965 46.0765C16.4379 47.4981 19.452 48.0004 22.4661 46.8461C24.3793 46.1086 28.0667 44.8367 28.4728 45.9803C28.6118 45.0291 28.7614 44.003 28.8897 43.1266C28.3873 42.2608 25.4588 42.6242 22.4554 43.7679Z" fill="#0066B3"/>
<path d="M33.4646 31.968C33.4646 31.968 33.4219 32.107 33.5074 32.1818C33.5929 32.2566 33.7211 32.1818 33.7211 32.1818C33.7211 32.1818 33.7532 32.3849 33.8921 32.4383C34.0311 32.4918 34.138 32.3742 34.138 32.3742C34.138 32.3742 34.1914 32.5666 34.341 32.62C34.48 32.6735 34.5869 32.5559 34.5869 32.5559C34.5869 32.5559 34.6831 32.6841 34.7579 32.6948C34.8434 32.7055 34.9182 32.6307 34.961 32.5238C35.0037 32.62 35.1534 32.7483 35.2602 32.759C35.3885 32.759 35.4419 32.7269 35.5381 32.6307C35.6664 32.4704 35.6129 32.6735 35.6236 32.7269C35.6236 32.9727 35.6023 33.2079 35.5916 33.4537C35.5916 33.6247 35.6023 33.8705 35.7519 33.9774C35.7733 33.9881 35.8802 34.0522 35.9443 34.0095C35.9336 33.7423 35.9443 33.4751 35.9336 33.2079C35.9336 32.9086 35.9336 32.5986 35.8481 32.3101C35.7519 32.1284 35.6878 31.9039 35.4954 31.8077C35.3351 31.7008 35.1213 31.6581 34.9289 31.7436C34.7258 31.7863 34.651 32.0108 34.4586 32.0642C34.2983 32.1177 34.1166 32.0856 33.9883 31.9787C33.8387 31.8291 33.7532 31.6153 33.7532 31.4122C33.5822 31.5726 33.315 31.8398 33.2509 31.8825C33.3043 31.9894 33.4646 31.968 33.4646 31.968ZM35.5809 33.8064C35.5809 33.8064 35.474 34.7363 35.5702 35.0142C35.6664 35.2921 35.8267 35.5379 35.9336 35.6555L35.9443 34.0629C35.9336 34.0629 35.7198 34.1484 35.5809 33.8064ZM35.1213 33.785C35.0892 34.0095 35.0892 34.6828 35.303 35.0249C35.3778 34.95 35.3992 34.8325 35.4312 34.7363C35.4633 34.6615 35.474 34.5011 35.474 34.5011L35.5381 33.6888L35.6023 32.62C35.4419 32.8124 35.3564 32.8017 35.2175 32.791C35.2175 32.791 35.1534 33.4109 35.1213 33.785ZM34.7793 33.2827C34.7044 33.6781 34.6617 34.5118 34.8434 34.6722C35.0251 34.4156 35.0785 33.6781 35.0785 33.6781L35.164 32.7696C35.0678 32.7162 35.0251 32.6735 34.9717 32.6093C34.9717 32.6093 34.9503 32.6628 34.9075 32.6948C34.8755 32.759 34.7793 33.2827 34.7793 33.2827ZM34.4479 32.93C34.4479 32.93 34.2983 33.5499 34.4586 34.1271C34.4586 34.1271 34.5655 33.956 34.5869 33.8705C34.6403 33.6995 34.7472 33.1758 34.7472 33.1758L34.8541 32.7162C34.79 32.7483 34.7258 32.7376 34.6724 32.7055C34.6189 32.6735 34.5762 32.62 34.5762 32.62C34.5762 32.62 34.5441 32.6414 34.5121 32.6521L34.4479 32.93ZM34.0738 32.62C33.8815 33.2934 34.0738 33.6995 34.0738 33.6995C34.17 33.6247 34.2769 33.3575 34.2769 33.3575C34.2983 33.3147 34.4693 32.6628 34.4693 32.6628C34.4693 32.6628 34.3731 32.7055 34.2662 32.6307C34.138 32.5559 34.1166 32.4383 34.1166 32.4383L34.0738 32.62ZM33.6356 32.62C33.5181 32.9727 33.5287 33.1972 33.6463 33.4323C33.9135 33.1651 34.0738 32.4597 34.0738 32.4597C33.967 32.5131 33.9242 32.5024 33.8708 32.4811C33.7639 32.449 33.7211 32.3207 33.7211 32.3207C33.7211 32.3207 33.6463 32.5986 33.6356 32.62ZM33.4219 32.1284C33.2829 32.3207 33.1012 32.6628 33.2188 32.8979C33.4646 32.7803 33.6249 32.4704 33.6249 32.4704C33.6463 32.449 33.6998 32.278 33.6998 32.278C33.6998 32.278 33.6891 32.2352 33.6998 32.2139C33.657 32.2459 33.5394 32.2352 33.5394 32.2352C33.486 32.2352 33.4539 32.2032 33.4219 32.1284ZM33.2188 31.9039C33.0478 32.0535 32.9409 32.2673 32.9195 32.4704C33.005 32.4811 33.1119 32.3956 33.1653 32.3528C33.2188 32.3101 33.4219 32.107 33.4219 32.0963C33.4112 32.0429 33.4219 32.0108 33.4219 32.0108C33.4219 32.0108 33.3364 32.0535 33.2188 31.9039ZM29.852 33.272C30.0123 33.3468 30.162 33.4216 30.2902 33.5071C30.3116 33.5606 30.3437 33.614 30.365 33.6675L30.023 33.9881C29.9482 33.7637 29.8841 33.5178 29.852 33.272ZM29.5634 34.4156L28.2167 35.6768C27.9174 34.8752 28.0884 34.5653 28.2488 34.3943C28.345 34.2981 28.7191 34.0202 29.5634 34.4156ZM27.9709 36.2754C28.1098 36.6388 28.3022 37.1946 28.1205 37.3549C27.9602 37.5045 27.4792 37.3335 27.0517 37.077L27.9709 36.2754ZM27.7892 36.0723L26.8914 36.906C26.6776 36.4571 26.5707 35.9547 26.731 35.8158C26.9127 35.6555 27.4472 35.8906 27.7892 36.0723ZM28.4091 35.9013L29.8092 34.6935C30.1192 35.5806 29.7986 35.9227 29.6917 36.0082C29.4993 36.1471 29.168 36.2754 28.4091 35.9013ZM11.9065 29.5846C11.7462 30.0335 11.821 30.5144 12.1416 30.803C12.505 31.1344 13.0822 31.1237 13.5525 30.8137L15.7436 32.7803C15.6687 32.9407 15.6367 33.1224 15.6687 33.3254C15.7329 33.7102 16.0535 34.0415 16.4704 34.1164C16.7162 34.1698 16.9513 34.1377 17.1437 34.0415L22.5733 38.9261C22.5733 38.9261 22.8512 39.1719 23.1077 38.894L23.1291 38.8619C23.1291 38.8619 23.3749 38.584 23.0971 38.3382L21.9427 37.3015L22.103 37.1304L22.5733 37.558L22.6268 37.6114C22.6268 37.6114 22.755 37.729 22.8619 37.6007L22.9154 37.5473L23.6528 36.7243C23.6528 36.7243 23.7704 36.596 23.6421 36.4891L23.5887 36.4357C23.5887 36.4357 23.546 36.4357 23.4391 36.564L23.3322 36.4678L22.9581 36.8846L22.6054 36.5747L23.0009 36.1364C23.0009 36.1364 23.1184 36.0082 22.9902 35.9013L22.9367 35.8479C22.9367 35.8479 22.8085 35.7303 22.7016 35.8585L22.071 36.5533L21.7183 36.2433L22.1886 35.7196L22.103 35.602C22.103 35.602 22.3168 35.3883 22.3382 35.3028L22.2847 35.2493C22.2847 35.2493 22.1565 35.1317 22.0496 35.26L21.3121 36.083L21.2587 36.1364C21.2587 36.1364 21.1411 36.2647 21.2694 36.3716L21.3228 36.425L21.7931 36.8525L21.6328 37.0236L17.7316 33.5178C18.3515 33.101 19.4631 32.8124 20.3929 32.8124C20.5639 32.8124 20.6388 32.6735 20.5746 32.5345C20.1471 31.5084 21.0663 30.7603 22.0175 31.3695C22.4344 31.6367 22.8512 32.1604 23.1719 33.0262C21.9641 33.3147 20.5105 34.0095 19.741 34.8432L20.6388 35.741C21.3014 34.5546 22.6161 33.7102 23.3749 33.5392C23.4177 33.6675 23.407 33.6247 23.4498 33.753C22.6909 34.1164 21.9427 34.7683 21.4831 35.5807C21.5152 35.5379 21.5473 35.5165 21.5579 35.4951C21.6648 35.3989 22.0924 34.8645 22.1992 34.9607C22.2527 35.0142 22.4237 35.1531 22.5733 35.2814C22.6054 35.3134 22.2741 35.7944 22.3061 35.8158C22.3382 35.8372 22.3916 35.944 22.413 35.9227C22.4878 35.8479 22.5733 35.7623 22.6375 35.6982C22.9047 35.0462 23.2467 34.5225 23.578 34.2019C23.5994 34.3194 23.6101 34.437 23.6208 34.5546C23.6208 34.5546 23.3322 35.3455 23.1505 36.2647L23.2681 36.3609L23.5353 36.1471L23.8025 36.3609C23.8025 36.3609 24.0162 36.5747 23.9094 36.7884C23.8238 36.9487 23.2894 37.5366 23.0329 37.8145C23.2039 38.2848 23.888 38.6054 24.0055 38.6589C24.1017 38.6268 24.4438 38.4665 24.711 38.2206C24.6362 38.0389 24.6041 37.5152 24.6041 37.4297C24.6041 37.3335 24.6575 36.7884 24.7644 36.6815C24.8072 36.6388 24.8606 36.5747 24.9354 36.5105C24.7537 35.5058 24.4224 34.5653 24.4224 34.5653C24.4331 34.4477 24.4438 34.3301 24.4651 34.2126C24.882 34.6187 25.3202 35.3455 25.5981 36.254H25.9401V36.2006C25.9401 36.0937 25.9615 35.6234 26.047 35.5058C26.1432 35.3776 26.2394 35.2921 26.3356 35.2279C25.876 34.5866 25.2454 34.0629 24.6041 33.7637C24.6468 33.6354 24.6362 33.6781 24.6789 33.5499C25.2881 33.6888 26.2608 34.2553 26.9555 35.0997C27.1479 35.1317 27.4365 35.1852 27.4365 35.1852C27.4365 35.1852 27.3296 34.9714 27.3296 34.6508C27.3296 34.4905 27.4258 34.3194 27.522 34.2019C26.7417 33.6781 25.737 33.2506 24.8713 33.0369C25.1919 32.1711 25.6088 31.6474 26.0256 31.3802C26.9769 30.771 27.8961 31.5191 27.4685 32.5452C27.4151 32.6841 27.4899 32.8231 27.6502 32.8231C28.206 32.8231 28.8259 32.93 29.3603 33.101C29.3924 33.3896 29.4565 33.6781 29.5207 33.924C28.548 33.5499 28.0457 33.9454 27.9067 34.095C27.5861 34.437 27.5006 34.9073 27.6823 35.5272C27.2441 35.3241 26.7417 35.1959 26.4211 35.4845C26.1111 35.7623 26.1753 36.254 26.3035 36.6602C25.8867 36.4998 25.4591 36.4998 25.1278 36.7884C24.6148 37.2587 25.0102 37.9 25.0316 37.9321C25.0423 37.9534 25.053 37.9641 25.0637 37.9748C25.1278 38.0496 25.1813 38.1244 25.2774 38.071C25.3843 38.0176 25.3416 37.8572 25.2774 37.7504C25.2774 37.7504 25.0957 37.2694 25.363 37.0342C25.6408 36.7884 26.1859 37.0449 26.5066 37.2587L24.9782 38.7123L25.0209 38.7551L25.0637 38.7978L26.6562 37.419C26.8272 37.761 27.0303 38.3382 26.7524 38.584C26.4959 38.8192 26.0363 38.5947 26.0363 38.5947C25.9294 38.5306 25.7798 38.4665 25.7157 38.5627C25.6622 38.6482 25.7264 38.7123 25.7905 38.7871C25.8012 38.7978 25.8119 38.8085 25.8332 38.8192C25.8653 38.8406 26.4638 39.3108 26.9769 38.8406C27.3082 38.552 27.3403 38.1138 27.2227 37.6862C27.6182 37.8572 28.0991 37.9641 28.4091 37.6862C28.7297 37.3976 28.6549 36.8846 28.4946 36.425C29.0931 36.6602 29.5741 36.6388 29.9482 36.3502C30.1085 36.2219 30.5574 35.773 30.2902 34.7577C31.0063 35.0462 32.0431 35.3028 32.5668 34.8218C33.2295 34.2232 32.6951 33.2827 32.6737 33.2399C32.6096 33.133 32.4706 33.101 32.3637 33.1544C32.3424 33.1651 32.3317 33.1865 32.3103 33.1972L32.5134 33.4964L32.2675 33.4216C32.2675 33.4323 32.2782 33.443 32.2782 33.4537C32.2782 33.4644 32.6523 34.1271 32.2675 34.4798C31.9255 34.7897 30.985 34.5653 30.2688 34.2553L30.6216 33.9454C30.7926 34.0736 30.9956 34.1377 31.2201 34.1377C31.7759 34.1377 32.2248 33.6888 32.2248 33.1437C32.2248 32.962 32.1713 32.8017 32.0965 32.6628L33.8494 31.1344C33.9563 31.145 34.0632 31.1023 34.138 31.0275C34.1593 31.0061 34.1914 30.974 34.2021 30.9527C34.3945 30.9954 34.6083 30.942 34.7686 30.803C35.0358 30.5572 35.0572 30.151 34.822 29.8838C34.5762 29.6166 34.17 29.5952 33.9028 29.8304C33.7425 29.9693 33.6677 30.1831 33.6891 30.3755C33.657 30.3862 33.6249 30.4076 33.6036 30.4289C33.5181 30.5037 33.4753 30.6106 33.4753 30.7068L31.7652 32.2994C31.6049 32.1925 31.4125 32.139 31.2094 32.139C30.8674 32.139 30.5574 32.3101 30.3757 32.5773C30.194 32.5666 29.9909 32.5345 29.7772 32.5024C29.7986 32.2566 29.8627 32.0642 29.9803 31.9467C30.3757 31.5939 30.9956 32.0322 31.0063 32.0429C31.017 32.0535 31.0277 32.0535 31.0384 32.0642L30.9956 31.8184L31.2735 32.0535C31.2949 32.0429 31.3056 32.0215 31.327 32.0108C31.4018 31.9146 31.3804 31.7756 31.2735 31.7008C31.2415 31.6688 30.3543 31.0382 29.6917 31.6367C29.4779 31.8291 29.3817 32.1177 29.3497 32.4383C28.8046 32.3101 28.3557 32.1497 28.4305 32.0322C30.0871 29.7021 28.8152 28.3127 27.2975 28.3875V29.948C27.2975 30.4503 26.8593 30.8565 26.3142 30.8565H25.2668C24.5079 30.8565 24.0162 31.6153 24.0162 31.6153C24.0162 31.6153 23.5246 30.8565 22.7657 30.8565H21.7183C21.1732 30.8565 20.735 30.4503 20.735 29.948V28.3875C19.2065 28.3127 17.9453 29.7021 19.602 32.0322C19.7516 32.2566 18.1912 32.6093 17.4644 32.5131C17.272 32.3101 16.9941 32.1925 16.6841 32.1925C16.5559 32.1925 16.4383 32.2139 16.3207 32.2566L14.0655 30.2259C14.322 29.7342 14.2793 29.157 13.9159 28.8257C13.5952 28.5371 13.1036 28.5051 12.676 28.7188V29.4991L11.9065 29.5846ZM32.7058 30.5465C32.6096 30.4076 32.5989 30.2259 32.6737 30.0655C32.7485 29.8731 32.9836 29.8304 33.0478 29.6273C33.1547 29.4456 33.1333 29.2319 33.0478 29.0608C32.973 28.8578 32.7592 28.7723 32.5882 28.6547C32.2996 28.5371 32.0003 28.5051 31.7011 28.473C31.4339 28.4409 31.1667 28.4195 30.8994 28.3875C30.8567 28.4516 30.8994 28.5585 30.9101 28.5799C31.0063 28.7402 31.2522 28.7723 31.4232 28.7936C31.6583 28.8043 31.9041 28.8257 32.15 28.8471C32.2034 28.8578 32.4065 28.8364 32.2355 28.9433C32.1393 29.0181 32.1072 29.0608 32.0858 29.1357H32.0324C32.0431 29.0501 32.0858 28.9753 32.2355 28.8791L31.1667 28.8364L30.3543 28.815C30.3543 28.815 30.2047 28.815 30.1192 28.8364C30.0123 28.8578 29.8948 28.8685 29.8199 28.9326C30.1299 29.1784 30.7926 29.2532 31.0277 29.2425C31.1025 29.2639 31.1773 29.2853 31.2522 29.296H31.1453C31.1453 29.296 30.4078 29.2746 30.1299 29.4349C30.2795 29.638 31.1025 29.6808 31.5087 29.638C31.5087 29.638 32.0324 29.5846 32.1072 29.5739C32.1393 29.5311 32.1927 29.5204 32.1927 29.5204C32.1286 29.4563 32.0965 29.4135 32.0538 29.3067H31.7759C31.8507 29.296 31.9255 29.2746 32.0003 29.2532C32.0324 29.2532 32.0431 29.2532 32.0431 29.2532C32.0431 29.2425 32.0431 29.2425 32.0431 29.2318C32.0538 29.2318 32.0752 29.2212 32.0858 29.2212C32.0858 29.328 32.2034 29.4777 32.2889 29.5418C32.182 29.5739 32.0965 29.6487 32.0965 29.7235C32.0965 29.809 32.2248 29.9159 32.2248 29.9159C32.2248 29.9159 32.0965 30.0121 32.1286 30.151C32.1607 30.3007 32.353 30.3755 32.353 30.3755C32.353 30.3755 32.2248 30.4717 32.2675 30.6106C32.3103 30.7496 32.5027 30.803 32.5027 30.803C32.5027 30.803 32.4172 30.9206 32.4813 31.0168C32.5454 31.113 32.6844 31.0809 32.6844 31.0809C32.6844 31.0809 32.6523 31.2412 32.7592 31.3054C32.8126 31.2519 33.1012 31.0168 33.2829 30.8565C33.0478 30.8137 32.8447 30.7068 32.7058 30.5465ZM30.8246 28.3875L29.2428 28.2272C29.3497 28.3447 29.5848 28.5264 29.8413 28.6547C30.1192 28.7723 31.0491 28.7616 31.0491 28.7616C30.7177 28.5906 30.8246 28.3875 30.8246 28.3875ZM32.6844 31.3161C32.5561 31.1878 32.5989 31.1023 32.5989 31.1023C32.5989 31.1023 32.5668 31.113 32.5134 31.0916C32.5134 31.0916 32.2889 31.2733 32.2355 31.3267C32.182 31.3802 32.0965 31.4764 32.0965 31.5512C32.2889 31.5512 32.5134 31.4657 32.6844 31.3161ZM32.4813 31.0809C32.4172 31.0488 32.3851 31.0061 32.3851 30.9527C32.3851 30.9527 32.3744 30.8458 32.4172 30.803C32.3958 30.803 32.353 30.7923 32.353 30.7923C32.353 30.7923 32.182 30.8351 32.1607 30.8458C32.1607 30.8458 31.84 30.974 31.6904 31.1985C31.9148 31.3481 32.2782 31.1985 32.4813 31.0809ZM32.0217 30.8244C32.0431 30.8137 32.3317 30.771 32.3317 30.771C32.3317 30.771 32.2141 30.7175 32.182 30.5999C32.1713 30.5358 32.1607 30.4931 32.2248 30.3969C32.2248 30.3969 31.5087 30.4824 31.2094 30.7282C31.4339 30.8778 31.6583 30.9099 32.0217 30.8244ZM30.985 30.29C30.985 30.29 31.3697 30.5144 32.0645 30.3969L32.2462 30.3755C32.2462 30.3755 32.1393 30.3327 32.0751 30.2045C32.011 30.0869 32.0645 30.0014 32.0645 30.0014C32.0645 30.0014 31.4018 30.1083 31.359 30.1297C31.359 30.119 31.0811 30.1938 30.985 30.29ZM30.6109 29.8518C31.1667 30.0762 31.7973 29.9907 31.7973 29.9907L32.0858 29.948C32.0965 29.9159 32.1286 29.8945 32.1286 29.8945C32.1286 29.8945 32.0751 29.8518 32.0538 29.7876C32.0217 29.7342 32.0217 29.6701 32.0645 29.6059L31.6049 29.6701C31.6049 29.6701 31.0811 29.7235 30.8994 29.7556C30.7926 29.7663 30.6109 29.8518 30.6109 29.8518ZM29.7237 18.565C30.2261 18.6398 30.3864 18.9819 30.4185 19.0887C30.5895 18.9391 30.7498 18.4368 30.6857 18.1054C30.3971 16.5449 26.7631 17.5817 24.9354 16.919C24.9034 17.3786 25.5019 18.1054 26.0684 18.3726C25.0957 19.217 24.2193 20.9271 24.0376 23.0113C23.8666 20.9271 22.9795 19.217 22.0069 18.3726C22.5733 18.1054 23.1719 17.3786 23.1398 16.919C21.3121 17.5817 17.6888 16.5449 17.3895 18.1054C17.3254 18.4368 17.4857 18.9391 17.6568 19.0887C17.6888 18.9819 17.8491 18.6398 18.3515 18.565C20.906 18.1802 23.0436 22.1135 21.1197 23.706C21.0877 23.7274 21.109 23.7702 21.1518 23.7702H26.9234C26.9662 23.7702 26.9769 23.7274 26.9555 23.706C25.0316 22.1135 27.1693 18.1802 29.7237 18.565ZM28.7832 18.8857C28.6229 18.9177 28.0564 19.1529 27.8212 19.4521C28.1846 19.3346 28.8259 19.3346 29.2641 19.7193C29.2641 19.3025 28.9114 18.9284 28.7832 18.8857ZM19.292 18.8857C19.1638 18.9284 18.8111 19.3025 18.8111 19.7193C19.26 19.3346 19.8906 19.3346 20.254 19.4521C20.0082 19.1529 19.4524 18.9177 19.292 18.8857ZM25.0851 27.7889C25.0637 27.6714 25.1278 27.6179 25.224 27.5859C25.5553 27.4683 26.0684 27.5645 26.047 28.0348C26.047 28.1417 26.1966 28.1417 26.2073 28.0348C26.3035 27.3293 25.8225 27.1156 25.3202 27.2011C25.2561 26.9553 25.2026 26.7415 25.1492 26.5277C25.1064 26.3567 25.0851 26.0361 25.2881 26.0361C25.395 26.0361 25.3523 26.3353 25.3416 26.4636C25.3309 26.5812 25.3736 26.6453 25.4698 26.6453C25.5233 26.6453 25.5981 26.5705 25.6408 26.5277C25.9294 26.2071 25.9936 25.6941 25.6622 25.4589C25.3843 25.2558 24.6789 25.4055 24.4758 25.6941C24.4438 25.5872 24.3048 25.4055 24.2407 25.3307C24.1766 25.2558 24.1552 25.2024 24.2514 25.1383C24.2941 25.1062 24.4224 24.9779 24.4224 24.8497C24.4224 24.7749 24.3583 24.6252 24.1659 24.6252C24.0162 24.6252 23.8452 24.7321 23.8452 24.9673C23.8452 25.0207 23.8559 25.0741 23.888 25.1383C23.7918 25.1276 23.5353 25.1276 23.3963 25.1596L25.2454 30.2365C25.7798 29.98 26.1646 29.5632 26.1646 29.1143C26.1646 28.7402 25.6088 28.8578 25.3309 29.157C25.2561 28.6761 25.1706 28.2378 25.0851 27.7889ZM23.4605 29.1143C23.1291 29.1143 22.7337 29.1784 22.5306 29.3174C22.4878 29.0608 22.8405 28.6012 23.3001 28.1523C23.2039 28.4409 23.2681 28.9433 23.4605 29.1143ZM25.0744 30.3648L22.7871 24.0801C22.7443 23.9626 22.5733 24.016 22.6161 24.1443L23.0009 25.2238C22.6695 25.2986 22.1351 25.5444 22.1351 25.8651C22.1351 26.2926 22.894 26.5705 23.3322 26.5384C23.3108 26.6346 23.3322 26.7201 23.407 26.8056C23.2467 26.8056 22.9474 26.8804 22.8512 26.9873C22.6161 26.7736 22.2527 26.6881 22.0817 26.827C21.9107 26.9553 21.9 27.1797 22.0817 27.4362C22.2099 27.6072 22.2527 27.7889 22.1137 27.992C22.6375 27.992 22.4451 27.308 22.6588 27.308C22.6268 27.4362 22.6481 27.5966 22.7123 27.7676C22.755 27.8851 22.755 27.96 22.6802 28.0668C22.5092 28.334 22.242 28.9646 22.2847 29.5311C22.1137 29.5311 22.0282 29.4884 22.0817 29.2532C22.103 29.1677 22.0496 29.1036 21.9748 29.2105C21.9 29.328 21.8572 29.5311 21.8572 29.6166C21.8572 30.119 22.4558 30.2259 22.6909 30.119C23.3429 30.7496 24.6362 30.5786 25.0744 30.3648ZM12.2913 28.6226L11.7141 28.6333L11.7569 29.1998L12.2913 29.157V28.6226ZM11.8531 14.8134C11.8424 14.8028 11.8317 14.7921 11.821 14.7921C11.8103 14.7921 11.7996 14.7921 11.7889 14.8028C10.859 15.6151 10.7735 17.2183 11.7462 18.4795C12.3982 19.3132 13.7449 20.2217 15.145 21.0126C15.1236 21.1622 15.113 21.3119 15.1023 21.4508C12.2378 20.8416 10.4208 18.8643 10.1322 18.5329C10.1109 18.5116 10.0788 18.5116 10.0574 18.5436C9.53371 19.5804 9.9933 20.9592 11.0301 21.547C11.9492 22.0601 13.3815 22.3593 15.1557 22.5731C15.1771 22.7014 15.1985 22.8296 15.2305 22.9579C12.5798 23.3213 10.4956 22.3486 10.1429 22.1669C10.1216 22.1563 10.0895 22.1669 10.0788 22.199C9.93986 23.2999 10.6453 24.187 11.8317 24.3901C13.0288 24.5932 15.5619 23.9946 15.5619 23.9946C15.6153 24.1122 15.6687 24.2191 15.7222 24.3366C14.0441 25.2986 11.6927 25.1917 11.34 25.1703C11.3186 25.1703 11.2973 25.1917 11.2973 25.2131C11.3293 26.3781 12.4516 26.6881 13.4563 26.5598C14.3113 26.4422 15.4977 25.8758 16.3421 25.2345C16.4276 25.3307 16.5131 25.4162 16.6093 25.5017C15.8077 26.827 13.9052 27.3614 13.296 27.4149C13.2639 27.4149 13.2532 27.4469 13.2639 27.4683C13.67 28.1737 14.5785 28.3982 15.5832 27.9279C16.1711 27.6393 16.9086 26.8911 17.4216 26.0575C17.5392 26.1109 17.6568 26.1643 17.785 26.2071C17.4751 27.7889 15.9039 28.7509 15.626 28.9112C15.6153 28.9219 15.6046 28.9219 15.6046 28.9433C15.6046 28.954 15.6046 28.9646 15.6153 28.9753C16.0856 29.4991 17.1544 29.5097 17.8171 28.7509C18.2232 28.2806 18.5332 27.4149 18.7042 26.3674C19.1852 26.3674 20.2967 26.5812 20.6708 27.5538C20.6815 27.5966 20.7563 27.5859 20.7563 27.5431V24.8176C20.7563 24.7856 20.7243 24.7749 20.7029 24.7856C20.0937 24.9886 19.4631 25.01 19.0248 24.9245C18.1591 24.7749 17.5071 24.0694 17.5071 23.2144C17.5071 22.7227 17.7209 22.2845 18.0736 21.9746C18.1484 21.9104 18.1377 21.7929 18.0522 21.7394C18.0095 21.718 17.9774 21.6967 17.9346 21.6753C14.8992 19.7514 12.1523 15.3051 11.8531 14.8134ZM18.3942 16.4701C18.4049 16.4594 18.3942 16.267 18.3942 16.267C17.2078 16.267 16.6627 14.9845 17.5926 14.1187C17.0903 12.5369 16.3314 14.1187 15.6901 14.5249C15.3267 14.7493 14.322 14.6211 14.2472 15.07C14.1296 15.7113 15.284 15.7113 14.7709 17.1114C15.0275 16.919 15.9787 16.3632 15.7542 17.4107C15.8504 17.4107 16.1818 17.1862 16.1818 16.887C16.1818 16.235 15.284 15.9357 15.284 15.3051C15.284 14.3645 16.7803 14.3752 16.7376 14.5142C16.4917 15.3585 16.9834 16.3953 18.3942 16.4701ZM19.8799 14.1187L20.3716 13.5309L19.8799 12.9323L19.3882 13.5309L19.8799 14.1187ZM24.0269 11.8742L24.7217 10.9871L24.0269 10.1427L23.3322 10.9871L24.0269 11.8742ZM28.174 14.1187L28.6656 13.5309L28.174 12.9323L27.6823 13.5309L28.174 14.1187ZM29.4886 15.8181C29.7772 15.0379 29.4031 14.6852 28.8687 14.6852L28.174 15.3158L27.4792 14.6852C26.9341 14.6852 26.5707 15.0486 26.8593 15.8181C26.8914 15.9143 26.9876 16.064 27.0731 16.1922C26.4211 16.1067 25.5874 15.6578 25.4057 14.7066C25.4057 14.7066 25.8867 13.9477 26.0042 13.6377C26.4425 12.5262 25.8867 12.0773 25.0744 12.0773L24.0269 13.3064L22.9795 12.0773C22.1672 12.0773 21.6221 12.5262 22.0496 13.6377C22.1672 13.9477 22.6481 14.7066 22.6481 14.7066C22.4664 15.6578 21.6328 16.1067 20.9808 16.1922C21.0663 16.064 21.1518 15.9143 21.1945 15.8181C21.4831 15.0379 21.1197 14.6852 20.5746 14.6852L19.8799 15.3158L19.1852 14.6852C18.6401 14.6852 18.2767 15.0486 18.5652 15.8181C18.6508 16.0319 18.9714 16.4701 18.9714 16.4701H20.7991C22.3382 16.4701 23.0329 15.5296 23.2467 14.7066H24.8179C25.0316 15.5296 25.7157 16.4701 27.2655 16.4701H29.0931C29.0825 16.4701 29.4031 16.0319 29.4886 15.8181ZM33.796 15.07C33.7211 14.6211 32.7164 14.76 32.353 14.5249C31.7118 14.1187 30.9529 12.5475 30.4505 14.1187C31.3911 14.9845 30.846 16.267 29.6489 16.267C29.6489 16.267 29.6382 16.4594 29.6489 16.4701C31.0705 16.406 31.5621 15.3585 31.2949 14.5249C31.2522 14.3752 32.7485 14.3752 32.7485 15.3158C32.7485 15.9464 31.8507 16.2457 31.8507 16.8977C31.8507 17.1969 32.182 17.4214 32.2782 17.4214C32.0431 16.3739 33.005 16.919 33.2615 17.1221C32.7592 15.7006 33.9135 15.7113 33.796 15.07ZM37.9964 18.5329C37.9857 18.5116 37.943 18.5009 37.9216 18.5223C37.633 18.8536 35.816 20.8309 32.9516 21.4508C32.9409 21.3012 32.9302 21.1516 32.9088 21.0126C34.2983 20.2217 35.6557 19.3132 36.3077 18.4795C37.2803 17.2183 37.1948 15.6258 36.2649 14.8028C36.2542 14.7921 36.2436 14.7921 36.2329 14.7921C36.2222 14.7921 36.2115 14.8028 36.2008 14.8134C35.9015 15.2944 33.1547 19.7514 30.1299 21.6753C30.0978 21.6967 30.0551 21.718 30.023 21.7394C29.9375 21.7929 29.9268 21.8997 30.0016 21.9746C30.3543 22.2952 30.5681 22.7334 30.5681 23.2144C30.5681 24.0588 29.9161 24.7642 29.0504 24.9245C28.6122 25.01 27.9816 24.9886 27.3723 24.7856C27.3403 24.7749 27.3189 24.7962 27.3189 24.8176V27.5004C27.3189 27.5431 27.383 27.5538 27.4044 27.511C27.7785 26.5277 28.8794 26.3247 29.371 26.3247C29.4779 26.9553 29.6275 27.511 29.8199 27.9706C30.3009 28.0241 30.9636 28.0882 31.4766 28.1417C30.985 27.6821 30.4612 27.0194 30.3009 26.175C30.4292 26.1323 30.5467 26.0788 30.6643 26.0254C31.1667 26.8591 31.9041 27.6072 32.5027 27.8958C33.4967 28.3768 34.4159 28.1417 34.822 27.4362C34.8327 27.4149 34.822 27.3828 34.79 27.3828C34.17 27.3293 32.2782 26.7949 31.4766 25.4696C31.5728 25.3841 31.6583 25.2986 31.7438 25.2024C32.5882 25.8437 33.7746 26.4102 34.6296 26.5277C35.6236 26.6667 36.7566 26.346 36.7887 25.181C36.7887 25.1596 36.7673 25.1383 36.7459 25.1383C36.3932 25.1596 34.0418 25.2665 32.3637 24.3046C32.4172 24.1977 32.4813 24.0801 32.5241 23.9626C32.5241 23.9626 35.0572 24.5611 36.2542 24.358C37.4513 24.1656 38.1461 23.2678 38.0071 22.1669C38.0071 22.1349 37.975 22.1242 37.943 22.1349C37.5903 22.3166 35.5168 23.2892 32.8554 22.9258C32.8875 22.7975 32.9088 22.6693 32.9302 22.541C34.7045 22.3273 36.1367 22.028 37.0559 21.515C38.0712 20.9592 38.5201 19.5697 37.9964 18.5329Z" fill="white"/>
</svg>
