<svg width="24" height="16" viewBox="0 0 24 16" fill="none" xmlns="http://www.w3.org/2000/svg">
<g clip-path="url(#clip0)">
<path d="M24.0001 8.6897C24.0001 8.63919 23.9383 8.46671 23.9412 8.39535C23.944 8.32399 23.8822 8.18127 23.8598 8.13367C23.8373 8.08607 23.6773 7.97311 23.6745 7.93152C23.6716 7.88993 23.6689 7.72336 23.6716 7.70552C23.6745 7.68768 23.7839 7.68768 23.7614 7.66092C23.739 7.63416 23.6688 7.649 23.6548 7.61332C23.6408 7.57764 23.5761 7.57463 23.5453 7.54196C23.5144 7.50928 23.461 7.46168 23.4582 7.39924C23.4554 7.3368 23.4498 7.19709 23.4666 7.17033C23.4835 7.14357 23.5593 7.13165 23.548 7.08113C23.5368 7.03062 23.534 6.99194 23.5031 6.96818C23.4722 6.94443 23.3599 6.95626 23.3122 6.92358C23.2645 6.89091 23.1381 6.76012 23.1297 6.70951C23.1213 6.65899 23.1354 6.65899 23.1241 6.62332C23.1129 6.58764 23.0848 6.54304 23.1101 6.54003C23.1354 6.53703 23.1045 6.59656 23.1551 6.59656C23.2056 6.59656 23.2646 6.60848 23.2561 6.55787C23.2477 6.50736 23.1045 6.42999 23.0821 6.43299C23.0597 6.436 23.0597 6.47459 23.0147 6.46867C22.9698 6.46276 22.9305 6.40323 22.8771 6.38248C22.8754 6.3818 22.8741 6.38054 22.8724 6.37967C22.8238 6.35553 22.817 6.27447 22.7845 6.24568C22.7508 6.21591 22.6497 6.26652 22.6469 6.29619C22.6441 6.32596 22.6891 6.37056 22.6609 6.37346C22.6328 6.37637 22.5655 6.41506 22.5346 6.37647C22.5037 6.33779 22.4588 6.31704 22.456 6.26943C22.4531 6.22183 22.3914 6.09104 22.3577 6.02268C22.324 5.95433 22.178 5.87105 22.1808 5.82344C22.1837 5.77584 22.1275 5.72232 22.15 5.70748C22.1724 5.69265 22.2118 5.71941 22.2118 5.69265C22.2118 5.66589 22.1472 5.61237 22.1949 5.60045C22.2426 5.58852 22.3072 5.63312 22.296 5.57369C22.2847 5.51425 22.223 5.50533 22.2258 5.47858C22.2286 5.45182 22.1752 5.27933 22.2061 5.2645C22.237 5.24967 22.3857 5.42806 22.3857 5.36562C22.3857 5.30319 22.3183 5.19314 22.3183 5.14563C22.3183 5.09803 22.338 4.91963 22.3633 4.86912C22.3886 4.81861 22.4083 4.75617 22.4784 4.75016C22.5486 4.74424 22.7282 4.768 22.6917 4.70556C22.6552 4.64312 22.5345 4.55993 22.5345 4.52716C22.5345 4.49439 22.5205 4.32201 22.5008 4.2744C22.4811 4.2268 22.411 4.11685 22.411 4.07817C22.411 4.03948 22.3997 3.98005 22.3829 3.96221C22.3661 3.94437 22.3408 3.93545 22.3632 3.87893C22.3772 3.84363 22.3563 3.7969 22.3426 3.75366C22.3344 3.72758 22.3288 3.70286 22.3351 3.68269C22.352 3.62917 22.3379 3.61434 22.3183 3.57565C22.2986 3.53697 22.3014 3.45669 22.2958 3.3705C22.2902 3.28431 22.2818 3.28431 22.2621 3.26346C22.2425 3.24261 22.1499 3.26647 22.2144 3.22187C22.279 3.17727 22.2734 3.18919 22.2847 3.15943C22.2959 3.12966 22.4054 3.01671 22.4334 2.98404C22.4615 2.95136 22.3604 2.85615 22.3211 2.83541C22.2818 2.81466 22.2621 2.87109 22.2397 2.85625C22.2173 2.84142 22.2173 2.82358 22.192 2.82649C22.1667 2.82949 22.1415 2.87409 22.1078 2.87409C22.0741 2.87409 21.9787 2.89785 21.9562 2.8771C21.9337 2.85625 21.9196 2.82949 21.8944 2.84142C21.8691 2.85334 21.8438 2.88902 21.7905 2.86517C21.7372 2.84142 21.7709 2.94545 21.7316 2.94846C21.6923 2.95146 21.681 2.98413 21.6558 2.97221C21.6305 2.96028 21.594 2.94545 21.5855 2.97521C21.5771 3.00498 21.549 3.10009 21.5322 3.10009C21.5153 3.10009 21.4283 3.10901 21.4424 3.08225C21.4564 3.05549 21.6529 2.82949 21.6558 2.77597C21.6586 2.72245 21.6108 2.60058 21.5884 2.54997C21.566 2.49946 21.4705 2.39543 21.4396 2.37759C21.4088 2.35975 21.347 2.41327 21.3105 2.41327C21.2741 2.41327 21.2123 2.39242 21.2375 2.35975C21.2628 2.32708 21.2067 2.31214 21.2123 2.2914C21.2179 2.27065 21.26 2.27356 21.2488 2.2468C21.2375 2.22004 21.1898 2.18736 21.2235 2.18736C21.2572 2.18736 21.3106 2.26464 21.3443 2.25872C21.378 2.25281 21.4033 2.20821 21.4229 2.21713C21.4426 2.22605 21.4847 2.26473 21.5043 2.23196C21.524 2.19929 21.5268 2.10408 21.5156 2.05657C21.5043 2.00897 21.5886 1.92278 21.6138 1.90193C21.6391 1.88109 21.771 1.91386 21.7879 1.90494C21.8047 1.89602 21.8609 1.85442 21.8413 1.82165C21.8216 1.78898 21.8834 1.73245 21.9058 1.7087C21.9282 1.68495 21.9985 1.7087 22.0181 1.67603C22.0378 1.64335 22.0574 1.63734 22.0406 1.61058C22.0237 1.58382 21.976 1.56298 22.0013 1.56007C22.0266 1.55716 22.1051 1.59575 22.0827 1.55706C22.0603 1.51838 22.0462 1.52439 22.0462 1.49162C22.0462 1.45885 22.0686 1.41726 22.0433 1.43219C22.0181 1.44702 21.9928 1.50054 21.9563 1.47979C21.9197 1.45895 21.8945 1.37867 21.872 1.36684C21.8496 1.35491 21.7991 1.39059 21.7878 1.37576C21.7765 1.36093 21.7569 1.33116 21.7428 1.33116C21.7288 1.33116 21.6389 1.37876 21.653 1.35201C21.667 1.32525 21.7036 1.28957 21.7036 1.26581C21.7036 1.24206 21.7008 1.20037 21.698 1.18553C21.6951 1.1707 21.6474 1.20638 21.6503 1.17962C21.6531 1.15286 21.7064 1.12019 21.6924 1.08742C21.6784 1.05474 21.5913 1.06366 21.5885 1.02798C21.5856 0.992305 21.5857 0.941792 21.566 0.9447C21.5464 0.947706 21.2797 1.1677 21.2488 1.17361C21.218 1.17952 21.2039 1.31633 21.1843 1.32224C21.1646 1.32815 21.1983 1.36984 21.1814 1.37876C21.1646 1.38768 21.1365 1.39069 21.114 1.43228C21.0916 1.47388 21.0804 1.54524 21.1112 1.52449C21.1421 1.50364 21.2347 1.51256 21.274 1.5304C21.3133 1.54824 21.3554 1.57801 21.3301 1.57801C21.3048 1.57801 21.2375 1.64936 21.215 1.63453C21.1926 1.6197 21.0297 1.58402 21.0017 1.56317C20.9736 1.54233 20.982 1.63453 20.954 1.63453C20.9259 1.63453 20.8669 1.60777 20.8445 1.63453C20.8221 1.66129 20.6339 1.85452 20.6143 1.85753C20.5947 1.86053 20.5133 1.97048 20.4796 1.97048C20.4459 1.97048 20.4262 1.96156 20.4066 1.97348C20.3869 1.98541 20.3616 2.04484 20.3252 2.04484C20.2888 2.04484 20.2831 2.13995 20.2326 2.13995C20.182 2.13995 20.0949 2.22615 20.0809 2.24108C20.0669 2.25591 19.9237 2.44623 19.8676 2.46107C19.8115 2.4759 19.8058 2.5235 19.7918 2.57402C19.7778 2.62453 19.7188 2.76725 19.702 2.78509C19.6852 2.80293 19.7244 2.8356 19.6907 2.84753C19.657 2.85945 19.6234 2.88912 19.6065 2.91888C19.5897 2.94865 19.5364 3.07644 19.5167 3.09427C19.497 3.11211 19.5757 3.18047 19.5925 3.21023C19.6093 3.24 19.6964 3.18347 19.7385 3.18648C19.7806 3.18948 19.8593 3.23408 19.8789 3.26976C19.8986 3.30544 19.8845 3.45116 19.8424 3.44816C19.8002 3.44515 19.7581 3.43332 19.7329 3.44515C19.7076 3.45708 19.6711 3.51952 19.6262 3.51351C19.5812 3.50759 19.4774 3.46891 19.4577 3.50158C19.438 3.53425 19.5111 3.61453 19.4914 3.63829C19.4717 3.66204 19.3454 3.8256 19.3285 3.86429C19.3117 3.90297 19.2443 3.90889 19.2246 3.94757C19.2049 3.98625 19.1965 4.08137 19.1713 4.11404C19.1667 4.11995 19.1625 4.12752 19.1584 4.13547C19.1405 4.17134 19.1291 4.22244 19.1291 4.24183C19.1291 4.26558 18.9579 4.39346 18.9186 4.36971C18.8792 4.34596 18.8428 4.26267 18.8147 4.24183C18.7865 4.22098 18.6153 4.17047 18.5003 4.2745C18.3852 4.37853 18.2251 4.77992 18.197 4.81861C18.1689 4.85729 18.0847 4.96132 18.0595 4.92865C18.0342 4.89598 17.9472 4.85138 17.9135 4.87513C17.8798 4.89889 17.8798 4.96132 17.8574 4.94649C17.8349 4.93166 17.8265 4.91081 17.8068 4.91673C17.7871 4.92264 17.7619 4.98217 17.7423 4.97325C17.7227 4.96433 17.7142 4.93757 17.7002 4.94649C17.6861 4.95541 17.6552 5.03569 17.6328 4.997C17.6103 4.95832 17.6243 4.92565 17.6496 4.91081C17.6749 4.89598 17.6833 4.88105 17.658 4.8603C17.6328 4.83945 17.5345 4.8187 17.5121 4.84546C17.4897 4.87222 17.3689 4.95551 17.3521 4.98517C17.3352 5.01484 17.4082 5.23192 17.3886 5.27361C17.3689 5.31521 17.3633 5.38957 17.3268 5.35981C17.2903 5.33004 17.2678 5.32413 17.2931 5.29436C17.3184 5.2646 17.3408 5.25868 17.3296 5.23192C17.3184 5.20516 17.2763 5.15756 17.251 5.16057C17.2257 5.16357 17.1612 5.2646 17.1499 5.24676C17.1387 5.22892 17.105 5.16347 17.1302 5.15756C17.1555 5.15165 17.2987 5.0832 17.2847 5.05353C17.2707 5.02376 17.1639 5.08329 17.1191 5.11296C17.0742 5.14263 16.8861 5.31511 16.8327 5.31812C16.7793 5.32112 16.6867 5.34187 16.7063 5.37464C16.726 5.40731 16.7766 5.38947 16.7737 5.42816C16.7709 5.46684 16.7793 5.47576 16.7513 5.50252C16.7232 5.52928 16.6867 5.57088 16.6979 5.60365C16.7092 5.63632 16.7569 5.73444 16.7569 5.69585C16.7569 5.65717 16.7906 5.57689 16.7934 5.60966C16.7962 5.64233 16.7794 5.68402 16.8271 5.7167C16.8748 5.74937 16.9338 5.80589 16.9563 5.80589C16.9787 5.80589 16.9226 5.90101 16.8945 5.88918C16.8664 5.87725 16.8243 5.85941 16.8102 5.87434C16.7962 5.88918 16.7962 5.93087 16.7821 5.9427C16.7681 5.95462 16.8495 5.97838 16.8495 6.01105C16.8495 6.04372 16.8888 6.08832 16.8355 6.06757C16.7821 6.04673 16.5969 6.08842 16.5717 6.10325C16.5464 6.11809 16.5211 6.26381 16.5043 6.27573C16.4874 6.28766 16.3751 6.34118 16.3358 6.30841C16.2965 6.27573 16.2487 6.22222 16.2376 6.24897C16.2263 6.27573 16.2573 6.37085 16.2825 6.4392C16.3078 6.50755 16.3162 6.72163 16.2881 6.7098C16.26 6.69797 16.26 6.67712 16.2347 6.67412C16.2095 6.67111 16.1842 6.7098 16.1674 6.70088C16.1505 6.69196 15.9793 6.59976 15.9652 6.56117C15.9512 6.52248 15.8978 6.54633 15.8641 6.51957C15.8304 6.49282 15.7294 6.42146 15.749 6.40662C15.7687 6.39179 15.8052 6.45423 15.8304 6.40362C15.8557 6.3531 15.8922 6.32033 15.8333 6.28465C15.7743 6.24897 15.7013 6.33817 15.7182 6.27874C15.735 6.21931 15.7576 6.19546 15.7463 6.17471C15.735 6.15386 15.6396 6.20147 15.6396 6.15386C15.6396 6.10626 15.6882 6.07998 15.6396 6.05575C15.5919 6.03189 15.561 6.06466 15.5273 6.03791C15.4936 6.01115 15.4908 5.99331 15.4655 5.99631C15.4402 5.99932 15.3981 6.04683 15.3784 6.05284C15.3587 6.05875 15.4009 6.13612 15.37 6.11828C15.3391 6.10044 15.3195 6.07368 15.3082 6.08561C15.2969 6.09753 15.2942 6.16889 15.2661 6.14805C15.238 6.1272 15.1482 6.09152 15.1145 6.10345C15.0808 6.11537 15.0976 6.1718 15.0695 6.1748C15.0414 6.17781 15.1032 6.3056 15.1145 6.32344C15.1257 6.34128 15.1116 6.44831 15.0976 6.44831C15.0836 6.44831 14.9207 6.55234 14.9012 6.55234C14.8815 6.55234 14.8338 6.51667 14.8113 6.52258C14.7889 6.52849 14.7945 6.59093 14.7748 6.59093C14.7551 6.59093 14.6485 6.58793 14.6316 6.54633C14.6148 6.50474 14.654 6.47498 14.6316 6.45714C14.6092 6.4393 14.5558 6.44822 14.525 6.46906C14.4941 6.48991 14.306 6.51065 14.2864 6.51065C14.2668 6.51065 14.2077 6.62962 14.1797 6.63553C14.1516 6.64145 14.1741 6.76632 14.146 6.72774C14.1179 6.68905 14.1067 6.62661 14.0899 6.59093C14.073 6.55525 14.0759 6.51657 14.0562 6.53441C14.0365 6.55225 14.0534 6.61168 14.0338 6.61769C14.0141 6.62361 13.8877 6.64445 13.8877 6.6207C13.8877 6.59791 13.9258 6.55099 13.9093 6.54449C13.9085 6.5442 13.9083 6.54352 13.9074 6.54343C13.885 6.54042 13.8372 6.5761 13.8176 6.5761C13.798 6.5761 13.7305 6.5791 13.7221 6.59093C13.7137 6.60286 13.6884 6.68605 13.7221 6.68605C13.7558 6.68605 13.8316 6.64736 13.8288 6.67412C13.8259 6.70088 13.8035 6.79008 13.7782 6.79599C13.753 6.80191 13.7417 6.77515 13.7193 6.80491C13.6968 6.83468 13.5958 6.9803 13.5508 6.9803C13.5059 6.9803 13.461 6.97138 13.4469 6.99814C13.4329 7.0249 13.4132 7.17654 13.3964 7.15278C13.3795 7.12903 13.3908 7.01899 13.4048 6.98631C13.4188 6.95364 13.4693 6.95063 13.4722 6.92387C13.475 6.89711 13.4609 6.84059 13.4946 6.81984C13.5283 6.79909 13.5676 6.82285 13.576 6.76933C13.5844 6.71581 13.6125 6.6207 13.6405 6.58793C13.6686 6.55525 13.7079 6.54032 13.7023 6.51065C13.6968 6.48089 13.6518 6.49282 13.6855 6.46606C13.7192 6.4393 13.7557 6.34418 13.7922 6.30851C13.8287 6.27283 13.8511 6.25799 13.8511 6.20447C13.8511 6.15095 13.9438 6.038 13.9298 5.98448C13.9158 5.93096 13.8231 5.9458 13.854 5.91904C13.8848 5.89228 13.8792 5.82393 13.8736 5.80308C13.8681 5.78224 13.8231 5.70196 13.7781 5.6782C13.7332 5.65445 13.7473 5.72581 13.7332 5.70797C13.7192 5.69013 13.6771 5.66638 13.6827 5.63361C13.6882 5.60093 13.7023 5.55633 13.6714 5.55032C13.6405 5.54441 13.6321 5.57117 13.6068 5.55624C13.5816 5.5414 13.5703 5.51164 13.5479 5.52647C13.5255 5.54131 13.4749 5.57408 13.4355 5.57698C13.3963 5.57999 13.3008 5.61567 13.2895 5.61858C13.2783 5.62158 13.3008 5.6751 13.2755 5.69294C13.2502 5.71078 13.1688 5.76731 13.1688 5.73163C13.1688 5.69595 13.2671 5.60975 13.2362 5.56215C13.2054 5.51455 13.065 5.57999 13.0734 5.55914C13.0819 5.5383 13.0903 5.50262 13.0763 5.50563C13.0623 5.50863 12.9444 5.56806 12.9781 5.52347C13.0117 5.47887 13.1128 5.44319 13.0791 5.39558C13.0454 5.34798 12.9809 5.36291 12.9668 5.34507C12.9527 5.32723 12.9022 5.29456 12.8573 5.33615C12.8123 5.37774 12.7338 5.53539 12.7254 5.56806C12.7169 5.60074 12.658 5.6721 12.6832 5.71078C12.7085 5.74947 12.7478 5.7643 12.7338 5.79106C12.7198 5.81782 12.6861 5.84157 12.6524 5.85941C12.6187 5.87725 12.5316 5.83265 12.5205 5.85641C12.5092 5.88016 12.5065 5.92476 12.5373 5.92777C12.5682 5.93077 12.6412 6.01396 12.6075 5.99912C12.5738 5.98429 12.5065 5.97537 12.4896 5.99612C12.4728 6.01696 12.4672 6.0794 12.4306 6.07339C12.3941 6.06748 12.4026 6.04964 12.3914 6.04964C12.3801 6.04964 12.3689 6.14184 12.3577 6.12691C12.3464 6.11208 12.3408 6.09424 12.3211 6.09714C12.3015 6.10015 12.2763 6.15958 12.2734 6.12691C12.2706 6.09424 12.2734 6.04072 12.2959 6.03471C12.3183 6.02879 12.3548 5.99602 12.3324 5.9871C12.31 5.97818 12.2903 5.96926 12.265 6.00494C12.2398 6.04062 12.2145 6.06147 12.1921 6.06147C12.1696 6.06147 12.091 6.04363 12.0544 6.07039C12.0179 6.09714 12.0039 6.13282 12.0404 6.12691C12.077 6.121 12.091 6.15667 12.0433 6.18043C11.9956 6.20418 11.9254 6.23695 11.9001 6.24587C11.8748 6.25479 11.8186 6.26672 11.7597 6.27263C11.7008 6.27855 11.6362 6.36774 11.6194 6.40051C11.6025 6.43329 11.597 6.47187 11.5576 6.45403C11.5182 6.43619 11.4818 6.40643 11.4705 6.43619C11.4593 6.46596 11.5351 6.50164 11.5014 6.50164C11.4677 6.50164 11.4171 6.49272 11.4227 6.51948C11.4283 6.54624 11.4788 6.59384 11.4648 6.60276C11.4508 6.61168 11.3946 6.55816 11.3666 6.57901C11.3385 6.59985 11.3132 6.64736 11.3413 6.68013C11.3694 6.7128 11.448 6.73365 11.42 6.73064C11.3919 6.72764 11.3413 6.73064 11.3639 6.7574C11.3863 6.78416 11.4368 6.79008 11.4425 6.81092C11.4481 6.83177 11.4509 6.81984 11.4509 6.86444C11.4509 6.90904 11.4846 6.95364 11.4425 6.94472C11.4004 6.9358 11.3695 6.91205 11.3274 6.94171C11.2853 6.97148 11.2713 7.01307 11.2319 6.98932C11.1926 6.96556 11.187 6.95664 11.1421 6.97739C11.0972 6.99824 11.0018 7.01899 10.9484 7.00115C10.895 6.98331 10.8108 6.94462 10.7855 7.00415C10.7602 7.06359 10.7321 7.10818 10.7546 7.15579C10.7771 7.20339 10.7968 7.24799 10.7828 7.30442C10.7687 7.36094 10.7294 7.39362 10.7659 7.4323C10.8024 7.47099 10.9035 7.48582 10.9035 7.5215C10.9035 7.55718 10.9091 7.59586 10.9259 7.63445C10.9428 7.67314 10.9175 7.71172 10.8698 7.71172C10.8221 7.71172 10.7716 7.67905 10.7547 7.62844C10.7379 7.57793 10.7098 7.60469 10.7098 7.54816C10.7098 7.49164 10.6564 7.49164 10.5975 7.43812C10.5701 7.4132 10.5458 7.40671 10.5245 7.40642C10.4999 7.40613 10.4793 7.41437 10.4627 7.41437C10.4318 7.41437 10.3785 7.44113 10.384 7.46488C10.3896 7.48863 10.4374 7.48272 10.4317 7.51248C10.4262 7.54225 10.4346 7.57793 10.4233 7.57793C10.4121 7.57793 10.4009 7.60769 10.3699 7.58093C10.3391 7.55417 10.3138 7.51549 10.2885 7.50657C10.2633 7.49765 10.2043 7.49765 10.2015 7.52441C10.1986 7.55117 10.1959 7.60769 10.2043 7.65229C10.2127 7.69689 10.238 7.69098 10.2801 7.72666C10.3222 7.76234 10.3307 7.78609 10.3644 7.79501C10.398 7.80393 10.4121 7.85444 10.4093 7.87829C10.4065 7.90205 10.3869 7.95266 10.3672 7.9259C10.3475 7.89914 10.3644 7.84862 10.3222 7.8367C10.2801 7.82477 10.1088 7.77126 10.1004 7.71774C10.092 7.66422 10.1144 7.66121 10.1088 7.62262C10.1032 7.58394 10.106 7.53042 10.1201 7.50667C10.1341 7.48291 10.1931 7.41446 10.1931 7.35503C10.1931 7.2956 10.2127 7.18856 10.1931 7.17072C10.1734 7.15288 10.1538 7.12312 10.1454 7.15879C10.1369 7.19447 10.1482 7.37287 10.1313 7.39371C10.1145 7.41456 10.0106 7.47099 9.96572 7.47399C9.92077 7.477 9.90118 7.53343 9.89276 7.56319C9.88433 7.59296 9.81979 7.59887 9.82537 7.63455C9.83096 7.67023 9.8619 7.68215 9.8619 7.73858C9.8619 7.79511 9.91802 7.92289 9.9096 7.95266C9.90118 7.98242 9.81979 8.10129 9.80569 8.12514C9.79168 8.14889 9.75799 8.2441 9.75799 8.28569C9.75799 8.32729 9.78042 8.32729 9.75515 8.36898C9.72988 8.41057 9.68218 8.48794 9.72146 8.49386C9.76073 8.49977 9.79726 8.49085 9.81695 8.50578C9.83663 8.52062 9.87875 8.53555 9.9096 8.5147C9.94045 8.49386 9.97415 8.49095 10.0247 8.53254C10.0752 8.57413 10.1987 8.66333 10.1876 8.68718C10.1763 8.71094 10.1679 8.7853 10.1904 8.81797C10.2128 8.85065 10.2101 8.89234 10.1876 8.91018C10.1651 8.92802 10.1483 8.93994 10.137 8.95778C10.1258 8.97562 10.0893 9.02914 10.1062 9.06181C10.123 9.09449 10.1595 9.13909 10.1904 9.13618C10.2213 9.13317 10.2746 9.18669 10.2072 9.17777C10.1399 9.16885 10.0612 9.13909 10.0528 9.07965C10.0444 9.02022 10.0836 8.98745 10.0865 8.93694C10.0893 8.88642 10.0641 8.86257 10.0809 8.84473C10.0977 8.82689 10.1259 8.84774 10.109 8.79713C10.0922 8.74662 10.0529 8.70493 10.0529 8.67817C10.0529 8.65141 10.0726 8.61272 10.0473 8.61573C10.022 8.61873 9.81429 8.62465 9.79461 8.65141C9.77492 8.67817 9.75249 8.74652 9.74691 8.78821C9.74132 8.8298 9.76659 8.83581 9.76092 8.90417C9.75533 8.97252 9.72164 9.04097 9.68795 9.06172C9.65426 9.08256 9.61498 9.12416 9.60656 9.15392C9.59813 9.18369 9.55602 9.28772 9.52232 9.29664C9.48863 9.30556 9.39314 9.35607 9.34544 9.34715C9.29774 9.33823 9.31459 9.46902 9.2668 9.4601C9.2191 9.45118 9.21342 9.40658 9.17973 9.39175C9.14604 9.37692 9.01969 9.37692 9.00568 9.34414C8.99168 9.31137 9.0001 9.29955 8.97199 9.28171C8.94388 9.26387 8.8906 9.22819 8.8906 9.19842C8.8906 9.16866 8.8906 9.12406 8.91028 9.13298C8.92997 9.1419 9.00578 9.13298 9.01978 9.17166C9.03379 9.21035 9.06474 9.22518 9.09275 9.22218C9.12086 9.21917 9.24995 9.21025 9.28648 9.1895C9.32301 9.16866 9.40156 9.04979 9.4381 9.01702C9.47463 8.98435 9.49147 9.02594 9.51949 8.96942C9.54759 8.91289 9.4998 8.8713 9.53633 8.82079C9.57286 8.77027 9.64299 8.72567 9.63182 8.68999C9.62056 8.65431 9.53359 8.54427 9.55318 8.48183C9.57286 8.41939 9.58403 8.39264 9.59246 8.33611C9.60088 8.27959 9.65425 8.23208 9.65425 8.18147C9.65425 8.13096 9.65709 8.09227 9.69079 8.00608C9.72448 7.91989 9.74975 7.89313 9.74975 7.84252C9.74975 7.792 9.74416 7.75632 9.72732 7.68787C9.71047 7.61952 9.67678 7.61351 9.71047 7.58384C9.74416 7.55408 9.87609 7.39653 9.88451 7.31625C9.89294 7.23597 9.89852 7.20029 9.91537 7.15569C9.93221 7.11109 9.83956 7.09626 9.81429 7.05166C9.78902 7.00706 9.64025 6.99514 9.62615 6.97439C9.61214 6.95354 9.58687 6.95955 9.55034 7.01307C9.51381 7.06659 9.37062 7.37277 9.33693 7.39362C9.30324 7.41446 9.17689 7.48582 9.14888 7.48582C9.12077 7.48582 9.01411 7.64046 9.06464 7.63746C9.11518 7.63445 9.14045 7.63154 9.13203 7.6583C9.12361 7.68506 9.07023 7.80994 9.06181 7.8367C9.05338 7.86346 9.06181 7.9289 9.03095 7.9289C9.0001 7.9289 8.98884 7.90806 8.96915 7.94374C8.94947 7.97942 8.91578 8.08946 8.94105 8.06561C8.96632 8.04185 8.986 8.03885 9.01127 8.0626C9.03654 8.08636 9.08708 8.15481 9.07023 8.17856C9.05338 8.20231 9.06464 8.37179 9.08991 8.38672C9.11518 8.40156 9.13203 8.40156 9.11802 8.41348C9.10401 8.42541 8.99726 8.61563 8.97767 8.59779C8.95798 8.57995 8.99451 8.56512 8.95798 8.52052C8.92145 8.47592 8.88218 8.39564 8.87659 8.34513C8.87101 8.29461 8.78678 8.25002 8.7811 8.20833C8.77606 8.1709 8.70319 8.13823 8.68231 8.08238C8.67993 8.07608 8.6781 8.06958 8.67719 8.0626C8.66876 7.99425 8.57327 7.91397 8.54242 7.87829C8.51156 7.84261 8.38797 7.7921 8.35995 7.75041C8.33184 7.70882 8.31225 7.70581 8.29257 7.6999C8.27288 7.69398 8.25887 7.73558 8.23644 7.73257C8.21401 7.72956 8.1859 7.68797 8.18032 7.73257C8.17474 7.77717 8.18874 7.92289 8.19158 7.94665C8.19442 7.9704 8.10735 8.0596 8.08767 8.05368C8.06798 8.04777 8.03713 8.00908 8.0147 8.015C7.99227 8.02091 7.93889 8.05068 7.93047 8.02392C7.92204 7.99716 7.97258 8.00307 7.967 7.97631C7.96141 7.94955 7.95858 7.86928 7.93614 7.87228C7.91371 7.87529 7.74525 7.89604 7.72557 7.89604C7.70588 7.89604 7.69188 7.93171 7.65819 7.90495C7.62449 7.8782 7.59364 7.80684 7.54026 7.80383C7.48689 7.80083 7.41392 7.80383 7.39423 7.8365C7.37455 7.86918 7.37739 7.89594 7.32685 7.86026C7.27631 7.82458 7.17523 7.77106 7.18924 7.75322C7.20325 7.73538 7.27063 7.79482 7.28748 7.75322C7.30433 7.71163 7.27906 7.66703 7.31559 7.64919C7.35212 7.63135 7.36896 7.63135 7.36896 7.60459C7.36896 7.57783 7.4672 7.60158 7.4195 7.58084C7.3718 7.55999 7.19492 7.56891 7.18366 7.57192C7.1724 7.57492 7.13596 7.6998 7.11627 7.69088C7.09659 7.68196 7.09659 7.67003 7.10785 7.64628C7.11911 7.62253 7.1247 7.60469 7.09943 7.59577C7.07416 7.58685 7.00119 7.58685 6.97592 7.55417C6.95065 7.5215 6.82431 7.59286 6.77661 7.59286C6.72891 7.59286 6.64468 7.55718 6.61657 7.54235C6.58846 7.52751 6.61373 7.59286 6.57162 7.58394C6.5295 7.57502 6.49297 7.56019 6.4677 7.56019C6.44243 7.56019 6.36663 7.6553 6.34978 7.68807C6.33293 7.72074 6.3105 7.75642 6.27956 7.73858C6.2487 7.72074 6.2346 7.70882 6.1869 7.69699C6.1392 7.68506 6.1111 7.67023 6.1111 7.63455C6.1111 7.59887 6.12794 7.55728 6.12794 7.51859C6.12794 7.47991 6.06056 7.4324 6.08583 7.39371C6.1111 7.35503 6.17848 7.35503 6.20091 7.33719C6.22334 7.31935 6.30757 7.37878 6.34126 7.3877C6.37496 7.39662 6.41707 7.41146 6.41991 7.35202C6.42275 7.29259 6.42833 7.30442 6.42275 7.25691C6.41716 7.20931 6.40032 7.20339 6.41149 7.15879C6.42266 7.1142 6.43676 7.09044 6.41432 7.06068C6.39189 7.03091 6.29082 7.01307 6.26839 6.96556C6.24596 6.91796 6.21501 6.84369 6.19816 6.87937C6.18132 6.91505 6.21217 6.99834 6.20375 7.03401C6.19533 7.06969 6.11668 7.18265 6.0774 7.20349C6.03813 7.22434 5.94822 7.29569 5.95106 7.31945C5.9539 7.3432 5.97917 7.45916 5.9539 7.48892C5.92863 7.51869 5.9062 7.57812 5.87809 7.57812C5.86363 7.57812 5.84385 7.58132 5.82508 7.58811C5.8075 7.59441 5.79066 7.60382 5.77985 7.61681C5.75742 7.64357 5.72089 7.73868 5.72089 7.703C5.72089 7.66732 5.72373 7.64948 5.71247 7.64948C5.70121 7.64948 5.63666 7.65539 5.67035 7.63465C5.70405 7.6138 5.74058 7.59897 5.72373 7.55737C5.70688 7.51578 5.6395 7.49193 5.6395 7.44442C5.6395 7.39682 5.63666 7.37607 5.58612 7.39682C5.53558 7.41766 5.44852 7.46818 5.41766 7.45034C5.38681 7.4325 5.35586 7.40273 5.31375 7.41165C5.27163 7.42057 5.19299 7.43841 5.15371 7.4325C5.11443 7.42658 5.09191 7.48902 5.09191 7.55146C5.09191 7.6139 5.06381 7.68225 5.03579 7.7061C5.00768 7.72986 4.98809 7.78939 4.97399 7.7507C4.95998 7.71202 4.96841 7.72394 4.91787 7.69718C4.86733 7.67042 4.88976 7.61099 4.86449 7.56339C4.83922 7.51578 4.80837 7.54254 4.81111 7.48311C4.81395 7.42367 4.79143 7.44151 4.79985 7.39391C4.80828 7.3463 4.79985 7.3017 4.77742 7.25711C4.75499 7.21251 4.71562 7.26903 4.69878 7.26603C4.68193 7.26302 4.65666 7.22443 4.63423 7.25119C4.6118 7.27795 4.62865 7.36124 4.60054 7.39691C4.57243 7.43259 4.56968 7.48311 4.60054 7.50395C4.63139 7.5248 4.67635 7.50987 4.6595 7.54855C4.64265 7.58724 4.60054 7.67042 4.58085 7.67042C4.56117 7.67042 4.47978 7.6615 4.46293 7.63775C4.44673 7.61487 4.43821 7.56445 4.42008 7.51568C4.41935 7.51374 4.41871 7.51181 4.41798 7.50987C4.39829 7.45935 4.44609 7.39391 4.43199 7.34931C4.41798 7.30471 4.34776 7.22744 4.37019 7.18284C4.39262 7.13824 4.42915 7.14716 4.45158 7.11148C4.47401 7.0758 4.5077 6.94792 4.54423 6.91224C4.58076 6.87656 4.69017 6.90031 4.70427 6.84389C4.71828 6.78736 4.73796 6.80821 4.71553 6.71901C4.6931 6.62981 4.67342 6.5793 4.68468 6.56146C4.69594 6.54362 4.71553 6.56146 4.71837 6.52277C4.71874 6.51783 4.71892 6.51192 4.7191 6.50542C4.71993 6.46169 4.71599 6.3884 4.71837 6.34438C4.72121 6.29387 4.78017 6.28785 4.78017 6.26711C4.78017 6.24636 4.80828 6.29086 4.79985 6.32654C4.79143 6.36222 4.79985 6.42466 4.82796 6.44841C4.85607 6.47216 4.85323 6.55545 4.85607 6.59413C4.85891 6.63282 4.89818 6.77253 4.89818 6.80229C4.89818 6.83206 5.01894 6.95694 5.03579 7.00444C5.05264 7.05205 5.07507 7.13824 5.12286 7.16199C5.17056 7.18575 5.29132 7.25119 5.37829 7.23927C5.46536 7.22734 5.57202 7.21842 5.60288 7.18875C5.63373 7.15899 5.69553 7.13523 5.6731 7.09956C5.65067 7.06388 5.71805 7.06087 5.71805 7.01928C5.71805 6.97768 5.77418 6.97167 5.76017 6.93599C5.74616 6.90031 5.70679 6.87356 5.71521 6.8468C5.72364 6.82004 5.7349 6.7576 5.72922 6.73084C5.72364 6.70408 5.69837 6.716 5.68995 6.66249C5.68152 6.60897 5.67594 6.56437 5.65067 6.51977C5.6254 6.47517 5.65067 6.30569 5.64225 6.24035C5.63382 6.1749 5.65625 6.07678 5.62256 6.02627C5.58887 5.97576 5.54117 5.9936 5.53275 5.93407C5.52432 5.87463 5.49905 5.88646 5.47095 5.84787C5.44284 5.80919 5.38956 5.83304 5.40356 5.80919C5.41757 5.78544 5.47937 5.78544 5.45126 5.75868C5.42316 5.73192 5.40073 5.74384 5.41199 5.726C5.42325 5.70816 5.43167 5.70816 5.41757 5.68441C5.40356 5.66066 5.38388 5.63981 5.40073 5.60714C5.41757 5.57446 5.4541 5.67549 5.47369 5.66958C5.49338 5.66366 5.52423 5.67258 5.50739 5.63981C5.49054 5.60714 5.49054 5.58629 5.49054 5.55061C5.49054 5.51493 5.36703 5.53869 5.36703 5.50301C5.36703 5.48381 5.37097 5.46733 5.37161 5.45337C5.3501 5.4586 5.32766 5.46587 5.30661 5.47625C5.24343 5.50747 5.27292 5.45841 5.25607 5.43611C5.23922 5.41381 5.22238 5.43165 5.18026 5.45395C5.13815 5.47625 5.12972 5.41827 5.09182 5.40489C5.08505 5.40247 5.08166 5.39859 5.08056 5.39384C5.05254 5.40867 5.02517 5.42399 5.01601 5.43165C4.99496 5.44949 4.92757 5.38705 4.93178 5.41381C4.93599 5.44057 4.88125 5.47625 4.83071 5.49409C4.78017 5.51193 4.76332 5.58329 4.76753 5.61897C4.77175 5.65464 4.7549 5.73492 4.72542 5.75722C4.69594 5.77952 4.71278 5.82412 4.68752 5.89102C4.66225 5.95792 4.41798 5.90886 4.40534 5.95792C4.40095 5.97479 4.38456 6.01309 4.36396 6.05778C4.32478 6.14271 4.2703 6.2513 4.25373 6.28349C4.22846 6.33255 4.21583 6.35931 4.1695 6.34593C4.12317 6.33255 4.08948 6.36823 4.06421 6.40391C4.03894 6.43959 3.97156 6.44405 3.94629 6.47081C3.92102 6.49757 3.94629 6.54662 3.94629 6.56892C3.94629 6.59122 3.82837 6.61352 3.84521 6.65366C3.86206 6.6938 3.86627 6.77408 3.81995 6.79638C3.77362 6.81868 3.68097 6.79638 3.66833 6.81422C3.6557 6.83206 3.66833 6.90342 3.68097 6.95248C3.6936 7.00153 3.65148 7.05505 3.63885 7.12641C3.62622 7.19777 3.59674 7.20223 3.51672 7.24683C3.4367 7.29143 3.26824 7.23791 3.19243 7.26913C3.14775 7.28755 3.05345 7.28571 2.97142 7.27941C2.97545 7.29123 2.97957 7.30355 2.98387 7.31625C2.97957 7.30355 2.97535 7.29123 2.97142 7.27941C2.9142 7.27495 2.86293 7.26835 2.83866 7.26467C2.7797 7.25575 2.65757 7.25129 2.60282 7.26467C2.59238 7.26719 2.58066 7.2699 2.5684 7.27262C2.57004 7.27359 2.57169 7.27504 2.57334 7.27582C2.60914 7.29143 2.68073 7.32934 2.70811 7.33157C2.73548 7.3338 2.72916 7.3561 2.69968 7.36056C2.6702 7.36502 2.65967 7.43637 2.65336 7.4609C2.64851 7.47962 2.64008 7.50618 2.64851 7.53158C2.65116 7.53944 2.65528 7.54719 2.66178 7.55456C2.68916 7.58578 2.75022 7.58801 2.73548 7.63038C2.72074 7.67275 2.73127 7.75972 2.69337 7.7062C2.68934 7.70048 2.68595 7.69495 2.68293 7.68962C2.65729 7.64444 2.66178 7.61041 2.62598 7.59247C2.58597 7.5724 2.4491 7.51442 2.42804 7.48989C2.41248 7.47176 2.36615 7.49969 2.33603 7.51122C2.34244 7.53633 2.34931 7.55805 2.34592 7.5724C2.33749 7.60808 2.27011 7.58132 2.24063 7.60362C2.23331 7.60915 2.2247 7.61109 2.21499 7.61128C2.18551 7.61176 2.14596 7.59577 2.10165 7.61254C2.04269 7.63484 2.06375 7.71066 1.98373 7.73742C1.90371 7.76418 1.93319 7.79986 1.90371 7.84892C1.87423 7.89797 1.84896 7.84892 1.80684 7.85784C1.76473 7.86676 1.77736 7.93365 1.77736 7.96487C1.77736 7.99609 1.67208 8.04515 1.63417 8.06745C1.59627 8.08975 1.65523 8.11205 1.65102 8.14773C1.64681 8.18341 1.59627 8.22801 1.56258 8.27707C1.53246 8.32089 1.49895 8.35017 1.46516 8.33689C1.46416 8.34697 1.46297 8.3557 1.4615 8.3618C1.45308 8.39748 1.4994 8.37964 1.51625 8.39302C1.5331 8.4064 1.51625 8.4064 1.4994 8.44654C1.48256 8.48668 1.55415 8.48668 1.57521 8.53128C1.59627 8.57588 1.5331 8.60264 1.52889 8.63386C1.52467 8.66508 1.55837 8.66954 1.6089 8.67846C1.65944 8.68738 1.68471 8.72752 1.66365 8.74981C1.6426 8.77211 1.66786 8.83009 1.67208 8.85685C1.67263 8.86015 1.67272 8.86325 1.67244 8.86606C1.67061 8.88604 1.64946 8.89525 1.6089 8.91483C1.56258 8.93713 1.58363 8.99065 1.58363 9.00849C1.58363 9.02633 1.51625 9.02187 1.49098 9.03079C1.46571 9.03971 1.46571 9.07539 1.4615 9.11999C1.45729 9.16459 1.41939 9.21364 1.38148 9.25378C1.34358 9.29392 1.4236 9.38312 1.4236 9.38312C1.4236 9.38312 1.38569 9.42326 1.36042 9.44556C1.33516 9.46786 1.41939 9.51692 1.42781 9.55706C1.43623 9.5972 1.40254 9.58828 1.38148 9.61058C1.36042 9.63288 1.37727 9.65517 1.37727 9.69085C1.37727 9.70055 1.37434 9.70433 1.36976 9.70491C1.3575 9.70646 1.3325 9.68281 1.3141 9.67301C1.28883 9.65963 1.25514 9.68639 1.21302 9.68193C1.17091 9.67747 1.15827 9.61058 1.15406 9.56152C1.14985 9.51246 1.12458 9.508 1.10352 9.52138C1.08247 9.53476 1.06562 9.62842 1.05298 9.67301C1.0452 9.70036 0.964452 9.76977 0.892581 9.83066C0.914371 9.85248 0.932316 9.87526 0.939274 9.89601C0.960332 9.95845 1.03193 9.90493 1.0572 9.89601C1.08247 9.88709 1.07825 9.91385 1.09089 9.96737C1.10352 10.0209 1.20881 10.0387 1.23408 10.0655C1.25935 10.0922 1.28462 10.1547 1.25935 10.1904C1.2393 10.2187 1.23518 10.2664 1.23225 10.3027C1.23152 10.3122 1.23078 10.3212 1.22987 10.3286C1.22566 10.3643 1.14564 10.3242 1.14564 10.3465C1.14564 10.3688 1.09931 10.4223 1.07404 10.4669C1.04877 10.5115 1.16248 10.5739 1.18354 10.6364C1.19306 10.6648 1.16963 10.7097 1.14115 10.7543C1.107 10.8082 1.06562 10.8617 1.06562 10.886C1.06562 10.9306 1.10352 10.9351 1.14985 10.9886C1.19618 11.0421 1.16248 11.0421 1.17933 11.1045C1.19618 11.167 1.352 11.1804 1.35621 11.2116C1.36042 11.2428 1.34358 11.2874 1.32673 11.3231C1.30989 11.3588 1.36464 11.4034 1.37727 11.4212C1.38991 11.439 1.41939 11.5461 1.4615 11.5862C1.47249 11.5967 1.48219 11.6111 1.49071 11.6272C1.51497 11.6732 1.52889 11.7337 1.52889 11.7602C1.52889 11.7958 1.59627 11.8137 1.60469 11.8404C1.60707 11.8481 1.60478 11.8561 1.60048 11.8642C1.58977 11.8841 1.5656 11.9035 1.56258 11.9162C1.55837 11.9341 1.49519 11.9296 1.44465 11.9296C1.39412 11.9296 1.41939 11.9564 1.40675 12.0054C1.39412 12.0545 1.33516 11.9965 1.3141 12.0144C1.29304 12.0322 1.28041 12.1169 1.27198 12.1615C1.26356 12.2061 1.18775 12.2284 1.1667 12.2552C1.14564 12.282 1.06983 12.1482 1.02772 12.1169C0.985601 12.0857 0.951909 12.108 0.909794 12.1214C0.867679 12.1348 0.825563 12.0857 0.796083 12.1036C0.774293 12.1167 0.724854 12.1714 0.683562 12.2207C0.692352 12.2286 0.702148 12.2338 0.713592 12.2338C0.755707 12.2338 0.76413 12.2115 0.776765 12.2293C0.789399 12.2472 0.835726 12.2873 0.869418 12.2873C0.90311 12.2873 0.907322 12.3676 0.877841 12.3676C0.856234 12.3676 0.79178 12.3531 0.745545 12.3314C0.728699 12.3235 0.714142 12.3146 0.705169 12.3051C0.671477 12.2695 0.696746 12.3765 0.658843 12.3453C0.620939 12.3141 0.616728 12.3274 0.587247 12.2873C0.557766 12.2472 0.532497 12.2293 0.519863 12.2427C0.507228 12.2561 0.477748 12.3141 0.486171 12.3453C0.494594 12.3765 0.561978 12.5103 0.515651 12.5058C0.469325 12.5014 0.460902 12.4969 0.422998 12.4612C0.385095 12.4255 0.313499 12.5237 0.28823 12.4924C0.262961 12.4612 0.216634 12.6084 0.195577 12.595C0.174519 12.5816 0.157673 12.537 0.128193 12.5058C0.0987122 12.4746 0.0945007 12.3899 0.0818662 12.3988C0.0692317 12.4077 0.00184756 12.4434 0.00605906 12.4835C0.0102706 12.5237 0.0565972 12.6084 0.0313281 12.6262C0.00605906 12.6441 -0.010787 12.7021 0.0102706 12.7288C0.0313281 12.7556 0.0650202 12.8136 0.0565971 12.8582C0.0481741 12.9028 0.0987122 12.9518 0.123981 12.9875C0.14925 13.0232 0.178731 13.1436 0.166096 13.206C0.153462 13.2685 0.145039 13.4201 0.174519 13.4781C0.1769 13.4828 0.179097 13.4875 0.181294 13.4921C0.221761 13.4911 0.255637 13.4929 0.274039 13.4987C0.325859 13.5152 0.336388 13.5338 0.345085 13.5657C0.348381 13.5779 0.351494 13.5919 0.356438 13.6087C0.374383 13.6694 0.445978 13.8134 0.478206 13.8779C0.50851 13.9385 0.598783 13.9422 0.612608 13.9738C0.613523 13.9758 0.614073 13.978 0.614347 13.9803C0.617918 14.0182 0.696746 14.0523 0.689513 14.1017C0.685027 14.1326 0.725586 14.1934 0.75644 14.2419C0.774842 14.2707 0.789766 14.2952 0.789766 14.3066C0.789766 14.3369 0.76825 14.3673 0.789766 14.4014C0.807527 14.4296 0.894138 14.4449 0.931492 14.4601C0.939274 14.4633 0.944951 14.4664 0.947423 14.4697C0.953648 14.4781 0.979741 14.4993 1.01014 14.5233C1.04932 14.5541 1.09556 14.5892 1.11579 14.6062C1.15159 14.6366 1.14088 14.6745 1.14088 14.7124C1.14088 14.7266 1.1374 14.7364 1.13099 14.7446C1.13996 14.7433 1.14875 14.7418 1.15717 14.7401C1.14875 14.7418 1.13996 14.7433 1.13099 14.7446C1.12019 14.7586 1.10114 14.7678 1.07633 14.7844C1.03696 14.811 1.08347 14.8451 1.08347 14.8717C1.08347 14.8983 1.11927 14.9285 1.14793 14.9817C1.1623 15.0083 1.16221 15.0483 1.15864 15.0854C1.18519 15.1022 1.20707 15.1265 1.21183 15.1541C1.22309 15.2196 1.1894 15.2671 1.21183 15.3325C1.23426 15.398 1.29048 15.4633 1.32417 15.4633C1.35786 15.4633 1.40281 15.392 1.43651 15.4276C1.4702 15.4633 1.49831 15.4931 1.52632 15.4514C1.54079 15.43 1.57018 15.3897 1.60213 15.3605C1.59938 15.3406 1.5938 15.3223 1.58244 15.3057C1.54591 15.2522 1.57118 14.9756 1.59087 14.8775C1.61055 14.7794 1.66951 14.8003 1.6751 14.7437C1.68068 14.6872 1.69194 14.6634 1.71721 14.6456C1.74248 14.6278 1.78744 14.598 1.78176 14.5475C1.77617 14.497 1.77892 14.4196 1.76207 14.3839C1.74523 14.3482 1.71712 14.3006 1.74523 14.265C1.75814 14.2486 1.78643 14.243 1.81655 14.239C1.85198 14.2343 1.88988 14.2319 1.9081 14.2175C1.93804 14.1937 2.06759 14.1136 2.11181 14.0836C2.11731 14.0798 2.12179 14.0767 2.12426 14.0747C2.14669 14.0569 2.25345 14.1283 2.2843 14.1253C2.31516 14.1222 2.34042 14.1193 2.37412 14.1193C2.40781 14.1193 2.37695 14.1788 2.41065 14.155C2.44434 14.1313 2.41623 14.1015 2.4556 14.1104C2.49488 14.1193 2.58753 14.1431 2.59321 14.1193C2.59559 14.1095 2.59659 14.0914 2.59962 14.0747C2.56959 14.026 2.54587 13.9778 2.55246 13.9543C2.5651 13.9097 2.62827 13.9945 2.64091 13.9097C2.65354 13.825 2.67881 13.7715 2.67881 13.7046C2.67881 13.6377 2.67039 13.5886 2.67039 13.5351C2.67039 13.4816 2.58616 13.4771 2.54825 13.4325C2.51035 13.3879 2.57352 13.3255 2.57352 13.2764C2.57352 13.2274 2.48929 13.1605 2.52298 13.1025C2.53489 13.082 2.54688 13.0627 2.55988 13.0461C2.58368 13.0155 2.61124 12.9939 2.64933 12.991C2.70829 12.9865 2.7841 13.0044 2.76725 12.9285C2.75041 12.8527 2.69987 12.8572 2.75041 12.8126C2.80094 12.768 2.85569 12.7412 2.90202 12.7412C2.94835 12.7412 2.9694 12.7189 2.98625 12.6922C2.99284 12.6817 3.00401 12.6672 3.01655 12.6555C3.03615 12.6373 3.05931 12.626 3.07469 12.6476C3.09996 12.6833 3.12944 12.7903 3.10417 12.8304C3.0789 12.8706 3.12102 12.9285 3.14208 12.9419C3.16313 12.9553 3.22631 12.9508 3.23052 12.9018C3.23473 12.8527 3.28527 12.7769 3.32317 12.7635C3.36107 12.7502 3.47057 12.7992 3.48742 12.768C3.50427 12.7368 3.50848 12.6743 3.55059 12.6877C3.59271 12.7011 3.63482 12.7279 3.70221 12.7145C3.76446 12.7021 3.82315 12.6442 3.88156 12.653C3.88632 12.6538 3.89117 12.6547 3.89594 12.6565C3.90353 12.6592 3.91022 12.6625 3.91626 12.6662C3.96085 12.6935 3.96753 12.7466 3.96753 12.7858C3.96753 12.8304 4.00122 12.8616 4.0307 12.8393C4.06018 12.817 4.1023 12.7948 4.12336 12.8037C4.14441 12.8126 4.16126 12.8081 4.16126 12.8438C4.16126 12.8795 4.14441 12.9464 4.19916 12.9598C4.25391 12.9731 4.35499 13.04 4.35499 13.0891C4.35499 13.1382 4.36341 13.1783 4.39289 13.2006C4.42237 13.2229 4.44764 13.2943 4.42659 13.321C4.40553 13.3478 4.3971 13.4548 4.41816 13.4281C4.43922 13.4013 4.48134 13.321 4.49397 13.3522C4.5066 13.3835 4.54872 13.4682 4.5782 13.4994C4.60768 13.5306 4.58662 13.5931 4.65401 13.5842C4.72139 13.5752 4.71297 13.5173 4.76772 13.5128C4.82247 13.5083 4.89827 13.486 4.9446 13.544C4.99093 13.602 5.00356 13.6867 5.04568 13.6689C5.08779 13.6511 5.10043 13.6109 5.14254 13.6243C5.18466 13.6377 5.28994 13.66 5.26889 13.7001C5.24783 13.7402 5.21414 13.7313 5.22677 13.7759C5.23941 13.8205 5.25204 13.874 5.29416 13.8919C5.33627 13.9097 5.36575 13.9945 5.40787 13.9766C5.44998 13.9588 5.49631 13.8384 5.52158 13.9097C5.54685 13.9811 5.53 13.9945 5.61423 14.0301C5.69846 14.0658 5.77427 14.0346 5.79533 14.0078C5.81638 13.9811 5.87956 13.932 5.87956 13.8874C5.87956 13.8428 5.79111 13.7982 5.79954 13.767C5.80796 13.7358 5.68583 13.6867 5.69425 13.6644C5.70057 13.6477 5.6568 13.603 5.6492 13.5725C5.64673 13.5625 5.64811 13.554 5.65635 13.5485C5.69004 13.5262 5.95115 13.5173 5.93852 13.486C5.92588 13.4548 5.89219 13.3612 5.91325 13.3478C5.9343 13.3344 5.94694 13.2809 6.01854 13.3344C6.09013 13.3879 6.18278 13.4325 6.20384 13.3879C6.2249 13.3433 6.04802 13.2095 6.0775 13.1917C6.10698 13.1738 6.17015 13.2095 6.16173 13.1694C6.1533 13.1292 6.07328 13.1069 6.09855 13.0846C6.12382 13.0623 6.14909 13.0668 6.14488 13.0267C6.14067 12.9865 6.15752 12.9553 6.21226 12.9999C6.26701 13.0445 6.30071 13.0713 6.35124 13.0579C6.40178 13.0445 6.40599 13.1203 6.4439 13.1069C6.46248 13.1003 6.49233 13.0939 6.52428 13.092C6.55742 13.0902 6.59295 13.0933 6.62078 13.1069C6.67553 13.1337 6.67553 13.1605 6.70922 13.1382C6.74291 13.1159 6.82293 13.1203 6.8482 13.1292C6.87347 13.1382 6.91137 13.2229 6.94507 13.1828C6.97876 13.1426 6.93243 13.098 7.0293 13.1248C7.12616 13.1515 7.21039 13.1649 7.26935 13.1694C7.32831 13.1738 7.37885 13.1515 7.41676 13.1515C7.45466 13.1515 7.55995 13.1872 7.57258 13.1649C7.58522 13.1426 7.59785 13.1025 7.63154 13.1069C7.64445 13.1087 7.65361 13.1012 7.66267 13.0924C7.67723 13.0781 7.69142 13.0603 7.71998 13.0713C7.76631 13.0891 7.88002 13.1203 7.90108 13.1471C7.91866 13.1694 7.942 13.2256 7.96883 13.236C7.97414 13.2381 7.97963 13.2385 7.98531 13.2363C8.019 13.2229 8.06112 13.1961 8.08638 13.2274C8.11165 13.2586 8.09902 13.3076 8.10323 13.3567C8.10744 13.4058 8.13271 13.437 8.10323 13.4727C8.07375 13.5083 8.00215 13.5619 8.02742 13.5931C8.05269 13.6243 8.06533 13.6466 8.0906 13.6288C8.11587 13.6109 8.11165 13.66 8.14956 13.6466C8.18746 13.6332 8.20431 13.5619 8.24221 13.6109C8.28011 13.66 8.24642 13.767 8.2759 13.7715C8.30538 13.7759 8.33908 13.7046 8.36013 13.7269C8.38119 13.7492 8.41067 13.8339 8.457 13.825C8.50332 13.8161 8.53702 13.7759 8.53702 13.7982C8.53702 13.8205 8.48227 13.8384 8.46121 13.8696C8.44015 13.9008 8.41488 13.9855 8.457 13.9855C8.49911 13.9855 8.50332 13.932 8.54123 13.9454C8.57913 13.9588 8.58755 14.0301 8.63388 13.9989C8.68021 13.9677 8.69705 13.9365 8.75601 13.9365C8.81498 13.9365 8.8613 13.932 8.86551 13.8963C8.8678 13.8771 8.89078 13.8659 8.91669 13.858C8.93903 13.8512 8.96366 13.8469 8.97922 13.8428C9.01292 13.8339 9.07188 13.8071 9.10136 13.8205C9.13084 13.8339 9.16453 13.7581 9.16453 13.7938C9.16453 13.8294 9.0803 13.9186 9.10557 13.9588C9.12544 13.9904 9.24409 14.121 9.30003 14.1885C9.31523 14.2068 9.32603 14.2207 9.32878 14.2264C9.34141 14.2531 9.61095 15.1228 9.63622 15.163C9.66149 15.2031 9.72466 15.1808 9.72466 15.1496C9.72466 15.1184 9.74572 15.047 9.79205 15.0604C9.83837 15.0738 9.85522 15.0738 9.85522 15.1094C9.85522 15.1451 9.8131 15.1808 9.87206 15.1853C9.93102 15.1897 9.90576 15.2878 9.96051 15.2834C10.0153 15.2789 10.0447 15.27 10.1121 15.2834C10.1795 15.2968 10.1879 15.2611 10.2216 15.2388C10.2553 15.2165 10.2469 15.2611 10.3016 15.2343C10.3564 15.2076 10.4027 15.2388 10.4406 15.2745C10.4619 15.2945 10.4726 15.3469 10.4876 15.3978C10.4992 15.4373 10.5135 15.4759 10.5375 15.4974C10.5922 15.5465 10.6133 15.542 10.6512 15.6C10.6891 15.658 10.6807 15.7561 10.7228 15.7606C10.7649 15.765 10.7775 15.7115 10.8112 15.7383C10.8449 15.765 10.8449 15.8096 10.8997 15.7873C10.9544 15.765 10.9965 15.6848 11.0302 15.7026C11.0639 15.7204 11.0176 15.7517 11.0681 15.8007C11.1187 15.8498 11.0808 15.8721 11.1187 15.8988C11.1566 15.9256 11.1818 15.9524 11.2197 15.9434C11.2576 15.9345 11.3503 15.939 11.3587 15.9033C11.3671 15.8676 11.3671 15.8275 11.4051 15.823C11.443 15.8186 11.5314 15.8587 11.5609 15.8319C11.5904 15.8052 11.5904 15.7784 11.6241 15.7695C11.6577 15.7606 11.6914 15.765 11.6914 15.7294C11.6914 15.7185 11.6883 15.7112 11.6852 15.7054C11.678 15.6922 11.6706 15.6883 11.6999 15.6758C11.742 15.658 11.8304 15.6134 11.8515 15.5911C11.8725 15.5688 11.9947 15.5287 12.0157 15.493C12.0368 15.4573 12.0957 15.4841 12.1126 15.4573C12.1294 15.4306 12.1589 15.3993 12.1884 15.3993C12.2179 15.3993 12.2642 15.4261 12.2642 15.3993C12.2642 15.3726 12.2221 15.328 12.281 15.3369C12.34 15.3458 12.2979 15.3815 12.3274 15.377C12.3569 15.3726 12.3779 15.2923 12.4074 15.3369C12.4369 15.3815 12.4369 15.4082 12.479 15.4082C12.5211 15.4082 12.6222 15.3815 12.6601 15.4082C12.698 15.435 12.6896 15.4796 12.7359 15.5376C12.7822 15.5956 12.8243 15.6134 12.8496 15.5956C12.8749 15.5777 12.9549 15.658 13.0096 15.6134C13.0644 15.5688 13.0812 15.551 13.1655 15.6089C13.2497 15.6669 13.2792 15.6179 13.3213 15.6268C13.3634 15.6357 13.4182 15.6491 13.4392 15.6045C13.4603 15.5599 13.5698 15.5331 13.5656 15.4484C13.5613 15.3637 13.4982 15.3503 13.4855 15.27C13.4729 15.1897 13.4476 15.1228 13.4645 15.0871C13.4813 15.0515 13.5445 14.931 13.5571 14.9132C13.5698 14.8954 13.6119 14.8998 13.6119 14.8508C13.6119 14.8182 13.612 14.7976 13.6182 14.7874C13.6213 14.7821 13.6259 14.7794 13.6329 14.7794C13.654 14.7794 13.7172 14.8195 13.7677 14.8195C13.8182 14.8195 13.814 14.8731 13.8856 14.8641C13.9572 14.8552 14.0036 14.8418 14.0583 14.8641C14.1131 14.8864 14.1467 14.9221 14.2057 14.9221C14.2647 14.9221 14.3236 14.9043 14.3742 14.9533C14.4247 15.0024 14.4121 15.1585 14.45 15.1942C14.4879 15.2299 14.5847 15.2923 14.6353 15.27C14.6858 15.2477 14.7279 15.2968 14.7827 15.2745C14.8374 15.2522 14.8711 15.2254 14.9259 15.1853C14.9806 15.1451 15.0564 15.1273 15.107 15.1228C15.1575 15.1184 15.2207 15.0782 15.2544 15.105C15.2881 15.1317 15.2839 15.154 15.3175 15.1362C15.3512 15.1184 15.3175 15.0782 15.3976 15.1139C15.4776 15.1496 15.4397 15.1674 15.5071 15.1674C15.521 15.1674 15.5341 15.1645 15.5467 15.1602C15.595 15.144 15.6337 15.1078 15.6671 15.1362C15.7092 15.1719 15.785 15.3012 15.8398 15.3101C15.8945 15.3191 15.9451 15.2655 16.0124 15.2745C16.0798 15.2834 16.1262 15.2789 16.223 15.2388C16.3199 15.1986 16.3494 15.2388 16.3831 15.2031C16.4167 15.1674 16.4252 15.1407 16.4799 15.105C16.5347 15.0693 16.6273 15.0292 16.6736 15.0024C16.72 14.9756 16.7831 14.9533 16.7831 14.9043C16.7831 14.8552 16.7874 14.8062 16.8211 14.7749C16.8547 14.7437 16.9305 14.6634 16.9516 14.6322C16.9727 14.601 17.0569 14.5609 17.0906 14.5609C17.1243 14.5609 17.2127 14.659 17.2548 14.6367C17.297 14.6144 17.3391 14.5252 17.4065 14.5252C17.4738 14.5252 17.5202 14.5743 17.596 14.5743C17.6718 14.5743 17.7897 14.5832 17.836 14.543C17.8824 14.5029 17.8781 14.3468 17.9287 14.3156C17.9792 14.2844 18.0255 14.271 18.0171 14.2175C18.0087 14.1639 17.9666 14.1327 17.9624 14.1193C17.9582 14.106 18.0003 14.0747 17.9918 14.0301C17.9834 13.9855 17.9413 13.9766 17.9624 13.932C17.9834 13.8874 18.0298 13.9008 18.0003 13.8294C17.9708 13.7581 17.9582 13.7001 17.9708 13.651C17.9834 13.602 18.0298 13.5351 18.0255 13.4727C18.0213 13.4102 17.9834 13.3968 17.975 13.3612C17.9666 13.3255 17.9666 13.2853 17.9245 13.2898C17.8824 13.2943 17.8108 13.3522 17.7981 13.3076C17.7855 13.263 17.8402 13.0891 17.8823 13.0445C17.9056 13.0199 17.9506 12.9857 17.9941 12.9495C18.0295 12.9201 18.0637 12.8896 18.0845 12.8616C18.1308 12.7992 18.2066 12.7635 18.2909 12.7279C18.3751 12.6922 18.5057 12.7457 18.573 12.7234C18.6404 12.7011 18.6236 12.6387 18.691 12.6387C18.7583 12.6387 18.8847 12.6743 18.9142 12.7145C18.9436 12.7546 19.0279 12.7947 19.0616 12.8126C19.0953 12.8304 19.1163 12.9419 19.2006 12.9865C19.2848 13.0311 19.3185 13.1114 19.3606 13.1426C19.4027 13.1738 19.4701 13.1917 19.4911 13.2229C19.5122 13.2541 19.5922 13.2586 19.5964 13.3076C19.6006 13.3567 19.6217 13.4191 19.6765 13.4548C19.7312 13.4905 19.8196 13.5128 19.8575 13.4548C19.8955 13.3968 19.887 13.3478 19.9418 13.3701C19.9965 13.3924 20.005 13.4325 20.0639 13.3879C20.1229 13.3433 20.0723 13.2898 20.1524 13.3389C20.2324 13.3879 20.2913 13.4191 20.3629 13.379C20.376 13.3717 20.3877 13.3681 20.3985 13.3673C20.4465 13.3633 20.4728 13.4143 20.4935 13.4325C20.5188 13.4548 20.5609 13.4637 20.5693 13.5128C20.5777 13.5619 20.6072 13.5708 20.6577 13.6109C20.7083 13.651 20.6788 13.6912 20.7378 13.6421C20.7967 13.5931 20.8136 13.5619 20.8599 13.5619C20.9062 13.5619 20.9904 13.4459 20.9947 13.4147C20.9989 13.3835 20.961 13.3612 21.0073 13.3121C21.0536 13.263 21.0662 13.214 21.0999 13.1917C21.1336 13.1694 21.201 12.991 21.2347 12.9687C21.2466 12.9607 21.2532 12.9576 21.2591 12.9599C21.2698 12.9639 21.2778 12.9866 21.3105 13.0356C21.3611 13.1114 21.3821 13.0802 21.42 13.1471C21.4579 13.214 21.34 13.3166 21.3737 13.3389C21.3976 13.3547 21.4298 13.3886 21.4572 13.4323C21.4684 13.4503 21.4788 13.4696 21.4874 13.4904C21.5169 13.5618 21.5548 13.7 21.5422 13.7402C21.5295 13.7803 21.5295 13.8338 21.5548 13.8695C21.5801 13.9052 21.6222 13.9408 21.6053 13.9542C21.5885 13.9676 21.5085 14.0568 21.5422 14.1192C21.5758 14.1817 21.5716 14.2129 21.5295 14.2129C21.5184 14.2129 21.4987 14.2173 21.475 14.2237C21.4884 14.257 21.4991 14.2961 21.5166 14.3213C21.5496 14.3689 21.4896 14.4324 21.4566 14.4229C21.4237 14.4134 21.4088 14.3721 21.3787 14.3531C21.3555 14.3383 21.3217 14.3043 21.3189 14.272C21.3054 14.2761 21.295 14.279 21.2895 14.2799C21.26 14.2844 21.2768 14.4315 21.2473 14.4583C21.2179 14.4851 21.1463 14.4984 21.1926 14.5475C21.2389 14.5965 21.3526 14.6634 21.3695 14.7393C21.3863 14.8151 21.479 14.9132 21.5085 14.9489C21.5379 14.9846 21.5632 15.0916 21.5379 15.1273C21.5127 15.163 21.4706 15.1942 21.4958 15.2299C21.5155 15.2576 21.5019 15.3201 21.4791 15.3592C21.4872 15.3598 21.4967 15.3599 21.5085 15.3592C21.5262 15.3581 21.5486 15.3581 21.5724 15.3593C21.5725 15.3583 21.573 15.3573 21.5731 15.3563C21.5759 15.3206 21.5871 15.2849 21.5703 15.2582C21.5534 15.2314 21.6208 15.2403 21.6376 15.1898C21.6545 15.1393 21.6405 15.1065 21.6405 15.056C21.6405 15.0055 21.6124 14.8687 21.6433 14.8926C21.6743 14.9164 21.7079 15.0144 21.7107 14.9669C21.7135 14.9194 21.7275 14.8629 21.75 14.8718C21.7724 14.8807 21.7948 14.958 21.8145 14.9521C21.8342 14.9462 21.8511 14.9016 21.924 14.9016C21.997 14.9016 22.0167 14.8896 22.0391 14.86C22.0615 14.8302 22.1205 14.744 22.1514 14.6846C22.1823 14.6252 22.1627 14.6132 22.1991 14.5686C22.2356 14.524 22.2778 14.2951 22.2805 14.2505C22.2833 14.2059 22.2524 13.9681 22.2497 13.9324C22.2468 13.8967 22.2778 13.1593 22.2778 13.1266C22.2778 13.094 22.2385 12.9661 22.2328 12.9125C22.2273 12.859 22.1795 12.7818 22.1795 12.7312C22.1795 12.7088 22.1772 12.6777 22.1738 12.6456C22.1695 12.6052 22.1633 12.5631 22.157 12.535C22.1458 12.4845 22.1458 12.1664 22.1346 12.1218C22.1234 12.0772 21.9661 11.8067 21.9521 11.7739C21.9381 11.7412 21.8623 11.7056 21.8595 11.649C21.8566 11.5925 21.6882 11.4767 21.677 11.426C21.6657 11.3755 21.6096 11.2684 21.5872 11.2179C21.5648 11.1674 21.5759 11.1019 21.5759 11.0573C21.5759 11.0127 21.5394 10.989 21.5367 10.9622C21.5338 10.9355 21.4468 10.9474 21.4272 10.9265C21.4075 10.9057 21.3963 10.8493 21.3682 10.8225C21.3401 10.7957 21.1829 10.8047 21.2223 10.7838C21.2616 10.763 21.3178 10.769 21.3093 10.7273C21.3009 10.6856 21.3178 10.6351 21.2841 10.644C21.2504 10.6529 21.0763 10.7005 21.0034 10.6619C20.9304 10.6232 20.8152 10.6232 20.7984 10.6232C20.7815 10.6232 20.7984 10.7213 20.7422 10.7272C20.6861 10.7331 20.6383 10.7094 20.6608 10.7629C20.6833 10.8164 20.7816 10.9888 20.7535 10.9888C20.7254 10.9888 20.6945 10.855 20.6833 10.8758C20.672 10.8967 20.6944 10.9502 20.6804 10.9918C20.6664 11.0334 20.5822 11.1791 20.5681 11.1464C20.5541 11.1138 20.6299 10.9829 20.5962 10.9829C20.5625 10.9829 20.5148 10.9859 20.498 11.0037C20.4811 11.0216 20.4754 11.087 20.4614 11.1048C20.4474 11.1227 20.4362 11.1553 20.4165 11.1346C20.3968 11.1138 20.3772 11.0752 20.3772 11.0424C20.3772 11.0097 20.3238 10.9324 20.2986 10.9234C20.2733 10.9145 20.1554 11.0246 20.1301 11.0335C20.1048 11.0424 20.0319 11.1078 20.001 11.0692C19.9702 11.0305 19.9476 10.9562 19.9702 10.9235C19.9926 10.8909 20.0347 10.7927 20.0375 10.763C20.0404 10.7332 20.0516 10.5876 20.0628 10.5489C20.0741 10.5102 20.0852 10.4062 20.0852 10.3468C20.0852 10.2873 20.046 10.1089 20.0544 10.0137C20.0628 9.9186 20.0881 9.70152 20.0881 9.648C20.0881 9.59448 20.1078 9.59448 20.1049 9.55289C20.1021 9.51129 20.0488 9.37158 20.0488 9.3329C20.0488 9.29421 20.0852 9.24671 20.0881 9.17826C20.0909 9.10981 20.0544 9.04446 20.0797 8.93742C20.1049 8.83038 20.1358 8.80954 20.1555 8.77687C20.1751 8.74419 20.1947 8.69358 20.2173 8.67283C20.2397 8.65199 20.3689 8.53312 20.3886 8.49444C20.4082 8.45575 20.4671 8.49444 20.5008 8.4796C20.5345 8.46477 20.585 8.47068 20.5569 8.435C20.5288 8.39933 20.4951 8.35773 20.5372 8.33989C20.5545 8.33262 20.5852 8.32234 20.6156 8.30906C20.6597 8.28986 20.703 8.26456 20.703 8.23285C20.703 8.17934 20.6974 8.1645 20.7226 8.15258C20.7479 8.14065 20.8434 8.11098 20.8377 8.0723C20.8321 8.03361 20.7507 8.04554 20.7732 8.01577C20.7956 7.98601 20.8125 7.99793 20.7956 7.96526C20.7788 7.93259 20.7507 7.91766 20.7759 7.88498C20.8012 7.85231 20.9556 7.80771 20.9808 7.76903C21.0061 7.73034 21.0174 7.68574 21.0566 7.67091C21.0959 7.65607 21.1465 7.68574 21.1717 7.66199C21.197 7.63823 21.2391 7.59363 21.2363 7.62039C21.2334 7.64715 21.1296 7.78686 21.1436 7.79879C21.1576 7.81072 21.2166 7.81663 21.2419 7.79879C21.2671 7.78095 21.3008 7.69476 21.3064 7.668C21.312 7.64124 21.3682 7.6234 21.3682 7.60556C21.3682 7.58772 21.3569 7.45101 21.3766 7.42125C21.3963 7.39149 21.4749 7.38858 21.4749 7.37665C21.4749 7.36473 21.4636 7.33797 21.4861 7.30229C21.5086 7.26661 21.5395 7.21008 21.5254 7.18633C21.5114 7.16258 21.4552 7.16548 21.4327 7.19224C21.4103 7.219 21.3935 7.32303 21.3766 7.28144C21.3598 7.23985 21.3766 7.23684 21.3345 7.216C21.2924 7.19515 21.2615 7.19224 21.27 7.1714C21.2784 7.15055 21.2755 7.14464 21.2615 7.10004C21.2475 7.05544 21.2026 6.92766 21.2026 6.87113C21.2026 6.81461 21.1801 6.71659 21.1605 6.6749C21.1408 6.6333 21.1324 6.57678 21.0959 6.52326C21.0594 6.46974 21.0565 6.35679 21.0847 6.31219C21.1128 6.26759 21.1436 6.26759 21.1465 6.20816C21.1493 6.14872 21.1942 6.15764 21.183 6.08027C21.1718 6.0029 21.2841 6.08919 21.2868 6.02976C21.2896 5.97033 21.256 5.87512 21.2784 5.89296C21.3008 5.9108 21.4244 6.003 21.4244 6.03868C21.4244 6.07436 21.4861 6.08027 21.489 6.10413C21.4918 6.12798 21.5142 6.05652 21.5423 6.07737C21.5704 6.09821 21.5985 6.15464 21.6097 6.12788C21.621 6.10112 21.6434 6.09521 21.6462 6.05061C21.6491 6.00601 21.576 5.77409 21.5676 5.71757C21.5629 5.68654 21.5552 5.65135 21.5545 5.62265C21.554 5.59909 21.558 5.57989 21.5732 5.57185C21.6069 5.55401 21.6406 5.52424 21.6013 5.52133C21.562 5.51833 21.5479 5.52434 21.5142 5.49758C21.4805 5.47082 21.4187 5.38162 21.3795 5.35486C21.3402 5.3281 21.3626 5.28651 21.3766 5.25674C21.3906 5.22698 21.4132 5.20022 21.4075 5.16454C21.4019 5.12886 21.4777 5.11102 21.4917 5.09619C21.5057 5.08135 21.545 5.10511 21.5226 5.12886C21.5001 5.15262 21.4917 5.1913 21.5029 5.23289C21.5141 5.27449 21.5871 5.3251 21.6292 5.35186C21.6713 5.37862 21.6629 5.47373 21.7106 5.4619C21.7583 5.45007 21.7948 5.5957 21.8201 5.58978C21.8454 5.58387 21.8762 5.58387 21.8762 5.62246C21.8762 5.66114 21.8454 5.87221 21.8594 5.92864C21.8734 5.98516 21.9156 5.98516 21.9128 6.03868C21.9099 6.0922 21.983 6.15163 21.983 6.22008C21.983 6.28844 22.0111 6.32411 22.0223 6.39547C22.0335 6.46683 22.0307 6.52035 22.0728 6.55302C22.1149 6.5857 22.1795 6.7225 22.1795 6.77893C22.1795 6.83536 22.1542 6.87113 22.1935 6.92756C22.2327 6.98399 22.1935 7.01084 22.1654 7.04352C22.1373 7.07619 22.2103 7.15647 22.1738 7.17431C22.1373 7.19215 22.0783 7.25158 22.1232 7.2635C22.1682 7.27543 22.2327 7.27543 22.2412 7.33186C22.2496 7.38829 22.3057 7.59053 22.3086 7.62321C22.3114 7.65588 22.4376 7.73024 22.4658 7.76883C22.4755 7.78231 22.5074 7.81983 22.5484 7.86452C22.625 7.948 22.7339 8.05688 22.7943 8.08403C22.8869 8.12562 23.2378 8.30702 23.3136 8.35162C23.3894 8.39622 23.4989 8.43491 23.5635 8.45866C23.628 8.48242 23.7993 8.61321 23.8358 8.64889C23.8723 8.68457 23.9032 8.63405 23.9453 8.66673C23.9874 8.6994 24.0001 8.74022 24.0001 8.6897Z" fill="white"/>
</g>
<defs>
<clipPath id="clip0">
<rect width="24" height="15" fill="white" transform="translate(0 0.944336)"/>
</clipPath>
</defs>
</svg>
