<svg width="64" height="64" viewBox="0 0 64 64" fill="none" xmlns="http://www.w3.org/2000/svg">
<rect width="64" height="64" rx="4" fill="#3F71ED"/>
<path d="M36 20.1074H38V26.4512H36V20.1074Z" fill="white"/>
<path d="M24 19.3887C24 19.1125 23.7761 18.8887 23.5 18.8887C23.2239 18.8887 23 19.1125 23 19.3887H24ZM23 25.998C23 26.2742 23.2239 26.498 23.5 26.498C23.7761 26.498 24 26.2742 24 25.998H23ZM22 19.3887C22 19.1125 21.7761 18.8887 21.5 18.8887C21.2239 18.8887 21 19.1125 21 19.3887H22ZM21 23.0386C21 23.3147 21.2239 23.5386 21.5 23.5386C21.7761 23.5386 22 23.3147 22 23.0386H21ZM22 25.3887C22 25.1125 21.7761 24.8887 21.5 24.8887C21.2239 24.8887 21 25.1125 21 25.3887H22ZM21 26.4512C21 26.7273 21.2239 26.9512 21.5 26.9512C21.7761 26.9512 22 26.7273 22 26.4512H21ZM19.5 18.4648H19V18.4648L19.5 18.4648ZM39.751 21.4648L40.251 21.4725V21.4648H39.751ZM23 19.3887V25.998H24V19.3887H23ZM21 19.3887V23.0386H22V19.3887H21ZM21 25.3887V26.4512H22V25.3887H21ZM19.5 26.9512H41.0625V25.9512H19.5V26.9512ZM42.375 28.2637V44.5762H43.375V28.2637H42.375ZM41.0625 45.8887H19.3125V46.8887H41.0625V45.8887ZM18 44.5762V28.2637H17V44.5762H18ZM19.3125 45.8887C18.5876 45.8887 18 45.301 18 44.5762H17C17 45.8533 18.0353 46.8887 19.3125 46.8887V45.8887ZM42.375 44.5762C42.375 45.301 41.7874 45.8887 41.0625 45.8887V46.8887C42.3397 46.8887 43.375 45.8533 43.375 44.5762H42.375ZM41.0625 26.9512C41.7874 26.9512 42.375 27.5388 42.375 28.2637H43.375C43.375 26.9865 42.3397 25.9512 41.0625 25.9512V26.9512ZM19.5 25.9512C18.8689 25.9512 18.254 26.2045 17.7954 26.6057C17.3355 27.0081 17 27.5904 17 28.2637H18C18 27.9359 18.164 27.612 18.4539 27.3583C18.745 27.1036 19.1301 26.9512 19.5 26.9512V25.9512ZM20.5762 17.8887H29.5361V16.8887H20.5762V17.8887ZM20 26.4512L20 18.4648L19 18.4648L19 26.4512L20 26.4512ZM30.1123 18.4648V26.4512H31.1123V18.4648H30.1123ZM20.5762 16.8887C19.7057 16.8887 19 17.5943 19 18.4648H20C20 18.1466 20.2579 17.8887 20.5762 17.8887V16.8887ZM29.5361 17.8887C29.8543 17.8887 30.1123 18.1466 30.1123 18.4648H31.1123C31.1123 17.5943 30.4066 16.8887 29.5361 16.8887V17.8887ZM38.6748 19.8887H30.7168V20.8887H38.6748V19.8887ZM40.1748 26.4588L40.2509 21.4725L39.251 21.4572L39.1749 26.4435L40.1748 26.4588ZM38.6748 20.8887C38.993 20.8887 39.251 21.1466 39.251 21.4648H40.251C40.251 20.5943 39.5453 19.8887 38.6748 19.8887V20.8887Z" fill="white"/>
<path d="M28.4063 18.8887C28.7342 18.8887 29 19.1545 29 19.4824V22.0615C29 22.3894 28.7342 22.6553 28.4062 22.6553H26.9033C26.5754 22.6553 26.3096 22.3894 26.3096 22.0615L26.3096 19.4824C26.3096 19.1545 26.5754 18.8887 26.9033 18.8887L28.4063 18.8887Z" fill="white"/>
<path fill-rule="evenodd" clip-rule="evenodd" d="M40 32.8887C38.8954 32.8887 38 33.7841 38 34.8887V36.8887C38 37.9933 38.8954 38.8887 40 38.8887H45C46.1046 38.8887 47 37.9933 47 36.8887V34.8887C47 33.7841 46.1046 32.8887 45 32.8887H40ZM41 34.8887C40.4477 34.8887 40 35.3364 40 35.8887C40 36.441 40.4477 36.8887 41 36.8887C41.5523 36.8887 42 36.441 42 35.8887C42 35.3364 41.5523 34.8887 41 34.8887Z" fill="white"/>
</svg>
