<svg width="211" height="32" viewBox="0 0 211 32" xmlns="http://www.w3.org/2000/svg"><title>pricefon.com</title><path d="M9.063 21.489c-2.119 0-3.39-1.47-3.39-4.378v-.262c0-2.875 1.271-4.41 3.39-4.41 2.054 0 3.358 1.437 3.358 4.443v.261c0 2.81-1.173 4.346-3.358 4.346zM0 31.289h5.836v-8.232c.847 1.699 2.706 2.908 5.281 2.908 4.01 0 7.238-2.94 7.238-8.822v-.26c0-5.849-3.228-8.855-7.205-8.855-2.576 0-4.336 1.373-5.314 3.006V8.486H0V31.29zm20.963-5.717H26.8V17.47c0-2.744 1.956-3.855 5.51-3.757V8.257c-2.641-.033-4.434 1.078-5.51 3.627V8.486h-5.836v17.086zm17.018-18.72c1.826 0 3.228-1.274 3.228-3.005 0-1.732-1.402-3.039-3.228-3.039-1.825 0-3.195 1.307-3.195 3.039 0 1.731 1.37 3.005 3.195 3.005zm-2.901 18.72h5.835V8.486H35.08v17.086zm17.507.393c5.51 0 8.411-2.81 8.574-7.123h-5.249c-.195 1.863-1.336 2.843-2.966 2.843-2.217 0-3.358-1.536-3.358-4.509v-.261c0-2.875 1.206-4.345 3.26-4.345 1.695 0 2.478.882 2.738 2.483h5.478c-.327-5.195-4.174-7.025-8.347-7.025-5.02 0-9.096 3.267-9.096 8.952v.261c0 5.75 3.88 8.724 8.966 8.724zm19.3 0c5.151 0 8.118-2.19 8.64-6.045H75.05c-.228 1.144-1.044 2.026-2.967 2.026-2.087 0-3.39-1.307-3.554-3.561h11.998v-1.536c0-6.142-4.01-8.82-8.672-8.82-5.151 0-9.227 3.462-9.227 8.951v.261c0 5.587 3.913 8.724 9.26 8.724zm-3.292-10.88c.293-2.058 1.5-3.201 3.26-3.201 1.89 0 2.901 1.143 3 3.201h-6.26zm15.322 10.487h5.804v-13.1h3.455V8.486h-3.455V6.983c0-1.11.586-1.862 1.956-1.862a5.35 5.35 0 0 1 1.597.228V1.07c-.782-.196-1.597-.36-2.673-.36-4.043 0-6.684 2.026-6.684 6.273v1.503h-2.151v3.986h2.151v13.1zm19.464.393c5.249 0 9.324-3.333 9.324-8.887v-.261c0-5.424-4.043-8.789-9.292-8.789-5.281 0-9.356 3.463-9.356 8.952v.261c0 5.522 4.075 8.724 9.324 8.724zm.032-4.346c-2.25 0-3.39-1.6-3.39-4.54v-.262c0-2.875 1.206-4.41 3.39-4.41 2.217 0 3.358 1.6 3.358 4.475v.261c0 2.843-1.173 4.476-3.358 4.476zm11.835 3.953h5.836V16c0-2.189 1.173-3.234 2.901-3.234 1.696 0 2.445.947 2.445 2.875v9.931h5.836V14.464c0-4.377-2.282-6.436-5.575-6.436-2.836 0-4.694 1.438-5.607 3.202V8.486h-5.836v17.086zm23.44.36c1.957 0 3.424-1.47 3.424-3.3 0-1.83-1.467-3.3-3.423-3.3-1.924 0-3.326 1.47-3.326 3.3 0 1.83 1.402 3.3 3.326 3.3zm14.052.033c5.51 0 8.412-2.81 8.575-7.123h-5.25c-.195 1.863-1.336 2.843-2.966 2.843-2.217 0-3.358-1.536-3.358-4.509v-.261c0-2.875 1.206-4.345 3.26-4.345 1.695 0 2.478.882 2.739 2.483h5.477c-.326-5.195-4.173-7.025-8.346-7.025-5.021 0-9.096 3.267-9.096 8.952v.261c0 5.75 3.88 8.724 8.965 8.724zm19.366 0c5.249 0 9.324-3.333 9.324-8.887v-.261c0-5.424-4.043-8.789-9.292-8.789-5.281 0-9.356 3.463-9.356 8.952v.261c0 5.522 4.075 8.724 9.324 8.724zm.032-4.346c-2.25 0-3.39-1.6-3.39-4.54v-.262c0-2.875 1.206-4.41 3.39-4.41 2.217 0 3.358 1.6 3.358 4.475v.261c0 2.843-1.173 4.476-3.358 4.476zm11.835 3.953h5.836v-9.899c0-1.862 1.043-2.875 2.608-2.875 1.337 0 2.184.85 2.184 2.581v10.193h5.77v-9.899c0-1.862 1.044-2.875 2.609-2.875 1.337 0 2.184.85 2.184 2.581v10.193H211V14.4c0-4.28-2.347-6.37-5.575-6.37-2.152 0-4.173.849-5.64 2.842-.815-1.863-2.38-2.843-4.63-2.843-2.64 0-4.433 1.438-5.346 3.071V8.486h-5.836v17.086z" fill="#FFF" fill-rule="evenodd"/></svg>