<svg width="8" height="12" viewBox="12 8 8 12" xmlns="http://www.w3.org/2000/svg"><path d="M15.997 19.937h-.916v-.916c-.925-.069-1.666-.35-2.222-.845-.556-.494-.836-1.12-.84-1.876h1.168c.037.456.222.83.554 1.12.333.293.78.473 1.34.54v-3.554l-.547-.15c-.734-.196-1.296-.513-1.688-.95-.392-.438-.588-.971-.588-1.6 0-.747.253-1.36.759-1.839.505-.478 1.194-.76 2.064-.847v-.957h.916v.95c.848.073 1.532.352 2.054.837.522.485.794 1.1.817 1.842h-1.162a1.511 1.511 0 0 0-.489-1.087c-.312-.296-.719-.473-1.22-.533v3.343l.588.144c.843.223 1.464.55 1.863.98.399.431.598.988.598 1.672 0 .811-.267 1.462-.8 1.952s-1.283.773-2.249.85v.924zm1.866-3.63c0-.456-.15-.822-.45-1.098-.302-.275-.773-.481-1.416-.618v3.39c.597-.031 1.057-.193 1.38-.485.324-.292.486-.688.486-1.19zm-4.43-4.67c0 .402.14.737.421 1.006.28.268.69.46 1.227.574v-3.145c-.478.028-.873.188-1.183.482-.31.294-.464.655-.464 1.084z" fill-rule="evenodd"/></svg>