<svg width="30" height="30" viewBox="0 0 30 30" xmlns="http://www.w3.org/2000/svg"><title>иконка совместные покупки</title><g stroke-width="0"><path d="M14.685 28.37c-2.88 0-5.624-.89-7.916-2.52v-7.97c0-2.31 1.88-4.188 4.193-4.188a4.19 4.19 0 0 1 4.192 4.188v10.394l-.001.089a14.56 14.56 0 0 1-.468.008zm1.469-.096V17.88a5.19 5.19 0 0 0-5.192-5.188 5.194 5.194 0 0 0-5.193 5.188v8.476a14.622 14.622 0 0 0 8.916 3.015c.46 0 .916-.022 1.365-.063a5.18 5.18 0 0 0 .104-1.034z"/><path d="M24.385 20.201A4.192 4.192 0 1 0 16 20.188v8.12a13.634 13.634 0 0 0 8.385-3.967V20.2zm-9.27 9.163A5.241 5.241 0 0 1 15 28.266v-8.078a5.192 5.192 0 1 1 10.385.013v4.544a14.643 14.643 0 0 1-10.27 4.62zM7.923 9.808a3.041 3.041 0 0 0 3.039 3.038A3.041 3.041 0 0 0 14 9.808a3.041 3.041 0 0 0-3.038-3.039 3.041 3.041 0 0 0-3.039 3.039zm-1 0a4.041 4.041 0 0 1 4.039-4.039A4.041 4.041 0 0 1 15 9.808a4.041 4.041 0 0 1-4.038 4.038 4.041 4.041 0 0 1-4.039-4.038z"/><path d="M17.154 12.115a3.041 3.041 0 0 0 3.038 3.039 3.041 3.041 0 0 0 3.039-3.039 3.041 3.041 0 0 0-3.039-3.038 3.041 3.041 0 0 0-3.038 3.038zm-1 0a4.041 4.041 0 0 1 4.038-4.038 4.041 4.041 0 0 1 4.039 4.038 4.041 4.041 0 0 1-4.039 4.039 4.041 4.041 0 0 1-4.038-4.039z"/></g></svg>