<svg width="9" height="15" viewBox="0 0 9 15" xmlns="http://www.w3.org/2000/svg"><path d="M4.417 5.502a1.61 1.61 0 1 1 0-3.218 1.61 1.61 0 0 1 0 3.218m0-5.502a3.893 3.893 0 1 1 0 7.786 3.893 3.893 0 0 1 0-7.786zm1.348 10.846l2.332 2.34c.41.414.411 1.087.002 1.502a1.04 1.04 0 0 1-1.485.001L4.35 12.457l-2.057 2.218a1.04 1.04 0 0 1-1.484.027A1.072 1.072 0 0 1 .782 13.2l2.214-2.342C1.406 10.547.443 9.787.393 9.747a1.071 1.071 0 0 1-.162-1.494 1.041 1.041 0 0 1 1.475-.164c.01.008 1.018.775 2.643.776 1.626-.001 2.613-.768 2.623-.776a1.041 1.041 0 0 1 1.475.164c.363.458.29 1.126-.162 1.494-.049.04-.975.78-2.52 1.099z" fill="#FFF" fill-rule="evenodd"/></svg>