<svg width="34" height="19" viewBox="0 0 34 19" xmlns="http://www.w3.org/2000/svg"><g fill-rule="evenodd"><path fill="none" d="M32.308.538l.558 15.99L1.885 17.61 1.327 1.62z"/><ellipse transform="rotate(88 17.506 9.02)" cx="17.506" cy="9.021" rx="8" ry="8.5" fill="none"/><path d="M32.738 6.037a2.5 2.5 0 1 0 .218 4.968L33 12h.069a3.5 3.5 0 1 1-.375-6.965l.044 1.002zM2 12.609a2.5 2.5 0 1 0 0-4.986V6.621l.07-.003A3.5 3.5 0 1 1 2 13.611v-1.002z" fill-rule="nonzero"/><path d="M15.067 6.34c-.03-.85.683-1.533 1.966-1.674l.115 3.303c-1.71-.256-2.05-.765-2.08-1.629zm5.234 4.51c.035 1.014-.858 1.787-2.08 1.939l-.128-3.673c1.68.257 2.172.72 2.208 1.734zm-2.89 4.643l.904-.032-.061-1.74c1.987-.18 3.37-1.435 3.315-2.997-.062-1.768-1.248-2.372-3.512-2.65l-.12-3.426c1.138.098 1.785.624 2.052 1.671l1.195-.041c-.255-1.583-1.436-2.475-3.28-2.562l-.043-1.247-.904.032L17 3.734c-1.91.177-3.189 1.333-3.139 2.758.057 1.645 1.29 2.247 3.324 2.519l.133 3.81c-1.874-.086-2.275-1.019-2.465-2.082l-1.287.045c.239 1.57 1.16 2.895 3.784 2.968l.061 1.74z"/></g></svg>