<svg width="15" height="13" viewBox="0 0 15 13" xmlns="http://www.w3.org/2000/svg"><path d="M4.717 12.19c5.714 0 8.942-4.826 8.748-9.154A6.24 6.24 0 0 0 15 1.443a6.15 6.15 0 0 1-1.767.484A3.083 3.083 0 0 0 14.585.225a6.182 6.182 0 0 1-1.953.747 3.08 3.08 0 0 0-5.244 2.807A8.734 8.734 0 0 1 1.044.563a3.08 3.08 0 0 0 .952 4.109 3.064 3.064 0 0 1-1.395-.385c-.033 1.426.989 2.76 2.469 3.056a3.078 3.078 0 0 1-1.39.053 3.08 3.08 0 0 0 2.875 2.137A6.185 6.185 0 0 1 0 10.807a8.71 8.71 0 0 0 4.717 1.383z" fill="#FFF" fill-rule="evenodd"/></svg>