<svg width="16" height="10" viewBox="6 10 16 10" xmlns="http://www.w3.org/2000/svg"><path d="M18.63 15.005s1.845-2.593 2.028-3.445c.061-.304-.073-.475-.391-.475h-1.6c-.367 0-.501.158-.611.39 0 0-.865 1.837-1.918 2.995-.338.374-.51.487-.697.487-.15 0-.22-.125-.22-.463v-2.958c0-.414-.048-.536-.39-.536h-2.566c-.195 0-.317.113-.317.268 0 .39.598.478.598 1.534v2.179c0 .438-.024.609-.232.609-.55 0-1.857-1.887-2.59-4.03-.146-.438-.305-.56-.72-.56h-1.6c-.233 0-.404.158-.404.39 0 .426.5 2.398 2.468 5.04 1.32 1.777 3.054 2.74 4.618 2.74.952 0 1.184-.16 1.184-.56v-1.365c0-.34.135-.486.33-.486.22 0 .608.07 1.515.961 1.075 1.023 1.149 1.45 1.735 1.45h1.796c.183 0 .354-.086.354-.39 0-.402-.525-1.12-1.332-1.973-.33-.438-.867-.913-1.038-1.132-.244-.256-.171-.402 0-.67"/></svg>