<svg xmlns="http://www.w3.org/2000/svg" width="256" height="302" viewBox="0 0 256 302"><path fill="#27346A" d="M217.168 23.507C203.234 7.625 178.045.816 145.823.816h-93.52a13.392 13.392 0 0 0-13.227 11.295L.136 259.076c-.774 4.87 2.997 9.281 7.933 9.281h57.735l14.5-91.972-.45 2.88c1.032-6.501 6.593-11.295 13.177-11.295h27.436c53.898 0 96.101-21.893 108.428-85.222.367-1.873.684-3.696.958-5.477-1.557-.824-1.557-.824 0 0 3.672-23.406-.024-39.338-12.685-53.764"/><path fill="#27346A" d="M102.397 68.84a11.732 11.732 0 0 1 5.053-1.141h73.318c8.682 0 16.781.566 24.182 1.756 2.122.341 4.178.732 6.176 1.182 1.998.441 3.938.94 5.818 1.49a85.11 85.11 0 0 1 2.772.857c3.638 1.215 7.025 2.63 10.139 4.287 3.671-23.416-.025-39.339-12.687-53.765C203.226 7.625 178.045.816 145.823.816H52.295c-6.584 0-12.187 4.794-13.219 11.295L.136 259.068c-.774 4.878 2.997 9.281 7.925 9.281h57.744L95.888 77.58a11.714 11.714 0 0 1 6.509-8.74z"/><path fill="#2790C3" d="M228.896 82.749c-12.327 63.321-54.53 85.222-108.428 85.222H93.024c-6.584 0-12.145 4.794-13.168 11.295L61.817 293.621c-.674 4.262 2.622 8.125 6.934 8.125h48.67c5.76 0 10.663-4.195 11.563-9.881l.475-2.48 9.172-58.135.592-3.214a11.71 11.71 0 0 1 11.563-9.88h7.283c47.146 0 84.064-19.154 94.852-74.55 4.504-23.149 2.173-42.478-9.738-56.054-3.613-4.112-8.1-7.508-13.327-10.28-.285 1.79-.592 3.604-.96 5.477z"/><path fill="#1F264F" d="M216.952 72.127a90.31 90.31 0 0 0-5.818-1.49 109.915 109.915 0 0 0-6.177-1.174c-7.408-1.199-15.499-1.765-24.189-1.765h-73.31c-1.806 0-3.521.408-5.053 1.148a11.682 11.682 0 0 0-6.509 8.74l-15.583 98.798-.45 2.88c1.024-6.501 6.584-11.295 13.169-11.295h27.444c53.898 0 96.102-21.893 108.429-85.222.366-1.873.675-3.688.958-5.477-3.122-1.648-6.502-3.072-10.139-4.279a88.434 88.434 0 0 0-2.772-.864"/></svg>