<svg xmlns="http://www.w3.org/2000/svg" width="209.038" height="208.081" viewBox="0 0 209.038 208.081" class="mdl-js"><g fill-rule="evenodd" clip-rule="evenodd" fill="#006AB4"><path d="M123.722 182.263c-13.251-14.789-26.211-29.252-39.43-44.007l11.04-10.103c-9.578-10.8-18.716-21.104-28.147-31.736 2.746-2.436 5.092-4.759 7.69-6.754 2.865-2.201 3.228-4.012.489-6.778-4.916-4.968-9.506-10.261-14.188-15.458-3.746-4.158-7.427-8.377-11.431-12.9l43.707-39.449 14.279 15.431L132.753 8.59l13.623 15.141 9.943-8.975C123.744-7.281 63.207-8.056 25.167 36.175-12.765 80.28-7.277 146.292 37.972 184.315c41.778 35.106 100.605 28.027 131.143.162l-21.249-24.291c-8.27 7.562-16.08 14.702-24.144 22.077z"/><path d="M68.819 53.63c-.697.656-.639 3.264.079 4.094 6.619 7.658 13.461 15.125 20.815 23.287l25.592-23.072-23.033-25.626c-8.28 7.458-15.973 14.274-23.453 21.317zm64.067 46.351l-23.074-25.662L84.28 97.396l22.999 25.681 25.607-23.096zm15.21 44.387c.732-.688.841-3.258.171-4.031-6.73-7.788-13.686-15.383-20.997-23.498l-25.534 23.13 23.023 25.591c8.133-7.325 15.837-14.15 23.337-21.192zm31.528-21.42c.568-.536.773-2.41.314-2.939-5.184-5.971-10.529-11.8-16.081-17.943l-19.408 17.535c6.147 6.803 11.679 12.926 17.573 19.447 6.155-5.588 11.95-10.768 17.602-16.1zm-.969 17.93c-6.012 5.128-11.854 10.457-18.014 15.975l17.567 19.482 19.388-17.54c-5.421-6.038-10.458-11.759-15.67-17.314-.637-.681-2.715-1.078-3.271-.603zm-64.733-99.197c-.707.681-.712 3.211-.024 4.036 4.249 5.103 8.715 10.034 13.309 14.831.744.775 3.068 1.271 3.684.746 5.994-5.115 11.781-10.474 17.796-15.916l-17.482-19.453c-6.087 5.482-11.81 10.488-17.283 15.756zm32.358 58.359l19.398-17.572-17.58-19.399-19.411 17.524 17.593 19.447zm49.498 21.266l13.26-12.11-12.047-13.141c-4.541 4.103-8.572 7.745-13.183 11.909 4.148 4.623 7.875 8.775 11.97 13.342zm-31.345-73.131l13.213-12.091-12.027-13.197L152.405 34.9l12.028 13.275zm7.24 27.234c8.268 9.539 8.27 9.537 17.463 1.177.734-.668 1.838-1.195 2.133-2.017.417-1.156.813-2.99.218-3.729-3.073-3.812-6.464-7.366-10.065-11.366l-13.174 11.817c1.53 1.845 2.456 3 3.425 4.118z"/></g></svg>