<?xml version="1.0" encoding="UTF-8"?>
<!DOCTYPE svg PUBLIC "-//W3C//DTD SVG 1.1//EN" "http://www.w3.org/Graphics/SVG/1.1/DTD/svg11.dtd">
<!-- Creator: CorelDRAW X6 -->
<svg xmlns="http://www.w3.org/2000/svg" xml:space="preserve" width="484px" height="461px" version="1.1" style="shape-rendering:geometricPrecision; text-rendering:geometricPrecision; image-rendering:optimizeQuality; fill-rule:evenodd; clip-rule:evenodd"
viewBox="0 0 484 460"
 xmlns:xlink="http://www.w3.org/1999/xlink">
 <defs>
  <style type="text/css">
   <![CDATA[
    .fil0 {fill:#FEFEFE}
   ]]>
  </style>
 </defs>
 <g id="Слой_x0020_1">
  <metadata id="CorelCorpID_0Corel-Layer"/>
  <path class="fil0" d="M41 0l400 0c23,0 41,19 41,41l0 375c0,23 -19,41 -41,41l-400 0c-23,0 -41,-19 -41,-41l0 -375c0,-23 19,-41 41,-41zm125 163l32 0 0 -17c0,-19 2,-32 6,-42 4,-9 11,-17 22,-22 11,-6 24,-9 40,-9 17,0 33,2 49,7l-7 40c-9,-2 -19,-3 -27,-3 -9,0 -15,2 -19,6 -4,4 -6,12 -6,23l0 16 44 0 0 46 -44 0 0 175 -58 0 0 -175 -32 0 0 -46z"/>
 </g>
</svg>
