<?xml version="1.0" encoding="UTF-8"?>
<!DOCTYPE svg PUBLIC "-//W3C//DTD SVG 1.0//EN" "http://www.w3.org/TR/2001/REC-SVG-20010904/DTD/svg10.dtd">
<!-- Creator: CorelDRAW 2018 (64-Bit) -->
<svg xmlns="http://www.w3.org/2000/svg" xml:space="preserve" width="7896px" height="7484px" version="1.0" style="shape-rendering:geometricPrecision; text-rendering:geometricPrecision; image-rendering:optimizeQuality; fill-rule:evenodd; clip-rule:evenodd"
viewBox="0 0 6342.44 6011.84"
 xmlns:xlink="http://www.w3.org/1999/xlink">
 <defs>
  <style type="text/css">
   <![CDATA[
    .fil0 {fill:#FEFEFE}
   ]]>
  </style>
 </defs>
 <g id="Слой_x0020_1">
  <metadata id="CorelCorpID_0Corel-Layer"/>
  <path class="fil0" d="M539.67 0l5263.11 0c301.17,0 539.66,251 539.66,539.67l0 4932.5c0,301.17 -251,539.67 -539.66,539.67l-5263.11 0c-301.17,0 -539.67,-251 -539.67,-539.67l0 -4932.5c0,-301.17 251,-539.67 539.67,-539.67l0 0zm838.83 3572.28c0.45,203.12 0.79,152.56 0.79,252.95l-0.31 0 0 6.99c-0.02,34.84 -0.04,72.67 4.67,105.14 0.58,4.02 1.18,8.82 2.97,21.8 3.73,27.17 7.24,52.67 14.11,76.09 4.91,16.75 6.56,26.09 8.08,34.62 0.68,3.87 1.31,7.41 1.99,9.73l31.55 92.74c1.24,3.31 0.86,2.61 2.86,8.37 0.91,2.61 1.82,5.23 3.5,9.03 13.65,31.05 28.22,63.61 44.7,95.32 15.24,29.3 31.92,57.32 50.67,81.4l-0.14 0.11 93.96 115.29 0.31 0.62c6.22,7.77 6.6,8.28 6.88,8.67l0.87 1.15 133.29 112.06 0.1 -0.11c1.04,0.83 2.08,1.71 3.07,2.54l183.18 99.48c1.17,0.41 2,0.67 2.79,0.92 6.09,1.92 11.59,3.65 23.03,8.75 36.48,16.26 88.18,30.07 142.26,40.3 61.5,11.64 124.85,18.17 172.1,18.17l1712.48 0c32.19,0 56.38,-2.2 81.61,-4.49 18.75,-1.7 28.26,-2.68 33.18,-3.07 18.81,-1.46 42.24,-6.03 66.1,-11.69 27.96,-6.63 52.35,-13.55 72.35,-19.42 6.03,-1.77 10.78,-2.87 15.61,-3.98l6.42 -1.5 44.39 -17.34c6.74,-3.07 8.44,-3.51 15.39,-5.33l0.48 -0.12 -0.01 -0.03c27.17,-7.49 56.62,-21.31 85.96,-37.51 30.84,-17.03 60.04,-35.75 86.89,-53.15l166.31 -140.48c15.65,-17.16 32,-36.42 48.88,-57.93 15.33,-19.52 29.59,-39.29 42.29,-59.03l-0.02 -0.01 37.79 -60.5 1.23 -1.54c37.88,-57.47 62.31,-132.65 85.41,-203.76l0.07 0.03 0 -0.24c12,-36.94 20.86,-76.19 26.83,-116.3 6.33,-42.5 9.33,-86.11 9.33,-129.11l0 -1712.47c0,-71.07 -8.01,-135.8 -22.71,-197.29 -14.75,-61.7 -36.47,-121.86 -63.76,-183.04l-31.96 -62.92 -2.89 -5.3c-1.4,-2.59 -2.66,-4.93 -7.19,-13.01 -15.9,-28.42 -42.24,-66.27 -70.36,-102.63 -29.59,-38.28 -59.95,-73.76 -81.6,-94.48 -0.82,-0.78 -1.77,-1.47 -2.85,-2.26 -3.21,-2.34 -6.68,-4.87 -12.26,-9.56 -24.11,-20.27 -28.14,-23.74 -31.72,-26.82 -21.82,-18.77 -36.15,-31.1 -70.72,-56.73l0.02 -0.03 -49.48 -33.56c-22.58,-13.12 6.9,3.93 -14.25,-8.45l-0.14 0.23c-32.27,-18.87 -66.61,-38.94 -98.3,-51.46l0.02 -0.04 -45.59 -17.42c-31.19,-11.94 -59.88,-21.22 -88.41,-28.79 -28.72,-7.62 -59.3,-14.03 -93.69,-20.07 -33.82,-5.94 -50.77,-7.13 -67.01,-8.26 -12.95,-0.9 -25.54,-1.78 -45.38,-4.49 -29.58,-4.06 -981.92,-1.95 -1460.05,-0.9 -203.31,0.45 -149.23,0.79 -252.22,0.79l-3.56 0 0 -0.31c-34.4,0 -84.03,-0.01 -113.57,4.07 -34.24,4.72 -71.17,11.13 -107.62,19.54 -29.15,6.72 -57.68,14.77 -83.66,24.29l0.01 0.03 -82.06 31.35 -0.08 -0.21c-51.45,20.59 -101.5,52.58 -150.83,84.12l-9.6 6.14c-11.65,7.43 -24.6,16.22 -36.43,25.2 -8.39,6.38 -16.66,13.28 -23.95,20.4 -11.06,10.81 -21.15,20.5 -31.18,30.12 -42.45,40.76 -83.69,80.37 -118.79,127.42l-0.03 -0.03 -26.38 36.34 -0.02 -0.02c-67.41,96.03 -91.12,164.8 -128.49,273.18l-4.28 12.4 -0.31 0c-5.49,15.89 -9.31,38.22 -13.12,60.43 -1.62,9.5 -3.25,18.98 -6.67,35.65 -5.9,28.75 -6.85,45.06 -7.82,61.74 -0.8,13.9 -1.62,27.99 -4.41,48.37 -4.09,29.84 -1.97,983.91 -0.9,1463.11zm2975.3 1135.24l-0.01 -0.03 -0.47 0.14 0.01 0.02 0.47 -0.13zm-0.48 0.11c-0.48,0.14 -0.91,0.27 0.01,0.02l-0.01 -0.02zm-3324.95 -897.52l0 -1629.3c0,-24.77 0.72,-51.86 2.22,-81.12 1.35,-26.44 3.32,-51.59 5.96,-74.96l2.02 -18.15c2,-18.22 3.74,-33.96 5.83,-48.36 1.83,-12.57 4.26,-24.1 6.65,-35.49 2.13,-10.1 4.22,-20.06 5.15,-27.36l0.7 -5.54 15.01 -60.95c9.67,-50.67 26.82,-102.52 47.34,-152.32 20.81,-50.52 44.63,-98.4 67.38,-140.5l2.13 -3.96 163.29 -229.79 4.02 -4.94c0.78,-0.94 2.35,-3.04 3.79,-4.96 4.71,-6.29 8.73,-11.65 17.65,-20.67 4.37,-4.42 7.73,-7.72 11.2,-11.14 6.82,-6.7 -15.09,14.88 7.78,-7.99l2.16 -1.85 91.84 -85.84 2.78 -2.47c2.02,-1.71 1.18,-1.11 4.41,-3.95 1.97,-1.74 1.22,-1.08 0.01,0l0.16 0.19 5.37 -4.55 -0.13 -0.15c39.15,-33.36 79.68,-60.35 120,-87.21 15.46,-10.3 13.84,-9.11 21.85,-14.51l5.25 -3.39 77.07 -43.28 231.77 -93.89 266.07 -49.31 5.2 -0.26c3.06,-0.15 9.67,-0.29 16.13,-0.44 5.73,-0.12 11.28,-0.25 15.38,-0.61l3.47 -0.31c598.03,-0.29 1196.07,-0.22 1794.11,-0.22 3.66,0.3 10.93,0.86 13.75,1 5.28,0.27 9.53,0.48 10.57,0.5 59.42,0.97 129.55,14.55 183.15,24.93l12.47 2.41c54.71,16.08 109.42,32.16 164.12,48.26l4.57 1.82c1.96,0.77 9.28,3.45 16.66,6.15 12.32,4.5 24.66,9.02 35.8,14.07 50.47,22.88 95.99,45 140.07,69.85 45.13,25.44 88.71,53.64 134.31,88.13 9.05,6.86 12.71,9.55 16.22,12.13 6.71,4.93 13.24,9.73 23.36,17.57l4.32 3.4 33.98 30.29 -0.14 0.15c37.88,30.82 68.93,64.8 99.69,98.47 9.05,9.9 18.11,19.82 24.03,26.14l4.93 5.27 127.13 175.21 1.86 2.78c1.4,2.13 0.82,1.34 1,1.59 2.38,3.22 4.15,5.61 8.45,12.8l1.86 3.39 17.11 32.03 0.31 0.61 3.69 6.66c2.57,4.65 4.92,8.88 9.32,18.07 4.08,8.52 7.99,16.31 11.86,24.04 12.43,24.82 24.62,49.14 34.45,77.16 0.37,1.06 0.48,0.57 1.35,2.24 2.16,4.14 4.34,8.34 8.34,18.7l1.55 4.01 33.57 102.52 -0.04 0.01c11.7,32.98 18.17,66 24.36,97.54l2.38 12.06c6.16,30.97 10.4,62.68 15.02,97.25 0.15,1.12 -0.31,-2.31 3.52,25.41 9.8,70.91 6.7,1076.58 5.5,1469.37 -0.23,72.23 -0.39,123.64 -0.39,144.5l0 204.14c0.06,76.28 -7.11,144.65 -19.52,211.39 -12.49,67.06 -29.58,130.49 -49.69,197.7l-1.72 5.74c-42.1,86.63 -84.2,173.27 -126.34,259.88l-2.39 3.74c-1.74,2.71 -5.13,7.35 -8.5,11.96 -0.36,0.5 -0.72,1 -4.02,6.45l-3.4 4.94 -56.68 79.41 -3.09 4.02c-1.42,1.75 -5.13,6.59 -8.76,11.33 -7.74,10.08 -15.2,19.81 -25.73,30.86l-0.07 -0.06 -46.56 52.11c-0.5,0.49 -0.98,0.95 -1.43,1.48 -0.24,0.33 -0.48,0.65 -0.78,0.97l-0.46 0.45 -0.93 1.06 -4.01 4.32 -65.46 63.08 -2.47 2.16c-8.05,7.13 -11.43,9.57 -14.72,11.96 -1.1,0.79 -2.17,1.57 -2.6,1.97 -29.52,27.44 -61.5,52.91 -94.72,76.34 -36.12,25.48 -73.89,48.7 -111.66,69.56 -29.48,16.27 -8.36,4.49 -15.33,8.38 -28.86,16.1 -57.41,32.02 -89.65,45.49l-8.37 3.01c-0.59,0.21 -1.19,0.43 -1.43,0.54 -23.96,11.52 -49.78,22.64 -75.91,32.35 -25.51,9.47 -50.65,17.55 -73.98,23.38 -4.68,1.17 -8.96,2.58 -13.52,4.09l-8.26 2.58c-51.72,16.21 -106.93,27.7 -162.77,35.28 -60.27,8.18 -121.48,11.62 -179.78,11.43l-825.93 -1.3 0 0.31c-90.08,0 -144.64,0.34 -211.22,0.75 -282.25,1.76 -714.3,4.45 -769.21,-2.66 -34.7,-4.5 -70.23,-9.97 -104.54,-16.25 -33.58,-6.16 -66.19,-13.01 -96.12,-20.42 -63.34,-15.68 -115.97,-33.13 -166.1,-54.04 -49.93,-20.82 -96.7,-44.7 -148.78,-73.47 -48.58,-26.83 -92.9,-56.56 -135.13,-88.57 -41.82,-31.7 -81.17,-65.19 -120.45,-100.16l-3.4 -3.4 -49.57 -50.04c-69.24,-98.92 -138.51,-197.82 -207.76,-296.74l-1.92 -3.54c-14.97,-27.59 -25.78,-53.82 -36.84,-80.66l-3.25 -7.87c-17.64,-42.66 -37.78,-100.01 -53.71,-155.65 -14.01,-48.94 -25.38,-98.27 -30.15,-138.48 -4.27,-36.05 -8.28,-71.77 -11.27,-108.07 -3.06,-37.26 -5.02,-74.5 -5.02,-112.17zm469.32 -2651.61c-1.97,1.76 -5.15,4.64 0.16,0.19l-0.16 -0.19zm2501.66 1819.95l-7.45 117.3c-2.42,45.06 -15.83,106.34 -30.32,147.35l-13.45 39.47c-30.87,78.32 -70.19,149.35 -119.97,216.47 -8.49,11.44 -14.26,18.39 -23.18,29.75l-50.39 55.46c-60.6,61.04 -147.81,128.9 -228.07,161.3 -89.58,36.17 -158.71,67.84 -260.21,76.23 -138.89,11.48 -156.48,8.94 -299.03,-15.4 -16.58,-2.83 -25.21,-7.14 -38.77,-10.37 -28.53,-6.8 -51.58,-17.16 -78.85,-26.99 -14.53,-5.24 -22.21,-10.23 -36.79,-16.14 -32.68,-13.26 -74.68,-35.79 -102.64,-56.14l-29.49 -19.64c-47.93,-32.61 -91.98,-71.44 -131.53,-114.19 -26.48,-28.63 -55.85,-60.59 -75.98,-94.14 -40.24,-67.03 -80.34,-130.1 -103.21,-206.77 -7.81,-26.19 -17.84,-52.05 -24.22,-81.62 -18.37,-85.09 -26.47,-187.34 -14.61,-278.6l13.98 -91.86c9.26,-54.02 30.32,-110.81 52.4,-159.3 38.45,-84.41 85.98,-156.01 146.16,-224.3 27.33,-31.01 59.95,-64.53 94.37,-87.09 2.35,-1.54 4.86,-2.91 6.98,-4.36l14.37 -12.1c21.12,-19.27 46.91,-35.17 71.86,-49.11l87.33 -44.98c7.29,-3.25 10.12,-4.84 18.13,-8.33l57.85 -21.53c120.62,-37.55 229.1,-51.3 360.62,-37.52 73.76,7.73 143.92,27.4 212.89,51.74 10.3,3.64 9.78,2.38 19.67,6.79l85.72 42.81c25.05,13.58 41.91,26.1 65.57,40.27 32.37,19.39 59.2,46.97 87.16,71.61 45.64,40.19 90.41,86.23 122.65,138.19 17.09,27.54 36.11,51.74 50.57,81.74 14.2,29.47 29.77,56.67 40.28,88.26l25.06 74.33c20.8,74.68 34.54,137.43 34.54,221.41zm-1863.68 -18.9c0,38.22 -3.8,74.85 1.03,112.37l38.33 207.4c2.56,9.21 4.26,13.77 7.64,22.6 24.29,63.46 32.42,90.87 63.33,155.93 27.41,57.71 82.91,144.83 124.99,188.77 11.21,11.69 16.3,19.91 28.41,32.08l21.24 24.12c4.68,4.96 4.87,5.19 9.35,9.54 0.56,0.55 1.39,1.3 1.95,1.84l34.67 33.38c0.6,0.5 1.47,1.2 2.07,1.71l23.46 21.9c39.52,33.24 80.6,63.94 124.59,90.88l20.84 13.18c13.77,7.86 25.69,14.76 38.65,21.84l152.07 67.18c10.06,3.21 13.54,3.88 22.92,7.33 11.52,4.24 10.37,3.23 23.7,6.54 10.36,2.58 16.1,5.15 25.7,8.33 53.13,17.61 160.2,31.56 210.37,31.56 140.16,0 198.85,-2.43 335.12,-39.13 10.11,-2.73 15.6,-3.25 24.02,-6.23l88.02 -32.95c37.05,-13.9 69.59,-31.95 104.26,-50.73l66.71 -39.14c0.97,-0.59 3.7,-2.31 4.62,-2.94l58.26 -43.81c40.31,-30.08 79.61,-64.61 113.75,-101.72 3.46,-3.76 4.04,-4.57 7.02,-8.11l5.13 -6.2c47.44,-56.74 93.71,-114.35 132.09,-177.9 40.23,-66.63 69.84,-138.35 94.05,-212.15 2.61,-7.95 4.14,-17.65 6.03,-24.21 2.76,-9.54 5.91,-15.94 8.63,-25.39 35.26,-122.8 37.82,-289.11 18.8,-413.38 -9.8,-63.96 -24.64,-126.03 -47.46,-186.62l-45.87 -109.12c-15.17,-33.86 -36.13,-64.82 -54.5,-96.72 -8.18,-14.2 -16.28,-24.32 -25.74,-38.52 -24.99,-37.53 -55.73,-70.65 -84.29,-104.72l-35.09 -36.74c-37.37,-38.95 -79.03,-72.08 -122.76,-104.06 -12.08,-8.84 -22.71,-16.46 -35.76,-24.72 -54.28,-34.31 -110.33,-67.01 -169.99,-90.85l-78.35 -27.5c-72.9,-26.94 -186.1,-49.14 -260.85,-49.14 -88,0 -179.35,-1.29 -263.12,20.4 -123.87,32.07 -200.72,53.93 -315.48,123.03 -12.85,7.74 -25.51,14.85 -37.64,22.85 -54.32,35.84 -110.26,77.39 -155.28,124.46 -1.9,1.98 -5.43,5.51 -7.52,7.6l-17.26 16.76c-38.88,38.12 -70.46,84.18 -102.83,127.77 -9.31,12.54 -16.01,21.76 -24.48,36.01l-102.29 211.46c-16.79,47.65 -28.26,97.86 -39.46,146.03 -4.01,17.25 -2.59,25.53 -6.53,49.9l-9.27 107.95zm1958.19 -1096.29c0,40.26 0.73,55.77 16.35,89.5 5.69,12.3 8.71,18.87 16.71,28.65 22.32,27.28 41.51,48.25 75.99,63.88 120.81,54.78 265.2,-33.17 265.2,-166.9 0,-45.21 -7.72,-82.5 -35.15,-116.07 -7.56,-9.25 -12.44,-16.87 -20.46,-24.91 -55.07,-55.23 -157.85,-68.75 -219.28,-31.84 -53.28,32.01 -99.36,84.58 -99.36,157.69z"/>
 </g>
</svg>
