<?xml version="1.0" encoding="UTF-8"?>
<!DOCTYPE svg PUBLIC "-//W3C//DTD SVG 1.1//EN" "http://www.w3.org/Graphics/SVG/1.1/DTD/svg11.dtd">
<!-- Creator: CorelDRAW X6 -->
<svg xmlns="http://www.w3.org/2000/svg" xml:space="preserve" width="1972px" height="437px" version="1.1" style="shape-rendering:geometricPrecision; text-rendering:geometricPrecision; image-rendering:optimizeQuality; fill-rule:evenodd; clip-rule:evenodd"
viewBox="0 0 1972 437"
 xmlns:xlink="http://www.w3.org/1999/xlink">
 <defs>
  <style type="text/css">
   <![CDATA[
    .fil0 {fill:#FEFEFE}
   ]]>
  </style>
 </defs>
 <g id="Слой_x0020_1">
  <metadata id="CorelCorpID_0Corel-Layer"/>
  <path class="fil0" d="M223 9c2,-2 5,-4 7,-6 40,34 80,67 120,101 27,22 53,45 80,67 7,6 14,12 20,19 3,4 6,9 6,15 0,3 -3,6 -6,7 -5,2 -12,0 -17,3 -11,6 -18,17 -22,29 -6,17 -5,35 -5,52 0,26 0,52 0,78 1,17 -7,33 -19,45 -11,11 -26,17 -42,17 -19,0 -38,0 -58,0 -7,0 -15,-1 -21,-4 -3,-2 -6,-5 -7,-9 -2,-19 -1,-39 5,-57 5,-15 14,-28 23,-40 5,-7 10,-14 12,-23 3,-14 -2,-27 -1,-41 0,-3 0,-6 3,-7 3,-1 6,-2 9,-3 6,-1 11,2 17,2 4,0 5,-4 8,-6 4,-4 9,-9 9,-15 0,-7 -6,-11 -10,-16 -3,-4 -8,-7 -9,-12 0,-7 2,-15 -1,-21 -3,-7 -11,-9 -18,-9 -6,0 -12,3 -17,-1 -7,-5 -14,-11 -23,-12 -9,-1 -16,4 -24,7 -6,2 -11,4 -17,4 -6,-1 -12,-2 -18,-1 -10,5 -5,17 -7,20 -2,3 -9,3 -12,3 -3,0 -7,-1 -10,-1 -6,0 -10,-1 -13,5 -4,9 -3,6 -11,10 -3,1 -4,3 -5,6l0 1c-1,4 4,6 7,8 -5,4 -10,8 -12,14 -2,4 0,9 4,12 6,3 13,4 19,4 6,0 12,-2 18,-2 4,1 4,6 6,8 2,4 7,4 11,3 7,-1 11,-8 18,-10 8,-1 13,7 21,7 6,0 12,-5 18,-3 8,2 16,5 22,10 5,4 8,9 8,15 0,7 -4,13 -8,19 -6,8 -12,15 -18,23 -9,11 -17,23 -23,37 -6,15 -9,31 -14,46 -4,10 -9,21 -19,27 -7,4 -15,3 -23,4 -22,0 -45,0 -67,0 -21,0 -41,-12 -52,-30 -5,-9 -8,-20 -9,-31 0,-34 0,-68 0,-102 0,-15 -4,-31 -12,-44 -4,-7 -11,-13 -18,-15 -5,-2 -10,0 -15,-3 -3,-1 -4,-5 -4,-8 0,-5 3,-9 5,-12 5,-7 12,-14 19,-20 36,-30 72,-60 108,-90 29,-24 57,-48 86,-72z"/>
  <path class="fil0" d="M625 65c13,-9 34,2 32,18 0,17 -22,26 -34,15 -11,-8 -10,-27 2,-34zm318 45c12,-4 24,-9 36,-14 -1,20 -3,39 -3,59 14,0 29,0 43,0 0,5 0,11 0,16 -14,0 -28,0 -42,0 -1,29 -1,59 -2,88 -1,15 -1,29 2,44 2,10 7,20 17,24 10,4 21,1 31,0 0,3 0,8 0,10 -19,6 -40,8 -59,0 -16,-9 -22,-29 -22,-46 1,-40 3,-80 2,-120 -9,0 -18,0 -27,0 0,-6 0,-11 0,-17 9,0 18,1 27,1 0,-15 -1,-30 -2,-45zm126 58c26,-21 63,-26 95,-15 19,6 36,22 43,41 6,16 6,34 6,51 -46,0 -93,-2 -139,0 0,22 6,45 21,61 18,21 50,25 75,15 13,-4 24,-13 35,-21 0,7 0,14 -1,21 -27,19 -61,28 -93,20 -27,-5 -51,-24 -62,-48 -9,-19 -10,-41 -8,-62 3,-23 12,-47 31,-63zm22 10c-13,14 -18,32 -18,51 36,1 72,1 107,-1 -1,-18 -3,-38 -16,-52 -19,-21 -56,-19 -74,2zm230 -26c10,-4 21,-6 31,-2 -1,11 -2,23 -3,34 -10,-4 -21,-9 -33,-5 -21,6 -30,29 -30,49 0,37 -1,74 1,112 -11,-1 -22,-1 -33,0 2,-63 0,-126 1,-189 11,1 21,2 32,0 -1,13 -2,26 -2,39 10,-14 19,-30 35,-38zm-704 -1c12,1 24,2 36,0 0,33 -2,66 -2,100 0,30 2,59 2,89 -12,-1 -24,-1 -35,-1 1,-43 4,-86 2,-128 -1,-20 -1,-40 -2,-60zm172 3c21,-8 45,-7 65,3 16,9 27,26 28,44 2,28 -1,57 0,85 0,18 2,36 1,54 -12,-1 -24,-1 -36,0 2,-32 3,-64 4,-97 -1,-19 2,-41 -12,-57 -16,-21 -49,-20 -68,-4 -13,12 -17,30 -18,47 -2,37 -1,74 0,112 -11,-1 -22,-1 -33,-1 3,-63 4,-125 1,-188 11,1 22,2 33,0 0,11 -1,23 -2,34 9,-13 21,-26 37,-31z"/>
  <path class="fil0" d="M1599 64c13,-7 32,4 30,20 0,17 -22,26 -34,15 -12,-9 -9,-29 4,-35zm93 46c12,-5 24,-9 36,-14 -1,20 -2,39 -3,59 14,0 29,0 43,0 0,5 -1,11 -1,16l-42 0c-1,38 -2,77 -2,115 0,13 2,29 13,38 10,8 24,5 36,3 0,3 0,8 0,10 -19,6 -40,8 -59,1 -14,-8 -22,-25 -21,-40 0,-42 3,-84 2,-126 -9,0 -18,0 -27,0 0,-6 0,-11 1,-17 9,1 18,1 27,1 -1,-15 -2,-30 -2,-45zm-249 40c31,-6 64,-3 91,14 -3,9 -6,19 -10,28 -7,-4 -11,-12 -17,-17 -19,-17 -48,-18 -69,-5 -20,12 -32,35 -35,58 -3,24 1,49 14,69 17,27 55,38 84,26 12,-5 21,-14 32,-20 0,7 -1,14 -2,21 -19,13 -42,20 -65,19 -26,0 -54,-7 -73,-26 -18,-18 -27,-44 -27,-70 -1,-24 5,-49 21,-67 14,-16 34,-27 55,-31zm146 0c12,1 24,2 36,0 1,41 -3,82 -2,123 0,22 2,44 1,66 -12,-1 -24,-1 -35,0 3,-63 3,-125 0,-188zm194 0c13,2 26,2 39,1 17,50 38,99 60,147 22,-48 40,-97 58,-147 9,1 18,1 28,0 -29,61 -56,123 -84,185 -13,28 -24,57 -35,85 -9,-2 -19,-2 -28,0 16,-27 31,-54 44,-83 -26,-63 -54,-125 -81,-188z"/>
 </g>
</svg>
