<?xml version="1.0" encoding="UTF-8"?>
<!DOCTYPE svg PUBLIC "-//W3C//DTD SVG 1.1//EN" "http://www.w3.org/Graphics/SVG/1.1/DTD/svg11.dtd">
<!-- Creator: CorelDRAW X6 -->
<svg xmlns="http://www.w3.org/2000/svg" xml:space="preserve" width="484px" height="461px" version="1.1" style="shape-rendering:geometricPrecision; text-rendering:geometricPrecision; image-rendering:optimizeQuality; fill-rule:evenodd; clip-rule:evenodd"
viewBox="0 0 484 460"
 xmlns:xlink="http://www.w3.org/1999/xlink">
 <defs>
  <style type="text/css">
   <![CDATA[
    .fil0 {fill:#FEFEFE}
   ]]>
  </style>
 </defs>
 <g id="Слой_x0020_1">
  <metadata id="CorelCorpID_0Corel-Layer"/>
  <path class="fil0" d="M43 0l400 0c23,0 41,19 41,41l0 375c0,23 -19,41 -41,41l-400 0c-23,0 -41,-19 -41,-41l0 -375c0,-23 19,-41 41,-41zm122 257c26,-38 -19,-21 -4,-88 12,-54 82,-79 126,-50 20,13 31,29 32,53 1,19 -3,46 -11,63l-2 4c-8,15 -19,26 -36,30 -8,2 -18,-1 -24,-4 -28,-14 2,-48 3,-87 1,-21 -2,-35 -24,-34l-15 5c-11,7 -16,19 -20,32 -1,2 -8,92 -14,122 -6,31 -13,67 -3,85 27,-3 43,-75 48,-98 4,1 65,41 113,-16 27,-32 46,-99 16,-147 -11,-17 -37,-39 -56,-47 -55,-23 -127,7 -161,56 -2,4 -3,5 -5,10 -6,14 -9,29 -9,47 0,29 14,67 45,65z"/>
 </g>
</svg>
