<?xml version="1.0" encoding="UTF-8"?>
<!DOCTYPE svg PUBLIC "-//W3C//DTD SVG 1.1//EN" "http://www.w3.org/Graphics/SVG/1.1/DTD/svg11.dtd">
<!-- Creator: CorelDRAW X6 -->
<svg xmlns="http://www.w3.org/2000/svg" xml:space="preserve" width="1524px" height="1441px" version="1.1" style="shape-rendering:geometricPrecision; text-rendering:geometricPrecision; image-rendering:optimizeQuality; fill-rule:evenodd; clip-rule:evenodd"
viewBox="0 0 1524 1441"
 xmlns:xlink="http://www.w3.org/1999/xlink">
 <defs>
  <style type="text/css">
   <![CDATA[
    .fil0 {fill:#FEFEFE}
   ]]>
  </style>
 </defs>
 <g id="Слой_x0020_1">
  <metadata id="CorelCorpID_0Corel-Layer"/>
  <path class="fil0" d="M135 3l1258 0c72,0 129,60 129,129l0 1179c0,72 -60,129 -129,129l-1258 0c-72,0 -129,-60 -129,-129l0 -1179c0,-72 60,-129 129,-129zm464 473c24,36 19,193 2,223 -14,26 -40,7 -52,-8 -6,-8 -12,-16 -18,-25 -5,-8 -11,-16 -17,-25 -22,-34 -42,-68 -62,-107 -10,-19 -18,-38 -27,-58 -10,-23 -17,-40 -39,-45 -23,-6 -55,-2 -80,-1 -32,1 -93,-7 -116,10 -24,18 67,181 80,206 40,78 127,209 190,275 71,74 155,109 264,115 26,2 54,2 77,-6 47,-17 18,-89 42,-126 14,-21 39,-16 57,-2 15,12 26,28 39,45 6,8 13,14 19,22 16,20 46,44 70,56 9,4 22,9 32,11 15,3 22,5 36,4 81,-4 269,32 133,-128l-29 -33c-22,-26 -74,-70 -85,-84 -16,-19 -22,-35 -9,-63 10,-21 38,-54 53,-74 6,-8 12,-16 18,-23 7,-9 12,-16 19,-24 29,-36 65,-89 78,-132 20,-66 -51,-49 -111,-49 -28,0 -55,-3 -83,-3 -68,0 -60,21 -88,82 -31,67 -50,103 -93,160 -20,27 -46,61 -68,20 -31,-58 22,-219 -17,-263 -26,-30 -99,-24 -145,-23 -37,0 -110,0 -125,43l30 13c11,5 18,10 24,18z"/>
 </g>
</svg>
