<?xml version="1.0" encoding="UTF-8"?>
<!DOCTYPE svg PUBLIC "-//W3C//DTD SVG 1.1//EN" "http://www.w3.org/Graphics/SVG/1.1/DTD/svg11.dtd">
<!-- Creator: CorelDRAW X6 -->
<svg xmlns="http://www.w3.org/2000/svg" xml:space="preserve" width="484px" height="461px" version="1.1" style="shape-rendering:geometricPrecision; text-rendering:geometricPrecision; image-rendering:optimizeQuality; fill-rule:evenodd; clip-rule:evenodd"
viewBox="0 0 484 460"
 xmlns:xlink="http://www.w3.org/1999/xlink">
 <defs>
  <style type="text/css">
   <![CDATA[
    .fil0 {fill:#FEFEFE}
   ]]>
  </style>
 </defs>
 <g id="Слой_x0020_1">
  <metadata id="CorelCorpID_0Corel-Layer"/>
  <path class="fil0" d="M43 2l400 0c23,0 41,19 41,41l0 375c0,23 -19,41 -41,41l-400 0c-23,0 -41,-19 -41,-41l0 -375c0,-23 19,-41 41,-41zm137 146l0 44 17 0 0 -44c0,-4 11,-37 13,-44 1,-3 2,-6 3,-9l5 -18 -19 0c0,3 -1,7 -2,11l-10 31c0,-5 -10,-36 -10,-42l-19 0c0,4 4,13 5,18l5 18c2,6 11,32 11,36zm93 32c0,7 5,14 11,14 10,0 12,-6 18,-10l0 9 16 0 0 -86 -16 0 0 64c0,2 -3,9 -12,9 0,-3 -1,-3 -1,-6l0 -67 -16 0 0 74zm-85 87l16 0c0,11 -2,65 1,71 7,2 12,-7 12,-8l0 -63 16 0 0 85 -16 0 0 -9c-4,3 -9,10 -18,10 -9,0 -11,-8 -11,-17l0 -70zm58 -29l15 0c0,8 -1,29 0,36 4,-3 4,-5 9,-7 14,-7 22,5 22,22l0 42c0,9 -2,19 -9,22 -10,4 -17,-4 -21,-8l0 7 -16 0 0 -114zm103 85c0,12 0,19 -7,25 -6,5 -16,8 -26,4 -18,-8 -14,-30 -14,-51 0,-10 0,-20 5,-27 4,-6 12,-10 23,-8 20,4 19,26 19,46l-31 0c0,11 -2,18 4,27 12,1 11,-6 11,-16l16 0zm-213 -85l54 0 0 16 -19 0 0 98 -17 0 0 -98 -18 0 0 -16zm-21 45c0,30 -5,85 23,97 6,3 12,3 19,4 13,2 123,4 134,2l45 -2c7,-1 14,-3 18,-7 5,-4 8,-7 10,-14 2,-5 4,-12 5,-19 1,-15 3,-30 3,-46 0,-9 -1,-16 -1,-26 0,-7 -1,-18 -2,-25 -2,-14 -8,-28 -21,-34 -7,-3 -27,-4 -37,-4 -6,0 -8,-1 -13,-1 -9,0 -19,0 -27,0 -5,0 -7,-1 -13,-1l-89 2c-4,0 -7,1 -12,1 -21,0 -31,9 -37,27 -3,10 -5,33 -5,46zm116 -114l0 -39c0,-13 14,-13 14,0l0 39c0,13 -14,13 -14,0zm-16 -40l0 42c0,22 26,31 40,16 3,-4 6,-9 6,-16l0 -42c0,-6 -2,-13 -6,-16 -8,-8 -20,-10 -29,-5 -3,1 -4,3 -6,5 -3,3 -6,10 -6,16zm52 152c-8,2 -6,4 -6,12l0 37c0,4 -1,6 2,8 1,1 5,2 8,2 8,-1 5,-24 5,-32 0,-8 3,-29 -8,-27zm51 12l0 7 15 0 0 -6c0,-7 0,-13 -7,-13 -7,0 -8,6 -8,13z"/>
 </g>
</svg>
