<?xml version="1.0" encoding="UTF-8"?>
<!DOCTYPE svg PUBLIC "-//W3C//DTD SVG 1.1//EN" "http://www.w3.org/Graphics/SVG/1.1/DTD/svg11.dtd">
<!-- Creator: CorelDRAW X6 -->
<svg xmlns="http://www.w3.org/2000/svg" xml:space="preserve" width="401.108mm" height="380.206mm" version="1.1" style="shape-rendering:geometricPrecision; text-rendering:geometricPrecision; image-rendering:optimizeQuality; fill-rule:evenodd; clip-rule:evenodd"
viewBox="0 0 40076 37987"
 xmlns:xlink="http://www.w3.org/1999/xlink">
 <defs>
  <style type="text/css">
   <![CDATA[
    .fil0 {fill:#FEFEFE}
   ]]>
  </style>
 </defs>
 <g id="Слой_x0020_1">
  <metadata id="CorelCorpID_0Corel-Layer"/>
  <path class="fil0" d="M3410 0l33256 0c1903,0 3410,1586 3410,3410l0 31167c0,1903 -1586,3410 -3410,3410l-33256 0c-1903,0 -3410,-1586 -3410,-3410l0 -31167c0,-1903 1586,-3410 3410,-3410l0 0zm11232 31523l746 0c467,-241 689,-72 1372,-826l1334 -1407c126,-115 170,-139 278,-259 217,-242 1505,-1636 1662,-1731l2744 2802c297,321 780,889 1149,1103 279,162 574,199 810,320l607 0c181,-75 394,-87 620,-188 533,-238 961,-638 1192,-1256 169,-452 179,-983 30,-1448 -147,-461 -378,-721 -647,-971l-1661 -1617c-268,-243 -1563,-1439 -1670,-1616 329,-195 1681,-346 3809,-1680 1389,-871 1736,-2654 986,-3646 -373,-492 -983,-911 -1898,-827 -769,70 -1177,533 -1785,895 -1167,696 -2600,1177 -4236,1195 -3708,41 -4843,-1956 -6175,-2044 -1644,-109 -2611,1396 -2071,2998 427,1267 1823,1896 3021,2412 285,123 1922,648 1987,701l-2455 2427c-853,815 -2008,1659 -1481,3178 427,1231 1290,1268 1734,1488zm2274 -18500c-158,-1818 1195,-3274 2838,-3414 1808,-154 3259,1213 3399,2836 157,1810 -1213,3262 -2835,3403 -1806,157 -3262,-1209 -3402,-2826zm3739 -6558l-1241 0c-199,93 -926,189 -1248,286 -368,111 -765,274 -1073,445 -5818,3238 -3436,11797 2941,11796 4485,0 7407,-4509 5840,-8530 -682,-1751 -2126,-3143 -3935,-3700 -316,-97 -1079,-201 -1285,-297z"/>
 </g>
</svg>
