<svg width="18" height="18" viewBox="0 0 18 18" xmlns="http://www.w3.org/2000/svg"><title>иконка_бренд</title><g fill="#FFF"><path d="M2.83 2.753l-.206-.807.59.589-.59.59-.59-.59.809.205-1.078 4.24 9.006 9.005 5.304-5.303-9.006-9.006-4.24 1.077zm14.423 7.929l-6.482 6.482-9.93-9.93 1.194-4.7.59-.588L7.322.752l9.93 9.93z"/><path d="M5.25 5.16a.415.415 0 0 0 .003-.586.415.415 0 0 0-.587.003.415.415 0 0 0-.003.586c.162.162.424.16.587-.002zm.59.59a1.248 1.248 0 0 1-1.766.003 1.248 1.248 0 0 1 .003-1.765 1.248 1.248 0 0 1 1.765-.003 1.248 1.248 0 0 1-.003 1.765z"/></g></svg>