<svg width="16" height="14" viewBox="0 0 16 14" xmlns="http://www.w3.org/2000/svg"><title>иконка_кошелек</title><g fill="#FFF"><path d="M13.979.778H2.194a.782.782 0 0 0-.774.777v10.872c0 .432.347.778.774.778H13.98a.782.782 0 0 0 .774-.778V1.555a.774.774 0 0 0-.774-.777zm0-.778c.858 0 1.552.695 1.552 1.555v10.872a1.56 1.56 0 0 1-1.552 1.555H2.194a1.552 1.552 0 0 1-1.552-1.555V1.555A1.56 1.56 0 0 1 2.194 0H13.98z"/><path d="M14.861 4.674h-5.37c-1.18 0-2.13.957-2.13 2.138 0 1.19.953 2.14 2.13 2.14h5.37V4.673zm.778-.778v5.833H9.49a2.907 2.907 0 0 1-2.907-2.916A2.91 2.91 0 0 1 9.49 3.896h6.149z"/><path d="M8.796 6.749c0 .285.224.517.499.517a.508.508 0 0 0 .499-.517.508.508 0 0 0-.499-.517.508.508 0 0 0-.499.517zm-.778 0c0-.71.566-1.295 1.277-1.295s1.277.586 1.277 1.295-.566 1.295-1.277 1.295a1.286 1.286 0 0 1-1.277-1.295z"/></g></svg>