<svg width="22" height="27" viewBox="0 0 22 27" xmlns="http://www.w3.org/2000/svg"><title>андроид</title><path d="M1.596 8.522A1.6 1.6 0 0 0 0 10.124v6.731a1.6 1.6 0 0 0 1.596 1.602 1.6 1.6 0 0 0 1.596-1.602v-6.731a1.6 1.6 0 0 0-1.596-1.602m20.374 1.602a1.6 1.6 0 0 0-1.596-1.602 1.6 1.6 0 0 0-1.596 1.602v6.731a1.6 1.6 0 0 0 1.596 1.602 1.6 1.6 0 0 0 1.596-1.602v-6.731zM3.843 8.802h-.08v10.563c0 .882.719 1.603 1.597 1.603h1.345v3.681A1.6 1.6 0 0 0 8.3 26.251a1.6 1.6 0 0 0 1.596-1.602v-3.681h2.178v3.681a1.6 1.6 0 0 0 1.596 1.602 1.6 1.6 0 0 0 1.596-1.602v-3.681h1.345c.877 0 1.595-.721 1.595-1.603V8.802H3.843zM7.7 4.315a.68.68 0 0 1 .678.68.68.68 0 0 1-.678.682.68.68 0 0 1-.678-.681.68.68 0 0 1 .678-.681zm6.57 0a.68.68 0 0 1 .678.68.68.68 0 0 1-.678.682.68.68 0 0 1-.678-.681.68.68 0 0 1 .678-.681zm3.923 3.926v-.773a5.83 5.83 0 0 0-.098-.647c-.395-1.88-1.701-3.471-3.492-4.396l1.102-2.04A.26.26 0 0 0 15.6.032a.259.259 0 0 0-.351.104l-1.116 2.067a7.904 7.904 0 0 0-3.135-.639 7.903 7.903 0 0 0-3.156.648L6.722.136A.259.259 0 0 0 6.37.032a.26.26 0 0 0-.105.353l1.108 2.051c-1.707.888-2.97 2.384-3.418 4.156a5.823 5.823 0 0 0-.173 1.649h14.411z" fill-rule="evenodd"/></svg>