<svg width="20" height="26" viewBox="0 -1 20 26" xmlns="http://www.w3.org/2000/svg"><path d="M13.608 3.888c.857-1.03 1.436-2.461 1.278-3.888-1.235.05-2.73.815-3.617 1.844-.794.912-1.49 2.369-1.304 3.767 1.379.107 2.785-.694 3.643-1.723m3.092 9.049c-.03-3.084 2.536-4.562 2.651-4.636-1.442-2.093-3.69-2.38-4.49-2.413-1.912-.191-3.731 1.117-4.702 1.117-.968 0-2.465-1.088-4.051-1.06-2.085.031-4.007 1.202-5.08 3.053-2.165 3.726-.554 9.245 1.556 12.267 1.032 1.48 2.261 3.14 3.876 3.081 1.555-.061 2.143-.997 4.023-.997s2.409.997 4.054.967c1.673-.031 2.733-1.508 3.758-2.991 1.184-1.716 1.672-3.378 1.7-3.463-.037-.017-3.262-1.242-3.295-4.925" fill-rule="evenodd"/></svg>