<svg width="20" height="20" viewBox="0 0 20 20" fill="none" xmlns="http://www.w3.org/2000/svg">
<path fill-rule="evenodd" clip-rule="evenodd" d="M20 10C20 15.5228 15.5228 20 10 20C4.47715 20 0 15.5228 0 10C0 4.47715 4.47715 0 10 0C15.5228 0 20 4.47715 20 10ZM10 4C9.17157 4 8.5 4.63207 8.5 5.41176V9.64706C8.5 10.4268 9.17157 11.0588 10 11.0588C10.8284 11.0588 11.5 10.4268 11.5 9.64706V5.41176C11.5 4.63207 10.8284 4 10 4ZM10 13.1765C9.17157 13.1765 8.5 13.8085 8.5 14.5882C8.5 15.3679 9.17157 16 10 16C10.8284 16 11.5 15.3679 11.5 14.5882C11.5 13.8085 10.8284 13.1765 10 13.1765Z" fill="#006CE8"/>
</svg>
