<svg width="20" height="20" viewBox="0 0 20 20" fill="none" xmlns="http://www.w3.org/2000/svg">
<circle cx="10" cy="10" r="10" fill="#FF6A6A"/>
<path d="M6.57205 12.4385H4.74423L4.42502 13.893H3L5.02923 6.10695H6.28325L8.32768 13.893H6.89506L6.57205 12.4385ZM5.06343 10.9893H6.25285L5.65624 8.28877L5.06343 10.9893Z" fill="white"/>
<path d="M16 13.893H14.7156V8.13904L13.454 8.65775V7.28877L15.8822 6.10695H16V13.893Z" fill="white"/>
<path fill-rule="evenodd" clip-rule="evenodd" d="M12.5 11.5C12.5097 11.3351 12.4963 10.89 12.4963 10.7112V9.29412C12.4963 8.24599 12.3279 7.43494 11.9909 6.86096C11.654 6.28699 11.179 6 10.5659 6C10.0248 6 9.59127 6.22217 9.26527 6.66651L10.071 7.80882C10.075 7.79744 10.0791 7.7863 10.0833 7.7754C10.1846 7.51872 10.3455 7.39037 10.5659 7.39037C10.7914 7.39037 10.9561 7.52941 11.0599 7.80749C11.1638 8.082 11.2157 8.49911 11.2157 9.05882V9.43185L12.5 11.5ZM11.0561 13.9323C10.9062 13.9774 10.7453 14 10.5735 14C9.95791 14 9.48163 13.713 9.14469 13.139C8.80776 12.5651 8.63929 11.7558 8.63929 10.7112V10.2216L11.0561 13.9323Z" fill="white"/>
<path d="M6 4L14 16" stroke="white" stroke-width="1.5" stroke-linecap="round"/>
</svg>
