<svg width="20" height="20" viewBox="0 0 20 20" fill="none" xmlns="http://www.w3.org/2000/svg">
<path fill-rule="evenodd" clip-rule="evenodd" d="M20 10C20 15.5228 15.5228 20 10 20C4.47715 20 0 15.5228 0 10C0 4.47715 4.47715 0 10 0C15.5228 0 20 4.47715 20 10ZM13.1444 5.73259C13.4545 5.42247 13.9573 5.42247 14.2674 5.73259C14.5775 6.04271 14.5775 6.54552 14.2674 6.85564L11.1231 10L14.2674 13.1444C14.5775 13.4545 14.5775 13.9573 14.2674 14.2674C13.9573 14.5775 13.4545 14.5775 13.1444 14.2674L10 11.1231L6.85564 14.2674C6.54552 14.5775 6.04271 14.5775 5.73259 14.2674C5.42247 13.9573 5.42247 13.4545 5.73259 13.1444L8.87695 10L5.73259 6.85564C5.42247 6.54552 5.42247 6.04271 5.73259 5.73259C6.04271 5.42247 6.54552 5.42247 6.85564 5.73259L10 8.87695L13.1444 5.73259Z" fill="#FF6A6A"/>
</svg>
