<svg width="20" height="20" viewBox="0 0 20 20" fill="none" xmlns="http://www.w3.org/2000/svg">
<circle cx="10" cy="10" r="10" fill="#FF6A6A"/>
<path d="M9.11953 3.63516C9.4971 2.93396 10.5029 2.93396 10.8805 3.63516L16.2063 13.5259C16.565 14.1921 16.0825 15 15.3258 15H4.67422C3.91754 15 3.43501 14.1921 3.79375 13.5259L9.11953 3.63516Z" fill="white"/>
<path d="M10 5.5C9.44772 5.5 9 5.97405 9 6.55882V9.73529C9 10.3201 9.44772 10.7941 10 10.7941C10.5523 10.7941 11 10.3201 11 9.73529V6.55882C11 5.97405 10.5523 5.5 10 5.5Z" fill="#FF6A6A"/>
<path d="M10 11.3824C9.44772 11.3824 9 11.8564 9 12.4412C9 13.0259 9.44772 13.5 10 13.5C10.5523 13.5 11 13.0259 11 12.4412C11 11.8564 10.5523 11.3824 10 11.3824Z" fill="#FF6A6A"/>
</svg>
