<svg width="18" height="18" viewBox="0 0 18 18" fill="none" xmlns="http://www.w3.org/2000/svg">
<path d="M9 18C7.21997 18 5.47991 17.4722 3.99987 16.4832C2.51983 15.4943 1.36628 14.0887 0.685088 12.4442C0.00389957 10.7996 -0.17433 8.99002 0.172937 7.24419C0.520203 5.49836 1.37737 3.89472 2.63604 2.63604C3.89472 1.37737 5.49836 0.520203 7.24419 0.172937C8.99002 -0.17433 10.7996 0.00389957 12.4442 0.685088C14.0887 1.36628 15.4943 2.51983 16.4832 3.99987C17.4722 5.47991 18 7.21997 18 9C17.9931 11.3848 17.0427 13.67 15.3564 15.3564C13.67 17.0427 11.3848 17.9931 9 18ZM9 7.38L5.85 4.23L4.23 5.85L7.38 9L4.23 12.15L5.85 13.77L9 10.62L12.15 13.77L13.77 12.15L10.62 9L13.77 5.85L12.15 4.23L9 7.38Z" fill="#EB5757"/>
</svg>