<svg width="9" height="9" viewBox="0 0 9 9" fill="none" xmlns="http://www.w3.org/2000/svg">
<path d="M3.91667 8V4.02703L1 1H8L5.08333 4.02703V7.05405L3.91667 8Z" fill="#4F4F4F"/>
<path d="M3.91667 4.02703H4.26667C4.26667 3.93645 4.23155 3.8494 4.16871 3.78418L3.91667 4.02703ZM3.91667 8H3.56667C3.56667 8.13496 3.64426 8.25789 3.76609 8.31595C3.88791 8.37401 4.03227 8.35686 4.1371 8.27186L3.91667 8ZM5.08333 7.05405L5.30376 7.32592C5.38573 7.25946 5.43333 7.15957 5.43333 7.05405H5.08333ZM5.08333 4.02703L4.83129 3.78418C4.76845 3.8494 4.73333 3.93645 4.73333 4.02703H5.08333ZM8 1L8.25204 1.24285C8.34944 1.14176 8.37702 0.992255 8.3221 0.863065C8.26718 0.733875 8.14038 0.65 8 0.65V1ZM1 1V0.65C0.85962 0.65 0.732822 0.733875 0.677899 0.863065C0.622977 0.992255 0.650557 1.14176 0.747961 1.24285L1 1ZM3.56667 4.02703V8H4.26667V4.02703H3.56667ZM4.1371 8.27186L5.30376 7.32592L4.8629 6.78219L3.69624 7.72814L4.1371 8.27186ZM5.43333 7.05405V4.02703H4.73333V7.05405H5.43333ZM5.33537 4.26988L8.25204 1.24285L7.74796 0.75715L4.83129 3.78418L5.33537 4.26988ZM8 0.65H1V1.35H8V0.65ZM0.747961 1.24285L3.66463 4.26988L4.16871 3.78418L1.25204 0.75715L0.747961 1.24285Z" fill="#4F4F4F"/>
</svg>
