<svg width="18" height="18" viewBox="0 0 18 18" fill="none" xmlns="http://www.w3.org/2000/svg">
<path d="M8.15451 2.83869C8.54694 2.21735 9.45306 2.21735 9.84549 2.83869L17.0312 14.216C17.4517 14.8819 16.9732 15.75 16.1857 15.75H1.81433C1.02677 15.75 0.548289 14.8819 0.968838 14.216L8.15451 2.83869Z" fill="#27AE60"/>
<path d="M8.31944 13.1957C8.09271 13.4114 7.76382 13.3951 7.5536 13.1576L5.80116 11.1778C5.60854 10.9601 5.56924 10.6162 5.70627 10.3471L5.72775 10.3049C5.91537 9.9365 6.34549 9.86325 6.61524 10.1538L7.5536 11.25C7.875 11.625 7.875 11.625 8.31944 11.25L11.3555 8.39506C11.5781 8.18977 11.8953 8.20379 12.104 8.42813L12.1884 8.51884C12.4474 8.79728 12.435 9.2795 12.1621 9.5392L8.31944 13.1957Z" fill="white"/>
</svg>
