<svg width="16" height="16" viewBox="0 0 16 16" xmlns="http://www.w3.org/2000/svg">
<path fill-rule="evenodd" clip-rule="evenodd" d="M2.08352 5.2V12.9H12.9169H14.0002V13.45C14.0002 13.7538 13.7577 14 13.4585 14H1.54185C1.2427 14 1.00019 13.7538 1.00019 13.45V4.65C1.00019 4.34624 1.00019 4.65 1 4.1V3.5C1 3.19597 1.29483 3 1.5 3H6.73415C6.87781 3 7.01559 3.05795 7.11717 3.16109L8.04185 4.1H13.4585C13.7577 4.1 14.0002 4.34624 14.0002 4.65V6H12.9169V5.2H7.59312L6.50979 4.1H2.08352V5.2Z" stroke="none"/>
<path d="M3 11L3.97721 8.06838C3.99082 8.02754 4.02903 8 4.07208 8H14.8572C14.9266 8 14.9749 8.06896 14.9512 8.13417L13.9091 11" stroke-linecap="round" fill="none"/>
</svg>
