<svg width="20" height="20" viewBox="0 0 20 20" fill="none" xmlns="http://www.w3.org/2000/svg">
<path fill-rule="evenodd" clip-rule="evenodd" d="M10 20C15.5228 20 20 15.5228 20 10C20 4.47715 15.5228 0 10 0C4.47715 0 0 4.47715 0 10C0 15.5228 4.47715 20 10 20ZM10.67 5.07026C10.1191 4.97658 9.55956 4.97658 9.01424 5.07026L8.89436 6.33381C8.43189 6.4604 7.99975 6.67541 7.62065 6.96787L6.53293 6.30525C6.13058 6.6834 5.79489 7.12896 5.53965 7.62387L6.43861 8.53692C6.25837 8.98704 6.16437 9.4703 6.1616 9.96133L5 10.3989C5.04913 10.9639 5.1901 11.5194 5.41713 12.0429L6.65801 11.9179C6.8957 12.3527 7.21064 12.7402 7.58629 13.0603L7.22551 14.2684C7.68913 14.5949 8.20061 14.8421 8.73897 15L9.38736 13.9311C9.86397 14.0232 10.3507 14.0232 10.8219 13.9311L11.5336 15C12.0626 14.8421 12.5594 14.5949 13.0037 14.2684L12.5714 13.0603C12.928 12.7402 13.22 12.3527 13.4319 11.9179L14.6802 12.0429C14.8762 11.5194 14.9843 10.9639 15 10.3989L13.8124 9.96133C13.7806 9.4703 13.658 8.98704 13.451 8.53692L14.2959 7.62387C14.0113 7.12896 13.6492 6.6834 13.2245 6.30525L12.176 6.96787C11.7796 6.67541 11.3347 6.4604 10.8647 6.33381L10.67 5.07026ZM11.921 10.1014C11.8889 9.01652 10.9981 8.13569 9.93294 8.13569C8.86781 8.13569 8.02917 9.01652 8.06131 10.1014C8.09344 11.186 8.98427 12.0669 10.0494 12.0669C11.1145 12.0669 11.9531 11.186 11.921 10.1014Z" fill="#2CB2FF"/>
</svg>
