<svg width="23" height="24" viewBox="0 0 23 24" fill="none" xmlns="http://www.w3.org/2000/svg">
<g filter="url(#filter0_d_21_1085)">
<path fill-rule="evenodd" clip-rule="evenodd" d="M5.5 7.39633C5.5 4.69216 7.69217 2.5 10.3964 2.5C13.1006 2.5 15.2927 4.69216 15.2927 7.39633C15.2927 10.1005 13.1006 12.2927 10.3964 12.2927C7.69217 12.2927 5.5 10.1005 5.5 7.39633ZM10.3964 1C6.86376 1 4 3.86373 4 7.39633C4 10.9289 6.86376 13.7927 10.3964 13.7927C11.8924 13.7927 13.2685 13.2791 14.3579 12.4186L16.7222 14.7829C17.0151 15.0758 17.49 15.0758 17.7829 14.7829C18.0758 14.49 18.0758 14.0151 17.7829 13.7222L15.4186 11.3579C16.2791 10.2685 16.7927 8.8924 16.7927 7.39633C16.7927 3.86373 13.929 1 10.3964 1Z" fill="#585757"/>
</g>
<defs>
<filter id="filter0_d_21_1085" x="-1" y="0" width="24" height="24" filterUnits="userSpaceOnUse" color-interpolation-filters="sRGB">
<feFlood flood-opacity="0" result="BackgroundImageFix"/>
<feColorMatrix in="SourceAlpha" type="matrix" values="0 0 0 0 0 0 0 0 0 0 0 0 0 0 0 0 0 0 127 0" result="hardAlpha"/>
<feOffset dy="4"/>
<feGaussianBlur stdDeviation="2"/>
<feComposite in2="hardAlpha" operator="out"/>
<feColorMatrix type="matrix" values="0 0 0 0 0 0 0 0 0 0 0 0 0 0 0 0 0 0 0.25 0"/>
<feBlend mode="normal" in2="BackgroundImageFix" result="effect1_dropShadow_21_1085"/>
<feBlend mode="normal" in="SourceGraphic" in2="effect1_dropShadow_21_1085" result="shape"/>
</filter>
</defs>
</svg>
