<svg width="19" height="19" viewBox="0 0 19 19" fill="none" xmlns="http://www.w3.org/2000/svg">
<rect x="17.6562" y="1.9375" width="12.75" height="16.3125" rx="1.25" transform="rotate(90 17.6562 1.9375)" fill="#EFEFEF" stroke="#8D8D8D" stroke-width="1.5"/>
<mask id="path-2-inside-1_106_3121" fill="white">
<path d="M6.53125 16.625H12.4688V17.3125C12.4688 17.5886 12.2449 17.8125 11.9688 17.8125H7.03125C6.75511 17.8125 6.53125 17.5886 6.53125 17.3125V16.625Z"/>
</mask>
<path d="M6.53125 16.625H12.4688V17.3125C12.4688 17.5886 12.2449 17.8125 11.9688 17.8125H7.03125C6.75511 17.8125 6.53125 17.5886 6.53125 17.3125V16.625Z" fill="#EFEFEF"/>
<path d="M6.53125 16.625V15.125H5.03125V16.625H6.53125ZM12.4688 16.625H13.9688V15.125H12.4688V16.625ZM6.53125 18.125H12.4688V15.125H6.53125V18.125ZM10.9688 16.625V17.3125H13.9688V16.625H10.9688ZM11.9688 16.3125H7.03125V19.3125H11.9688V16.3125ZM8.03125 17.3125V16.625H5.03125V17.3125H8.03125ZM7.03125 16.3125C7.58353 16.3125 8.03125 16.7602 8.03125 17.3125H5.03125C5.03125 18.4171 5.92668 19.3125 7.03125 19.3125V16.3125ZM10.9688 17.3125C10.9688 16.7602 11.4165 16.3125 11.9688 16.3125V19.3125C13.0733 19.3125 13.9688 18.4171 13.9688 17.3125H10.9688Z" fill="#8D8D8D" mask="url(#path-2-inside-1_106_3121)"/>
<path fill-rule="evenodd" clip-rule="evenodd" d="M10.8133 4.59327C10.9477 4.46707 11.1031 4.36396 11.2731 4.28815L11.5573 4.59894C11.7108 4.54707 11.8735 4.52407 12.0368 4.53126L12.2073 4.15625C12.3941 4.18173 12.5758 4.23725 12.7449 4.3206L12.6766 4.72681C12.816 4.81217 12.938 4.92217 13.0363 5.05102L13.4457 4.95223C13.5443 5.11016 13.6154 5.28247 13.6563 5.46222L13.2869 5.65796C13.3072 5.81631 13.2966 5.97645 13.2559 6.13L13.5959 6.38177C13.532 6.55323 13.439 6.71262 13.3209 6.85343L12.9286 6.69131C12.8145 6.8034 12.6794 6.8931 12.5303 6.95567L12.5448 7.36842C12.3666 7.42431 12.1795 7.45073 11.9913 7.44658L11.8716 7.04865C11.709 7.03005 11.5509 6.98176 11.4058 6.90626L11.0839 7.16922C10.9256 7.06744 10.7853 6.94101 10.6688 6.79503L10.9117 6.46092C10.8231 6.32568 10.7612 6.17577 10.7293 6.01905L10.3134 5.9342C10.2942 5.75138 10.3063 5.56727 10.3491 5.38937L10.7718 5.37073C10.8239 5.22062 10.9047 5.082 11.0101 4.96204L10.8133 4.59327ZM12.5365 5.438C12.3301 5.14627 11.9223 5.06875 11.6266 5.26503C11.3308 5.46132 11.2583 5.85753 11.4647 6.14927C11.6711 6.44094 12.0789 6.51845 12.3747 6.32217C12.6704 6.12589 12.743 5.72967 12.5365 5.438ZM6.39698 6.72699C6.66951 6.47843 6.98337 6.27662 7.32568 6.12982L7.88451 6.75939C8.19315 6.65999 8.51919 6.61862 8.84561 6.63762L9.19791 5.8925C9.5707 5.94874 9.93233 6.06492 10.268 6.23638L10.119 7.04677C10.3953 7.22143 10.636 7.44486 10.8286 7.70531L11.6504 7.51934C11.8426 7.83795 11.9797 8.18455 12.056 8.54516L11.3114 8.92615C11.3472 9.2434 11.3213 9.56333 11.2352 9.86926L11.9076 10.3824C11.7745 10.7234 11.5838 11.0396 11.3433 11.3178L10.5638 10.9825C10.3323 11.2034 10.0593 11.379 9.75916 11.4999L9.77582 12.3257C9.41768 12.4324 9.04283 12.48 8.66661 12.4663L8.43912 11.6672C8.11452 11.6254 7.79998 11.5243 7.51194 11.3692L6.86042 11.886C6.54681 11.678 6.2701 11.4212 6.04148 11.126L6.53732 10.4647C6.36416 10.1917 6.24492 9.89018 6.18586 9.57588L5.35676 9.39442C5.32382 9.02827 5.35356 8.66043 5.44468 8.30589L6.29055 8.28057C6.39911 7.98186 6.56499 7.70693 6.77935 7.47003L6.39698 6.72699ZM9.81756 8.46504C9.41351 7.87579 8.60044 7.70925 8.00303 8.09339C7.4056 8.47754 7.24864 9.26784 7.65269 9.85709C8.05665 10.4462 8.86973 10.6128 9.46715 10.2286C10.0646 9.84447 10.2215 9.05417 9.81756 8.46504Z" fill="#8D8D8D"/>
</svg>
