<svg width="20" height="20" viewBox="0 0 20 20" fill="none" xmlns="http://www.w3.org/2000/svg">
<circle cx="10" cy="10" r="10" fill="#F2C94C"/>
<path d="M19 10L16.5 4.5L15 5.5L17 10L15 14.5L16.5 15.5L19 10Z" fill="white"/>
<path d="M5.29728 12.1337H3.61006L3.3154 13.4064H2L3.87314 6.59358H5.03069L6.91786 13.4064H5.59544L5.29728 12.1337ZM3.90471 10.8656H5.00263L4.45191 8.50267L3.90471 10.8656Z" fill="white"/>
<path d="M10.7659 10.6223C10.7659 11.5426 10.6103 12.2522 10.2993 12.7513C9.99065 13.2504 9.55452 13.5 8.99094 13.5C8.42268 13.5 7.98305 13.2489 7.67203 12.7467C7.36101 12.2444 7.2055 11.5363 7.2055 10.6223V9.37767C7.2055 8.45744 7.35984 7.74777 7.66852 7.24866C7.97954 6.74955 8.41801 6.5 8.98392 6.5C9.54984 6.5 9.98831 6.75111 10.2993 7.25334C10.6103 7.75557 10.7659 8.46524 10.7659 9.38235V10.6223ZM9.58375 9.17647C9.58375 8.68672 9.53581 8.32175 9.43993 8.08155C9.34405 7.83824 9.19205 7.71658 8.98392 7.71658C8.78047 7.71658 8.63198 7.82888 8.53844 8.05348C8.44724 8.27807 8.39813 8.61809 8.39111 9.07353V10.8142C8.39111 11.3226 8.43905 11.6954 8.53493 11.9325C8.63081 12.1664 8.78281 12.2834 8.99094 12.2834C9.19205 12.2834 9.34054 12.1696 9.43642 11.9418C9.5323 11.711 9.58141 11.3507 9.58375 10.861V9.17647Z" fill="white"/>
<path d="M14 13.4064H12.8144V8.37166L11.6498 8.82553V7.62767L13.8913 6.59358H14V13.4064Z" fill="white"/>
</svg>
