<svg width="20" height="20" viewBox="0 0 20 20" fill="none" xmlns="http://www.w3.org/2000/svg">
<path d="M9.15451 3.00532C9.54694 2.38398 10.4531 2.38397 10.8455 3.00532L19.0312 15.966C19.4517 16.6318 18.9732 17.5 18.1857 17.5H1.81433C1.02677 17.5 0.548289 16.6318 0.968838 15.966L9.15451 3.00532Z" fill="#FF6A6A"/>
<path d="M10 6.25C9.30964 6.25 8.75 6.77672 8.75 7.42647V10.9559C8.75 11.6056 9.30964 12.1324 10 12.1324C10.6904 12.1324 11.25 11.6056 11.25 10.9559V7.42647C11.25 6.77672 10.6904 6.25 10 6.25Z" fill="white"/>
<path d="M10 13.8971C9.30964 13.8971 8.75 14.4238 8.75 15.0735C8.75 15.7233 9.30964 16.25 10 16.25C10.6904 16.25 11.25 15.7233 11.25 15.0735C11.25 14.4238 10.6904 13.8971 10 13.8971Z" fill="white"/>
</svg>
