<svg width="32" height="31" viewBox="0 0 32 31" xmlns="http://www.w3.org/2000/svg"><title>иконка_кэшбэк</title><g transform="translate(.669 .9)"><ellipse cx="15.336" cy="14.968" rx="14.835" ry="14.468" fill="none"/><path d="M12.702 11.16c0 1.168.544 1.856 2.576 2.24V8.968c-1.6.064-2.576.88-2.576 2.192zm5.968 5.584c0-1.52-.72-2.112-2.752-2.464v4.928c1.68-.08 2.752-1.104 2.752-2.464zm-3.392 5.216v-2.048c-2.592-.128-3.616-1.616-3.84-3.392h.864c.192 1.36.864 2.528 2.976 2.672v-5.024c-2.272-.384-3.408-1.216-3.408-2.944 0-1.712 1.392-2.912 3.408-2.992v-1.44h.64v1.456c1.888.128 3.056 1.168 3.296 2.864h-.816c-.256-1.296-1.04-2.032-2.48-2.144v4.528c2.432.4 3.616 1.104 3.616 3.184 0 1.76-1.424 3.168-3.616 3.248v2.032h-.64z"/></g></svg>