<svg width="26" height="26" viewBox="0 0 26 26" xmlns="http://www.w3.org/2000/svg"><title>иконка совместные покупки</title><g fill="none" fill-rule="evenodd"><rect x=".5" y=".5" width="24.45" height="24.45" rx="12.225"/><path d="M13.42 24.9c-.346.033-.697.05-1.051.05-2.584 0-4.965-.906-6.869-2.431v-6.836c0-2.31 1.795-4.183 4-4.183 2.21 0 4 1.873 4 4.183v8.383c0 .285-.027.564-.08.834zm8.08-3.632c-1.993 2.192-4.794 3.59-7.91 3.682a4.317 4.317 0 0 1-.09-.876v-6.438c0-2.284 1.795-4.136 4-4.136 2.21 0 4 1.85 4 4.146v3.622z"/><rect x="6.5" y="5.5" width="6" height="6" rx="3"/><rect x="14.5" y="7.5" width="6" height="6" rx="3"/></g></svg>