<svg width="14" height="25" viewBox="0 0 14 25" xmlns="http://www.w3.org/2000/svg"><g fill="#FFF" stroke-width="0"><path d="M4.5 3.917v-1h5v1zM7 21a.667.667 0 1 0 0-1.333A.667.667 0 0 0 7 21zm0 1a1.667 1.667 0 1 1 0-3.333A1.667 1.667 0 0 1 7 22z"/><path d="M1 2.003v20.66c0 .55.449 1.004 1.002 1.004h9.996c.546 0 1.002-.45 1.002-1.004V2.003C13 1.453 12.551 1 11.998 1H2.002C1.456 1 1 1.45 1 2.003zm-1 0C0 .898.902 0 2.002 0h9.996C13.103 0 14 .9 14 2.003v20.66a2.007 2.007 0 0 1-2.002 2.004H2.002c-1.105 0-2.002-.9-2.002-2.004V2.003z"/></g></svg>