<svg width="17" height="22" viewBox="0 0 17 22" xmlns="http://www.w3.org/2000/svg"><g fill="#FFF" stroke-width="0"><path d="M1 1.992v18.016c0 .537.451.992 1.007.992h12.986A.998.998 0 0 0 16 20.008V1.992C16 1.455 15.549 1 14.993 1H2.007A.998.998 0 0 0 1 1.992zm-1 0C0 .888.9 0 2.007 0h12.986C16.096 0 17 .897 17 1.992v18.016C17 21.112 16.1 22 14.993 22H2.007A2.007 2.007 0 0 1 0 20.008V1.992z"/><path d="M8.5 19a.5.5 0 1 0 0-1 .5.5 0 0 0 0 1zm0 1a1.5 1.5 0 1 1 0-3 1.5 1.5 0 0 1 0 3zm-8-4.083v-1h16.002v1z"/></g></svg>