<svg width="22" height="28" viewBox="0 0 22 28" xmlns="http://www.w3.org/2000/svg"><path d="M19.945 22.013V7.75a2.534 2.534 0 0 0-2.11-2.493V4.122h1.055V1h-5.232v3.122h1.055v1.136a2.534 2.534 0 0 0-2.11 2.493v4.768H9.397V7.751a2.533 2.533 0 0 0-2.11-2.493V4.122h1.055V1H3.11v3.122h1.055v1.136a2.533 2.533 0 0 0-2.11 2.493v14.262H1v5.232h9.451v-5.232H9.397v-5.317h3.206v5.317H11.55v5.232H21v-5.232h-1.055zM14.671 3.11V2.013h3.207V3.11H14.67zm2.152 1.012V5.22h-1.097V4.122h1.097zm-2.11 9.41v2.152H7.287v-2.152h7.426zM4.123 3.11V2.013h3.206V3.11H4.122zm2.151 1.012V5.22H5.177V4.122h1.097zM9.44 23.025v3.207H2.013v-3.207h7.426zm-1.055-1.012H3.068V7.75a1.52 1.52 0 0 1 1.518-1.519h2.279a1.52 1.52 0 0 1 1.519 1.52v4.767h-2.11v4.177h2.11v5.317zm5.232-5.317h2.11V12.52h-2.11V7.751a1.52 1.52 0 0 1 1.519-1.519h2.279a1.52 1.52 0 0 1 1.518 1.52v14.26h-5.316v-5.316zm6.371 9.536h-7.426v-3.207h7.425v3.207z" fill="#FFF" stroke="#9B9B9B" stroke-width=".4" fill-rule="evenodd"/></svg>