<svg width="40" height="40" viewBox="0 0 40 40" fill="none" xmlns="http://www.w3.org/2000/svg">
<g clip-path="url(#clip0)">
<path d="M40 29.806C40 31.9996 38.2581 33.5479 36.129 33.5479H3.87097C1.74194 33.5479 0 31.9996 0 29.806V10.1931C0 7.99956 1.74194 6.45117 3.87097 6.45117H36.129C38.2581 6.45117 40 7.99956 40 10.1931V29.806Z" fill="#DC3027"/>
<path d="M3.87109 6.45117H36.1292C38.2582 6.45117 40.0001 7.99956 40.0001 10.1931V29.806C40.0001 31.9996 37.9356 33.5479 35.8066 33.5479" fill="#CE2420"/>
<path d="M3.87109 6.45117H36.1292C38.2582 6.45117 40.0001 7.99956 40.0001 10.1931V17.4189" fill="#B50808"/>
<path d="M40 29.7413C40 32.1284 38.2581 33.5477 36.129 33.5477H3.87097C1.74194 33.5477 0 31.8703 0 29.6768" fill="#B50808"/>
<path d="M6.9679 10.5156L7.93564 13.5479H11.0969L8.5808 15.3543L9.54854 18.3221L6.9679 16.4511L4.45177 18.2576L5.41951 15.3543L2.83887 13.5479H6.00016L6.9679 10.5156Z" fill="#F8D12E"/>
<path d="M14.3225 8.70996L14.0645 9.74222L14.9677 10.3874H13.8709L13.5483 11.4842L13.1612 10.3874L12.0645 10.4519L12.9677 9.80673L12.5806 8.77448L13.4838 9.35512L14.3225 8.70996Z" fill="#F7B92F"/>
<path d="M14.3225 18.1289L14.0645 19.1612L14.9677 19.8063L13.8709 19.8708L13.5483 20.9031L13.1612 19.8708H12.0645L12.9677 19.2257L12.5806 18.1934L13.4838 18.7741L14.3225 18.1289Z" fill="#F8D12E"/>
<path d="M17.0325 11.5479L16.7099 12.6446L17.6131 13.2253L16.5164 13.2898L16.1938 14.322L15.8712 13.2898L14.7744 13.3543L15.6131 12.6446L15.226 11.6124L16.1293 12.2575L17.0325 11.5479Z" fill="#F7B92F"/>
<path d="M17.0325 15.4189L16.7099 16.4512L17.6131 17.0964H16.5164L16.1938 18.1931L15.8712 17.1609H14.7744L15.6131 16.5157L15.226 15.4835L16.1293 16.0641L17.0325 15.4189Z" fill="#F8D12E"/>
</g>
<defs>
<clipPath id="clip0">
<rect width="40" height="40" fill="white"/>
</clipPath>
</defs>
</svg>
