<svg width="40" height="40" viewBox="0 0 40 40" fill="none" xmlns="http://www.w3.org/2000/svg">
<path d="M24.3077 28.4622H25.3846V14.0798L19.3689 8.06411H25.3846V7.07692C25.3846 6.48246 25.8671 6 26.4615 6H30.7692C31.3637 6 31.8462 6.48246 31.8462 7.07692V28.4622H32.9231C33.5175 28.4622 34 28.9447 34 29.5391V32.7699C34 33.3644 33.5175 33.8468 32.9231 33.8468H24.3077C23.7132 33.8468 23.2308 33.3644 23.2308 32.7699V29.5391C23.2308 28.9447 23.7132 28.4622 24.3077 28.4622Z" fill="#859DE0"/>
<path d="M16.3236 8.06445L22.7852 14.526H20.4461L13.9845 8.06445H16.3236Z" fill="#859DE0"/>
<path d="M10.9388 8.06445L17.4004 14.526H15.0613L8.59976 8.06445H10.9388Z" fill="#859DE0"/>
<path d="M6.12915 8.63867L12.0156 14.5251H7.07685C6.48238 14.5251 5.99992 14.0427 5.99992 13.4482V9.14052C5.99992 8.95852 6.04946 8.78944 6.12915 8.63867Z" fill="#859DE0"/>
<path d="M10.1106 28.415C10.4946 28.6003 10.8255 28.7989 11.1035 29.0107C11.3816 29.2225 11.6927 29.5204 12.0369 29.9043L13.9433 31.9894L12.1163 33.7369L6 26.9852L12.1163 20.2334L13.9433 21.9809L12.0369 24.066C11.6927 24.4499 11.3816 24.7478 11.1035 24.9596C10.8255 25.1715 10.4946 25.37 10.1106 25.5554H20V28.415H10.1106Z" fill="#859DE0"/>
</svg>
