<svg width="40" height="40" viewBox="0 0 40 40" fill="none" xmlns="http://www.w3.org/2000/svg">
<path fill-rule="evenodd" clip-rule="evenodd" d="M9.03182 21.0883H17.7158C18.1896 21.0883 18.5771 21.476 18.5771 21.9496V30.6337C18.5771 31.1075 18.1896 31.495 17.7158 31.495H9.03182C8.55792 31.495 8.17053 31.1075 8.17053 30.6337V21.9496C8.17053 21.4758 8.55792 21.0883 9.03182 21.0883ZM16.1174 18.4066H10.6301V12.4896H8L13.3736 9.00718L18.7472 12.4896H16.1174V18.4066ZM22.4545 8H31.1387C31.6125 8 32 8.38754 32 8.86129V17.5453C32 18.0191 31.6125 18.4066 31.1387 18.4066H22.4545C21.9809 18.4066 21.5933 18.0191 21.5933 17.5453V8.86129C21.5933 8.38754 21.9809 8 22.4545 8ZM25.4007 9.36349C25.2485 9.36349 25.1239 9.48812 25.1239 9.64047V12.4323C25.1239 12.5845 25.2485 12.7091 25.4007 12.7091H28.1925C28.3449 12.7091 28.4695 12.5843 28.4695 12.4323V9.64047C28.4695 9.48812 28.3449 9.36349 28.1925 9.36349H25.4007ZM22.4545 21.0883H31.1387C31.6125 21.0883 32 21.476 32 21.9496V30.6337C32 31.1075 31.6125 31.495 31.1387 31.495H22.4545C21.9809 31.495 21.5933 31.1075 21.5933 30.6337V21.9496C21.5933 21.4758 21.9809 21.0883 22.4545 21.0883ZM25.4007 22.4519C25.2485 22.4519 25.1239 22.5765 25.1239 22.7289V25.5205C25.1239 25.6729 25.2485 25.7975 25.4007 25.7975H28.1925C28.3449 25.7975 28.4695 25.6729 28.4695 25.5205V22.7289C28.4695 22.5765 28.3449 22.4519 28.1925 22.4519H25.4007ZM11.9777 22.4519C11.8254 22.4519 11.7009 22.5765 11.7009 22.7289V25.5205C11.7009 25.6729 11.8255 25.7975 11.9777 25.7975H14.7695C14.9218 25.7975 15.0465 25.6729 15.0465 25.5205V22.7289C15.0465 22.5765 14.9218 22.4519 14.7695 22.4519H11.9777Z" fill="#31ABC4"/>
</svg>
