<svg width="40" height="40" viewBox="0 0 40 40" fill="none" xmlns="http://www.w3.org/2000/svg">
<path d="M28.5114 12.4987L27.4803 11.4676C25.5235 9.51079 22.3462 9.51079 20.3894 11.4676L16.6019 15.2551C16.3704 15.4866 16.1811 15.7391 15.9917 15.9916C14.9817 17.4645 14.8554 19.3792 15.6129 20.9574C15.7813 21.3151 15.9917 21.6517 16.2442 21.9674C16.3494 22.0936 16.4756 22.2199 16.5808 22.3461L17.6119 23.3771C17.7381 23.5034 17.8644 23.6086 17.9906 23.7138L20.2 21.5465C20.2631 21.4834 20.3262 21.3782 20.3262 21.294C20.2 21.2309 20.0948 21.1257 19.9896 21.0205L18.9585 19.9895C18.8533 19.8842 18.7692 19.758 18.685 19.6528C18.4746 19.2951 18.4115 18.8953 18.4956 18.5165C18.5587 18.2009 18.706 17.8853 18.9585 17.6328L22.767 13.8243C23.4193 13.172 24.4714 13.172 25.1237 13.8243L26.1547 14.8553C26.807 15.5076 26.807 16.5597 26.1547 17.212L25.2079 18.1588C25.9022 19.4003 26.1337 20.8101 25.9022 22.1778L28.4903 19.5897C30.4682 17.6328 30.4682 14.4555 28.5114 12.4987Z" fill="white"/>
<path d="M24.3661 19.0221C24.1977 18.6644 23.9873 18.3277 23.7348 18.0121C23.6296 17.8858 23.5034 17.7596 23.3982 17.6333L22.3671 16.6023C22.2409 16.476 22.1146 16.3708 21.9884 16.2656L19.779 18.4329C19.6949 18.5171 19.6528 18.6012 19.6528 18.6854C19.779 18.7485 19.9053 18.8327 19.9894 18.9379L21.0205 19.9689C21.1257 20.0741 21.2099 20.2004 21.273 20.3056C21.4834 20.6633 21.5465 21.0631 21.4624 21.4418C21.3992 21.7575 21.2519 22.0731 20.9994 22.3256L17.212 26.1551C16.5597 26.8074 15.5076 26.8074 14.8553 26.1551L13.8243 25.1241C13.172 24.4718 13.172 23.4197 13.8243 22.7674L14.7712 21.8206C14.0768 20.5791 13.8453 19.1694 14.0768 17.8017L11.4676 20.4108C9.51079 22.3677 9.51079 25.5449 11.4676 27.5018L12.4987 28.5328C14.4555 30.4897 17.6328 30.4897 19.5897 28.5328L23.3982 24.7243C23.6296 24.4929 23.819 24.2614 24.0084 23.9879C24.9973 22.5149 25.1236 20.6002 24.3661 19.0221Z" fill="white"/>
</svg>
