<svg width="26" height="26" viewBox="0 0 26 26" fill="none" xmlns="http://www.w3.org/2000/svg">
<path fill-rule="evenodd" clip-rule="evenodd" d="M0 9.45706C0 8.15027 1.05715 7.09091 2.36615 7.09091H16.5429C17.8497 7.09091 18.9091 8.14806 18.9091 9.45706V23.6338C18.9091 24.9406 17.8519 26 16.5429 26H2.36615C1.05936 26 0 24.9428 0 23.6338V9.45706ZM10.6364 11.8182H8.27273V15.3636H4.72727V17.7273H8.27273V21.2727H10.6364V17.7273H14.1818V15.3636H10.6364V11.8182ZM23.6364 18.9091C24.9418 18.9091 26 17.8482 26 16.5455V14.1818H23.6364V16.5455H21.2727V18.9091H23.6364ZM26 2.36364C26 1.05824 24.9391 0 23.6364 0H21.2727V2.36364H23.6364V4.72727H26V2.36364ZM9.45455 0C8.14915 0 7.09091 1.06089 7.09091 2.36364V4.72727H9.45455V2.36364H11.8182V0H9.45455ZM14.1818 0H18.9091V2.36364H14.1818V0ZM23.6364 7.09091H26V11.8182H23.6364V7.09091Z" fill="#5A6487"/>
</svg>
