<svg width="33" height="11" viewBox="0 0 33 11" fill="none" xmlns="http://www.w3.org/2000/svg">
<path d="M4.90384 0.634V10H3.61584V2.006L1.43184 3.336L0.871836 2.426L3.76984 0.634H4.90384ZM10.3445 0.494C11.3805 0.494 12.1598 0.909333 12.6825 1.74C13.2145 2.56133 13.4805 3.756 13.4805 5.324C13.4805 6.892 13.2145 8.09133 12.6825 8.922C12.1598 9.75267 11.3805 10.168 10.3445 10.168C9.30848 10.168 8.52448 9.75267 7.99248 8.922C7.46981 8.09133 7.20848 6.892 7.20848 5.324C7.20848 3.756 7.46981 2.56133 7.99248 1.74C8.52448 0.909333 9.30848 0.494 10.3445 0.494ZM10.3445 1.516C9.73781 1.516 9.28514 1.81467 8.98648 2.412C8.69714 3.00933 8.55248 3.98 8.55248 5.324C8.55248 6.668 8.69714 7.64333 8.98648 8.25C9.28514 8.84733 9.73781 9.146 10.3445 9.146C10.9418 9.146 11.3898 8.84733 11.6885 8.25C11.9871 7.64333 12.1365 6.668 12.1365 5.324C12.1365 3.98933 11.9871 3.02333 11.6885 2.426C11.3898 1.81933 10.9418 1.516 10.3445 1.516ZM18.1511 0.494C19.1871 0.494 19.9665 0.909333 20.4891 1.74C21.0211 2.56133 21.2871 3.756 21.2871 5.324C21.2871 6.892 21.0211 8.09133 20.4891 8.922C19.9665 9.75267 19.1871 10.168 18.1511 10.168C17.1151 10.168 16.3311 9.75267 15.7991 8.922C15.2765 8.09133 15.0151 6.892 15.0151 5.324C15.0151 3.756 15.2765 2.56133 15.7991 1.74C16.3311 0.909333 17.1151 0.494 18.1511 0.494ZM18.1511 1.516C17.5445 1.516 17.0918 1.81467 16.7931 2.412C16.5038 3.00933 16.3591 3.98 16.3591 5.324C16.3591 6.668 16.5038 7.64333 16.7931 8.25C17.0918 8.84733 17.5445 9.146 18.1511 9.146C18.7485 9.146 19.1965 8.84733 19.4951 8.25C19.7938 7.64333 19.9431 6.668 19.9431 5.324C19.9431 3.98933 19.7938 3.02333 19.4951 2.426C19.1965 1.81933 18.7485 1.516 18.1511 1.516ZM30.6338 0.0459996L31.5298 0.634L25.0478 10.434L24.1518 9.846L30.6338 0.0459996ZM24.9498 0.494C25.6218 0.494 26.1678 0.708666 26.5878 1.138C27.0171 1.56733 27.2318 2.14133 27.2318 2.86C27.2318 3.57867 27.0171 4.15267 26.5878 4.582C26.1678 5.01133 25.6218 5.226 24.9498 5.226C24.2871 5.226 23.7411 5.01133 23.3118 4.582C22.8918 4.15267 22.6818 3.57867 22.6818 2.86C22.6818 2.14133 22.8918 1.56733 23.3118 1.138C23.7411 0.708666 24.2871 0.494 24.9498 0.494ZM24.9498 1.362C24.5391 1.362 24.2451 1.502 24.0678 1.782C23.8998 2.062 23.8158 2.42133 23.8158 2.86C23.8158 3.28933 23.8998 3.64867 24.0678 3.938C24.2451 4.218 24.5391 4.358 24.9498 4.358C25.7058 4.358 26.0838 3.85867 26.0838 2.86C26.0838 2.43067 25.9998 2.076 25.8318 1.796C25.6638 1.50667 25.3698 1.362 24.9498 1.362ZM30.7178 5.436C31.3898 5.436 31.9358 5.65067 32.3558 6.08C32.7758 6.50933 32.9858 7.08333 32.9858 7.802C32.9858 8.52067 32.7758 9.09467 32.3558 9.524C31.9358 9.95333 31.3898 10.168 30.7178 10.168C30.0458 10.168 29.4951 9.95333 29.0658 9.524C28.6458 9.09467 28.4358 8.52067 28.4358 7.802C28.4358 7.08333 28.6458 6.50933 29.0658 6.08C29.4951 5.65067 30.0458 5.436 30.7178 5.436ZM30.7178 6.318C30.3071 6.318 30.0131 6.458 29.8358 6.738C29.6678 7.00867 29.5838 7.36333 29.5838 7.802C29.5838 8.23133 29.6678 8.59067 29.8358 8.88C30.0131 9.16 30.3071 9.3 30.7178 9.3C31.4738 9.3 31.8518 8.80067 31.8518 7.802C31.8518 7.37267 31.7678 7.018 31.5998 6.738C31.4318 6.458 31.1378 6.318 30.7178 6.318Z" fill="white"/>
</svg>
