<svg width="40" height="40" viewBox="0 0 40 40" fill="none" xmlns="http://www.w3.org/2000/svg">
<path d="M25.0864 15.5321L21.8073 19.6252C21.8941 20.2273 21.7892 20.8414 21.5074 21.3805C21.2256 21.9197 20.7813 22.3564 20.2374 22.6288C19.6935 22.9012 19.0776 22.9955 18.4771 22.8982C17.8766 22.801 17.322 22.5172 16.8919 22.087C16.4617 21.6569 16.1779 21.1023 16.0807 20.5018C15.9834 19.9013 16.0777 19.2854 16.3501 18.7415C16.6225 18.1976 17.0592 17.7533 17.5984 17.4715C18.1375 17.1897 18.7516 17.0848 19.3537 17.1716L23.4468 13.8925C23.6642 13.6751 23.9591 13.5529 24.2666 13.5529C24.5741 13.5529 24.869 13.6751 25.0864 13.8925C25.3038 14.1099 25.426 14.4048 25.426 14.7123C25.426 15.0198 25.3038 15.3147 25.0864 15.5321ZM6.01702 19.3471C5.92446 21.149 6.21016 22.9503 6.85574 24.6351C7.50132 26.3199 8.49248 27.8508 9.76543 29.1295C10.0049 29.3684 10.3294 29.5027 10.6678 29.5027C11.0061 29.5027 11.3306 29.3684 11.5701 29.1295L13.4907 27.2205C13.6188 27.0919 13.7167 26.9363 13.7772 26.7651C13.8377 26.5939 13.8593 26.4114 13.8404 26.2308C13.8216 26.0502 13.7627 25.8761 13.6681 25.7211C13.5736 25.5661 13.4456 25.4341 13.2937 25.3347C13.0532 25.1833 12.7681 25.1192 12.486 25.1529C12.2039 25.1867 11.9419 25.3163 11.7439 25.5201L10.7301 26.534C9.51131 25.0083 8.74371 23.172 8.51403 21.2329H10.2521C10.3779 21.2348 10.5029 21.2116 10.6197 21.1647C10.7365 21.1178 10.8428 21.0481 10.9323 20.9596C11.0218 20.8712 11.0929 20.7657 11.1412 20.6495C11.1895 20.5333 11.2142 20.4086 11.2138 20.2828V19.7324C11.2138 19.4811 11.114 19.2402 10.9364 19.0626C10.7587 18.8849 10.5178 18.7851 10.2666 18.7851H8.52851C8.75377 16.8465 9.51629 15.0095 10.7301 13.4812L11.9612 14.7123C12.1393 14.8897 12.3804 14.9893 12.6318 14.9893C12.8832 14.9893 13.1243 14.8897 13.3024 14.7123L13.6847 14.3299C13.7729 14.2419 13.8429 14.1374 13.8907 14.0223C13.9384 13.9073 13.963 13.7839 13.963 13.6593C13.963 13.5347 13.9384 13.4114 13.8907 13.2963C13.8429 13.1812 13.7729 13.0767 13.6847 12.9887L12.4536 11.7576C13.9819 10.5438 15.819 9.78131 17.7576 9.55605V11.2941C17.7576 11.4185 17.7821 11.5417 17.8297 11.6566C17.8773 11.7715 17.9471 11.876 18.035 11.9639C18.123 12.0519 18.2274 12.1216 18.3423 12.1692C18.4573 12.2169 18.5804 12.2414 18.7048 12.2414H19.2378C19.4886 12.2437 19.73 12.1465 19.9092 11.9711C20.0884 11.7957 20.1907 11.5564 20.1938 11.3057V9.56764C22.5063 9.84207 24.6628 10.8745 26.3267 12.5038C27.9905 14.1331 29.068 16.2674 29.391 18.5737C30.3573 19.1932 31.2074 19.9776 31.9025 20.8911C31.9227 20.6014 31.9343 20.3117 31.9343 20.022C31.949 16.6313 30.6348 13.3697 28.2735 10.9363C25.9121 8.50295 22.6914 7.09142 19.3018 7.00429C15.9121 6.91715 12.6232 8.16133 10.1399 10.4702C7.6566 12.779 6.17658 15.9688 6.01702 19.3558V19.3471ZM19.9881 27.626H16.7177C16.6499 27.6259 16.5828 27.6392 16.5202 27.665C16.4575 27.6909 16.4006 27.7288 16.3527 27.7767L13.5892 30.5402C13.4822 30.6475 13.4095 30.7841 13.3801 30.9327C13.3506 31.0813 13.3658 31.2353 13.4237 31.3753C13.4816 31.5153 13.5797 31.6351 13.7055 31.7194C13.8314 31.8038 13.9793 31.8491 14.1308 31.8495H21.1613C20.8965 31.2644 20.7282 30.6403 20.663 30.0014C20.582 29.2059 20.6448 28.4022 20.8484 27.6289L19.9881 27.626ZM30.5468 32.9995C35.4944 32.2261 34.5096 28.0432 33.8085 26.1748C33.7787 26.0902 33.7234 26.017 33.6502 25.9652C33.5771 25.9133 33.4897 25.8853 33.4001 25.8851C33.3291 25.8847 33.2591 25.902 33.1964 25.9354C33.1337 25.9687 33.0802 26.0172 33.0409 26.0763C32.5802 26.7355 31.9578 27.2652 31.2333 27.6145C31.746 22.9796 28.8725 21.0504 27.4878 20.2914C27.4191 20.2531 27.3413 20.2342 27.2626 20.2369C27.184 20.2396 27.1076 20.2637 27.0417 20.3067C26.9758 20.3496 26.9229 20.4097 26.8887 20.4806C26.8545 20.5514 26.8403 20.6303 26.8476 20.7086C26.9722 22.6378 25.1675 25.1899 24.1102 26.5021C23.3558 27.4068 22.9893 28.5729 23.0905 29.7465C23.3802 32.4549 26.0163 32.9068 26.8911 32.9822H26.9085C26.9369 32.9819 26.965 32.9757 26.9909 32.9639C27.0168 32.9522 27.0399 32.935 27.0588 32.9137C27.0776 32.8924 27.0918 32.8674 27.1003 32.8402C27.1089 32.8131 27.1116 32.7845 27.1083 32.7562C27.0334 32.0705 27.1204 31.3767 27.3624 30.7307C27.6044 30.0847 27.9946 29.5045 28.5017 29.0368C28.5611 28.9816 28.6393 28.9509 28.7204 28.9509C28.8015 28.9509 28.8796 28.9816 28.9391 29.0368C29.4478 29.5057 29.839 30.0878 30.0811 30.736C30.3231 31.3841 30.4092 32.0802 30.3324 32.7678C30.328 32.7977 30.3304 32.8283 30.3394 32.8572C30.3483 32.8861 30.3636 32.9127 30.3842 32.9349C30.4048 32.9571 30.43 32.9745 30.4582 32.9857C30.4863 32.9968 30.5166 33.0016 30.5468 32.9995Z" fill="#F09456"/>
</svg>
