<svg width="40" height="40" viewBox="0 0 40 40" fill="none" xmlns="http://www.w3.org/2000/svg">
<path d="M32 12.8769H9.055C8.8092 12.8865 8.56803 12.8082 8.3747 12.6561C8.18137 12.504 8.04853 12.2881 8 12.0469C7.975 11.9021 7.98223 11.7536 8.02116 11.6119C8.06009 11.4702 8.12978 11.3388 8.22525 11.2271C8.32073 11.1154 8.43965 11.0261 8.57356 10.9656C8.70747 10.905 8.85307 10.8748 9 10.8769H28.08C28.4635 10.8769 28.8432 10.8014 29.1974 10.6546C29.5517 10.5079 29.8736 10.2928 30.1448 10.0217C30.4159 9.75052 30.631 9.42862 30.7777 9.07435C30.9245 8.72008 31 8.34037 31 7.95691C30.9996 7.8214 30.9704 7.68751 30.9146 7.56406C30.8587 7.4406 30.7773 7.33038 30.6757 7.24064C30.5742 7.15091 30.4548 7.08368 30.3254 7.0434C30.196 7.00311 30.0595 6.99068 29.925 7.00691L8.06 9.63191C7.49254 9.70031 6.96973 9.97403 6.59023 10.4014C6.21073 10.8288 6.00078 11.3803 6 11.9519V29.1667C6 29.523 6.08195 30.0219 6.18442 30.5065C6.39437 31.4993 7.16745 32.2724 8.16029 32.4823C8.64482 32.5847 9.14368 32.6667 9.5 32.6667H30.5C30.8563 32.6667 31.3552 32.5847 31.8397 32.4823C32.8326 32.2724 33.6057 31.4993 33.8156 30.5064C33.9181 30.0218 34 29.523 34 29.1667V14.8769C34 14.3465 33.7893 13.8378 33.4142 13.4627C33.0391 13.0876 32.5304 12.8769 32 12.8769Z" fill="#5BB95B"/>
<path d="M17.3168 21.3503V16.917H14.5168L14.5168 21.3503H10.0835V24.1503H14.5168V28.5837H17.3168V24.1503H21.7502V21.3503H17.3168Z" fill="#181E2F"/>
<circle cx="28.75" cy="22.75" r="1.75" fill="#181E2F"/>
</svg>
