<svg width="40" height="40" viewBox="0 0 40 40" fill="none" xmlns="http://www.w3.org/2000/svg">
<path d="M13.9999 31.0007C13.9999 31.5506 13.5496 32.0008 13 32.0008H9.00018C8.45029 32.0008 8 31.5506 8 31.0007V27.0009C8 26.451 8.45029 26.001 9.00018 26.001H13C13.5496 26.001 13.9999 26.451 13.9999 27.0009V31.0007Z" fill="#F2696D"/>
<path d="M21.9994 31.0007C21.9994 31.5506 21.5491 32.0008 20.9995 32.0008H16.9997C16.4498 32.0008 15.9995 31.5506 15.9995 31.0007V27.0009C15.9995 26.451 16.4498 26.001 16.9997 26.001H20.9995C21.5491 26.001 21.9994 26.451 21.9994 27.0009V31.0007Z" fill="#F2696D"/>
<path d="M29.9994 31.0007C29.9994 31.5506 29.5491 32.0008 28.9995 32.0008H24.9997C24.4498 32.0008 23.9995 31.5506 23.9995 31.0007V27.0009C23.9995 26.451 24.4498 26.001 24.9997 26.001H28.9995C29.5491 26.001 29.9994 26.451 29.9994 27.0009V31.0007Z" fill="#F2696D"/>
<path d="M13.9999 23.0007C13.9999 23.5506 13.5496 24.0005 13 24.0005H9.00018C8.45029 24.0005 8 23.5506 8 23.0007V19.0009C8 18.451 8.45029 18.001 9.00018 18.001H13C13.5496 18.001 13.9999 18.451 13.9999 19.0009V23.0007Z" fill="#F2696D"/>
<path d="M21.9994 23.0007C21.9994 23.5506 21.5491 24.0005 20.9995 24.0005H16.9997C16.4498 24.0005 15.9995 23.5506 15.9995 23.0007V19.0009C15.9995 18.451 16.4498 18.001 16.9997 18.001H20.9995C21.5491 18.001 21.9994 18.451 21.9994 19.0009V23.0007Z" fill="#F2696D"/>
<path d="M27.3002 24.5367C26.7914 24.7464 26.2037 24.5034 25.9937 23.9956L24.4626 20.3005C24.2529 19.7929 24.4959 19.205 25.0038 18.9941L28.6997 17.4626C29.2073 17.2517 29.795 17.4959 30.0053 18.0038L31.5364 21.7C31.7461 22.2076 31.5031 22.7953 30.9952 23.0056L27.3002 24.5367Z" fill="#F2696D"/>
<path d="M13.9999 15.0016C13.9999 15.5515 13.5496 16.0015 13 16.0015H9.00018C8.45029 16.0015 8 15.5515 8 15.0016V11.0018C8 10.4519 8.45029 10.002 9.00018 10.002H13C13.5496 10.002 13.9999 10.4519 13.9999 11.0018V15.0016Z" fill="#F2696D"/>
<path d="M21.0056 15.9972C20.7956 16.5047 20.2067 16.7489 19.6991 16.5383L16.0038 15.0072C15.4959 14.7972 15.2517 14.2083 15.4626 13.7007L16.9929 10.0057C17.2038 9.4981 17.7917 9.25361 18.2993 9.4645L21.9956 10.9957C22.5031 11.2057 22.7464 11.7946 22.5364 12.3021L21.0056 15.9972Z" fill="#F2696D"/>
<path d="M31.7078 11.1206C32.0966 11.5094 32.0966 12.146 31.7078 12.5348L28.8798 15.3637C28.4913 15.7525 27.8544 15.7525 27.4659 15.3637L24.6376 12.5348C24.2491 12.146 24.2491 11.5094 24.6376 11.1206L27.4659 8.29137C27.8544 7.90288 28.4913 7.90288 28.8798 8.29137L31.7078 11.1206Z" fill="#F2696D"/>
</svg>
