<?xml version="1.0" encoding="utf-8" ?>
<svg xmlns="http://www.w3.org/2000/svg" xmlns:xlink="http://www.w3.org/1999/xlink" width="427" height="566">
	<defs>
		<clipPath id="clip_0">
			<rect x="-463" y="-205" width="1440" height="5679" clip-rule="evenodd"/>
		</clipPath>
	</defs>
	<g clip-path="url(#clip_0)">
		<path fill="rgb(242,221,222)" stroke="none" d="M334.989 0.000132189C316.713 -0.0395871 298.003 8.8784 282.693 17.6802C260.166 30.6337 240.334 47.8371 221.934 65.6651C210.169 77.0646 198.934 88.9923 188.122 101.271C176.289 78.7695 160.955 58.2237 141.54 41.5654C126.553 28.7083 108.685 20.9134 88.7405 19.4735C72.1064 18.272 55.4117 25.4602 41.8053 34.0495C17.8337 49.1836 6.97006 72.7282 2.4667 99.1575C-2.59175 128.853 0.902692 160.371 6.00484 189.846C12.2559 225.946 22.2001 261.574 33.5175 296.494C53.9887 359.658 80.0128 421.242 108.051 481.635C114.947 496.49 121.978 511.31 129.409 525.932C130.561 528.393 131.845 530.804 133.253 533.151C142.101 548.13 159.741 567.929 178.511 565.849C184.887 565.143 188.42 561.954 190.117 557.565C258.032 472.358 322.235 383.099 371.762 286.711C387.764 255.567 402.098 223.449 412.608 190.19C420.22 166.095 426.954 141.059 427 115.713C427.093 65.3047 395.495 0.128227 334.989 0.000132189M351.948 113.2C351.202 116.182 350.388 119.149 349.557 122.11C348.901 124.281 348.215 126.441 347.522 128.601C342.584 143.996 336.676 159.097 330.312 173.998C292.502 262.521 237.642 344.465 180.218 422.284C171.147 434.578 161.925 446.768 152.585 458.877C151.144 455.693 149.69 452.513 148.265 449.324C146.867 446.196 145.483 443.062 144.1 439.925C143.662 438.929 143.227 437.932 142.79 436.937C129.557 406.256 117.178 375.231 105.924 343.832C99.9537 327.181 94.3719 310.4 89.2092 293.503C86.7594 285.488 84.4466 277.436 82.2352 269.358C81.1428 265.381 80.1021 261.392 79.0793 257.398C79.0356 257.226 78.985 257.031 78.9324 256.821C78.4964 254.99 78.0595 253.16 77.6385 251.327C74.0427 235.731 71.1232 219.988 69.1163 204.132C68.2296 197.128 67.601 190.098 67.1859 183.054C67.1094 181.744 67.0578 180.431 67.0042 179.119C66.9803 175.669 67.0598 172.216 67.2068 168.767C67.463 162.788 68.0866 156.826 69.027 150.912C69.4669 148.143 70.0448 145.398 70.6764 142.667C70.734 142.422 70.7985 142.179 70.8591 141.935C71.1163 141.066 71.4241 140.055 71.6416 139.436C73.286 134.736 75.4479 130.219 78.0098 125.918C79.2263 123.874 80.6185 121.931 82.0723 120.037C82.118 119.976 82.1726 119.908 82.2252 119.842C82.832 119.242 83.4516 118.655 84.0772 118.075C89.6302 112.932 96.3808 108.787 103.058 105.143C104.829 104.178 106.666 103.332 108.502 102.492C109.035 102.248 110.509 101.695 111.439 101.341C114.461 100.486 117.56 99.9101 120.684 99.5298C122.085 99.36 125.364 99.492 127.041 99.5347C127.948 99.7224 128.849 99.9319 129.74 100.172C130.116 100.654 130.469 101.119 130.772 101.535C132.509 104.604 134.098 107.747 135.629 110.912C135.799 111.263 135.954 111.582 136.096 111.872C137.154 114.477 138.154 117.105 139.12 119.743C141.335 125.779 143.261 131.914 145.038 138.081C145.647 140.194 146.218 142.319 146.782 144.446C147.33 146.846 147.858 149.25 148.354 151.661C148.949 154.578 149.517 157.507 149.97 160.447C152.785 178.825 164.825 196.613 179.854 208.06C190.474 216.146 205.467 222.609 215.066 210.202C220.823 202.755 226.686 195.39 232.674 188.115C235.521 184.654 238.413 181.229 241.32 177.818C242.735 176.157 244.167 174.507 245.598 172.857C246.008 172.384 248.298 169.801 249.271 168.697C259.783 157.007 270.763 145.701 282.259 134.895C300.223 118.008 319.775 102.069 341.788 90.2176C345.778 88.0687 349.889 86.1265 354.079 84.3629C354.788 84.065 356.099 83.5735 357.207 83.1624C357.383 83.1098 357.554 83.0482 357.728 82.9966C357.205 87.2753 356.539 91.5392 355.774 95.7743C354.719 101.624 353.391 107.429 351.948 113.2"/>
	</g>

</svg>