<?xml version="1.0" encoding="utf-8" ?>
<svg xmlns="http://www.w3.org/2000/svg" xmlns:xlink="http://www.w3.org/1999/xlink" width="384" height="266">
	<defs>
		<clipPath id="clip_0">
			<rect x="-136" y="-114" width="654" height="894" clip-rule="evenodd"/>
		</clipPath>
	</defs>
	<g clip-path="url(#clip_0)">
		<path fill="rgb(242,240,240)" stroke="none" transform="translate(106 9)" d="M160.257 51.2179C159.918 52.5719 159.548 53.9192 159.171 55.2637C158.873 56.2493 158.561 57.2299 158.246 58.2111C156.003 65.201 153.319 72.058 150.427 78.8238C133.249 119.019 108.324 156.227 82.2343 191.562C78.1134 197.144 73.9234 202.679 69.6798 208.177C69.0252 206.731 68.3647 205.288 67.7173 203.84C67.082 202.419 66.4531 200.996 65.8251 199.572C65.6257 199.12 65.4281 198.667 65.2295 198.215C59.2174 184.284 53.5932 170.196 48.4801 155.94C45.7677 148.379 43.2318 140.759 40.8862 133.087C39.7732 129.447 38.7224 125.791 37.7177 122.123C37.2214 120.318 36.7486 118.506 36.2839 116.693C36.264 116.615 36.241 116.526 36.2171 116.431C36.019 115.6 35.8205 114.769 35.6292 113.936C33.9956 106.855 32.6691 99.7062 31.7573 92.5066C31.3545 89.3266 31.0689 86.1344 30.8803 82.9358C30.8455 82.3411 30.8221 81.7451 30.7977 81.1495C30.7869 79.5827 30.823 78.015 30.8898 76.4491C31.0062 73.7339 31.2895 71.0268 31.7167 68.3414C31.9166 67.0843 32.1792 65.8377 32.4661 64.5977C32.4923 64.4864 32.5216 64.3764 32.5491 64.2654C32.666 63.8709 32.8058 63.4119 32.9047 63.1306C33.6518 60.9966 34.634 58.9455 35.798 56.9928C36.3506 56.0644 36.9832 55.1825 37.6437 54.3222C37.6644 54.2947 37.6892 54.2636 37.7131 54.2339C37.9888 53.9615 38.2703 53.6946 38.5546 53.4313C41.0775 51.0962 44.1445 49.2142 47.1781 47.5595C47.983 47.1213 48.8172 46.7371 49.6514 46.3557C49.8936 46.2448 50.5632 45.9941 50.9859 45.8331C52.3588 45.4449 53.7669 45.1834 55.1862 45.0107C55.8228 44.9336 57.3125 44.9936 58.0746 45.013C58.4865 45.0982 58.8957 45.1933 59.3008 45.3024C59.4714 45.5211 59.632 45.7321 59.7696 45.921C60.5587 47.3147 61.2805 48.7417 61.9762 50.1791C62.0534 50.3383 62.1237 50.483 62.1883 50.6147C62.6692 51.7978 63.1235 52.9908 63.5625 54.1888C64.5686 56.9297 65.4438 59.7152 66.251 62.5156C66.5275 63.4751 66.787 64.4399 67.0432 65.4057C67.2923 66.4955 67.5323 67.5871 67.7574 68.6818C68.0281 70.006 68.2862 71.3361 68.4919 72.6712C69.771 81.016 75.2408 89.0926 82.0692 94.2903C86.8939 97.9618 93.706 100.897 98.067 95.2628C100.683 91.8817 103.346 88.5375 106.067 85.2339C107.36 83.6626 108.674 82.1076 109.995 80.5583C110.638 79.8045 111.289 79.0551 111.939 78.3058C112.125 78.0911 113.166 76.9184 113.608 76.417C118.383 71.1089 123.372 65.9752 128.595 61.0687C136.756 53.4011 145.64 46.1636 155.641 40.7824C157.454 39.8067 159.321 38.9248 161.225 38.124C161.547 37.9888 162.143 37.7656 162.646 37.5789C162.726 37.555 162.804 37.5271 162.883 37.5036C162.645 39.4464 162.343 41.3825 161.995 43.3055C161.516 45.9616 160.913 48.5974 160.257 51.2179M38.3506 53.4795C38.5329 53.2721 38.5979 53.2036 38.3506 53.4795M163.014 26.518C163.023 26.5707 163.032 26.6235 163.041 26.6762C163.042 26.6812 163.042 26.6861 163.042 26.6911C162.359 25.5977 162.581 25.8453 163.014 26.518M152.197 6.0022e-05C143.893 -0.0179751 135.393 4.03136 128.437 8.02794C118.202 13.9096 109.192 21.7211 100.832 29.8161C95.4868 34.9922 90.3823 40.4082 85.4701 45.9833C80.094 35.7664 73.1272 26.4373 64.306 18.8733C57.4971 13.0354 49.3793 9.49599 40.3177 8.84222C32.7603 8.29666 25.1753 11.5606 18.9935 15.4607C8.10244 22.3325 3.16673 33.0232 1.1207 45.0238C-1.17752 58.5073 0.410123 72.8186 2.7282 86.202C5.56826 102.594 10.0862 118.771 15.2281 134.627C24.5288 163.307 36.3524 191.271 49.091 218.693C52.2243 225.438 55.4186 232.167 58.7946 238.806C59.318 239.924 59.9013 241.019 60.5411 242.084C64.5609 248.886 72.5754 257.876 81.1032 256.931C84.0002 256.611 85.6054 255.163 86.3764 253.17C117.232 214.481 146.402 173.951 168.904 130.185C176.174 116.044 182.686 101.46 187.461 86.3584C190.92 75.4179 193.979 64.0499 194 52.5413C194.042 29.6525 179.686 0.0582232 152.197 6.0022e-05"/>
	</g>
	<defs>
		<clipPath id="clip_1">
			<rect x="-136" y="-114" width="654" height="894" clip-rule="evenodd"/>
		</clipPath>
	</defs>
	<g clip-path="url(#clip_1)">
		<path fill="rgb(0,0,0)" stroke="none" transform="translate(0 20)" d="M139.858 169.35L163 169.35L163 126.977L139.858 126.977L139.858 0L87.3933 0L0 127.695L0 169.35L83.7998 169.35L83.7998 210L139.858 210L139.858 169.35ZM83.7998 102.558L83.7998 126.977L49.1587 126.977L72.4444 92.3598C76.565 85.9439 80.2542 79.0493 83.5123 71.6758L85.0935 71.6758C84.9018 72.0588 84.6383 76.1525 84.3029 83.9569C83.9675 91.7613 83.7998 97.9617 83.7998 102.558Z" fill-rule="evenodd"/>
	</g>
	<defs>
		<clipPath id="clip_2">
			<rect x="-136" y="-114" width="654" height="894" clip-rule="evenodd"/>
		</clipPath>
	</defs>
	<g clip-path="url(#clip_2)">
		<path fill="rgb(0,0,0)" stroke="none" transform="translate(221 20)" d="M139.858 169.35L163 169.35L163 126.977L139.858 126.977L139.858 0L87.3933 0L0 127.695L0 169.35L83.7998 169.35L83.7998 210L139.858 210L139.858 169.35ZM83.7998 102.558L83.7998 126.977L49.1587 126.977L72.4444 92.3598C76.565 85.9439 80.2542 79.0493 83.5123 71.6758L85.0935 71.6758C84.9018 72.0588 84.6383 76.1525 84.3029 83.9569C83.9675 91.7613 83.7998 97.9617 83.7998 102.558Z" fill-rule="evenodd"/>
	</g>
	<defs>
		<clipPath id="clip_3">
			<rect x="-136" y="-114" width="654" height="894" clip-rule="evenodd"/>
		</clipPath>
	</defs>
	<g clip-path="url(#clip_3)">
		<path fill="rgb(241,221,222)" stroke="none" transform="translate(97 0)" d="M160.257 51.2179C159.918 52.5719 159.548 53.9192 159.171 55.2637C158.873 56.2493 158.561 57.2299 158.246 58.2111C156.003 65.201 153.319 72.058 150.427 78.8238C133.249 119.019 108.324 156.227 82.2343 191.562C78.1134 197.144 73.9234 202.679 69.6798 208.177C69.0252 206.731 68.3647 205.288 67.7173 203.84C67.082 202.419 66.4531 200.996 65.8251 199.572C65.6257 199.12 65.4281 198.667 65.2295 198.215C59.2174 184.284 53.5932 170.196 48.4801 155.94C45.7677 148.379 43.2318 140.759 40.8862 133.087C39.7732 129.447 38.7224 125.791 37.7177 122.123C37.2214 120.318 36.7486 118.506 36.2839 116.693C36.264 116.615 36.241 116.526 36.2171 116.431C36.019 115.6 35.8205 114.769 35.6292 113.936C33.9956 106.855 32.6691 99.7062 31.7573 92.5066C31.3545 89.3266 31.0689 86.1344 30.8803 82.9358C30.8455 82.3411 30.8221 81.7451 30.7977 81.1495C30.7869 79.5827 30.823 78.015 30.8898 76.4491C31.0062 73.7339 31.2895 71.0268 31.7167 68.3414C31.9166 67.0843 32.1792 65.8377 32.4661 64.5977C32.4923 64.4864 32.5216 64.3764 32.5491 64.2654C32.666 63.8709 32.8058 63.4119 32.9047 63.1306C33.6518 60.9966 34.634 58.9455 35.798 56.9928C36.3506 56.0644 36.9832 55.1825 37.6437 54.3222C37.6644 54.2947 37.6892 54.2636 37.7131 54.2339C37.9888 53.9615 38.2703 53.6946 38.5546 53.4313C41.0775 51.0962 44.1445 49.2142 47.1781 47.5595C47.983 47.1213 48.8172 46.7371 49.6514 46.3557C49.8936 46.2448 50.5632 45.9941 50.9859 45.8331C52.3588 45.4449 53.7669 45.1834 55.1862 45.0107C55.8228 44.9336 57.3125 44.9936 58.0746 45.013C58.4865 45.0982 58.8957 45.1933 59.3008 45.3024C59.4714 45.5211 59.632 45.7321 59.7696 45.921C60.5587 47.3147 61.2805 48.7417 61.9762 50.1791C62.0534 50.3383 62.1237 50.483 62.1883 50.6147C62.6692 51.7978 63.1235 52.9908 63.5625 54.1888C64.5686 56.9297 65.4438 59.7152 66.251 62.5156C66.5275 63.4751 66.787 64.4399 67.0432 65.4057C67.2923 66.4955 67.5323 67.5871 67.7574 68.6818C68.0281 70.006 68.2862 71.3361 68.4919 72.6712C69.771 81.016 75.2408 89.0926 82.0692 94.2903C86.8939 97.9618 93.706 100.897 98.067 95.2628C100.683 91.8817 103.346 88.5375 106.067 85.2339C107.36 83.6626 108.674 82.1076 109.995 80.5583C110.638 79.8045 111.289 79.0551 111.939 78.3058C112.125 78.0911 113.166 76.9184 113.608 76.417C118.383 71.1089 123.372 65.9752 128.595 61.0687C136.756 53.4011 145.64 46.1636 155.641 40.7824C157.454 39.8067 159.321 38.9248 161.225 38.124C161.547 37.9888 162.143 37.7656 162.646 37.5789C162.726 37.555 162.804 37.5271 162.883 37.5036C162.645 39.4464 162.343 41.3825 161.995 43.3055C161.516 45.9616 160.913 48.5974 160.257 51.2179M38.3506 53.4795C38.5329 53.2721 38.5979 53.2036 38.3506 53.4795M163.014 26.518C163.023 26.5707 163.032 26.6235 163.041 26.6762C163.042 26.6812 163.042 26.6861 163.042 26.6911C162.359 25.5977 162.581 25.8453 163.014 26.518M152.197 6.0022e-05C143.893 -0.0179751 135.393 4.03136 128.437 8.02794C118.202 13.9096 109.192 21.7211 100.832 29.8161C95.4868 34.9922 90.3823 40.4082 85.4701 45.9833C80.094 35.7664 73.1272 26.4373 64.306 18.8733C57.4971 13.0354 49.3793 9.49599 40.3177 8.84222C32.7603 8.29666 25.1753 11.5606 18.9935 15.4607C8.10244 22.3325 3.16673 33.0232 1.1207 45.0238C-1.17752 58.5073 0.410123 72.8186 2.7282 86.202C5.56826 102.594 10.0862 118.771 15.2281 134.627C24.5288 163.307 36.3524 191.271 49.091 218.693C52.2243 225.438 55.4186 232.167 58.7946 238.806C59.318 239.924 59.9013 241.019 60.5411 242.084C64.5609 248.886 72.5754 257.876 81.1032 256.931C84.0002 256.611 85.6054 255.163 86.3764 253.17C117.232 214.481 146.402 173.951 168.904 130.185C176.174 116.044 182.686 101.46 187.461 86.3584C190.92 75.4179 193.979 64.0499 194 52.5413C194.042 29.6525 179.686 0.0582232 152.197 6.0022e-05"/>
	</g>

</svg>