<?xml version="1.0" encoding="UTF-8"?><!DOCTYPE svg PUBLIC "-//W3C//DTD SVG 1.1//EN" "http://www.w3.org/Graphics/SVG/1.1/DTD/svg11.dtd"><svg xmlns="http://www.w3.org/2000/svg"><defs/><symbol id="arrow-auth" viewBox="0 0 59 50"><path d="M58.85 12.54a13 13 0 0 0-5.48-9C49.4.7 44.09 0 39.32 0A36.22 36.22 0 0 0 18.8 6.12 30 30 0 0 0 8.48 18.69l-6.38-.16c-2.42 0-2.42 2.34-1.62 3.89 1 1.93 3.29 4 5.72 4.06C5.14 33.55 6.46 41.24 12 46c9.42 8.13 23.77 2.47 32.11-4.37a45.81 45.81 0 0 0 11.43-14.07c2.4-4.56 3.97-9.82 3.31-15.02zM44.71 5.92zM23.84 45zm5.31-.37zm3.16-1.07zm18.89-22v.1l-.08.28c-.09.29-.18.58-.28.87-.22.64-.46 1.27-.71 1.89a35.16 35.16 0 0 1-1.76 3.63c-.32.58-.66 1.15-1 1.72l-.15.24-.09.14-.67 1a45.13 45.13 0 0 1-2.64 3.38c-.45.52-.92 1-1.4 1.54l-.73.74-.1.1-.31.29a40.21 40.21 0 0 1-3.29 2.77c-.53.4-1.07.78-1.61 1.15l-.3.19-1 .6c-.58.33-1.17.65-1.77.94l-.83.39-.38.16c-.6.24-1.22.46-1.83.66l-.86.25-.36.08c-.62.14-1.25.24-1.88.33l-.47.05h-.81c-.58 0-1.17 0-1.75-.05h-.16c-.31 0-.63-.1-.94-.17a13.74 13.74 0 0 1-1.43-.38l-.25-.1c-.27-.11-.54-.23-.81-.36a13 13 0 0 1-1.3-.73l-.33-.22-.52-.41a13.9 13.9 0 0 1-2.1-2.21c-.15-.2-.29-.4-.43-.6l-.22-.34c-.26-.42-.49-.86-.71-1.3a18.92 18.92 0 0 1-1.14-3 21.92 21.92 0 0 1-.64-3.12c0-.16 0-.44-.06-.53 0-.28 0-.56-.06-.83v-1.83c0-.61.07-1.49.15-2.23 5 .15 10.11.39 15.15.83l-2.7 1.75c-1.59 1-.54 3 .46 4.07s3.5 2.77 5 1.77l11.18-7.26c1.57-1 .56-3-.46-4.07L33.19 15c-1.13-1.15-3.34-2.63-5-1.77s-.44 3.15.46 4.07l3 3.05c-5.45-.73-11-1.15-16.48-1.41a28.84 28.84 0 0 1 1.94-3.72l.21-.31c.18-.26.36-.51.54-.77.4-.55.83-1.09 1.28-1.61s.85-1 1.3-1.41l.05-.05.17-.16c.28-.26.56-.51.85-.75.54-.46 1.11-.9 1.69-1.31l.41-.29.92-.56c.65-.38 1.31-.72 2-1l.32-.15h.07c.39-.16.78-.31 1.17-.45.72-.26 1.46-.48 2.2-.69l.61-.14c.44-.1.89-.18 1.34-.25.76-.22 1.46-.32 2.2-.39l1.13-.07h1.5q1.29 0 2.57.09l.8.07 1.09.15c.7.12 1.39.27 2.08.45.32.08.64.18 1 .28l.49.19a15.14 15.14 0 0 1 1.62.76c.25.13.49.28.73.43l.35.23a11.25 11.25 0 0 1 2.24 2.27c.1.13.18.26.27.4l.26.45a11.31 11.31 0 0 1 .65 1.47 12.13 12.13 0 0 1 .42 1.44c.06.25.11.5.15.75s0 .25.06.38a19.66 19.66 0 0 1-.65 6.91z" data-name="Layer 1"/></symbol><symbol id="arrow-goto" viewBox="0 0 52 57"><g id="Layer_2" data-name="Layer 2"><path d="M51.85 12.52a13 13 0 0 0-5.36-9C42.61.7 37.41 0 32.74 0a34.94 34.94 0 0 0-20.08 6.11A29.92 29.92 0 0 0 2.32 19.2C-1.13 27.57-1.36 39.47 6 45.92c4 3.5 8.85 4.44 13.76 3.83q-.07 2.59-.12 5.18c0 2.39 2.32 2.39 3.85 1.6 1.91-1 4-3.25 4-5.65q0-1.65.07-3.3a39.72 39.72 0 0 0 9.86-6 45.58 45.58 0 0 0 11.22-14c2.36-4.64 3.86-9.87 3.21-15.06zM38 5.91zM17.63 45zM44.3 21.8zm.07-.25v.07l-.09.31a33.046 33.046 0 0 1-.98 2.76 35.54 35.54 0 0 1-1.72 3.62c-.31.58-.65 1.15-1 1.72l-.14.23-.1.15c-.21.33-.43.65-.66 1-.8 1.17-1.67 2.29-2.58 3.37-.44.52-.9 1-1.36 1.53L35 37l-.14.14-.26.25a39.43 39.43 0 0 1-3.22 2.77c-.51.4-1 .78-1.58 1.14l-.29.19-1 .6c-.28.16-.57.31-.86.47.15-4.51.38-9 .78-13.51l1.73 2.67c1 1.57 3 .53 4-.46s2.74-3.46 1.75-5l-7.14-11.02c-1-1.55-3-.56-4 .46l-8.63 8.52c-1.14 1.12-2.6 3.3-1.75 5s3.12.44 4-.46l3-3c-.86 6.36-1.28 12.81-1.53 19.25h-.33a16.21 16.21 0 0 1-1.71 0h-.16c-.31 0-.61-.1-.92-.17a12.84 12.84 0 0 1-1.37-.37l-.27-.11c-.27-.11-.53-.23-.79-.36a12.68 12.68 0 0 1-1.27-.72l-.3-.28-.51-.41a13.76 13.76 0 0 1-2.06-2.2c-.15-.2-.29-.4-.43-.6l-.22-.34c-.25-.42-.48-.86-.7-1.3a19 19 0 0 1-1.12-3A22.15 22.15 0 0 1 7.09 32c0-.16 0-.44-.06-.53 0-.28 0-.55-.06-.83v-1.83a27.63 27.63 0 0 1 .31-3.59c.09-.58.2-1.16.32-1.73.06-.29.13-.58.2-.87l.11-.41v-.12a28.55 28.55 0 0 1 3.09-6.9l.2-.31c.17-.26.35-.51.53-.77.39-.55.81-1.08 1.25-1.6s.83-1 1.27-1.41l.17-.17c.27-.26.55-.51.83-.75.53-.46 1.08-.9 1.65-1.31l.4-.29.97-.58c.63-.38 1.28-.72 1.94-1l.33-.16h.05c.38-.16.76-.31 1.15-.45.71-.26 1.43-.48 2.15-.69l.6-.14c.43-.1.87-.18 1.31-.25.72-.13 1.44-.22 2.17-.29l1.11-.07h1.47c.84 0 1.68 0 2.51.09l.79.08 1.06.15c.69.12 1.36.27 2 .45.31.08.63.18.94.28l.48.19a14.82 14.82 0 0 1 1.67.63c.24.13.48.28.72.43l.34.23a11.14 11.14 0 0 1 2.2 2.27c.09.13.18.26.27.4l.26.44a11.33 11.33 0 0 1 .63 1.47 12.27 12.27 0 0 1 .41 1.44c.06.25.1.5.15.75s0 .25.06.38a20 20 0 0 1-.67 6.92z" id="Layer_1-2" data-name="Layer 1"/></g></symbol><symbol id="arrow-submit" viewBox="0 0 44 22"><g id="Layer_2" data-name="Layer 2"><path d="M42.52 9.73l-9.35-8C31.94.68 29.61-.63 27.94.33s-.22 3.13.76 4L32 7.1a272.68 272.68 0 0 0-30 .22C-.47 7.44-.29 9.79.62 11.25c1.14 1.83 3.62 3.72 6.07 3.6 7.42-.35 14.92-.65 22.39-.51l-2.61 1.91c-1.53 1.12-.33 3 .76 4s3.74 2.49 5.23 1.4l10.81-7.92c1.52-1.13.36-3.04-.75-4z" id="Layer_1-2" data-name="Layer 1"/></g></symbol><symbol id="arrow" viewBox="0 0 18 20"><g id="Layer_2" data-name="Layer 2"><path d="M17.2 6.76L6.21.27c-1.52-.9-4 .65-5 1.58S-.76 4.56.8 5.48l8.87 5.24-5.88 5.42C2.9 17 1.67 19 3.33 19.77s3.84-.55 5-1.58l8.46-7.79c.96-.93 1.95-2.73.41-3.64z" id="Layer_1-2" data-name="Layer 1"/></g></symbol><symbol id="comment-cloud" viewBox="0 0 40 30"><g id="Layer_2" data-name="Layer 2"><path d="M35.45 2.71A13.08 13.08 0 0 0 28.93.52C26.23.2 23.52.25 20.81.17 16.66.05 12.45-.27 8.33.48a12.2 12.2 0 0 0-5.45 2.2 8.13 8.13 0 0 0-2.5 4 9.37 9.37 0 0 0 .48 6.61 10.34 10.34 0 0 0 5.78 5.32 24.84 24.84 0 0 0 7.25 1.21c1.31.08 2.63.11 3.95.11h.65v.56c-.12 1.5-.28 3-.37 4.49a16.7 16.7 0 0 0 0 1.86 3.74 3.74 0 0 0 1.87 3 1 1 0 0 0 1.37-.24c.36-.41.7-.85 1-1.28 1.8-2.38 3.48-4.85 5.24-7.26.32-.44.64-.88 1-1.3h.36c1.63-.18 3.25-.5 4.89-.61a6.31 6.31 0 0 0 4.29-1.89 7.31 7.31 0 0 0 1.83-4.27 11.78 11.78 0 0 0-4.52-10.28zm1.26 5.38zm-1.22-2.2c-.33-.29-.1-.09 0 0zm-1.32-.8zM3.26 13zm17.88 15.69zm15.71-17.87c0 .17-.06.34-.09.51s0 .17-.06.25a6.47 6.47 0 0 1-.4 1 6.33 6.33 0 0 1-.33.58l-.19.27-.11.14a5.24 5.24 0 0 1-1 .84 5.49 5.49 0 0 1-.61.35l-.33.15h-.11a6.72 6.72 0 0 1-1.68.3c-1.43.1-2.87.37-4.29.54-.39 0-1.18 0-1.49.28a7.43 7.43 0 0 0-.78.94c-1.31 1.71-2.55 3.48-3.8 5.24a11.21 11.21 0 0 0-.1-3.75 4 4 0 0 0-1.33-2 2.69 2.69 0 0 0-2-.44q-2 .05-4.06 0a32.52 32.52 0 0 1-7.31-.83 13.31 13.31 0 0 1-1.32-.42L5 14.7l-.46-.27c-.18-.13-.36-.27-.53-.42H4l-.27-.29-.15-.2-.15-.29-.08-.23c0-.1-.06-.2-.09-.3a6.31 6.31 0 0 1-.09-.65v-.33H3v-.13a7.55 7.55 0 0 1 .14-1.28c0-.18.08-.35.12-.53v-.16l.14-.39A8.52 8.52 0 0 1 4.62 7l.16-.21c.11-.12.22-.23.33-.34a6 6 0 0 1 1-.73 8.89 8.89 0 0 1 1.18-.61 8 8 0 0 1 1.26-.44A19.41 19.41 0 0 1 11.63 4c4-.52 8.08-.11 12.12-.08a45.15 45.15 0 0 1 8.44.59A15.56 15.56 0 0 1 33.9 5l.32.11a6.26 6.26 0 0 1 .58.29l.17.1c.14.1.27.2.4.31l.1.09c.12.12.24.25.35.38l.08.11.17.26.14.25c.06.12.12.24.17.36l.13.32c.06.17.11.35.16.52v.16c0 .21.08.42.1.63s0 .36.05.54 0 .15 0 .22a8.15 8.15 0 0 1 .03 1.17z" id="Layer_1-2" data-name="Layer 1"/></g></symbol><symbol id="dropdown-arrow" viewBox="0 0 10 7"><path d="M0 0L1.36499 0C2.26707 0.601629 3.13353 1.36991 3.96439 2.30488C4.99308 1.24796 5.86745 0.479677 6.58754 0L8 0L8 0.304878L7.21662 1.13415C6.07715 2.3374 5.32542 3.29268 4.96142 4L2.9911 4C2.8091 3.66667 2.51632 3.24391 2.11276 2.73171C1.7092 2.21951 1.00495 1.41057 0 0.304878L0 0Z"/></symbol><symbol id="hanger" viewBox="0 0 35.13 26.86"><path d="M26.81 16a43.67 43.67 0 0 0-7.08-.61c2-4.74 7.16-9.63 2.33-14C18-2.26 14.27 2 12.71 5.83c-.73 1.8 2 4.25 3 1.94a10.42 10.42 0 0 1 1.44-2.46c.88-1.09 3.8-2.6 3.82 0 0 1.62-2.24 4-3 5.39a16 16 0 0 0-1.82 4.85c-6.51.53-12.87 2.87-15.7 8.57a3.16 3.16 0 0 0-.31 1c-.29.93-.17 1.78.7 1.78H32.4c1.08 0 1.82-1 2.2-1.93 2.29-5.42-3.39-8.25-7.79-8.97zM5 22.74c4.69-3.76 13.5-3.48 18.61-2.87 1.45.17 6.25 1 7.78 2.87z" data-name="Layer 1"/></symbol>
<symbol id="heart" viewBox="0 0 37 50">
    <g id="Layer_2" data-name="Layer 2"><path d="M29 0a9.49 9.49 0 0 0-4.53 1.56 27.36 27.36 0 0 0-5.24 4.24c-1 1-2 2.07-2.94 3.17a17.75 17.75 0 0 0-4-5.29 7.74 7.74 0 0 0-4.58-2A6.89 6.89 0 0 0 3.62 3 8 8 0 0 0 .21 8.76a24.52 24.52 0 0 0 .31 8 69.6 69.6 0 0 0 2.38 9.43 147.16 147.16 0 0 0 6.46 16.36c.6 1.32 1.21 2.63 1.86 3.92l.09.18v.08c.06.12.14.25.21.38l.08.14c.79 1.3 2.26 2.91 3.83 2.73a1.12 1.12 0 0 0 1-.73 146.26 146.26 0 0 0 15.78-23.92 55.42 55.42 0 0 0 3.54-8.53A22.6 22.6 0 0 0 37 10.22C37 5.77 34.27 0 29 0zm2.06 5.16C31 5 31 5 31.09 5.16zM7.31 10.41zM30.56 10c-.06.26-.13.52-.2.78l-.18.58c-.43 1.36-.94 2.69-1.49 4-3.28 7.82-8 15.06-13 21.93q-1.19 1.61-2.4 3.21l-.38-.84-.36-.83-.13-.3c-1.14-2.7-2.21-5.42-3.18-8.19q-.77-2.21-1.45-4.45-.32-1.06-.61-2.13-.14-.53-.27-1.06l-.12-.5c-.31-1.38-.56-2.77-.74-4.17a29.2 29.2 0 0 1-.17-1.86v-.34-.93A14.08 14.08 0 0 1 6 13.3c0-.24.09-.49.14-.73v-.06l.07-.22a6.65 6.65 0 0 1 .55-1.2 5.71 5.71 0 0 1 .34-.51l.18-.18A8.25 8.25 0 0 1 9 9.25L9.47 9l.2-.08a5 5 0 0 1 .86-.18 4 4 0 0 1 .47 0l.33.07.07.1c.15.27.29.56.43.84v.08c.09.23.18.47.27.7.19.53.36 1.08.51 1.62l.15.54c0 .22.1.44.14.66s.1.52.14.78a6.88 6.88 0 0 0 2.59 4.21c.92.71 2.22 1.29 3.05.19q.75-1 1.53-2l.75-.91.37-.44.29-.33c.92-1 1.88-2.06 2.89-3a25 25 0 0 1 5.16-3.95c.35-.19.7-.36 1.07-.52l.2-.08h.11c0 .38-.1.75-.16 1.12s-.2 1.04-.33 1.58z" id="Layer_1-2" data-name="Layer 1"/>
    </g>
  </symbol>
  <symbol id="banner-heart" viewBox="0 0 37 50">
	<path fill="#F2DDDE" d="M6.843,20.211c2.469-3.095,4.805-6.337,6.604-9.84c0.579-1.126,1.097-2.289,1.478-3.492
	c0.275-0.872,0.519-1.777,0.521-2.694c0.003-1.824-1.14-4.182-3.328-4.186c-0.661-0.001-1.338,0.321-1.892,0.64
	C9.411,1.108,8.693,1.73,8.028,2.375C7.116,3.259,6.292,4.229,5.52,5.226c0.785,0.6,1.57,1.2,2.355,1.8
	C7.566,5.008,6.731,2.886,5.12,1.503C4.578,1.039,3.932,0.756,3.21,0.704C2.608,0.661,2.004,0.921,1.512,1.232
	c-0.867,0.547-1.26,1.399-1.423,2.355c-0.183,1.074-0.057,2.214,0.128,3.281c0.226,1.306,0.586,2.595,0.995,3.858
	c0.741,2.285,1.682,4.512,2.696,6.697c0.267,0.575,0.539,1.148,0.829,1.713c0.281,0.548,0.977,1.416,1.72,1.333
	c0.768-0.085,0.402-1.162,0.206-1.545c-0.164-0.319-0.32-0.641-0.475-0.964c-0.173-0.361-0.343-0.724-0.51-1.087
	c-0.096-0.211-0.191-0.422-0.286-0.634c-0.051-0.113-0.101-0.227-0.151-0.34c-0.025-0.059-0.051-0.117-0.077-0.175
	c-0.104-0.236,0.183,0.422,0.032,0.074c-0.48-1.112-0.928-2.236-1.336-3.375c-0.216-0.603-0.418-1.209-0.604-1.821
	c-0.089-0.29-0.172-0.581-0.252-0.873c-0.04-0.144-0.077-0.289-0.114-0.433c-0.024-0.092-0.09-0.365,0.015,0.065
	C2.88,9.267,2.859,9.172,2.836,9.077C2.707,8.513,2.601,7.943,2.528,7.37c-0.032-0.253-0.055-0.508-0.07-0.762
	C2.455,6.546,2.453,6.485,2.45,6.424C2.441,6.19,2.455,6.727,2.452,6.495C2.45,6.36,2.454,6.225,2.459,6.09
	c0.009-0.216,0.032-0.432,0.066-0.646c0.016-0.1,0.037-0.199,0.06-0.298c0.011-0.048,0.024-0.095,0.037-0.143
	C2.53,5.34,2.593,5.105,2.62,5.029c0.059-0.17,0.137-0.333,0.23-0.489c0.044-0.074,0.094-0.144,0.147-0.213
	c0.042-0.054,0.156-0.176-0.048,0.048C2.987,4.334,3.028,4.295,3.07,4.257c0.201-0.186,0.445-0.336,0.687-0.468
	c0.064-0.035,0.13-0.066,0.197-0.096c0.044-0.02,0.266-0.098,0.024-0.017c0.134-0.046,0.275-0.073,0.417-0.09
	c0.101-0.012,0.475,0.019,0.111-0.019C4.609,3.578,4.71,3.604,4.809,3.634c0.207,0.064-0.307-0.127-0.11-0.039
	c0.047,0.021,0.092,0.046,0.137,0.071c0.203,0.113-0.33-0.221-0.14-0.086c0.112,0.079,0.341,0.291-0.104-0.108
	c0.081,0.073,0.155,0.152,0.226,0.234C4.366,3.193,4.671,3.533,4.769,3.672c0.21,0.301-0.254-0.439-0.022-0.037
	c0.068,0.118,0.129,0.24,0.188,0.362c0.194,0.402-0.132-0.325,0.002,0c0.044,0.105,0.084,0.213,0.124,0.32
	c0.08,0.219,0.15,0.44,0.214,0.664c0.022,0.077,0.043,0.155,0.063,0.233c0.089,0.335-0.058-0.246-0.021-0.095
	c0.028,0.117,0.054,0.235,0.078,0.353C5.416,5.577,5.437,5.683,5.453,5.79c0.102,0.665,0.538,1.308,1.081,1.722
	C6.918,7.804,7.46,8.038,7.808,7.589c0.208-0.27,0.42-0.536,0.637-0.799c0.103-0.125,0.208-0.249,0.313-0.373
	c0.051-0.06,0.103-0.12,0.155-0.18C8.938,6.209,9.159,5.96,9.01,6.126c0.391-0.437,0.8-0.858,1.229-1.261
	c0.65-0.611,1.357-1.188,2.153-1.616c0.145-0.078,0.293-0.148,0.445-0.212c0.078-0.033,0.359-0.131,0.017-0.012
	c0.076-0.027,0.154-0.049,0.233-0.07c0.122-0.032,0.247-0.054,0.373-0.067c0.057-0.006,0.115-0.008,0.173-0.009
	c0.284-0.004-0.238-0.03-0.056-0.008c0.157,0.019,0.514,0.169,0.014-0.032c0.045,0.018,0.088,0.04,0.13,0.063
	c0.035,0.02-0.389-0.28-0.157-0.089c-0.5-0.411-0.294-0.276-0.187-0.157c-0.473-0.527-0.277-0.346-0.181-0.203
	c-0.394-0.587-0.221-0.37-0.145-0.216c0.085,0.172-0.191-0.45-0.117-0.271c0.015,0.036,0.027,0.072,0.04,0.109
	c0.043,0.127,0.102,0.415-0.028-0.143c0.015,0.064,0.026,0.129,0.036,0.194c0.011,0.07,0.018,0.14,0.024,0.21
	c0.003,0.037,0.005,0.074,0.007,0.111c0.014,0.249-0.003-0.302-0.002-0.118c0.003,0.376-0.045,0.752-0.112,1.122
	c-0.039,0.211-0.086,0.421-0.139,0.63c-0.028,0.113-0.059,0.225-0.091,0.337c-0.06,0.211,0.07-0.233,0.006-0.02
	c-0.024,0.08-0.05,0.16-0.075,0.24c-0.179,0.557-0.392,1.103-0.623,1.642c-1.368,3.202-3.352,6.167-5.429,8.981
	c-0.646,0.875-1.312,1.736-1.992,2.587c-0.179,0.225-0.059,0.686,0.019,0.914c0.139,0.406,0.384,0.784,0.687,1.096
	C5.644,20.254,6.387,20.784,6.843,20.211"/>
  </symbol>
  <symbol id="logo" viewBox="0 0 275 165"><g data-name="Layer 1"><path d="M51 0c-1.5 2.06-.7 7.34-2.84 8.06a14 14 0 0 1-1.45-7.5C45.21 1 46 3.45 44.3 3.74 42.09-.51 38.4.35 34.59.58c-.34 1.31-.64 2.65-.92 4-1 2.84-3.81 10.48-4.67 13.74-1.75 6.57-7 16.15-8.46 22.27-.71 3-2.68 5.73-3.25 8.49s-7.36 17.46-8 20.15C7 78.67 2.47 86.74 0 95.88c.3.35.05 1.06.35 1.4-.1.33.11.24.33.15.12-.26.27-.25.39-.44 2.12-4 .58-5.6 3.31-10 .05-2.23 3.17-3.48 3.79-6.07.53-2.22.69-4.87 1.43-7.14.34-1 1-2 1.39-3.11 1.88-6 10.11-24.3 12.07-30.46.82-2.58 5.57-10 7.32-12.76-.07.54-.13 1.07-.21 1.61C29.05 30.27 28.43 32 27 33l-1.9 24.63c-.81 8.81-2.31 24.11 5.2 31 .22.89.27 2.15.74 2.55 7-1.4 12.77 0 20.36-2-1.16-2.37-3.3-4-4.45-7.2a33.61 33.61 0 0 1-1.23-16.78c-.53-4.52.89-7.35.75-11.54 1.2-2.3 1.42-5.82 1.94-9.08.42-2.67.88-5.32 1.21-8 .68-5.51 2.31-10.74 2.7-15.83.27-3.4.32-6.51.87-9.76.51-3.05 1.48-6 1.43-9.28C53.65-.23 52.37.92 51 0zM149.56 26.71c.2.35.57.5 1.2.35.68-.8-.54-1.12-.28-1.74.94-.4 2.14.88 3-.24.1-1.13-.8-1.07-1.15-1.67.85-1.14.36-2.48.39-4.29 0-2.42.54-3.61-1.25-4.75-1.13-.32-1.79.65-2.71.8a13 13 0 0 1-1.91-.14c-2.65.07-6 1-9.23 1.61a62.42 62.42 0 0 0-7.46 1.77 18.39 18.39 0 0 1-10.48.54c-3 3.23-3.83 7.43-3.23 12.89 10.55 2.38 25.91.45 33.11-5.13zm-5.45-9.85a11.44 11.44 0 0 1-4.43 1.23c1.32-.75 2.6-.83 4.43-1.23zM113.39 85.6a7.34 7.34 0 0 0 5-.25c-.46-1.16-1.46-1.68-2.11-2.62.41-.83.52-1.92 1.11-2.59.39-.52.62.3.87-.07 2.54-1.9.7-6.82 2.48-9.45.69-.84 1.62-1.49 2.3-2.39.89-1.19 1.19-3 2.79-3.6 1.65 5.07 2.81 10 4.66 14.76.46 1.19 1.18 2.26 1.58 3.4.12.34.05 1 .25 1.3s.64.52.8.82.06.77.24 1.16c.4.91 1.44 1.66 1.8 2.5.47 1.08.61 2.38 1.15 3.44.81 1.6 1.79 3 2.69 4.49a7.77 7.77 0 0 1 3.1.34c1-.85 2.54-2.57 1.73-4.1-.4 1.65-1.45 3.45-3.34 2.17-1-.7-2.44-3.64-3.52-5.75s-2.13-4.13-3.13-6.36a109.26 109.26 0 0 1-4.31-10.24c-.49-1.64-.64-3.13-1.25-4.75-.17-.45-.51-.8-.68-1.27-1-2.65-.67-5.4 1.42-6.14.28.14.42.78.76.38.29-3.52 2.34-5.53 3.59-8.22.63-.61 1.73-1.48 1.26-2.6-1.59 0-2.08 2.2-3.58 2.78-.23-.36-.28-1-.54-1.28.82-.43 2.16-.42 2.06-1.63a4.84 4.84 0 0 0-1.75 0c-.89 1.58-2.55 2.12-4 3.25-.44.35-.65.85-1.08 1.11s-1.31.37-1.84.73a14.09 14.09 0 0 0-1.63 1.6 4.38 4.38 0 0 0-1.31 2c.79 1.52.43 4.3.18 6-.71 4.79-4.31 8.4-5.44 12.63-.83.19-.74 1.19-1.65 1.31a13.24 13.24 0 0 1-.7-3.32c.25-11.54 3.43-22.48 6.74-31.53.2-.46-1.1-.51-1.12-1.23.17-.53.58-.86.45-1.65a114.44 114.44 0 0 0-12.06-1c-.17 0-.14.24-.11.45-.67 0-.8.32-1.31.1-2.73 7.35-4.34 17.5-5.5 26.88-.62 5.07-.9 10.8.91 15.36a11.13 11.13 0 0 1 1.77 2.06c1.92 1.66 5.15.59 7.55 1.17-.34 1.3-1.48 1.91-1.64 3.36 1.97-.65 2.28-2.85 4.36-3.51zM69.61 105.22c0 .55.18.85.65.83 0-.29.38-.22.24-.61a.6.6 0 0 0-.89-.22zM77.46 87.85c.46 0 .06-.68.38-.76.58-.19.82-.66 1.4-.84 1-2.64 3.07-4.44 3.81-7.35-3.58-1.85-.46-5.55 1-7.28 1.67 1 2.42 3.16 3.73 4.7.48.56 1.14.91 1.58 1.49.81 1.08 1.42 1.94 2.12 2.77 1.37 1.64 2.18 4 4.16 4.67-2.55-4-5.26-7.74-7.66-11.88.11-.22.18-.48.55-.48 1.05-.12.82 1.27 1.84 1.18 1.36-1.13-.9-2.36-1.16-3.58-2.52-1.08-1-4.1-1.26-6.81-.12-1.29-1-2.25-.1-3.08 1.21.69 1.61 2 1.32 3.71a9.52 9.52 0 0 1 1.49 2.23c.19.36-.25 1.63 1 1.1.43-.87-.29-1.21-.84-1.4.11-.72-.1-1.58.55-2.39-.66-2.89-2.63-4.24-4.14-6.14.33-2.15-.17-3.57-.58-5.54-2.47-.07-.16 3.6-1.54 4.68-2.93-2.22-7-1.17-10.88-.76-3.38.36-6.79-1-9.5 0a55.18 55.18 0 0 0-3.8 5.59c-.58 1.11-1.23 2.46-1.76 3.67-.33.76-.13 2-1.12 2.44-.73-.8.69-1.41.29-1.93C56.61 67 54.95 69 55.4 71.23c-.27.37-.59-.16-.86.22-2.37 6-.45 10.58 2.11 15.7 1.82.94 3 2.68 4.41 4.06 2.66 1.19 4.81 1.54 7.35.59s4.57-3 6.88-3.63c.86-.22 1.57.1 2.17-.32zM85.33 59a1.45 1.45 0 0 0-.89-1.31 1.45 1.45 0 0 1 .89 1.31zm-2.84-2.1c-.49.44 0 .78.37 1a1.25 1.25 0 0 0 0 1.33 1.25 1.25 0 0 1 0-1.32c-.4-.24-.86-.57-.37-1.02zm-7.1 4.53l2-2.95a1.05 1.05 0 0 1 1.15-.24c.12-.23-.34-.71.05-1.18 3 .3 3 3.31 5.16 4.29.67 0 .57-.6 1.27-.54.42 1.35 1 3.53.39 5-.29.35-.5-.08-1 .08 0 .67.35 1 .44 1.88l-1.09 2.88C80.21 74.32 76.71 78 73.5 82c-4.42-6.24-2.01-16.28 1.89-20.58z"/><path d="M186.12 80a10.28 10.28 0 0 0 3.55.76c-.65 1.12-.8 4.32.6 5a17.48 17.48 0 0 0 .45-4.94c.56 0 1.14.07 1.75.13a3.87 3.87 0 0 0 1.5-3.2 1.23 1.23 0 0 0-.88-.08l-2-1.32c.05-.26.1-.53.17-.79a18.41 18.41 0 0 1 .83-7 65.51 65.51 0 0 0 22-3.2c-.54 4.49-1.54 12.28 3.17 15.36.14.44.16 1.07.46 1.25 4.39-1.09 8-.71 12.84-2.13-.72-1.13-2.07-1.84-2.78-3.38A13.42 13.42 0 0 1 227 68c-.32-2.25.59-3.76.51-5.86.77-1.23.92-3 1.25-4.69.28-1.37.57-2.73.79-4.12.45-2.81 1.49-5.54 1.76-8.13a44.7 44.7 0 0 1 .58-5 21.79 21.79 0 0 0 .93-4.76c-.61-.91-1.42-.26-2.26-.65-1 1.12-.47 3.74-1.82 4.22a5.5 5.5 0 0 1-.91-3.7c-.95.31-.46 1.49-1.53 1.74-1.38-2-3.71-1.38-6.11-1-1.47 4.55-2 9.66-2.87 14.59-.72.68-1.11 1.61-2 2.16-3.24 2-8 2.38-11.78 3.37 1.29.12 2.95-.36 4.06 0 2-1.14 4.48-.83 6.65-1 .22 1 1.37.52 1.91 1-.37.86-.2 2.06-.82 2.77a12.79 12.79 0 0 1-7.25 2.25c-.27-.89-1.23-.63-1.44-1.6A19.19 19.19 0 0 1 195.91 58a8.24 8.24 0 0 0-2.78-2.78c0-1.19.73-1.9 1.28-2.73-.2-2.8 1.49-5 .45-8a24.45 24.45 0 0 0 .38-7.64 25.5 25.5 0 0 1-1 2.66c-.27 4.71-1.79 10.16-2.56 15.27-.23 1.54.08 6.41-2.31 4.65-.5-.68-.08-1.62-.88-1.74a3.66 3.66 0 0 0-.75 2.45c1 .56 4.39.58 2.4 2.42-.92-.06-1.42-.84-2.12-1.29-1 1.95-.81 3.94-.48 6.61.75.42 1.87.22 2.58.72-.06 2.34-.44 4.48-.6 6.76A121.47 121.47 0 0 1 172.79 63a28.1 28.1 0 0 0-2.93-2c-1.74-2.42-4.41-3.75-6.58-5.65-1.13-.33-2.62-.25-3.85-.46 1.92-1.35 3.51-4.86 5.89-5.18 1.26-.17 2.72.89 3.45-.71a5.25 5.25 0 0 1 2-3.83c1.86-1.65 14.38-12.07 16.34-13.37 1.59-1.95 4.63-2.65 6.22-4.61v-.44c-.21 0-.19-.31-.33-.42a13.19 13.19 0 0 0-6.16 3.43c-4 1.31-17 13.59-20.39 15.89-1.47.28-2 1.39-2.59 2.41a10.37 10.37 0 0 0-3.28 2.9c-.66.33-1.44.55-2.1.89a8.22 8.22 0 0 0-.09-2.58c1.56-1.78.05-5.36 1.8-6.9.07-3.46 2.22-5.86 1.6-9.38-.71-.06-1.08-.54-1.67-.75-1.77.6-2.94-.15-4-.27-3.08-.36-6.62.64-9.43.89-1.74 5.51-2.27 11.38-3 17.28-1.37 10.57-4.16 20.84-4.48 32.38 1.54.5.06 3.83 1.53 4.58a2.44 2.44 0 0 0 1.25-.83c.45 1 1.27-.17 2.08.42.88-.79.47-2.78.89-3.6.54-.16.71.12 1.17.05a4.26 4.26 0 0 0 .27 1.6 4.28 4.28 0 0 0 2.5.24c-.17-2.27 2.33-1.07 2.81-1.4 1-.65.64-2.3.85-4 2.81-5.1 2.57-12.32 4.44-18 4.13 2.39 7.89 5.37 11.88 8s8.48 4.74 11.9 8.17c.3.33.14 1.22.42 1.58a8.84 8.84 0 0 0 4.92.67zm-27.94-26.1c.72-.06 1.37-1.28 2.25-1.45-.35.91-1.53 1.12-1.56 2.31a3.07 3.07 0 0 1-.77-.32c.02-.2.04-.38.07-.56zM268.8 82.17a2.72 2.72 0 0 0-.18-.51z"/><path d="M273.92 93.32c-.5-1.38-1.63-2.44-2.27-3.8a74.25 74.25 0 0 1-2.84-7.35 19.48 19.48 0 0 0 .39 2.29c.08.19.3.32.39.47.67 1.14.37 2.41.91 3.55.36.12.52.46.5 1a11.14 11.14 0 0 1 1.53 3.29.34.34 0 0 1-.22-.05 1.46 1.46 0 0 1-.06 1.07c-.81-.43-1-1.59-1.66-2.21v-.49c-1.25-1.63-1.84-3.78-2.79-5.82 0 .56.32.9.17 1.34a9.53 9.53 0 0 1 1.46 3.29 3.62 3.62 0 0 1 1 1.91c.29.25.41.7.71.94.06.68.45 1 .42 1.74-.72.75-1.13-.27-1.48-.81a39 39 0 0 1-3.08-5.85c0-.16-.29-.07-.37-.18a1.42 1.42 0 0 0-.39-1.32v-.57c-.85-1.52-1-3.81-1.9-5.32a26.63 26.63 0 0 0-1.17-5c0-.23-.2.29-.28 0a6.34 6.34 0 0 0-.42-3.52c-.19.19-.34.36-.46.46 0 .73.54 1.38.6 2.22s-.06 1.48.5 1.95a10 10 0 0 0 .7 3.57 38 38 0 0 0 2 6.24c.29.65.34 1.36.58 1.94.1.24.36.43.48.67a10.27 10.27 0 0 0 .94 2.06c0 .21 0 .42.05.63a2.24 2.24 0 0 1 .6 1.3c0 .2-.35.14-.32.38.39.51.47 1.4.86 1.92 1.82.1 3.72-.41 5.41-.43.21-.26.56-.1.68-.34-.54-.28-.79-.81-1.17-1.17z"/><path d="M262.26 71.73c.64-.16.95-1.44 1.72-1.56a1.13 1.13 0 0 1 1.21 1c.73-.17.59 1.53 0 1.85.12.22.11.59.27.76-.2.1-.56 0-.53.4.76-.45 1.67.32 1 .78a4.19 4.19 0 0 1 1 1.91c.21 1 .23 1.66.79 2 .26.47.27 1.81.81 2.21a6.27 6.27 0 0 0-.59-2.08c-.2-.7-.18-1.68-.4-2.38-.15-.49-.42-.79-.09-1.13a1.23 1.23 0 0 1-.4-.61c.17-.43 0-.36-.13-.77.41-1.64-1.16-2.74-.8-4.77a3.19 3.19 0 0 1 0-2.27c-.58-1.27.12-2.38-.42-3.59.06-3.14.13-6 .19-9.32.6-2.35.6-5 1-7.46.18-1.17.57-2.27.65-3.39a6.57 6.57 0 0 0 1.07-2.57c.23 0 .23-.29.39-.39.08-.26.17-.52.26-.77a1.92 1.92 0 0 0 .68-1.7 11.62 11.62 0 0 0 1.17-4.88 4.89 4.89 0 0 0 .62-2 2.51 2.51 0 0 0-1.73 0c-1.71.27-3.28.1-4.54.71a7.28 7.28 0 0 0-1.48 2.74 20.87 20.87 0 0 1-.08 2.56 5.82 5.82 0 0 1 .15 1c-.06.6-.48 1.12-.49 1.77a15.24 15.24 0 0 0-1.45 1c-.44.35-.65.84-1.08 1.11l.55 3c-.15.39-.29.8-.43 1.2l-.36 3c-2 5-8 12.29-9.8 15.85-.83.19-.73 1.19-1.65 1.31a13.25 13.25 0 0 1-.7-3.32c.25-11.55 3.43-22.48 6.74-31.54.2-.46-1.1-.51-1.12-1.23.17-.53.58-.86.45-1.65a114.29 114.29 0 0 0-12.06-1c-.17 0-.14.24-.11.45-.67 0-.8.32-1.31.1-2.73 7.35-4.34 17.51-5.5 26.88-.62 5.07-.9 10.8.91 15.36a11.16 11.16 0 0 1 1.77 2.06c1.92 1.66 5.15.59 7.55 1.17l5.61-3.09c.41-.83.52-1.92 1.11-2.58.39-.52.62.3.87-.07 2.54-1.9 1.85-6.05 3.63-8.68.69-.84 1.29-1.33 2-2.23.17-.23.47-.71.86-1.33l-.36 3c.1 1.95-.17 3.68.09 5.68a4.42 4.42 0 0 1 .94 1.2c0 .2-.33.2-.32.45 1.68.93.37 4.95 1.87 5.85zM178.49 109.14c-1.76-1.66-4.2-2.52-5.86-4.29-.1-.6.57-.82.1-1.2-1.87 1-2.86-.57-4-1.07-5.46.48-8.28 4.09-12.81 5.18-4.66 5.66-6.93 18-2.67 26.38-.09.41-1 .13-.72.85.54.46.95-.12 1.14-.49 1.46 2.29 3.44 4.16 6.66 4.43 5.17.44 11.32-2.46 15.54-3 .31 0 1 .28 1.39.09 2.47-1.13.33-2.64.08-4-.56-3.06 2.23-4.24 2.78-7.36.29-4.27 1.53-8.36.16-13.1-1.04-.3-1.28-1.48-1.79-2.42zm-5.74 22.46c-1.54-.26-1.75-2.1-2.79-3a.54.54 0 0 0-.35.62c-1-.86-3-2.91-2.09-4a5 5 0 0 1-.85-.73c.32 2.28-.48 4.19.12 6.53a4 4 0 0 1-1.13.68c-1.52-.7-2-1.5-3.35-2.51 0 .73.3 1.73 0 2.18-3.54-1.89-1.67-7.95-3.69-11.8.22-.3.73-.36.93-.67.86-2.9.9-6.89 3.88-8.44a15.86 15.86 0 0 1 5.72-5c3.78 1.7 7.17 3.7 8.33 8.07 1.73 6.67-1.93 13.71-4.73 18.07z"/><path d="M149.84 114.14a11 11 0 0 0-2.6-3c-1.77-1.42-5-3.12-8.12-2.93a14.15 14.15 0 0 0-4 1.51 56.06 56.06 0 0 1-8.23 3.23c-1.93 2-6.44 2.76-7.08 5.32-2.38-.08-2.55 1.73-4.37 2.13-2.25 3.34-4.91 6.61-6 11.38-1 4.48.59 11.36 3.79 13.18 1.22.7 5 .76 7.53.4 3.63-.52 6.32-3.2 9.54-4.13 1.83-.53 2.21-1.19 3.81-1.69s2.48-1.11 3.44-1.46c.34-.13.85.07 1.18-.09 3.15-1.56 3.82-5.38 6.59-6.47 1.32-3.1 4.25-4.81 5.28-8.15-.96-2.57.4-6.57-.76-9.23zm-29.48 3.92c1.63-.19 3.36-.4 3.83 1.09a4.18 4.18 0 0 1-3.83-1.09zm8.08 17.6c-5.48-4.19-3.38-15.74.66-19.28 7.07 2.48 5.76 17.3-.66 19.28zM238.17 135.25c-7.39-4.07-14.73-8-21.25-13.28a28.37 28.37 0 0 0-3.06-1.77c-1.9-2.29-4.65-3.44-6.95-5.19-1.62-.35-3.89.16-5.24-.55 0-.85.18-1.62.23-2.47a3.48 3.48 0 0 1 1.63-.75c1.26-.17 2.72.89 3.45-.71a5.25 5.25 0 0 1 2-3.84c1.86-1.65 14.38-12.07 16.34-13.37 1.59-1.95 4.63-2.66 6.22-4.61v-.44c-.21 0-.19-.31-.32-.42a13.2 13.2 0 0 0-6.16 3.43c-1.94.63-5.92 3.78-9.92 7.14-.74-.71-2.09-.56-3.4-.4a4.44 4.44 0 0 0 2.49 1.17c-4 3.41-7.9 6.86-9.55 8-1.48.28-2 1.39-2.59 2.41l-.33.21c0-.17-.07-.34-.11-.53 1.43-1.88-.31-5.35 1.33-7-.16-3.45 1.81-6 1-9.47-.72 0-1.11-.47-1.71-.63-1.72.72-2.94 0-4 0-3.09-.15-6.56 1.09-9.35 1.54-1.36 5.61-1.49 11.51-1.85 17.45-.65 10.64-2.74 21.07-2.28 32.62 1.57.39.32 3.82 1.83 4.46a2.47 2.47 0 0 0 1.19-.92c.51.92 1.25-.26 2.1.28.83-.85.28-2.8.64-3.65.53-.19.72.07 1.18 0a4.24 4.24 0 0 0 .38 1.57 4.26 4.26 0 0 0 2.52.07c-.32-2.25 2.25-1.23 2.71-1.59.94-.72.49-2.34.58-4.08 2.46-5.28 1.73-12.47 3.21-18.25 4.28 2.1 8.23 4.82 12.4 7.19s8.78 4.15 12.42 7.33c.32.31.22 1.21.52 1.55a8.84 8.84 0 0 0 4.91.31c2 .74 4 .45 6.41.53a3.88 3.88 0 0 0 1.28-3.3 1.24 1.24 0 0 0-.9-.04zM102.15 90.06c-1.53 1.71-.81 6-2.95 6.64a9.5 9.5 0 0 1-1.37-6.12c-1.5.4-.76 2.37-2.45 2.64-2.16-3.45-5.85-2.69-9.66-2.44-2.41 7.21-3.37 15.45-4.8 23.35-1.15 1-1.79 2.48-3.24 3.26l-2.24 20.21c-.93 7.22-2.65 19.76 4.75 25.33.21.73.24 1.75.7 2.08 7-1.25 12.75-.18 20.37-1.9-1.12-1.92-3.24-3.23-4.35-5.83a22.62 22.62 0 0 1-1-13.77c-.47-3.69 1-6 .91-9.46 1.23-1.9 1.5-4.78 2.06-7.46.46-2.19 1-4.37 1.32-6.59.76-4.52 2.46-8.82 2.93-13a73.38 73.38 0 0 1 1-8c.56-2.51 1.56-4.95 1.56-7.61-.92-1.55-2.21-.6-3.54-1.33z"/></g></symbol>
  <symbol id="search" viewBox="0 0 80 50"><path d="M79.95 41c-.44-3-2.1-5.39-4.51-6.27a189.8 189.8 0 0 0-27.21-7.2c2.16-8 1.58-17.86-4.52-23.54C35-4.12 21.62 1.54 13.87 8.38A45.29 45.29 0 0 0 3.22 22.44C1 27-.47 32.27.14 37.46a13.15 13.15 0 0 0 5.09 9C8.92 49.3 13.86 50 18.29 50a32 32 0 0 0 19.06-6.12A28.44 28.44 0 0 0 44.56 36a4.85 4.85 0 0 0 2.88 2.12c10 2 20.09 4.2 29.64 7.69 2.41.84 3.14-2.95 2.87-4.81zM32.61 5zm-4.82.36zm-3 1.08zM7.32 28.13zm5.95 15.94zm29.21-19.35c-.08.58-.19 1.16-.3 1.74-.06.29-.12.58-.19.87l-.1.42v.11A29.51 29.51 0 0 1 39 34.78l-.19.31c-.16.26-.33.51-.51.77-.37.55-.77 1.09-1.18 1.61s-.79 1-1.21 1.41l-.06.07-.15.15c-.26.26-.52.51-.79.75-.5.46-1 .9-1.57 1.31l-.38.29L32 42c-.6.38-1.22.72-1.84 1l-.29.14h-.08a26.194 26.194 0 0 1-3.09 1.13l-.59.14c-.41.1-.83.18-1.24.25-.69.13-1.38.22-2.07.29l-1 .07h-1.4c-.8 0-1.59 0-2.39-.09l-.79.07-1-.15c-.65-.12-1.29-.27-1.93-.45-.3-.08-.59-.18-.89-.28l-.45-.19a13.56 13.56 0 0 1-1.5-.76c-.23-.13-.46-.28-.68-.43l-.32-.23a11 11 0 0 1-2.08-2.26c-.09-.13-.17-.26-.25-.39l-.25-.46a11.89 11.89 0 0 1-.6-1.47 13.06 13.06 0 0 1-.39-1.44c-.05-.25-.1-.5-.14-.75s0-.25-.05-.38a21.1 21.1 0 0 1 .62-6.88v-.06l.04-.42c.08-.29.17-.58.26-.87.2-.64.43-1.27.66-1.89a37 37 0 0 1 1.64-3.63c.3-.58.61-1.15.94-1.72l.11-.19.12-.19c.2-.33.41-.66.62-1a43.27 43.27 0 0 1 2.45-3.37q.63-.79 1.3-1.54l.68-.74.09-.1.28-.29a38.1 38.1 0 0 1 3.06-2.77c.44-.35.98-.7 1.44-1.09l.29-.2.94-.6c.54-.33 1.08-.65 1.64-.94l.77-.39.36-.16c.56-.24 1.13-.46 1.71-.66l.82-.26.31-.08c.57-.14 1.16-.24 1.74-.32h1.19a15.08 15.08 0 0 1 1.66 0h.15c.29 0 .58.1.87.17a12.35 12.35 0 0 1 1.33.39l.23.1c.25.11.5.23.75.36a12 12 0 0 1 1.24.69l.3.22.49.41a13.68 13.68 0 0 1 2 2.21c.14.2.27.4.4.6l.21.34c.24.43.46.86.66 1.31a19.67 19.67 0 0 1 1.06 3 23.12 23.12 0 0 1 .59 3.13c0 .17 0 .43.05.52 0 .28 0 .56.05.83v1.83a28.67 28.67 0 0 1-.33 3.61z" data-name="Layer 1"/></symbol><symbol id="slider-dot" viewBox="0 0 11 12"><g id="Layer_2" data-name="Layer 2"><path d="M8.75.73C5.82-1.14 2.23.86.91 3.66a.77.77 0 0 0 .09.9C-.37 6.79-.46 9.76 2 11.3c2.8 1.76 6.16-.07 7.81-2.44 1.72-2.55 1.77-6.34-1.06-8.13z" id="Layer_1-2" data-name="Layer 1"/></g></symbol>
  <symbol id="social-facebook" viewBox="0 0 50 50"><g data-name="Layer 1"><path d="M33.54 12.51a6.29 6.29 0 0 0-5.5 0c-2.26 1-3.51 3.16-4.37 5.25-.74 1.81-1.21 3.68-1.84 5.52l-.38 1.07c-.47.05-.94.1-1.4.18a2.44 2.44 0 0 0-1.55.65 1.57 1.57 0 0 0-.38 1.47A2.81 2.81 0 0 0 20 28.44c-.53 1.51-1 3-1.48 4.57q-.23.8-.45 1.59c-.29 1.09 1.52 1.27 2.22 1.19 1.09-.13 2.41-.69 2.7-1.76.53-2 1.16-3.94 1.82-5.89 1.56-.11 3.12-.17 4.67-.23a1.83 1.83 0 0 0 1.94-2.11 2.87 2.87 0 0 0-2.92-1.9l-2.25.1c.53-1.54 1-3.08 1.54-4.63l.2-.59.08-.21.09-.24q.27-.71.6-1.41a12.38 12.38 0 0 1 .64-1.18c.09-.14.18-.27.28-.41l.19-.23.08.07a2.61 2.61 0 0 1 .27.3l.06.07a2.21 2.21 0 0 1 .14.37v.24a3 3 0 0 1 0 .33c-.32 2.06 4.64 1.23 4.92-.58a3.38 3.38 0 0 0-1.8-3.39zm-3.15 2.11z"/><path d="M49.09 12.92c-1.44-5.1-5.45-9.1-10.52-11.32C32.5-1 25.82-.08 19.78 2.08c-7.07 2.57-13.61 7-17.13 13.41A21.69 21.69 0 0 0 1 32.44c1.85 6 6.59 11.15 12.37 14.19S26.21 51.15 32.51 49c4.46-1.53 8.05-5 10.66-8.59a37.69 37.69 0 0 0 6-13.67 27.74 27.74 0 0 0-.08-13.82zm-10-6.85c.21.19.53.48-.02.01zM12.1 41zm5.74 3.36zm6.81 0zm17.42-25.58a33.53 33.53 0 0 1-.5 3.51c-.11.57-.24 1.13-.37 1.7-.06.24-.12.48-.19.72 0 0-.18.63-.22.76a34.94 34.94 0 0 1-6.86 12.75 25.44 25.44 0 0 1-2.43 2.45l-.19.16-.13.11-.63.49c-.46.34-.93.66-1.42 1a17.3 17.3 0 0 1-2.89 1.44 15.14 15.14 0 0 1-1.46.48l-.25.06c-.29.06-.59.11-.88.16a14.66 14.66 0 0 1-1.55.15h-1.84a21.32 21.32 0 0 1-2.16-.28l-.27-.06c-.39-.1-.78-.21-1.17-.32l-.23-.07-.84-.34-.26-.12-.78-.53-.16-.1-.64-.45-.31-.25-.61-.54c-.24-.22-.46-.45-.68-.68l-.15-.11a19.44 19.44 0 0 1-1.26-1.65c-.17-.25-.34-.51-.5-.77l-.19-.35a20.58 20.58 0 0 1-.89-1.87c-.25-.59-.46-1.2-.64-1.81-.1-.31-.18-.62-.26-.93 0-.21-.09-.42-.13-.63a20.06 20.06 0 0 1-.33-4 17.66 17.66 0 0 1 1.83-7.96 23.93 23.93 0 0 1 5.78-7.59A31 31 0 0 1 20.06 10a39.75 39.75 0 0 1 6.46-3c.79-.28 1.58-.54 2.38-.78l1-.27.26-.06.72-.16A24.54 24.54 0 0 1 35 5.25h1.12a15.15 15.15 0 0 1 1.52.19h.21l.54.16.2.08.1.06.23.17.4.4a12 12 0 0 1 .85 1.18c.11.2.22.41.32.62a14.84 14.84 0 0 1 .6 1.41c.17.45.31.92.44 1.38l.08.3c.06.27.11.54.16.81a25.59 25.59 0 0 1 .3 6.77z"/></g></symbol>
  <symbol id="social-gplus" viewBox="0 0 50 50"><g data-name="Layer 1"><path d="M19.18 20.71c2-1 5.42-1.37 6.57 1.11 1.31 2.83 5.11-1.54 4.16-3.58-2.18-4.7-7.58-4.52-11.55-2.06A17.83 17.83 0 0 0 10.27 30c-.16 3.88 2 9.33 6.78 8.72 3.78-.49 6.38-4.18 7.47-7.84h.86c1.4 0 2.48-1.35 2.93-2.57.3-.81.55-2.92-.87-2.92h-7c-1.4 0-2.48 1.35-2.93 2.57-.3.81-.55 2.92.87 2.92h2.27c-.45 1.91-2.35 3.12-4.17 1.72s-2.16-3.77-1.77-5.8a8.92 8.92 0 0 1 4.47-6.09zM39.39 24.2l-1.79.09c.46-1 .73-2.54-.27-3.12-1.23-.71-2.49.84-3.06 1.7a10.09 10.09 0 0 0-.86 1.62h-1.45c-1.42 0-2.47 1.35-2.93 2.57-.3.8-.56 2.93.87 2.92h1.65c-.37.91-.48 2.76.88 2.89s2.47-1.46 2.93-2.57c.07-.17.12-.34.18-.51l1.78-.09a3.6 3.6 0 0 0 2.93-2.57c.29-.77.57-3-.86-2.93z"/><path d="M44.26 4C35.4-4.12 21.9 1.54 14 8.38A45.35 45.35 0 0 0 3.26 22.44C1 27-.48 32.26.14 37.46a13.1 13.1 0 0 0 5.16 9C9 49.3 14 50 18.52 50a32.65 32.65 0 0 0 19.3-6.12 29.81 29.81 0 0 0 9.95-13.11c3.31-8.38 3.54-20.3-3.51-26.77zM33.12 5zm-5.06.38zm-2.93 1.03zM7.39 28.2zm6 15.87zM43 24.72c-.08.58-.19 1.16-.3 1.74q-.09.43-.19.87c0 .14-.07.29-.11.43v.07a29.35 29.35 0 0 1-2.94 6.93l-.2.31c-.16.26-.34.52-.51.77-.38.55-.78 1.09-1.2 1.61s-.8 1-1.22 1.41l-.06.06-.16.16c-.26.26-.53.51-.8.75-.51.46-1 .9-1.59 1.31l-.39.29-.87.57c-.61.38-1.23.72-1.87 1l-.33.16a25.438 25.438 0 0 1-3.17 1.14l-.58.14c-.42.1-.84.18-1.26.25-.69.13-1.39.22-2.08.29l-1.17.16h-1.41q-1.21 0-2.42-.09l-.72-.05-1-.15c-.66-.12-1.31-.27-2-.45-.3-.08-.6-.18-.9-.28l-.45-.18a14.1 14.1 0 0 1-1.52-.76c-.23-.13-.46-.28-.69-.43l-.33-.23a11 11 0 0 1-2.11-2.26c-.09-.12-.17-.26-.25-.39l-.25-.46a11.64 11.64 0 0 1-.65-1.51 12.85 12.85 0 0 1-.39-1.44c-.05-.25-.1-.5-.14-.75s0-.25-.05-.38a20.88 20.88 0 0 1 .63-6.88v-.05l.09-.4c.08-.29.17-.58.26-.87.2-.64.43-1.27.67-1.89A36.56 36.56 0 0 1 10 21.65c.3-.58.62-1.15 1-1.72l.06-.1.17-.28c.21-.33.42-.65.63-1 .77-1.17 1.61-2.29 2.48-3.37.43-.52.87-1 1.31-1.54l.68-.74.07-.07.32-.32a38.12 38.12 0 0 1 3.1-2.77c.5-.4 1-.78 1.52-1.15l.28-.19c.31-.21.63-.41 1-.6.54-.33 1.1-.65 1.66-.94l.79-.4.35-.15c.57-.24 1.14-.46 1.73-.66l.8-.25.35-.08c.51-.13 1.1-.24 1.7-.32h1.2a15.46 15.46 0 0 1 1.64 0H33c.3 0 .59.1.88.17a12.59 12.59 0 0 1 1.34.38l.24.1c.26.11.51.23.76.36a12.29 12.29 0 0 1 1.22.73l.31.22.49.41a13.56 13.56 0 0 1 2 2.21c.14.2.28.4.41.6l.22.35c.24.42.46.85.66 1.3a19.71 19.71 0 0 1 1.07 3 22.64 22.64 0 0 1 .6 3.12c0 .16 0 .44.05.53 0 .28 0 .56.05.83v1.83a28.53 28.53 0 0 1-.3 3.58z"/></g></symbol>
  <symbol id="social-instagram" viewBox="0 0 50 50"><g data-name="Layer 1"><path d="M49.86 12.54a13.1 13.1 0 0 0-5.16-9C41 .7 36 0 31.48 0a32.65 32.65 0 0 0-19.3 6.12 29.81 29.81 0 0 0-9.95 13.11C-1.08 27.62-1.31 39.53 5.74 46 14.6 54.12 28.1 48.46 36 41.62a45.36 45.36 0 0 0 10.74-14.06C49 23 50.48 17.74 49.86 12.54zM36.55 5.92zM16.92 45zm5-.37zm3-1.08zm17.76-22v.1l-.08.29c-.08.29-.17.58-.26.87-.2.64-.43 1.27-.67 1.89A36.17 36.17 0 0 1 40 28.35c-.3.58-.62 1.15-1 1.72l-.06.1-.17.27c-.2.33-.42.65-.63 1-.77 1.17-1.61 2.29-2.49 3.38-.42.52-.86 1-1.31 1.54l-.68.74-.08.09-.3.31a38.17 38.17 0 0 1-3.1 2.77c-.5.4-1 .78-1.52 1.15l-.27.18-1 .6c-.54.33-1.1.65-1.66.94l-.77.39-.36.16c-.57.24-1.14.46-1.73.66l-.81.26-.33.08c-.58.14-1.17.24-1.76.33h-1.2a15.52 15.52 0 0 1-1.61-.02H17c-.3 0-.59-.1-.88-.17a12.39 12.39 0 0 1-1.34-.38l-.24-.1c-.26-.11-.51-.23-.76-.36a12.27 12.27 0 0 1-1.22-.73l-.31-.22-.49-.41a13.56 13.56 0 0 1-2-2.21c-.14-.2-.28-.4-.41-.6l-.22-.35q-.36-.63-.66-1.3a19.9 19.9 0 0 1-1.08-3 22.87 22.87 0 0 1-.6-3.1c0-.16 0-.45-.06-.55 0-.28 0-.56-.05-.83v-1.83A28.31 28.31 0 0 1 7 25.28c.08-.58.19-1.16.3-1.74q.09-.44.19-.87c0-.14.07-.29.11-.43v-.1a29.24 29.24 0 0 1 2.94-6.94l.19-.31c.16-.26.34-.51.51-.77.38-.55.78-1.09 1.2-1.61s.8-1 1.22-1.41l.17-.17c.26-.26.53-.51.8-.75.51-.46 1-.9 1.59-1.31l.38-.29.97-.58c.61-.38 1.23-.72 1.87-1l.31-.15h.06a25.105 25.105 0 0 1 3.17-1.14l.58-.14c.42-.1.84-.18 1.26-.25.68-.22 1.38-.32 2.08-.39l1.1-.07h1.41q1.21 0 2.42.09l.75.07 1 .15c.66.12 1.31.27 2 .45.3.08.6.18.9.28l.46.19a13.86 13.86 0 0 1 1.52.76c.23.13.46.28.69.43l.33.23a11 11 0 0 1 2.11 2.26c.09.13.17.26.25.39l.25.45a11.78 11.78 0 0 1 .61 1.47 13 13 0 0 1 .39 1.44c.05.25.1.5.14.75s0 .25.05.38a20.89 20.89 0 0 1-.62 6.93z"/><path d="M33.27 22.88c0-.88-.09-1.76-.14-2.64v-1a5.7 5.7 0 0 0-.55-2 19.47 19.47 0 0 0-1-2.09 2.36 2.36 0 0 0-.4-.57 1.66 1.66 0 0 0-.45-.25 9.66 9.66 0 0 0-1.55-.48 33.7 33.7 0 0 0-5.12-.85 18.41 18.41 0 0 0-5.21.1 4.31 4.31 0 0 0-1.73.68 4.57 4.57 0 0 0-1.3 1.7 16.68 16.68 0 0 0-1.35 5.4 47.9 47.9 0 0 0-.31 5.53v1.85a7.11 7.11 0 0 0 .85 2.9 5.12 5.12 0 0 0 1.75 2.56 7 7 0 0 0 1.68.61 23.06 23.06 0 0 0 5.05.58 24.78 24.78 0 0 0 4.72-.32 7.72 7.72 0 0 0 3.52-1.31c1.13-.95 1.32-2.87 1.46-4.26a36.64 36.64 0 0 0 .1-4.9c.2 0 .09-.51-.08-1.05.06-.07.06-.13.06-.19zm-.4-4.13c.11.09.13.18 0 0zm-13.27-1a10.29 10.29 0 0 1 4.63-.59 34 34 0 0 1 5.62.66c.46.09.92.2 1.38.32 0 .57.06 1.13.07 1.7H17.74a4.14 4.14 0 0 1 1.86-2.05zm4.11 6.5a3.49 3.49 0 0 1-.8 1.24 2.83 2.83 0 0 1 .81-1.2zm7.31 2A4.59 4.59 0 0 1 29.79 29a8.53 8.53 0 0 1-4.14 1.41 26.86 26.86 0 0 1-5.55.16 18.76 18.76 0 0 1-3.93-.57 37.31 37.31 0 0 1 .48-6.29c.16.21.34.46.62.46H19v.07a3.42 3.42 0 0 0 .42 2 7.17 7.17 0 0 0 1.73 1.77 5.87 5.87 0 0 0 2.24 1.32 3.42 3.42 0 0 0 3.83-1.91 7.26 7.26 0 0 0 .5-3.22h3.52a19.46 19.46 0 0 1-.24 2.09z"/></g></symbol>
  <symbol id="social-odnoklassniki" viewBox="0 0 50 50"><g data-name="Layer 1"><path d="M29 10.44a12.18 12.18 0 0 0-8 4.5l-.14.17c-1.36 1.89-3 4.63-1.77 7 .91 1.78 3.1 2.27 4.95 2.14 4.73-.34 9.3-4 10.16-8.76.66-3.68-1.81-5.49-5.2-5.05zm-1 7.72a6.2 6.2 0 0 1-3.32.59 6.93 6.93 0 0 1-1.29-.42.87.87 0 0 1-.28-.2l.12-.18c.1-.14.2-.27.28-.39-.24.39.11-.08.25-.17s.39-.27.61-.4a8.39 8.39 0 0 1 2.17-.9c.77-.21 2.59-.64 3.24 0s-1.05 1.74-1.78 2.07zM33.4 24.19c-5 .66-10.08 1.15-15 2.2-2.19.46-4 6-1 5.4 1.53-.32 3.06-.58 4.6-.82-1.48 1.9-3 3.8-4.33 5.76-.65.94-1.66 2.72-.76 3.82s2.31.1 3-.71a5 5 0 0 0 .3-.41c1.46-2.06 3-4.06 4.58-6.06l4.18 5.06c1.72 2.08 5.2-2.74 3.72-4.53L29.38 30l3-.38c2.22-.33 4.1-5.83 1.02-5.43z"/><path d="M49.09 12.92c-1.44-5.1-5.45-9.1-10.52-11.32C32.5-1 25.82-.08 19.78 2.08c-7.07 2.57-13.61 7-17.13 13.41A21.69 21.69 0 0 0 1 32.44c1.85 6 6.59 11.15 12.37 14.19S26.21 51.15 32.51 49c4.46-1.53 8.05-5 10.66-8.59a37.69 37.69 0 0 0 6-13.67 27.74 27.74 0 0 0-.08-13.82zm-10-6.85c.21.19.53.48-.02.01zM12.1 41zm5.75 3.35zm6.81 0zm17.41-25.57a33.51 33.51 0 0 1-.5 3.51c-.11.57-.24 1.13-.37 1.7-.06.24-.12.48-.19.72 0 0-.18.63-.22.76a34.94 34.94 0 0 1-6.86 12.75 25.44 25.44 0 0 1-2.43 2.45l-.19.16-.13.11-.63.49c-.46.34-.93.66-1.42 1a17.3 17.3 0 0 1-2.89 1.44 15.16 15.16 0 0 1-1.46.48l-.25.06c-.29.06-.59.11-.88.16a14.66 14.66 0 0 1-1.55.15h-1.84a21.34 21.34 0 0 1-2.16-.28l-.27-.06c-.39-.1-.78-.21-1.17-.32l-.23-.07-.84-.34-.26-.12-.78-.53-.16-.1-.64-.45-.32-.25-.61-.54c-.24-.22-.46-.45-.68-.68l-.14-.11a19.43 19.43 0 0 1-1.26-1.65c-.17-.25-.34-.51-.5-.77l-.19-.35a20.56 20.56 0 0 1-.89-1.87c-.25-.59-.46-1.2-.64-1.81-.1-.31-.18-.62-.26-.93 0-.21-.09-.42-.13-.63a20.06 20.06 0 0 1-.33-4 17.66 17.66 0 0 1 1.83-7.96 23.93 23.93 0 0 1 5.78-7.59A31 31 0 0 1 20.06 10a39.75 39.75 0 0 1 6.46-3c.79-.28 1.58-.54 2.38-.78l1-.27.26-.06.72-.16A24.53 24.53 0 0 1 35 5.25h1.12a15.17 15.17 0 0 1 1.51.19h.21l.54.16.19.08.1.06.23.17.4.4a12.06 12.06 0 0 1 .85 1.18c.11.2.22.41.32.62a14.84 14.84 0 0 1 .6 1.41c.17.45.31.92.44 1.38l.08.3c.06.27.11.54.16.81a25.59 25.59 0 0 1 .32 6.77z"/></g></symbol>
  <symbol id="social-pinterest" viewBox="0 0 50 50"><g data-name="Layer 1"><path d="M49.09 12.93c-1.44-5.11-5.45-9.1-10.52-11.32C32.5-1 25.82-.08 19.78 2.08c-7.07 2.57-13.61 7-17.13 13.41A21.69 21.69 0 0 0 1 32.44c1.85 6 6.59 11.15 12.37 14.19S26.21 51.15 32.51 49c4.46-1.53 8.05-5 10.66-8.59a37.69 37.69 0 0 0 6-13.67 27.75 27.75 0 0 0-.08-13.81zm-10-6.84c.21.17.53.45-.01 0zM12.12 41zm5.64 3.31zm6.88 0zm17.43-25.53a33.27 33.27 0 0 1-.49 3.51c-.11.57-.24 1.13-.37 1.7l-.18.72s-.18.63-.22.76a35 35 0 0 1-6.86 12.75 25.43 25.43 0 0 1-2.43 2.45l-.18.15-.14.12-.63.49c-.46.34-.93.66-1.42 1a17.3 17.3 0 0 1-2.89 1.44c-.48.19-1 .34-1.45.48l-.25.06c-.29.06-.59.11-.88.16a14.66 14.66 0 0 1-1.55.15h-1.84a21.34 21.34 0 0 1-2.16-.28l-.26-.06c-.39-.09-.79-.21-1.17-.32l-.22-.07-.84-.34-.27-.12-.82-.53-.17-.1-.63-.45-.32-.25-.61-.54a21.8 21.8 0 0 1-.68-.68l-.14-.09a19.8 19.8 0 0 1-1.26-1.65c-.17-.25-.34-.51-.5-.77l-.19-.35a20.58 20.58 0 0 1-.89-1.87c-.25-.59-.46-1.2-.64-1.81-.1-.31-.18-.62-.26-.93 0-.21-.09-.42-.13-.63a20.05 20.05 0 0 1-.33-4 17.66 17.66 0 0 1 1.84-7.98 23.94 23.94 0 0 1 5.78-7.59A31.09 31.09 0 0 1 20.06 10a39.71 39.71 0 0 1 6.46-3q1.18-.42 2.38-.78l1-.27.27-.07.72-.16A24.41 24.41 0 0 1 35 5.26h1.12c.5 0 1 .1 1.5.19l.23.05.54.16.19.08.11.06.24.18.4.4a12 12 0 0 1 .86 1.18c.11.2.22.41.32.62a14.94 14.94 0 0 1 .6 1.41c.17.45.31.92.44 1.38 0 .11.06.21.08.32.06.26.11.53.16.79a25.59 25.59 0 0 1 .28 6.7z"/><path d="M27.21 12.06a21.78 21.78 0 0 0-8.8 1.54c-1.87.75-.29 2.43.83 3a7.58 7.58 0 0 0 5.93.24c-1 .42.09 0 .36-.09s.82-.22 1.24-.3l.84-.11.6-.05c0 .12.06.24.09.36s0 .26 0 .35v.45a5.3 5.3 0 0 1-.4 1.35l-.17.34c-.13.22-.28.43-.43.63a9.81 9.81 0 0 1-1.06 1.19l-.31.28L26 21c.4-1.26-1.36-1.83-2.18-1.82A2.9 2.9 0 0 0 21 21.09c-1.57 4.94-3.27 9.87-4 15-.36 2.65 4.7 2.21 5-.1a58.86 58.86 0 0 1 2-8.93 8.53 8.53 0 0 0 1.87 0c.34 0 .67-.09 1-.15L27 27l.15-.09a14.1 14.1 0 0 0 7.08-3.79c1.81-1.78 3.29-4.63 2.21-6.94-1.36-2.93-5.68-3.99-9.23-4.12zm.86 3.94l-.07-.07z"/></g></symbol>
  <symbol id="social-telegram" viewBox="0 0 54.44 49.96"><g data-name="Layer 1"><path d="M17.14 49.6A34 34 0 0 0 38 46.1 31.1 31.1 0 0 0 50.14 34c4.64-8.17 6.61-20.43.28-28.13C42.47-3.79 27.7.07 18.6 6A47.31 47.31 0 0 0 5.41 18.93C2.4 23.33.12 28.52 0 34a13.65 13.65 0 0 0 4 10c3.44 3.49 8.5 4.93 13.13 5.6a4.87 4.87 0 0 0 4.71-1.84c.93-1.51-.51-2.65-1.83-2.84-.83-.12-1.66-.27-2.48-.44-.24 0-1.53-.38-.55-.12-.42-.11-.83-.24-1.25-.37-.66-.22-1.31-.47-2-.75-.3-.13-.6-.27-.89-.42s-.68-.37.08 0l-.54-.31a14.43 14.43 0 0 1-1.46-1c-.22-.17-.44-.36-.65-.54l-.27-.26c-.49-.47.28.3 0 0A11.4 11.4 0 0 1 8.13 38c-.11-.23-.22-.46-.32-.69.33.78 0-.06-.07-.25a11.57 11.57 0 0 1-.42-1.6 13.22 13.22 0 0 1-.2-1.54v-.79-.4c0-.43 0 .62 0 0a21.76 21.76 0 0 1 1.66-7c.06-.15.28-.67 0 0l.19-.43c.13-.29.26-.57.4-.86.3-.63.63-1.24 1-1.85a37.83 37.83 0 0 1 2.24-3.5c.4-.56.81-1.1 1.23-1.64l.32-.4c-.54.67-.15.18 0 0 .26-.31.53-.61.79-.92 1-1.09 2-2.13 3.06-3.12.52-.48 1-.94 1.58-1.39l.81-.67.41-.33c-.83.65-.14.11 0 0a40.43 40.43 0 0 1 3.6-2.41c.59-.35 1.19-.68 1.79-1l-.2.1.46-.22 1.07-.48c.61-.27 1.23-.51 1.85-.73l.93-.31-.3.09.62-.17c.62-.17 1.25-.31 1.88-.43l.94-.16h-.33l.63-.06c.62-.06 1.24-.08 1.87-.08h.93c-1.3-.06 0 0 .33.05a16.13 16.13 0 0 1 1.69.29c.23.05.77.2-.24-.07l.39.11c.3.09.59.19.89.3a13.21 13.21 0 0 1 1.39.74c.46.23-.64-.35-.19-.1l.33.19c.25.15.49.31.73.48a13 13 0 0 1 1.13.93c.18.16.36.34.53.51-.65-.66.06.08.21.26a14.09 14.09 0 0 1 1.7 2.55c.12.22.23.45.33.68s.43 1 .12.24c.21.52.39 1 .55 1.59a20.72 20.72 0 0 1 .67 3.27 23.9 23.9 0 0 1 .17 3.49v.37c0 .19 0 .58-.07.87-.06.63-.14 1.27-.24 1.89a30.07 30.07 0 0 1-.83 3.66c-.17.59-.36 1.17-.57 1.75-.1.29-.21.58-.33.87l-.17.43c-.17.42.25-.57 0 .1A30.52 30.52 0 0 1 41 37c-.37.47.45-.54.07-.08l-.31.37-.64.72c-.47.51-1 1-1.47 1.48s-1 .87-1.47 1.27c-.17.14-.67.52.14-.1l-.39.29a26.327 26.327 0 0 1-2.77 1.78l-.44.24c-.79.43.6-.29.06 0-.35.17-.71.34-1.07.5-.68.3-1.38.56-2.08.8l-.5.16c-.61.19 1-.29.09 0-.4.11-.8.21-1.2.3-.77.18-1.54.31-2.32.42s.94-.11.22 0l-.75.07c-.45 0-.89.06-1.33.08h-2.56c1.14.05-.45 0-.74-.07-.49 0-1-.11-1.46-.17a4.88 4.88 0 0 0-4.71 1.84c-.93 1.5.51 2.66 1.83 2.84"/><path d="M25.8 36l-3.91-9.68c-.87-2.15-5.25-3-7.18-3.82l-.24 3.5 25-9.83-3.29-2-4.51 21.33 4.07-1.25-6.54-3.83a3 3 0 0 0-3.52.36l-4.12 4.83c-2 2.38 2.21 4.13 3.79 2.28l4.12-4.83-3.47.36 6.55 3.83c1.23.72 3.72.42 4.07-1.25l4.5-21.33c.37-1.75-2-2.5-3.29-2l-25 9.83c-1.84.72-2.23 2.63-.25 3.47l3.74 1.58 1.87.79c-1.47-.62-1.14-1-.53.48l3.5 8.66c.84 2.23 5.65 1.03 4.64-1.48z"/></g></symbol>
  <symbol id="social-twitter" viewBox="0 0 50 50"><g data-name="Layer 1"><path d="M44.26 4C35.4-4.12 21.9 1.54 14 8.38A45.38 45.38 0 0 0 3.26 22.44C1 27-.48 32.27.14 37.46a13.1 13.1 0 0 0 5.16 9C9 49.3 14 50 18.52 50a32.65 32.65 0 0 0 19.3-6.12 29.83 29.83 0 0 0 9.95-13.11c3.31-8.39 3.54-20.3-3.51-26.77zm-16.2 1.36zm-3 1.08zM13.48 44.09zM43 24.72c-.08.58-.19 1.16-.3 1.74q-.09.44-.19.87c0 .14-.07.29-.11.43v.07a29.37 29.37 0 0 1-2.94 6.94l-.19.3c-.16.26-.34.51-.51.77-.38.55-.78 1.09-1.2 1.61s-.8 1-1.22 1.41l-.18.18c-.26.26-.53.51-.8.75-.51.46-1 .9-1.59 1.31l-.39.29-.87.57c-.61.38-1.23.72-1.87 1l-.29.14h-.08c-.37.16-.73.31-1.1.45-.68.26-1.37.48-2.07.69l-.58.14c-.42.1-.84.18-1.26.26-.69.13-1.38.21-2.08.29l-1.18.21h-1.41c-.81 0-1.61 0-2.42-.09l-.71-.05-1-.16c-.66-.12-1.31-.27-2-.45-.3-.08-.6-.18-.9-.28l-.48-.19a13.8 13.8 0 0 1-1.52-.76c-.23-.13-.46-.28-.69-.43l-.33-.23a10.94 10.94 0 0 1-2.11-2.27c-.09-.12-.17-.26-.25-.39l-.25-.46a11.4 11.4 0 0 1-.63-1.48 12.74 12.74 0 0 1-.39-1.44c-.05-.25-.1-.5-.14-.75s0-.25-.05-.38a20.89 20.89 0 0 1 .63-6.88v-.05l.09-.4c.08-.29.17-.58.26-.87.2-.64.43-1.27.67-1.89A36.16 36.16 0 0 1 10 21.65c.3-.58.62-1.15 1-1.72l.08-.13.15-.25c.21-.33.42-.65.63-1 .77-1.17 1.61-2.29 2.48-3.37.43-.53.87-1 1.31-1.54l.68-.74.14-.14.25-.25a38.87 38.87 0 0 1 3.1-2.77c.5-.4 1-.78 1.52-1.15l.28-.19 1-.6c.54-.33 1.1-.65 1.66-.94l.72-.38.38-.16c.57-.24 1.14-.46 1.73-.66l.81-.25.34-.08c.55-.14 1.14-.25 1.74-.33h1.2a15.49 15.49 0 0 1 1.64 0H33c.3 0 .59.1.88.17a12.25 12.25 0 0 1 1.34.38l.24.1c.26.11.51.23.76.36a12.23 12.23 0 0 1 1.22.72l.31.22.49.41a13.55 13.55 0 0 1 2 2.21c.14.2.28.4.41.6l.22.36c.24.42.46.85.66 1.29a19.68 19.68 0 0 1 1.07 3 22.67 22.67 0 0 1 .6 3.12c0 .16 0 .44.05.53 0 .28 0 .55.05.83v1.83a28.5 28.5 0 0 1-.3 3.59z"/><path d="M33.56 28.55c-2.91 1.18-9.51 4.85-12.33 2.07a2.48 2.48 0 0 1-.6-2.25c3.57-1.3 7-3.44 10.82-4 2.78-.42 5.13-7.32 1.27-6.74-3.06.46-5.89 1.92-8.74 3.16a24.7 24.7 0 0 0 1.57-4.36c.32-1.34-.33-3.13-2-2.7s-2.87 2.39-3.26 4c-1.44 6-7.53 11.61-4.07 18.05 2.94 5.47 12.15 1.08 16.06-.51a5.39 5.39 0 0 0 3.26-4c.23-1.16-.28-3.42-1.98-2.72z"/></g></symbol>
  <symbol id="social-viber" viewBox="0 0 50 50"><g data-name="Layer 1"><path d="M31.48 0a32.65 32.65 0 0 0-19.3 6.12 29.81 29.81 0 0 0-9.95 13.11C-1.08 27.62-1.31 39.53 5.74 46 14.6 54.12 28.1 48.46 36 41.62a45.35 45.35 0 0 0 10.74-14.06c2.26-4.59 3.73-9.82 3.11-15a13.1 13.1 0 0 0-5.16-9C41 .7 36 0 31.48 0a4.67 4.67 0 0 0-4.22 2.38c-.68 1.56.84 2.45 2.12 2.45q1.21 0 2.42.09c.23 0 1.5.16.54 0 .41 0 .83.12 1.24.19.66.12 1.31.27 2 .45.3.08.6.18.9.28s.69.26-.08 0l.55.22a13.85 13.85 0 0 1 1.52.76c.23.13.46.28.69.43l.33.23c.53.38-.3-.25 0 0a11 11 0 0 1 2.12 2.28c.14.2.27.41.39.61-.42-.69 0 .06.11.23a11.8 11.8 0 0 1 .61 1.47 13 13 0 0 1 .39 1.44c.05.25.1.5.14.75s0 .25.05.38c.06.41-.05-.6 0 0a20.89 20.89 0 0 1-.63 6.88c0 .15-.18.67 0 0l-.12.43c-.08.29-.17.58-.26.87-.2.64-.43 1.27-.67 1.89A36.16 36.16 0 0 1 40 28.35c-.3.58-.62 1.15-1 1.72l-.25.43c.43-.71.12-.19 0 0-.2.33-.42.65-.63 1-.77 1.17-1.61 2.29-2.49 3.37-.42.52-.86 1-1.31 1.54l-.68.74-.35.37c.7-.73.12-.12 0 0a38.18 38.18 0 0 1-3.1 2.77c-.51.41-1 .8-1.57 1.19s.7-.48.18-.12l-.4.27-1 .6c-.54.33-1.1.65-1.66.94l-.84.42.28-.13-.57.25c-.57.24-1.14.46-1.73.66l-.87.27.31-.08-.59.14c-.58.14-1.17.24-1.76.33l-.89.1c1.24-.12 0 0-.32 0a15.51 15.51 0 0 1-1.61-.13c-.22 0-.76-.09.24 0H17c-.3 0-.59-.1-.88-.17a12.55 12.55 0 0 1-1.44-.41c-.46-.16.65.25.2.07l-.34-.14c-.26-.11-.51-.23-.76-.36a12.26 12.26 0 0 1-1.22-.73c-.2-.13-.38-.27-.57-.41.71.54-.07-.07-.23-.22a13.56 13.56 0 0 1-2-2.21c-.14-.2-.28-.4-.41-.6s-.55-.91-.14-.21c-.27-.46-.51-.95-.73-1.43a19.9 19.9 0 0 1-1.08-3 23.14 23.14 0 0 1-.63-3.29c.1.77 0-.17 0-.36s0-.56-.05-.83v-1.83A28.33 28.33 0 0 1 7 25.28c.08-.58.19-1.16.3-1.74q.09-.43.19-.87c0-.14.07-.29.11-.43.11-.43-.16.58 0-.1a29.24 29.24 0 0 1 2.95-6.94c.29-.49-.36.58-.05.09l.25-.39c.16-.26.34-.51.51-.77.38-.55.78-1.09 1.2-1.61s.8-1 1.22-1.41c.14-.16.56-.59-.12.12l.33-.33c.26-.26.53-.51.8-.75.51-.46 1-.9 1.59-1.31l.38-.29c.7-.51-.53.36-.05 0 .31-.21.63-.42 1-.62.61-.38 1.23-.72 1.87-1l.45-.22c.55-.26-.92.41-.08 0 .36-.16.73-.31 1.1-.45.7-.27 1.43-.5 2.15-.71s-.88.23-.21.05l.7-.17c.42-.1.84-.18 1.26-.25.81-.15 1.62-.25 2.44-.33-1.1.11.43 0 .71 0h1.41a4.68 4.68 0 0 0 4.19-2.4C34.28.9 32.76 0 31.48 0"/><path d="M16.94 15.59c-2.27 1.82-5.58 4.83-5.24 8.07.3 2.95 3.3 5.23 5.3 7.09 2.54 2.29 6 5.19 9.52 5.58 2.89.31 6.34-2.64 7.52-5.16s-1.67-5.32-3.04-2.34c-2.44 5.24-7.61.88-10.37-1.35A30.81 30.81 0 0 1 16 23a8.38 8.38 0 0 1-.5-.71c.54.81.39 0 1.12-.79a13.68 13.68 0 0 1 1.82-1.71c1.86-1.49.93-6.11-1.49-4.16z"/><path d="M23.24 23.65h.27a5.76 5.76 0 0 1 1.06.31 1.72 1.72 0 0 1 1.28 1.76c0 .53.37 1.24 1 1.22s.88-.74.9-1.28c.08-2.66-2.06-4.38-4.56-4.56-1.23-.09-1.18 2.41.07 2.5z"/><path d="M23 20.19c-.54 0 .42 0 .58.05a7.41 7.41 0 0 1 1.88.44 5 5 0 0 1 3.25 4.2c.22 1.54 2.18.27 2-.92a7.09 7.09 0 0 0-7.52-6.11c-1.18 0-1.65 2.38-.19 2.35z"/><path d="M23.19 17.06c4.19-.09 7.94 2.45 8.39 6.76.16 1.55 2 1.37 1.87-.18a10 10 0 0 0-10.5-9.07c-1.24 0-1 2.52.24 2.49z"/></g></symbol>
  <symbol id="social-vk" viewBox="0 0 50 50"><g data-name="Layer 1"><path d="M44.26 4C35.4-4.12 21.9 1.54 14 8.38A45.37 45.37 0 0 0 3.26 22.44C1 27-.48 32.26.14 37.46a13.1 13.1 0 0 0 5.16 9C9 49.3 14 50 18.52 50a32.65 32.65 0 0 0 19.3-6.12 29.82 29.82 0 0 0 9.95-13.11c3.31-8.38 3.54-20.3-3.51-26.77zM33.13 5zm-5.07.37zm-3 1.06zM7.4 28.17zm6 15.91zM43 24.72c-.08.58-.19 1.16-.3 1.74q-.09.44-.19.87c0 .14-.07.29-.11.43v.07a29.36 29.36 0 0 1-2.94 6.94l-.19.3c-.17.26-.34.51-.51.77-.38.55-.78 1.09-1.2 1.61s-.8 1-1.22 1.41l-.17.17c-.26.26-.53.51-.8.75-.51.46-1 .9-1.59 1.31l-.39.29-.87.57c-.61.38-1.23.72-1.87 1l-.31.15h-.06c-.37.16-.73.31-1.1.45-.68.26-1.37.48-2.07.69l-.58.14c-.42.1-.84.18-1.26.25-.69.13-1.39.22-2.08.29l-1.19.22h-1.41q-1.21 0-2.42-.09l-.71-.05-1-.15c-.66-.12-1.31-.27-2-.45-.3-.08-.6-.18-.9-.28l-.46-.19a13.93 13.93 0 0 1-1.52-.76c-.23-.13-.46-.28-.69-.43l-.33-.23a11 11 0 0 1-2.11-2.26c-.09-.12-.17-.26-.25-.39l-.25-.46a11.53 11.53 0 0 1-.65-1.5 12.8 12.8 0 0 1-.39-1.44c-.05-.25-.1-.5-.14-.75s0-.25-.05-.38a20.89 20.89 0 0 1 .63-6.88v-.06l.09-.39c.08-.29.17-.58.26-.87.2-.64.43-1.27.67-1.89A36.36 36.36 0 0 1 10 21.65c.3-.58.62-1.15 1-1.72l.07-.12.16-.26c.21-.33.42-.65.63-1 .77-1.17 1.61-2.29 2.48-3.37.43-.52.87-1 1.31-1.54l.68-.74.1-.11.28-.28a38.5 38.5 0 0 1 3.1-2.77c.5-.4 1-.78 1.52-1.15l.28-.19 1-.6c.54-.33 1.1-.65 1.66-.94l.73-.38.36-.16c.57-.24 1.14-.46 1.73-.66l.81-.25.34-.08c.57-.14 1.16-.25 1.76-.33h1.2a15.49 15.49 0 0 1 1.64 0H33c.3 0 .59.1.88.17a12.42 12.42 0 0 1 1.34.38l.24.1c.26.11.51.23.76.36a12.27 12.27 0 0 1 1.22.73l.31.22.5.41a13.57 13.57 0 0 1 2 2.21c.14.2.28.4.41.6l.22.35c.24.42.46.85.66 1.29a19.7 19.7 0 0 1 1.07 3 22.67 22.67 0 0 1 .6 3.12c0 .16 0 .44.05.53 0 .28 0 .56.05.83v1.83a28.48 28.48 0 0 1-.31 3.59z"/><path d="M32.12 17c-.83-2.28-3.4-3.1-5.52-3.2a10.42 10.42 0 0 0-5.24 1.2c-.8.41-.54 1.19-.08 1.75a2.53 2.53 0 0 0-.63 1c-1.57 4.94-3.27 9.87-4 15-.33 2.41 3.81 2.26 4.81.48a8.84 8.84 0 0 0 9.37-2.64 4.6 4.6 0 0 0 .38-5.83 6.93 6.93 0 0 0-1.43-1.41 9.78 9.78 0 0 0 1-1.07c1.1-1.34 1.99-3.53 1.34-5.28zm-5-.19zm-.28.25h.36c0 .09 0 .18.05.27s0 .2 0 .27v.35a5 5 0 0 1-.24 1l-.1.26a7.5 7.5 0 0 1-.25.49 7.42 7.42 0 0 1-.63.92l-.31.36-.18.19a7.26 7.26 0 0 1-.76.61l-.37.23-.1.05h-.05c.46-1.48.94-2.95 1.41-4.42a1.1 1.1 0 0 0 0-.32l.63-.2zM23 30.41zm0 0zm4-2.93l-.1.25-.17.32A5.3 5.3 0 0 1 26 29l-.09.1c-.12.11-.26.22-.39.32a7 7 0 0 1-.85.56h-.08l-.47.19-.47.16h-.54c-.06-.09-.17-.22-.21-.29a2.12 2.12 0 0 0-.61-.65c.33-1.56.72-3.11 1.16-4.64a3.92 3.92 0 0 0 2.44.5c.2 0 .4-.07.59-.11l.18.2a3.58 3.58 0 0 1 .23.37c0 .07.11.26.13.32a2.53 2.53 0 0 1 .07.4v.39a3.79 3.79 0 0 1-.09.71z"/></g></symbol>
  <symbol id="tools-accepted" viewBox="0 0 30 30"><g id="Layer_2" data-name="Layer 2"><g id="Isolation_Mode" data-name="Isolation Mode"><path d="M29.92 7.53a7.87 7.87 0 0 0-3.09-5.4C24.58.42 21.58 0 18.89 0A19.6 19.6 0 0 0 7.31 3.67a17.88 17.88 0 0 0-6 7.86c-2 5-2.12 12.18 2.1 16.06 5.35 4.88 13.45 1.49 18.16-2.59A27.27 27.27 0 0 0 28 16.54a16.31 16.31 0 0 0 1.92-9.01zm-8-4zM10.29 27c-.12 0-.39 0 0 0zm2.82-.23zm1.82-.65zM25.6 12.95v.23l-.16.52c-.12.38-.26.76-.4 1.13A22.33 22.33 0 0 1 24 17c-.18.35-.37.69-.57 1l-.11.18-.38.59c-.46.7-1 1.38-1.49 2-.25.31-.52.62-.79.92l-.41.44-.08.08-.15.16a23.28 23.28 0 0 1-1.86 1.66c-.29.23-.59.46-.89.67L17 25l-.57.36c-.33.2-.66.39-1 .57l-.47.23-.22.09c-.34.15-.69.28-1 .39l-.5.16h-.19c-.35.08-.71.14-1.06.2h-.72a9.23 9.23 0 0 1-1 0h-.12l-.53-.1a7.2 7.2 0 0 1-.83-.24h-.12l-.46-.22a7.39 7.39 0 0 1-.67-.44l-.18-.13-.3-.25a8 8 0 0 1-1.19-1.33l-.25-.36-.13-.2c-.14-.26-.28-.52-.4-.78a11.82 11.82 0 0 1-.65-1.81 13.9 13.9 0 0 1-.36-1.87v-.32-.5-1.1a17.26 17.26 0 0 1 .18-2.15c0-.35.11-.7.18-1 0-.17.08-.35.12-.52l.06-.22v-.09a17.51 17.51 0 0 1 1.72-4.24l.12-.18.31-.46c.23-.33.47-.65.72-1s.48-.57.73-.84l.08-.08.48-.45c.31-.28.63-.54 1-.79l.22-.2.53-.34c.36-.23.74-.43 1.12-.62l.18-.09.66-.27c.41-.16.83-.29 1.25-.41l.34-.08.75-.15c.44-.08.88-.13 1.33-.18h1.42q.73 0 1.45.05h.45l.62.09c.39.07.79.16 1.17.27l.54.17.28.11a8.66 8.66 0 0 1 .91.46l.41.26.2.14A6.6 6.6 0 0 1 25 5.87l.15.23.15.28a6.7 6.7 0 0 1 .37.88 8.08 8.08 0 0 1 .24.86c0 .15.06.3.08.45s0 .15 0 .23a12.59 12.59 0 0 1-.39 4.15z"/><path d="M20 11.93a3.45 3.45 0 0 0-1-.12.51.51 0 0 0-.46.17l-4.13 6.17-.13-9.89a.86.86 0 0 0-.3-.57 5 5 0 0 0-.98-.78c-.07 0-1.55-.9-1.54-.51l.17 12.86a.86.86 0 0 0 .3.57 5.22 5.22 0 0 0 .93.77 3.11 3.11 0 0 0 1 .51l.18.06h.14a3.39 3.39 0 0 0 .82.09.51.51 0 0 0 .45-.18l5.68-8.48c.27-.21-1.13-.6-1.13-.67z"/></g></g></symbol>
  <symbol id="tools-edit" viewBox="0 0 30 30"><g id="Layer_2" data-name="Layer 2"><g id="Isolation_Mode" data-name="Isolation Mode"><path d="M29.91 7.53a7.85 7.85 0 0 0-3.09-5.4C24.58.42 21.58 0 18.89 0A19.59 19.59 0 0 0 7.31 3.67a17.87 17.87 0 0 0-6 7.87c-2 5-2.12 12.18 2.11 16.06 5.34 4.87 13.44 1.48 18.15-2.6A27.22 27.22 0 0 0 28 16.54a16.3 16.3 0 0 0 1.91-9.01zM22 3.57zM10.11 27zm3-.22zm1.89-.66c-.17.08-.47.21 0 0zM25.59 13zm0 0l-.06.22c0 .17-.1.35-.16.52-.12.38-.26.76-.4 1.13A21.88 21.88 0 0 1 24 17c-.18.35-.37.69-.57 1l-.1.17v.06l-.38.59c-.46.7-1 1.38-1.49 2-.26.31-.52.62-.79.92l-.41.44-.07.07-.16.17a23.06 23.06 0 0 1-1.86 1.67c-.3.24-.61.48-.93.7L17 25l-.57.36c-.33.2-.66.39-1 .57l-.43.17-.25.11c-.34.15-.69.28-1 .39l-.49.15h-.2c-.35.08-.7.14-1.06.19h-.73a9.53 9.53 0 0 1-1 0h-.1l-.53-.1a7.06 7.06 0 0 1-.8-.23l-.15-.06-.45-.22a7.52 7.52 0 0 1-.7-.33l-.18-.13-.3-.25a8.12 8.12 0 0 1-1.19-1.33l-.25-.36-.13-.21c-.14-.25-.27-.51-.4-.78a11.64 11.64 0 0 1-.65-1.81 13.57 13.57 0 0 1-.36-1.86v-.33-.5-1.1a17.05 17.05 0 0 1 .18-2.15c0-.35.11-.7.18-1 0-.17.08-.35.12-.52l.06-.25v-.07a17.55 17.55 0 0 1 1.71-4.22l.12-.19.31-.46c.23-.33.47-.65.72-1s.48-.57.73-.84l.09-.09.48-.45c.31-.28.63-.54 1-.79l.22-.18.53-.34c.36-.23.74-.43 1.12-.62l.18-.09.66-.27c.41-.16.83-.29 1.25-.41l.34-.08.75-.15c.43-.08.87-.13 1.31-.18h1.43c.48 0 1 0 1.45.05h.45l.62.09c.39.07.79.16 1.17.27l.54.17.27.11a8.39 8.39 0 0 1 .91.46l.41.26.2.14A6.61 6.61 0 0 1 25 5.87l.15.24.15.27a7.07 7.07 0 0 1 .37.88 8.12 8.12 0 0 1 .24.86c0 .15.06.3.08.45s0 .15 0 .23a12.57 12.57 0 0 1-.39 4.2z"/><path d="M20.44 7.24a3 3 0 0 0-4 .27c-.07-.08-.13-.12-.17-.07l-6 7.89a.39.39 0 0 0-.07.17l-.2-.04-1.37 7 5.63-2.66.08.06.14-.16h.07l5.84-7-.39-.25c1-1.29 2.21-3.78.44-5.21zm-1.13 1.4c.46.37.14 1.24-.21 1.9L17.59 8.9a1.26 1.26 0 0 1 1.72-.26zM13.53 18l-1.61-2 4.47-5.89 2 2.13zm-2.23 0l.74.93-1 .48z"/></g></g></symbol>
  <symbol id="tools-processing" viewBox="0 0 30 30"><g id="Layer_2" data-name="Layer 2"><g id="Isolation_Mode" data-name="Isolation Mode"><path d="M29.91 7.53a7.86 7.86 0 0 0-3.09-5.4C24.58.42 21.58 0 18.89 0A19.6 19.6 0 0 0 7.31 3.67a17.89 17.89 0 0 0-6 7.87c-2 5-2.12 12.18 2.1 16.05 5.35 4.88 13.45 1.49 18.16-2.59A27.28 27.28 0 0 0 28 16.54a16.31 16.31 0 0 0 1.91-9.01zm-8-4zM10.27 27zm2.93-.25zm1.8-.63c-.17.08-.47.21 0 0zm10.6-13.17v.23c0 .17-.1.35-.16.52-.12.38-.26.76-.4 1.13A22 22 0 0 1 24 17c-.18.35-.37.69-.57 1l-.05.09-.08.14-.38.59c-.46.7-1 1.37-1.49 2-.25.31-.52.62-.79.92l-.41.45-.07.08-.16.16a23.43 23.43 0 0 1-1.86 1.66c-.3.24-.6.47-.91.69L17 25l-.57.36c-.33.2-.66.39-1 .57l-.45.23-.23.1c-.34.14-.69.27-1 .39l-.49.15-.2.05c-.35.08-.7.14-1.06.19h-.72a9.5 9.5 0 0 1-1 0h-.11l-.53-.1a7.67 7.67 0 0 1-.82-.23l-.13-.05-.45-.21c-.25-.13-.5-.28-.73-.44l-.17-.13-.31-.25a8.11 8.11 0 0 1-1.19-1.33l-.25-.36-.13-.21c-.14-.26-.28-.52-.4-.78a11.83 11.83 0 0 1-.65-1.81 14 14 0 0 1-.36-1.87v-.33-.5-1.1a17.1 17.1 0 0 1 .18-2.15c0-.35.11-.7.18-1 0-.17.08-.35.12-.52l.06-.23v-.08a17.55 17.55 0 0 1 1.75-4.24l.11-.18.31-.46c.23-.33.47-.65.72-1s.48-.57.73-.84l.09-.09.48-.45c.3-.28.63-.54 1-.79l.22-.18.53-.34c.36-.23.74-.43 1.12-.62l.18-.09.66-.27c.41-.16.83-.29 1.26-.41l.33-.08.75-.15c.44-.08.88-.13 1.32-.18h1.42c.48 0 1 0 1.45.05h.46l.61.09c.4.07.79.16 1.17.27l.54.17.27.11a8.43 8.43 0 0 1 .91.46l.41.26.2.14A6.54 6.54 0 0 1 25 5.87l.15.24.15.27a7 7 0 0 1 .37.88 7.79 7.79 0 0 1 .24.86c0 .15.06.3.08.45v.23a12.51 12.51 0 0 1-.39 4.15z"/><path d="M11.4 8.77c-.21.62 1.75 2.12 2 1.44a3 3 0 0 1 1.82-2 2.68 2.68 0 0 1 1.13-.15h.1a2.85 2.85 0 0 1 0 .59c-.12 1.47-1.34 2.77-2.24 3.84a8.22 8.22 0 0 0-1.72 3.33c-.17.66 1.82 2.09 2 1.44.58-2.3 2.44-3.7 3.5-5.73a3.19 3.19 0 0 0-.47-3.95C15.53 5.56 12.34 6 11.4 8.77zM13.77 18.15c-2.17-.81-2.08 2.74-.18 3 .94.19 2.15-2.26.18-3z"/></g></g></symbol>
  <symbol id="tools-rejected" viewBox="0 0 30 30"><g id="Layer_2" data-name="Layer 2"><g id="Isolation_Mode" data-name="Isolation Mode"><path d="M29.91 7.53a7.85 7.85 0 0 0-3.09-5.4C24.58.42 21.58 0 18.89 0A19.59 19.59 0 0 0 7.31 3.67a17.88 17.88 0 0 0-6 7.87c-2 5-2.12 12.18 2.1 16.06 5.35 4.87 13.45 1.48 18.16-2.6A27.25 27.25 0 0 0 28 16.54a16.31 16.31 0 0 0 1.91-9.01zM22 3.58zM10.17 27zm3-.23zm1.83-.65c-.17.08-.47.21 0 0zM25.6 13v.23c0 .17-.1.35-.16.52-.12.38-.26.76-.4 1.13A22.15 22.15 0 0 1 24 17c-.18.35-.37.69-.57 1v.05l-.11.17-.38.59a24.76 24.76 0 0 1-1.49 2c-.25.31-.52.62-.79.92l-.41.45-.09.09-.14.15a23 23 0 0 1-1.86 1.66c-.3.24-.6.47-.91.69L17 25l-.57.36c-.33.2-.66.39-1 .57l-.45.23-.23.1c-.34.15-.69.27-1 .39l-.48.15-.2.05q-.53.12-1.06.2h-.72a9 9 0 0 1-1 0h-.1l-.53-.1a7.07 7.07 0 0 1-.82-.23l-.13-.05-.45-.22a7.12 7.12 0 0 1-.72-.45l-.18-.13-.3-.25a8.16 8.16 0 0 1-1.19-1.32l-.25-.36-.12-.24c-.14-.26-.28-.52-.4-.78a11.81 11.81 0 0 1-.65-1.81 13.63 13.63 0 0 1-.36-1.87v-.32-.5-1.1a17.46 17.46 0 0 1 .18-2.15c.05-.35.11-.7.18-1 0-.17.08-.35.12-.52l.05-.22v-.1a17.51 17.51 0 0 1 1.72-4.21l.11-.18.31-.46c.23-.33.47-.65.72-1s.48-.57.73-.84l.09-.09.48-.45c.31-.28.63-.54 1-.79l.22-.18.54-.35c.36-.23.74-.43 1.12-.62l.17-.08h.05l.66-.27c.41-.16.83-.29 1.25-.41l.34-.08.75-.15c.44-.08.88-.13 1.32-.18h1.42c.48 0 1 0 1.45.05h.45l.62.09c.4.07.79.16 1.18.27l.54.17.27.11a8.36 8.36 0 0 1 .91.46l.41.26.2.14A6.53 6.53 0 0 1 25 5.87l.15.24.15.27a7 7 0 0 1 .37.88 7.91 7.91 0 0 1 .24.86c0 .15.06.3.08.45v.23a12.51 12.51 0 0 1-.39 4.2z"/><path d="M19.56 7.58l-4.45 4.57-3.85-5.07c-.22-.29-.81 1.17-.83 1.25a4.67 4.67 0 0 0-.24 1.11.79.79 0 0 0 .1.59l3 4-3.46 3.55a.8.8 0 0 0-.17.58 4.71 4.71 0 0 0 .1 1.13c0 .08.43 1.6.68 1.34l4.44-4.57 3.86 5.07c.22.29.81-1.17.84-1.24a4.76 4.76 0 0 0 .24-1.11.8.8 0 0 0-.1-.59l-3-4 3.49-3.58a.78.78 0 0 0 .17-.57 4.73 4.73 0 0 0-.1-1.13c-.05-.07-.47-1.59-.72-1.33z"/></g></g></symbol>
  <symbol id="tools-trash" viewBox="0 0 30 30">
    
    <g id="Layer_2" data-name="Layer 2">
      <path d="M29.91 7.53a7.86 7.86 0 0 0-3.09-5.4C24.58.42 21.58 0 18.89 0A19.59 19.59 0 0 0 7.31 3.67a17.88 17.88 0 0 0-6 7.87c-2 5-2.12 12.18 2.11 16.05 5.34 4.88 13.44 1.49 18.15-2.59A27.23 27.23 0 0 0 28 16.54a16.3 16.3 0 0 0 1.91-9.01zM13.13 26.79zm1.87-.65zM25.6 13l-.05.19c0 .17-.1.35-.16.52-.12.38-.26.76-.4 1.13A22.43 22.43 0 0 1 24 17c-.18.35-.37.69-.57 1v.06l-.1.17-.38.59c-.46.7-1 1.38-1.49 2-.23.28-.47.56-.71.83a3.66 3.66 0 0 0 0-.51v-9.81a.29.29 0 0 0 0-.09c0-.19.14-1.76-.11-1.9l-11 .07c-.07 0-.1.06-.12.13v11.47c-.26.12.05 1.14.26 1.51a2 2 0 0 0 1.55 1l7.45-.07c-.22.19-.42.4-.65.58s-.6.47-.91.69L17 25l-.57.36c-.33.2-.66.39-1 .57l-.46.23-.22.1c-.34.15-.69.27-1 .39l-.49.15h-.19c-.35.08-.7.15-1.06.2h-.72a9 9 0 0 1-1 0h-.1l-.53-.1a7.21 7.21 0 0 1-.82-.23l-.13-.05-.45-.22a7.25 7.25 0 0 1-.72-.4l-.19-.14-.29-.24a8.15 8.15 0 0 1-1.19-1.32l-.25-.36-.13-.2q-.22-.38-.4-.78a11.81 11.81 0 0 1-.65-1.81 13.71 13.71 0 0 1-.36-1.88v-.31-.5-1.1a17.1 17.1 0 0 1 .18-2.15c0-.35.11-.7.18-1 0-.17.08-.35.12-.52l.06-.24v-.08a17.52 17.52 0 0 1 1.72-4.24l.12-.18.31-.46c.23-.33.47-.65.72-1s.48-.57.73-.84l.09-.09.48-.45c.31-.28.63-.54 1-.79l.21-.19.53-.34c.36-.23.74-.43 1.12-.62l.18-.09.66-.27c.41-.16.83-.29 1.25-.41l.34-.08.75-.15c.43-.08.87-.13 1.31-.18h1.43q.73 0 1.45.05h.45l.62.09c.4.07.79.16 1.17.27l.54.17.27.11a8.3 8.3 0 0 1 .91.46l.41.26.2.14A6.58 6.58 0 0 1 25 5.87l.15.23.15.27a6.89 6.89 0 0 1 .37.88 7.91 7.91 0 0 1 .24.86c0 .15.06.3.08.45v.23A12.51 12.51 0 0 1 25.6 13zm-7.45 8h-1.68v-9.06h1.67zm-4.23 0h-1.87v-9h1.88zM9.4 6.43c-.36 0 .1 1.38.14 1.45A4.82 4.82 0 0 0 11.16 9l7.71-.08c.36 0 1.67-.11 1.63-.65 0-.19.14-1.76-.11-1.9z" id="Isolation_Mode" data-name="Isolation Mode"/>
    </g>
  </symbol>
  <symbol id="map-marker" viewBox="0 0 30 30">
    
      <path d="M15.5821 10.9431C14.7038 15.5538 11.636 20.3277 8.60905 23.9498C8.33851 24.2737 8.05629 24.5887 7.76977 24.8995C7.7304 24.9426 7.70117 24.9746 7.677 25.0015C7.66569 25.0122 7.6579 25.0199 7.64503 25.0326C7.60293 25.0738 7.5581 25.1123 7.51561 25.1523C6.37306 22.4561 5.49208 19.6249 4.85356 16.7867C4.31562 14.3979 3.98349 11.7532 4.34329 9.41595C4.53976 8.1392 4.64501 7.92609 5.19894 7.05673C5.08121 7.24253 5.48117 6.78553 5.77197 6.54626C6.08967 6.28507 6.63541 6.02195 7.16088 5.83807C9.44832 5.03949 12.6331 4.89177 14.6637 6.38816C16.0877 7.43756 15.8635 9.46711 15.5821 10.9431M19.9464 6.07157C19.389 0.0217714 12.7785 -0.965692 7.83643 0.759965C1.77948 2.8753 -0.317732 9.32593 0.0381694 15.1411C0.345344 20.1573 1.89798 25.2961 4.01858 29.8657C4.07198 30.497 4.40683 30.9555 5.13852 30.9959C7.00379 31.0982 8.6032 29.2695 9.76134 28.0681C11.5638 26.1994 13.0623 24.014 14.4567 21.8421C17.3179 17.386 20.4493 11.5297 19.9464 6.07157"/>
	   <path transform="translate(8 8)" d="M2.52578 0C5.06541 0 4.06694 5 1.4808 5C-1.10535 5 -0.0138515 2.77556e-16 2.52578 0Z"/>
  </symbol>
  <symbol id="menu" viewBox="0 0 30 30">
    
      <defs>
		<clipPath id="clip_0">
			<rect x="0.00036621094" y="0.74081612" width="26.531481" height="4.070117" clip-rule="evenodd"/>
		</clipPath>
	</defs>
	<g clip-path="url(#clip_0)">
		<path stroke="none" transform="translate(0.000366211 0.740702)" d="M24.1127 0.177225C20.3179 -0.154627 4.59719 0.0379655 0.784593 0.279447C-0.143555 0.337965 -0.119111 1.52167 0.200148 2.25797C0.598667 3.17648 1.50163 4.12685 2.43126 4.0676C6.24311 3.82611 21.9639 3.63426 25.7587 3.96611C26.7142 4.04834 26.6187 2.62241 26.3431 1.98685C25.9024 0.971299 25.0705 0.260188 24.1127 0.177225"/>
	</g>
	<defs>
		<clipPath id="clip_1">
			<rect x="0.00036621094" y="8.1481056" width="26.531481" height="4.0702305" clip-rule="evenodd"/>
		</clipPath>
	</defs>
	<g clip-path="url(#clip_1)">
		<path stroke="none" transform="translate(0.000366211 8.14811)" d="M24.1127 0.177225C20.3179 -0.154627 4.59719 0.0379655 0.784593 0.279447C-0.143555 0.337965 -0.119111 1.52167 0.200148 2.25797C0.598667 3.17648 1.50163 4.12685 2.43126 4.0676C6.24311 3.82611 21.9639 3.63426 25.7587 3.96611C26.7142 4.04834 26.6187 2.62241 26.3431 1.98685C25.9024 0.971299 25.0705 0.260188 24.1127 0.177225"/>
	</g>
	<defs>
		<clipPath id="clip_2">
			<rect x="0.00036621094" y="15.555515" width="26.531481" height="4.0702305" clip-rule="evenodd"/>
		</clipPath>
	</defs>
	<g clip-path="url(#clip_2)">
		<path stroke="none" transform="translate(0.000366211 15.5555)" d="M24.1127 0.177225C20.3179 -0.154627 4.59719 0.0379655 0.784593 0.279447C-0.143555 0.337965 -0.119111 1.52167 0.200148 2.25797C0.598667 3.17648 1.50163 4.12685 2.43126 4.0676C6.24311 3.82611 21.9639 3.63426 25.7587 3.96611C26.7142 4.04834 26.6187 2.62241 26.3431 1.98685C25.9024 0.971299 25.0705 0.260188 24.1127 0.177225"/>
	</g>
  </symbol>
  
  <symbol id="close" viewBox="0 0 30 30">
   <defs>
		<clipPath id="clip_0">
			<rect x="-1174" y="-375" width="1440" height="2317" clip-rule="evenodd"/>
		</clipPath>
	</defs>
	<g clip-path="url(#clip_0)">
		<path stroke="none" d="M24.1579 16.4626C21.9635 14.6876 19.7375 12.9501 17.5033 11.2228C19.3765 9.40902 21.2408 7.58786 23.0704 5.73333C24.1878 4.601 25.1797 2.10267 24.1164 0.66673C22.9493 -0.908037 20.929 0.680507 20.0178 1.60407C17.8543 3.79666 15.6428 5.94421 13.4234 8.08435C10.6192 5.94315 7.80823 3.81044 5.01611 1.65493C2.49158 -0.29392 -1.86247 6.42904 0.869388 8.53791C3.10806 10.2663 5.35835 11.9805 7.60808 13.6951C5.70667 15.5359 3.81356 17.3841 1.95638 19.2667C0.838979 20.399 -0.152916 22.8973 0.910302 24.3333C2.07691 25.908 4.09775 24.3195 5.00892 23.3959C7.20281 21.1726 9.44646 18.9949 11.6967 16.8256C14.4916 18.971 17.2744 21.1318 20.0112 23.3456C22.4638 25.3294 26.8428 18.6351 24.1579 16.4626"/>
	</g>
  </symbol>
  
  <symbol id="error_404" viewBox="0 0 30 30">
   	<defs>
		<clipPath id="clip_0">
			<rect x="-136" y="-114" width="654" height="894" clip-rule="evenodd"/>
		</clipPath>
	</defs>
	<g clip-path="url(#clip_0)">
		<path fill="rgb(242,240,240)" stroke="none" transform="translate(106 9)" d="M160.257 51.2179C159.918 52.5719 159.548 53.9192 159.171 55.2637C158.873 56.2493 158.561 57.2299 158.246 58.2111C156.003 65.201 153.319 72.058 150.427 78.8238C133.249 119.019 108.324 156.227 82.2343 191.562C78.1134 197.144 73.9234 202.679 69.6798 208.177C69.0252 206.731 68.3647 205.288 67.7173 203.84C67.082 202.419 66.4531 200.996 65.8251 199.572C65.6257 199.12 65.4281 198.667 65.2295 198.215C59.2174 184.284 53.5932 170.196 48.4801 155.94C45.7677 148.379 43.2318 140.759 40.8862 133.087C39.7732 129.447 38.7224 125.791 37.7177 122.123C37.2214 120.318 36.7486 118.506 36.2839 116.693C36.264 116.615 36.241 116.526 36.2171 116.431C36.019 115.6 35.8205 114.769 35.6292 113.936C33.9956 106.855 32.6691 99.7062 31.7573 92.5066C31.3545 89.3266 31.0689 86.1344 30.8803 82.9358C30.8455 82.3411 30.8221 81.7451 30.7977 81.1495C30.7869 79.5827 30.823 78.015 30.8898 76.4491C31.0062 73.7339 31.2895 71.0268 31.7167 68.3414C31.9166 67.0843 32.1792 65.8377 32.4661 64.5977C32.4923 64.4864 32.5216 64.3764 32.5491 64.2654C32.666 63.8709 32.8058 63.4119 32.9047 63.1306C33.6518 60.9966 34.634 58.9455 35.798 56.9928C36.3506 56.0644 36.9832 55.1825 37.6437 54.3222C37.6644 54.2947 37.6892 54.2636 37.7131 54.2339C37.9888 53.9615 38.2703 53.6946 38.5546 53.4313C41.0775 51.0962 44.1445 49.2142 47.1781 47.5595C47.983 47.1213 48.8172 46.7371 49.6514 46.3557C49.8936 46.2448 50.5632 45.9941 50.9859 45.8331C52.3588 45.4449 53.7669 45.1834 55.1862 45.0107C55.8228 44.9336 57.3125 44.9936 58.0746 45.013C58.4865 45.0982 58.8957 45.1933 59.3008 45.3024C59.4714 45.5211 59.632 45.7321 59.7696 45.921C60.5587 47.3147 61.2805 48.7417 61.9762 50.1791C62.0534 50.3383 62.1237 50.483 62.1883 50.6147C62.6692 51.7978 63.1235 52.9908 63.5625 54.1888C64.5686 56.9297 65.4438 59.7152 66.251 62.5156C66.5275 63.4751 66.787 64.4399 67.0432 65.4057C67.2923 66.4955 67.5323 67.5871 67.7574 68.6818C68.0281 70.006 68.2862 71.3361 68.4919 72.6712C69.771 81.016 75.2408 89.0926 82.0692 94.2903C86.8939 97.9618 93.706 100.897 98.067 95.2628C100.683 91.8817 103.346 88.5375 106.067 85.2339C107.36 83.6626 108.674 82.1076 109.995 80.5583C110.638 79.8045 111.289 79.0551 111.939 78.3058C112.125 78.0911 113.166 76.9184 113.608 76.417C118.383 71.1089 123.372 65.9752 128.595 61.0687C136.756 53.4011 145.64 46.1636 155.641 40.7824C157.454 39.8067 159.321 38.9248 161.225 38.124C161.547 37.9888 162.143 37.7656 162.646 37.5789C162.726 37.555 162.804 37.5271 162.883 37.5036C162.645 39.4464 162.343 41.3825 161.995 43.3055C161.516 45.9616 160.913 48.5974 160.257 51.2179M38.3506 53.4795C38.5329 53.2721 38.5979 53.2036 38.3506 53.4795M163.014 26.518C163.023 26.5707 163.032 26.6235 163.041 26.6762C163.042 26.6812 163.042 26.6861 163.042 26.6911C162.359 25.5977 162.581 25.8453 163.014 26.518M152.197 6.0022e-05C143.893 -0.0179751 135.393 4.03136 128.437 8.02794C118.202 13.9096 109.192 21.7211 100.832 29.8161C95.4868 34.9922 90.3823 40.4082 85.4701 45.9833C80.094 35.7664 73.1272 26.4373 64.306 18.8733C57.4971 13.0354 49.3793 9.49599 40.3177 8.84222C32.7603 8.29666 25.1753 11.5606 18.9935 15.4607C8.10244 22.3325 3.16673 33.0232 1.1207 45.0238C-1.17752 58.5073 0.410123 72.8186 2.7282 86.202C5.56826 102.594 10.0862 118.771 15.2281 134.627C24.5288 163.307 36.3524 191.271 49.091 218.693C52.2243 225.438 55.4186 232.167 58.7946 238.806C59.318 239.924 59.9013 241.019 60.5411 242.084C64.5609 248.886 72.5754 257.876 81.1032 256.931C84.0002 256.611 85.6054 255.163 86.3764 253.17C117.232 214.481 146.402 173.951 168.904 130.185C176.174 116.044 182.686 101.46 187.461 86.3584C190.92 75.4179 193.979 64.0499 194 52.5413C194.042 29.6525 179.686 0.0582232 152.197 6.0022e-05"/>
	</g>
	<defs>
		<clipPath id="clip_1">
			<rect x="-136" y="-114" width="654" height="894" clip-rule="evenodd"/>
		</clipPath>
	</defs>
	<g clip-path="url(#clip_1)">
		<path fill="rgb(0,0,0)" stroke="none" transform="translate(0 20)" d="M139.858 169.35L163 169.35L163 126.977L139.858 126.977L139.858 0L87.3933 0L0 127.695L0 169.35L83.7998 169.35L83.7998 210L139.858 210L139.858 169.35ZM83.7998 102.558L83.7998 126.977L49.1587 126.977L72.4444 92.3598C76.565 85.9439 80.2542 79.0493 83.5123 71.6758L85.0935 71.6758C84.9018 72.0588 84.6383 76.1525 84.3029 83.9569C83.9675 91.7613 83.7998 97.9617 83.7998 102.558Z" fill-rule="evenodd"/>
	</g>
	<defs>
		<clipPath id="clip_2">
			<rect x="-136" y="-114" width="654" height="894" clip-rule="evenodd"/>
		</clipPath>
	</defs>
	<g clip-path="url(#clip_2)">
		<path fill="rgb(0,0,0)" stroke="none" transform="translate(221 20)" d="M139.858 169.35L163 169.35L163 126.977L139.858 126.977L139.858 0L87.3933 0L0 127.695L0 169.35L83.7998 169.35L83.7998 210L139.858 210L139.858 169.35ZM83.7998 102.558L83.7998 126.977L49.1587 126.977L72.4444 92.3598C76.565 85.9439 80.2542 79.0493 83.5123 71.6758L85.0935 71.6758C84.9018 72.0588 84.6383 76.1525 84.3029 83.9569C83.9675 91.7613 83.7998 97.9617 83.7998 102.558Z" fill-rule="evenodd"/>
	</g>
	<defs>
		<clipPath id="clip_3">
			<rect x="-136" y="-114" width="654" height="894" clip-rule="evenodd"/>
		</clipPath>
	</defs>
	<g clip-path="url(#clip_3)">
		<path fill="rgb(241,221,222)" stroke="none" transform="translate(97 0)" d="M160.257 51.2179C159.918 52.5719 159.548 53.9192 159.171 55.2637C158.873 56.2493 158.561 57.2299 158.246 58.2111C156.003 65.201 153.319 72.058 150.427 78.8238C133.249 119.019 108.324 156.227 82.2343 191.562C78.1134 197.144 73.9234 202.679 69.6798 208.177C69.0252 206.731 68.3647 205.288 67.7173 203.84C67.082 202.419 66.4531 200.996 65.8251 199.572C65.6257 199.12 65.4281 198.667 65.2295 198.215C59.2174 184.284 53.5932 170.196 48.4801 155.94C45.7677 148.379 43.2318 140.759 40.8862 133.087C39.7732 129.447 38.7224 125.791 37.7177 122.123C37.2214 120.318 36.7486 118.506 36.2839 116.693C36.264 116.615 36.241 116.526 36.2171 116.431C36.019 115.6 35.8205 114.769 35.6292 113.936C33.9956 106.855 32.6691 99.7062 31.7573 92.5066C31.3545 89.3266 31.0689 86.1344 30.8803 82.9358C30.8455 82.3411 30.8221 81.7451 30.7977 81.1495C30.7869 79.5827 30.823 78.015 30.8898 76.4491C31.0062 73.7339 31.2895 71.0268 31.7167 68.3414C31.9166 67.0843 32.1792 65.8377 32.4661 64.5977C32.4923 64.4864 32.5216 64.3764 32.5491 64.2654C32.666 63.8709 32.8058 63.4119 32.9047 63.1306C33.6518 60.9966 34.634 58.9455 35.798 56.9928C36.3506 56.0644 36.9832 55.1825 37.6437 54.3222C37.6644 54.2947 37.6892 54.2636 37.7131 54.2339C37.9888 53.9615 38.2703 53.6946 38.5546 53.4313C41.0775 51.0962 44.1445 49.2142 47.1781 47.5595C47.983 47.1213 48.8172 46.7371 49.6514 46.3557C49.8936 46.2448 50.5632 45.9941 50.9859 45.8331C52.3588 45.4449 53.7669 45.1834 55.1862 45.0107C55.8228 44.9336 57.3125 44.9936 58.0746 45.013C58.4865 45.0982 58.8957 45.1933 59.3008 45.3024C59.4714 45.5211 59.632 45.7321 59.7696 45.921C60.5587 47.3147 61.2805 48.7417 61.9762 50.1791C62.0534 50.3383 62.1237 50.483 62.1883 50.6147C62.6692 51.7978 63.1235 52.9908 63.5625 54.1888C64.5686 56.9297 65.4438 59.7152 66.251 62.5156C66.5275 63.4751 66.787 64.4399 67.0432 65.4057C67.2923 66.4955 67.5323 67.5871 67.7574 68.6818C68.0281 70.006 68.2862 71.3361 68.4919 72.6712C69.771 81.016 75.2408 89.0926 82.0692 94.2903C86.8939 97.9618 93.706 100.897 98.067 95.2628C100.683 91.8817 103.346 88.5375 106.067 85.2339C107.36 83.6626 108.674 82.1076 109.995 80.5583C110.638 79.8045 111.289 79.0551 111.939 78.3058C112.125 78.0911 113.166 76.9184 113.608 76.417C118.383 71.1089 123.372 65.9752 128.595 61.0687C136.756 53.4011 145.64 46.1636 155.641 40.7824C157.454 39.8067 159.321 38.9248 161.225 38.124C161.547 37.9888 162.143 37.7656 162.646 37.5789C162.726 37.555 162.804 37.5271 162.883 37.5036C162.645 39.4464 162.343 41.3825 161.995 43.3055C161.516 45.9616 160.913 48.5974 160.257 51.2179M38.3506 53.4795C38.5329 53.2721 38.5979 53.2036 38.3506 53.4795M163.014 26.518C163.023 26.5707 163.032 26.6235 163.041 26.6762C163.042 26.6812 163.042 26.6861 163.042 26.6911C162.359 25.5977 162.581 25.8453 163.014 26.518M152.197 6.0022e-05C143.893 -0.0179751 135.393 4.03136 128.437 8.02794C118.202 13.9096 109.192 21.7211 100.832 29.8161C95.4868 34.9922 90.3823 40.4082 85.4701 45.9833C80.094 35.7664 73.1272 26.4373 64.306 18.8733C57.4971 13.0354 49.3793 9.49599 40.3177 8.84222C32.7603 8.29666 25.1753 11.5606 18.9935 15.4607C8.10244 22.3325 3.16673 33.0232 1.1207 45.0238C-1.17752 58.5073 0.410123 72.8186 2.7282 86.202C5.56826 102.594 10.0862 118.771 15.2281 134.627C24.5288 163.307 36.3524 191.271 49.091 218.693C52.2243 225.438 55.4186 232.167 58.7946 238.806C59.318 239.924 59.9013 241.019 60.5411 242.084C64.5609 248.886 72.5754 257.876 81.1032 256.931C84.0002 256.611 85.6054 255.163 86.3764 253.17C117.232 214.481 146.402 173.951 168.904 130.185C176.174 116.044 182.686 101.46 187.461 86.3584C190.92 75.4179 193.979 64.0499 194 52.5413C194.042 29.6525 179.686 0.0582232 152.197 6.0022e-05"/>
	</g>
  </symbol>
  
</svg>