<svg width="18" height="18" viewBox="0 0 18 18" fill="none" xmlns="http://www.w3.org/2000/svg">
<path d="M8.15451 2.83869C8.54694 2.21735 9.45306 2.21735 9.84549 2.83869L17.0312 14.216C17.4517 14.8819 16.9732 15.75 16.1857 15.75H1.81433C1.02677 15.75 0.548289 14.8819 0.968838 14.216L8.15451 2.83869Z" fill="#FF6A6A"/>
<path d="M9 5.625C8.37868 5.625 7.875 6.09905 7.875 6.68382V9.86029C7.875 10.4451 8.37868 10.9191 9 10.9191C9.62132 10.9191 10.125 10.4451 10.125 9.86029V6.68382C10.125 6.09905 9.62132 5.625 9 5.625Z" fill="white"/>
<path d="M9 12.5074C8.37868 12.5074 7.875 12.9814 7.875 13.5662C7.875 14.1509 8.37868 14.625 9 14.625C9.62132 14.625 10.125 14.1509 10.125 13.5662C10.125 12.9814 9.62132 12.5074 9 12.5074Z" fill="white"/>
</svg>
