<svg width="14" height="14" viewBox="0 0 28 28" fill="none" xmlns="http://www.w3.org/2000/svg">
<path fill-rule="evenodd" clip-rule="evenodd" d="M2 7C2 6.44772 2.44772 6 3 6H13V4H1C0.447715 4 0 4.44772 0 5V27C0 27.5523 0.447716 28 1 28H23C23.5523 28 24 27.5523 24 27V15H22V25C22 25.5523 21.5523 26 21 26H3C2.44772 26 2 25.5523 2 25V7Z" fill="#006CE8"/>
<path d="M11.2929 15.2929C10.9024 15.6834 10.9024 16.3166 11.2929 16.7071C11.6834 17.0976 12.3166 17.0976 12.7071 16.7071L11.2929 15.2929ZM28 0L16.8464 2.98858L25.0114 11.1536L28 0ZM12.7071 16.7071L22.3431 7.07107L20.9289 5.65685L11.2929 15.2929L12.7071 16.7071Z" fill="#006CE8"/>
</svg>
