<svg width="20" height="20" viewBox="0 0 20 20" fill="none" xmlns="http://www.w3.org/2000/svg">
<path d="M9.15451 3.00532C9.54694 2.38398 10.4531 2.38397 10.8455 3.00532L19.0312 15.966C19.4517 16.6318 18.9732 17.5 18.1857 17.5H1.81433C1.02677 17.5 0.548289 16.6318 0.968838 15.966L9.15451 3.00532Z" fill="#27AE60"/>
<path d="M9.24382 14.6618C8.9919 14.9015 8.62646 14.8834 8.39289 14.6195L6.44574 12.4197C6.23171 12.1779 6.18805 11.7958 6.3403 11.4968L6.36417 11.4499C6.57263 11.0405 7.05055 10.9591 7.35027 11.282L8.39289 12.5C8.75 12.9166 8.75 12.9166 9.24382 12.5L12.6172 9.32781C12.8646 9.09971 13.217 9.11528 13.4489 9.36455L13.5427 9.46534C13.8305 9.77471 13.8167 10.3105 13.5134 10.5991L9.24382 14.6618Z" fill="white"/>
</svg>
