<svg width="20" height="20" viewBox="0 0 20 20" fill="none" xmlns="http://www.w3.org/2000/svg">
<path fill-rule="evenodd" clip-rule="evenodd" d="M10 20C15.5228 20 20 15.5228 20 10C20 4.47715 15.5228 0 10 0C4.47715 0 0 4.47715 0 10C0 15.5228 4.47715 20 10 20ZM9.00897 14.0255C8.67833 14.3132 8.19869 14.2914 7.89212 13.9747L5.3365 11.3349C5.05558 11.0448 4.99828 10.5862 5.19811 10.2274L5.22943 10.1712C5.50305 9.67994 6.13031 9.58228 6.52369 9.96969L7.90119 11.3263C8.20552 11.626 8.66851 11.6449 8.99341 11.371L13.4366 7.62469C13.7612 7.35097 14.2238 7.36965 14.5281 7.66879L14.6512 7.78973C15.029 8.16098 15.0108 8.80395 14.6128 9.1502L9.00897 14.0255Z" fill="#27AE60"/>
</svg>
