<svg width="42" height="42" viewBox="0 0 42 42" fill="none" xmlns="http://www.w3.org/2000/svg">
<g opacity="0.5">
<circle cx="21" cy="21" r="20.5" stroke="white"/>
<path d="M32.1926 32.0524H9.818C9.53208 32.0504 9.24961 31.99 8.98796 31.875C8.7263 31.76 8.491 31.5929 8.29651 31.3839C8.10202 31.1749 7.95246 30.9284 7.85703 30.6597C7.7616 30.3909 7.72231 30.1055 7.74158 29.821C7.74555 28.7298 8.05895 27.6619 8.6456 26.7408C9.23225 25.8196 10.0682 25.0827 11.057 24.6151C11.3072 24.5042 12.1146 24.2314 12.9688 23.9386L13.0255 23.9197H13.0344H13.0433H13.0533L13.1 23.9031H13.11C14.1933 23.5316 15.3121 23.1478 15.4456 23.058C16.0467 22.655 16.5094 22.0778 16.7713 21.4044C17.1243 20.5656 17.321 19.6696 17.3518 18.7604C17.3079 18.7151 17.2792 18.6574 17.2695 18.5952C16.8568 17.6758 16.4978 16.7334 16.1941 15.7726C15.8366 14.1672 15.6134 12.535 15.5268 10.8928C15.4743 10.2014 15.5669 9.50673 15.7986 8.85301C16.0303 8.19929 16.3961 7.60089 16.8727 7.09596C17.3492 6.59104 17.926 6.19067 18.5663 5.92038C19.2066 5.65009 19.8963 5.51581 20.5916 5.52611H21.3378C22.1843 5.50577 23.0211 5.70906 23.7633 6.11537C24.5056 6.52168 25.1268 7.11654 25.5641 7.83959C26.0658 8.78037 26.3224 9.83178 26.3103 10.8973C26.2709 12.5436 26.0471 14.1803 25.643 15.7771C25.3572 16.6048 24.9976 17.4054 24.5687 18.1693C24.4999 18.2761 24.4382 18.3872 24.3841 18.502L24.3785 18.5131L24.3729 18.5242C24.338 18.6064 24.2924 18.6835 24.2373 18.7538C24.2373 18.7804 24.2829 21.5397 25.8121 22.885C27.1972 23.5704 28.6641 24.0776 30.1773 24.3944C30.5507 24.478 30.9194 24.5813 31.2817 24.7038C32.2166 25.2076 32.9914 25.9621 33.5185 26.8821C34.0457 27.8021 34.3041 28.8509 34.2646 29.9097C34.2757 30.1879 34.2303 30.4654 34.1311 30.7257C34.032 30.9859 33.8811 31.2234 33.6876 31.4241C33.4941 31.6247 33.2619 31.7843 33.005 31.8932C32.7481 32.0022 32.4718 32.0582 32.1926 32.058V32.0524ZM25.7287 23.8721C24.8411 24.5317 23.8251 24.999 22.7458 25.244L22.0785 28.0044L23.1395 31.2273H32.2071C32.3661 31.2273 32.5235 31.1945 32.6692 31.131C32.815 31.0675 32.9459 30.9746 33.0539 30.8581C33.1619 30.7417 33.2446 30.6042 33.2968 30.4543C33.3489 30.3045 33.3695 30.1455 33.357 29.9874C33.3175 29.1022 33.0723 28.2384 32.6407 27.4639C32.2092 26.6894 31.6031 26.0255 30.8702 25.5245C30.4176 25.371 29.9545 25.2501 29.4845 25.163C28.8867 25.0495 28.2976 24.8942 27.7217 24.6983C27.5704 24.6229 27.1556 24.4599 26.7541 24.3013C26.4048 24.1761 26.0626 24.0325 25.7287 23.8709V23.8721ZM20.8985 28.0033L19.5061 31.2262H22.2654L21.1988 28.0033H20.8985ZM15.7826 23.8721C15.1102 24.1681 14.4178 24.4168 13.7106 24.6162C12.9238 24.8524 12.1495 25.1282 11.3906 25.4425C10.6067 25.9178 9.94433 26.5683 9.45565 27.3426C8.96696 28.1169 8.66535 28.9938 8.5746 29.9042C8.56702 30.243 8.69301 30.5713 8.92551 30.8185C9.158 31.0656 9.47845 31.212 9.818 31.2262H18.6041L20.0043 27.9789L19.4193 25.3094C18.1174 25.1019 16.8777 24.6096 15.7892 23.8676L15.7826 23.8721ZM20.1745 25.4425L20.5082 27.177H21.5035L21.8372 25.4425H20.1745ZM18.1048 19.6565C17.9987 20.3932 17.8053 21.1147 17.5287 21.8059C17.3807 22.118 17.2147 22.4213 17.0315 22.7142C16.9437 22.8058 16.8609 22.902 16.7835 23.0026C16.7051 23.1036 16.6216 23.2006 16.5333 23.2931C17.8856 24.1117 19.4274 24.5672 21.0086 24.6151C22.4112 24.5831 23.7808 24.1842 24.9802 23.4584C23.9358 22.1688 23.3526 20.5686 23.3231 18.9113C23.328 18.8223 23.3589 18.7367 23.412 18.6651V18.654C23.4732 18.5431 23.5755 18.3534 23.7257 18.0163C24.1299 17.3069 24.463 16.5595 24.7199 15.7848C24.9987 14.444 25.197 13.0878 25.3138 11.7235C24.2911 11.1528 23.4346 10.3269 22.8281 9.32683C22.8274 9.31093 22.8233 9.29537 22.816 9.28121C22.8087 9.26705 22.7984 9.25462 22.7859 9.24476C22.7733 9.23491 22.7631 9.22248 22.7558 9.20832C22.7485 9.19416 22.7443 9.1786 22.7436 9.16269C21.31 11.0714 18.3917 11.4762 16.1941 11.4762C16.302 12.8966 16.5252 14.306 16.8614 15.6906C17.1707 16.5912 17.5301 17.4739 17.9379 18.3346C18.2097 18.7318 18.5746 19.0567 19.0011 19.2811C19.4275 19.5056 19.9025 19.6226 20.3847 19.6222C20.6799 19.6226 20.9735 19.5785 21.2555 19.4913C21.2854 19.4844 21.316 19.481 21.3467 19.4813C21.4523 19.4814 21.554 19.5209 21.6319 19.5919C21.7097 19.663 21.7581 19.7606 21.7674 19.8655C21.7768 19.9703 21.7464 20.0749 21.6823 20.1585C21.6183 20.2422 21.5251 20.2989 21.4212 20.3175C21.148 20.3743 20.8696 20.4029 20.5905 20.4029C20.5137 20.4029 20.467 20.4029 20.4259 20.4029C19.5937 20.3975 18.7833 20.137 18.1048 19.6565ZM22.7447 7.92277C23.0005 7.92277 23.1674 8.09911 23.5744 8.66695C24.0685 9.42342 24.6844 10.0934 25.3972 10.6499C25.4308 10.0948 25.3473 9.53872 25.152 9.01773C24.9568 8.49674 24.6541 8.02236 24.2636 7.62523C23.8731 7.2281 23.4035 6.91703 22.885 6.71211C22.3664 6.50719 21.8106 6.41297 21.2533 6.43553H20.4203C19.3383 6.43449 18.2995 6.85843 17.5287 7.61556C17.1355 8.00084 16.8229 8.46006 16.6089 8.96663C16.3948 9.4732 16.2837 10.0171 16.2819 10.5668H16.2875C18.0925 10.5668 21.2922 10.2551 22.4133 8.1712L22.4344 8.12795L22.4422 8.10909C22.5012 7.98488 22.5334 7.92277 22.7447 7.92277Z" fill="white"/>
</g>
</svg>
