<svg width="13" height="20" viewBox="0 0 13 20" xmlns="http://www.w3.org/2000/svg"><title>параметры_экран</title><g fill="none" fill-rule="evenodd"><path d="M1 1.99v16.02a1 1 0 0 0 1.003.99h8.994A.995.995 0 0 0 12 18.01V1.99A1 1 0 0 0 10.997 1H2.003A.995.995 0 0 0 1 1.99zm-1 0C0 .892.894 0 2.003 0h8.994C12.103 0 13 .898 13 1.99v16.02c0 1.099-.894 1.99-2.003 1.99H2.003A2.001 2.001 0 0 1 0 18.01V1.99z" fill="#FFF" fill-rule="nonzero"/><rect fill-opacity=".3" fill="#CBCACB" x="6" y="17" width="1" height="1" rx=".5"/><rect fill-opacity=".3" fill="#CBCACB" x="2" y="2" width="9" height="14" rx="1"/></g></svg>