<svg width="16" height="15" viewBox="0 0 16 15" xmlns="http://www.w3.org/2000/svg"><title>Group 30</title><g fill="#FFF" fill-rule="evenodd"><path d="M2 4H.52a.5.5 0 0 0 0 1H2V4zm11 0h2.144a.5.5 0 1 1 0 1H13V4zM2 7H.52a.5.5 0 0 0 0 1H2V7zm11 0h2a.5.5 0 1 1 0 1h-2V7zM2 10H.52a.5.5 0 1 0 0 1H2v-1zm11 0h2.144a.5.5 0 1 1 0 1H13v-1zm-2-8V.5a.5.5 0 1 0-1 0V2h1zm0 11v1.533a.5.5 0 1 1-1 0V13h1zM8 2V.5a.5.5 0 0 0-1 0V2h1zm0 11v1.533a.5.5 0 1 1-1 0V13h1zM5 2V.5a.5.5 0 0 0-1 0V2h1zm0 11v1.533a.5.5 0 1 1-1 0V13h1z" fill-rule="nonzero"/><path d="M11.317 2.421H3.683c-.695 0-1.262.569-1.262 1.269v7.436c0 .699.567 1.269 1.262 1.269h7.634c.695 0 1.262-.569 1.262-1.27V3.69c0-.699-.567-1.269-1.262-1.269zm0-.842a2.11 2.11 0 0 1 2.104 2.111v7.436a2.11 2.11 0 0 1-2.104 2.11H3.683a2.11 2.11 0 0 1-2.104-2.11V3.69a2.11 2.11 0 0 1 2.104-2.111h7.634z" fill-rule="nonzero"/><rect x="8" y="9" width="1.684" height="1.733" rx=".842"/></g></svg>