<svg width="27" height="28" viewBox="67 1277 27 28" xmlns="http://www.w3.org/2000/svg"><g fill="none" fill-rule="evenodd" transform="translate(68.535 1278.75)"><ellipse stroke="#FFF" stroke-width="1.68" cx="11.97" cy="12.16" rx="11.97" ry="12.16"/><path d="M9.448 8.392c0-.992.768-1.76 2.112-1.872v3.856c-1.776-.368-2.112-.976-2.112-1.984zm5.296 5.472c0 1.184-.96 2.048-2.24 2.176v-4.288c1.744.368 2.24.928 2.24 2.112zM11.56 19.16h.944v-2.032c2.08-.128 3.568-1.536 3.568-3.36 0-2.064-1.216-2.816-3.568-3.232v-4c1.184.16 1.84.8 2.08 2.032h1.248c-.208-1.856-1.408-2.944-3.328-3.12V3.992h-.944v1.44c-2 .128-3.376 1.424-3.376 3.088 0 1.92 1.264 2.672 3.376 3.072v4.448c-1.952-.176-2.336-1.28-2.496-2.528H7.72c.192 1.84 1.104 3.424 3.84 3.616v2.032z" fill="#FFF"/></g></svg>