<svg width="15" height="16" viewBox="0 0 15 16" xmlns="http://www.w3.org/2000/svg"><title>Shape</title><path d="M6.529.267c-.27.016-.427.186-.519.383L5.6 2.092c-.261.088-.51.196-.753.316l-1.323-.733a.554.554 0 0 0-.645.092L1.507 3.133a.547.547 0 0 0-.084.634l.728 1.308a6.03 6.03 0 0 0-.318.758L.385 6.25A.549.549 0 0 0 0 6.758V8.7a.55.55 0 0 0 .385.517l1.448.408c.09.263.195.514.318.758l-.728 1.309a.547.547 0 0 0 .084.633l1.372 1.367a.554.554 0 0 0 .645.091l1.314-.725c.245.122.499.22.762.309l.41 1.441a.551.551 0 0 0 .519.392h1.942a.553.553 0 0 0 .519-.392l.41-1.441c.263-.089.517-.187.762-.309l1.314.725a.554.554 0 0 0 .645-.091l1.372-1.367a.547.547 0 0 0 .084-.633l-.728-1.309c.123-.244.229-.495.318-.758l1.448-.408A.55.55 0 0 0 15 8.7V6.758a.55.55 0 0 0-.385-.508l-1.448-.417a5.961 5.961 0 0 0-.318-.758l.728-1.308a.547.547 0 0 0-.084-.634l-1.372-1.366a.554.554 0 0 0-.645-.092l-1.323.733a5.947 5.947 0 0 0-.753-.316L8.99.65a.551.551 0 0 0-.519-.383H6.529zm.402 1.066h1.138l.369 1.292c.05.176.199.32.376.367.395.108.77.267 1.122.466.16.09.367.09.527 0l1.18-.658.804.8-.661 1.183a.542.542 0 0 0 .008.525c.2.35.352.724.46 1.117.052.176.2.32.377.367l1.298.375v1.125l-1.298.375a.545.545 0 0 0-.377.375c-.108.393-.26.758-.46 1.108a.542.542 0 0 0-.008.525l.661 1.183-.804.8-1.18-.658a.548.548 0 0 0-.527 0c-.352.2-.727.358-1.122.467a.545.545 0 0 0-.376.366l-.369 1.3H6.931l-.368-1.3a.545.545 0 0 0-.377-.366A4.914 4.914 0 0 1 5.064 12a.548.548 0 0 0-.527 0l-1.18.658-.804-.8.661-1.183a.542.542 0 0 0-.008-.525c-.2-.35-.352-.715-.46-1.108a.545.545 0 0 0-.377-.375L1.07 8.292V7.167l1.298-.375a.545.545 0 0 0 .377-.367c.108-.393.26-.767.46-1.117a.542.542 0 0 0 .008-.525L2.553 3.6l.804-.8 1.18.658c.16.09.367.09.527 0a4.913 4.913 0 0 1 1.122-.466.545.545 0 0 0 .376-.367l.369-1.292zm.569 3.2c-1.769 0-3.214 1.44-3.214 3.2 0 1.761 1.445 3.2 3.214 3.2s3.214-1.439 3.214-3.2c0-1.76-1.445-3.2-3.214-3.2zm0 1.067a2.13 2.13 0 0 1 2.143 2.133A2.13 2.13 0 0 1 7.5 9.867a2.13 2.13 0 0 1-2.143-2.134A2.13 2.13 0 0 1 7.5 5.6z" fill="#FFF" fill-rule="evenodd"/></svg>