<svg width="26" height="26" viewBox="0 0 26 26" fill="none" xmlns="http://www.w3.org/2000/svg">
<path d="M9.25776 6.16105H12.6522C13.4984 6.16105 14.1868 5.47257 14.1868 4.62636C14.1868 4.62016 14.1919 4.61514 14.198 4.61514H16.7416C18.0141 4.61514 19.0492 3.57998 19.0492 2.30757C19.0492 1.03516 18.0141 0 16.7416 0H13.0341C12.1879 0 11.4994 0.688432 11.4994 1.53464C11.4994 1.54083 11.4944 1.54586 11.4882 1.54586H9.25776C7.98536 1.54586 6.9502 2.58102 6.9502 3.85343C6.9502 5.12584 7.98531 6.16105 9.25776 6.16105Z" fill="#31ABC4"/>
<path d="M18.0469 10.7941H23.2802L23.1505 7.71582H18.1766L18.0469 10.7941Z" fill="#31ABC4"/>
<path d="M23.6748 20.1596L23.3444 12.3174H17.9827L17.6523 20.1596H15.3097C15.2343 19.1492 14.9958 18.1646 14.5979 17.2239L13.1602 13.8259C12.953 13.3361 12.7976 12.832 12.6945 12.3174H2.6412C2.53806 12.832 2.38272 13.3361 2.17549 13.8259L0.737841 17.2239C0.248266 18.3812 0 19.605 0 20.8616V25.9994H25.9996V20.1596H23.6748Z" fill="#31ABC4"/>
<path d="M12.543 10.7819V7.71582H2.79312V10.7819C2.79312 10.786 2.79297 10.79 2.79297 10.7941H12.5431C12.5431 10.7901 12.543 10.786 12.543 10.7819Z" fill="#31ABC4"/>
</svg>
