<svg width="28" height="28" viewBox="0 0 28 28" fill="none" xmlns="http://www.w3.org/2000/svg">
<path d="M8 27.4998V24.4991C8 24.2231 8.224 23.999 8.5 23.999H19.5C19.776 23.999 20 24.2231 20 24.4991V27.4998C20 27.7759 19.776 28 19.5 28H8.5C8.224 28 8 27.7759 8 27.4998Z" fill="#F2696D"/>
<path d="M15 21.4989V18.4982C15 18.2221 15.224 17.998 15.5 17.998H27.5C27.776 17.998 28 18.2221 28 18.4982V21.4989C28 21.7749 27.776 21.999 27.5 21.999H15.5C15.224 21.999 15 21.7749 15 21.4989Z" fill="#F2696D"/>
<path d="M22.5 23.999H28V28H22.5C22.224 28 22 27.7759 22 27.4998V24.4991C22 24.2231 22.224 23.999 22.5 23.999Z" fill="#F2696D"/>
<path d="M6 24.4991V27.4998C6 27.7759 5.776 28 5.5 28H0V23.999H5.5C5.776 23.999 6 24.2231 6 24.4991Z" fill="#F2696D"/>
<path d="M12.5 21.999H0.5C0.224 21.999 0 21.7749 0 21.4989V18.4982C0 18.2221 0.224 17.998 0.5 17.998H12.5C12.776 17.998 13 18.2221 13 18.4982V21.4989C13 21.7749 12.776 21.999 12.5 21.999Z" fill="#F2696D"/>
<path d="M6.0013 15.9972C5.1053 14.1635 5.0083 11.8946 5.0083 10.5946C5.0083 7.21517 8.71963 4.81728 9.92997 0.205873C9.97063 0.0505037 10.1413 -0.0435182 10.2886 0.0201632C12.6613 1.0434 13.9283 3.66234 15.2673 6.76607C15.3756 7.01712 15.714 7.07947 15.891 6.87109C16.892 5.69448 17.6786 4.27415 17.953 3.13155C17.9793 3.02153 18.0986 2.96551 18.2023 3.01086C21.8286 4.59423 22.9713 7.27185 22.994 9.93747C23.0063 11.3775 23.1063 13.5333 22.534 15.9972H20.0013C19.3533 13.556 18.3086 11.2955 17.13 10.0428C17.0596 9.96814 16.938 9.97348 16.8756 10.0552C16.3823 10.7006 15.62 12.141 15.158 12.9012C15.084 13.0229 14.912 13.0275 14.8286 12.9118C14.3026 12.1807 13.3756 10.8814 12.2533 10.0698C12.1063 9.96348 11.8986 9.97014 11.7586 10.0855C10.185 11.3818 9.40297 13.6757 9.0013 15.9972H6.0013Z" fill="#F2696D"/>
</svg>
