<svg width="4.4095mm" height="5.0199mm" version="1.1" viewBox="0 0 4.4095 5.0199" xmlns="http://www.w3.org/2000/svg">
 <g transform="translate(8.6516 -134.03)">
  <g transform="matrix(.26458 0 0 .26458 -18.218 144.83)" fill="none">
   <g transform="matrix(3.7795 0 0 3.7795 -53.546 -627.91)">
    <g transform="matrix(.26458 0 0 .26458 51.149 165.26)" fill="none">
     <g transform="matrix(3.7795,0,0,3.7795,-308.6,-672.95)">
      <g transform="matrix(.26458 0 0 .26458 51.149 165.26)">
       <g fill="#2b3250">
        <path d="m21.527 20.47-0.8502 0.4921v8.845l7.6562-4.4205v-8.8451z"/>
        <path d="m22.913 12.538-2.9445-1.7045-7.8688 4.5426 2.9484 1.7044z"/>
        <path d="m27.833 15.375-3.3932-1.9327-7.8649 4.5426 0.4487 0.2322 2.9445 1.7005 2.9286-1.6887z"/>
        <path d="m15.981 21.237-1.4092-0.7243v-2.2516l-2.9051-1.673v8.7821l7.6012 4.389v-8.782l-3.2869-1.8934z"/>
       </g>
      </g>
     </g>
    </g>
   </g>
  </g>
 </g>
</svg>
