<svg width="28" height="28" viewBox="0 0 28 28" fill="none" xmlns="http://www.w3.org/2000/svg">
<path d="M14 0C11.2311 0 8.52431 0.821086 6.22202 2.35943C3.91973 3.89776 2.12532 6.08427 1.06569 8.64243C0.00606596 11.2006 -0.271181 14.0155 0.269012 16.7313C0.809205 19.447 2.14258 21.9416 4.10051 23.8995C6.05844 25.8574 8.55301 27.1908 11.2687 27.731C13.9845 28.2712 16.7994 27.9939 19.3576 26.9343C21.9157 25.8747 24.1022 24.0803 25.6406 21.778C27.1789 19.4757 28 16.7689 28 14C28 10.287 26.525 6.72601 23.8995 4.1005C21.274 1.475 17.713 0 14 0ZM14 4.04C14.9889 4.04 15.9556 4.33324 16.7779 4.88265C17.6001 5.43206 18.241 6.21295 18.6194 7.12658C18.9978 8.04021 19.0969 9.04554 18.9039 10.0154C18.711 10.9854 18.2348 11.8763 17.5355 12.5755C16.8363 13.2748 15.9454 13.751 14.9755 13.9439C14.0056 14.1369 13.0002 14.0378 12.0866 13.6594C11.173 13.281 10.3921 12.6401 9.84266 11.8178C9.29325 10.9956 9 10.0289 9 9.04C8.99999 7.71824 9.52334 6.45024 10.4556 5.51327C11.3879 4.57631 12.6533 4.04661 13.975 4.04H14ZM20.55 21.54C18.7326 23.1152 16.405 23.977 14 23.965C11.6109 23.9621 9.30298 23.0975 7.5 21.53C7.27868 21.3348 7.10142 21.0948 6.98 20.8258C6.85859 20.5568 6.7958 20.2651 6.7958 19.97C6.7958 19.6749 6.85859 19.3832 6.98 19.1142C7.10142 18.8452 7.27868 18.6052 7.5 18.41C8.913 17.1845 10.6487 16.3913 12.5 16.125C12.613 16.1119 12.7276 16.1268 12.8335 16.1683C12.9395 16.2098 13.0336 16.2767 13.1077 16.3631C13.1817 16.4495 13.2334 16.5527 13.2582 16.6638C13.2831 16.7748 13.2802 16.8903 13.25 17L12.115 20.04C12.0788 20.1841 12.0809 20.3352 12.1213 20.4782C12.1616 20.6212 12.2388 20.7511 12.345 20.855L13.15 21.645C13.3762 21.867 13.6805 21.9914 13.9975 21.9914C14.3145 21.9914 14.6188 21.867 14.845 21.645L15.645 20.855C15.7491 20.7529 15.8246 20.6253 15.8641 20.485C15.9036 20.3446 15.9056 20.1964 15.87 20.055C15.625 19.08 15.055 18.305 14.73 17C14.6988 16.8885 14.6959 16.7709 14.7217 16.658C14.7475 16.5451 14.801 16.4405 14.8775 16.3535C14.954 16.2666 15.051 16.2001 15.1598 16.1602C15.2685 16.1203 15.3854 16.1082 15.5 16.125C17.3654 16.3839 19.1159 17.1776 20.54 18.41C20.7589 18.608 20.9331 18.8503 21.051 19.1209C21.169 19.3914 21.2281 19.6839 21.2243 19.979C21.2205 20.2741 21.154 20.5651 21.0291 20.8325C20.9042 21.0999 20.7239 21.3377 20.5 21.53L20.55 21.54Z" fill="#859DE0"/>
</svg>
