<svg width="6.8792mm" height="6.8792mm" version="1.1" viewBox="0 0 6.8792 6.8792" xmlns="http://www.w3.org/2000/svg">
 <g transform="translate(22.981 -182.66)">
  <g transform="matrix(.26458 0 0 .26458 -22.981 182.66)" fill="#1d2336">
   <path d="m0 9.4571c0-1.3068 1.0572-2.3662 2.3662-2.3662h14.177c1.3068 0 2.3662 1.0572 2.3662 2.3662v14.177c0 1.3068-1.0572 2.3662-2.3662 2.3662h-14.177c-1.3068 0-2.3662-1.0572-2.3662-2.3662zm10.636 2.3611h-2.3637v3.5454h-3.5455v2.3637h3.5455v3.5454h2.3637v-3.5454h3.5454v-2.3637h-3.5454zm13 7.0909c1.3054 0 2.3636-1.0609 2.3636-2.3636v-2.3637h-2.3636v2.3637h-2.3637v2.3636zm2.3636-16.545c0-1.3054-1.0609-2.3636-2.3636-2.3636h-2.3637v2.3636h2.3637v2.3636h2.3636zm-16.545-2.3636c-1.3054 0-2.3636 1.0609-2.3636 2.3636v2.3636h2.3636v-2.3636h2.3636v-2.3636zm4.7272 0h4.7273v2.3636h-4.7273zm9.4546 7.0909h2.3636v4.7273h-2.3636z" clip-rule="evenodd" fill="#1d2336" fill-rule="evenodd"/>
  </g>
 </g>
</svg>
