<svg width="78" height="56" viewBox="0 0 78 56" fill="none" xmlns="http://www.w3.org/2000/svg">
<circle opacity="0.2" cx="50" cy="28" r="27" fill="#20263E" stroke="#5A6487" stroke-width="2"/>
<circle opacity="0.5" cx="42" cy="28" r="27" fill="#20263E" stroke="#5A6487" stroke-width="2"/>
<circle cx="34" cy="28" r="27" fill="#161E35" stroke="#5A6487" stroke-width="2"/>
<circle cx="8" cy="28" r="6" fill="#5A6487" stroke="#161E35" stroke-width="4"/>
<path d="M32.5669 23.4H28.0469V26.8C28.6735 26.4667 29.2935 26.3 29.9069 26.3C30.9469 26.3 31.7869 26.6867 32.4269 27.46C33.0669 28.22 33.3869 29.2733 33.3869 30.62C33.3869 31.54 33.1935 32.3533 32.8069 33.06C32.4335 33.7667 31.9002 34.32 31.2069 34.72C30.5135 35.1067 29.7069 35.3 28.7869 35.3C27.9469 35.3 27.2135 35.14 26.5869 34.82C25.9602 34.4867 25.3869 34.02 24.8669 33.42L26.2869 32.12C26.6469 32.5333 27.0135 32.8467 27.3869 33.06C27.7735 33.26 28.2069 33.36 28.6869 33.36C29.3669 33.36 29.8935 33.1267 30.2669 32.66C30.6402 32.1933 30.8269 31.5133 30.8269 30.62C30.8269 28.9267 30.2135 28.08 28.9869 28.08C28.7202 28.08 28.4669 28.12 28.2269 28.2C27.9869 28.2667 27.7202 28.3867 27.4269 28.56H25.6869V21.54H32.8669L32.5669 23.4ZM39.7986 24.36V27.38H42.5186V29.36H39.7986V32.38H37.6986V29.36H34.9986V27.38H37.6986V24.36H39.7986Z" fill="white"/>
</svg>
