<svg xmlns="http://www.w3.org/2000/svg">
	<symbol id="menu">
		<path d="M1 0C0.447715 0 0 0.447715 0 1C0 1.55228 0.447715 2 1 2V0ZM18 2C18.5523 2 19 1.55228 19 1C19 0.447715 18.5523 0 18 0V2ZM1 6C0.447715 6 0 6.44772 0 7C0 7.55228 0.447715 8 1 8V6ZM18 8C18.5523 8 19 7.55228 19 7C19 6.44772 18.5523 6 18 6V8ZM1 12C0.447715 12 0 12.4477 0 13C0 13.5523 0.447715 14 1 14V12ZM18 14C18.5523 14 19 13.5523 19 13C19 12.4477 18.5523 12 18 12V14ZM1 2H18V0H1V2ZM1 8H18V6H1V8ZM1 14H18V12H1V14Z"/>
	</symbol>
	<symbol id="dropdown-arrow">
		<path d="M0.292893 1.70711C-0.0976311 1.31658 -0.0976311 0.683418 0.292893 0.292893C0.683417 -0.0976311 1.31658 -0.0976311 1.70711 0.292893L0.292893 1.70711ZM5 5L5.70711 5.70711L5 6.41421L4.29289 5.70711L5 5ZM8.29289 0.292893C8.68342 -0.0976312 9.31658 -0.0976312 9.70711 0.292893C10.0976 0.683417 10.0976 1.31658 9.70711 1.70711L8.29289 0.292893ZM1.70711 0.292893L5.70711 4.29289L4.29289 5.70711L0.292893 1.70711L1.70711 0.292893ZM4.29289 4.29289L8.29289 0.292893L9.70711 1.70711L5.70711 5.70711L4.29289 4.29289Z"/>
	</symbol>
	<symbol id="legend">
     <path d="m280.61 461.61c-4.6944 0-8.5 3.7534-8.5 8.3828 0 3.5664 2.2579 6.6114 5.4414 7.8223l-3.9414 2.7949 9.1875-2.5156c3.634-0.952 6.3125-4.2182 6.3125-8.1016 0-4.6294-3.8056-8.3828-8.5-8.3828zm0.0977 4.5039c0.544 0 1.0086 0.0914 1.3926 0.27539 0.38399 0.17601 0.67128 0.41671 0.86328 0.72071 0.192 0.296 0.28906 0.62065 0.28906 0.97265 0 0.328-0.056 0.60785-0.16797 0.83985-0.112 0.232-0.2482 0.4185-0.4082 0.5625-0.16 0.136-0.37272 0.29647-0.63672 0.48047-0.32 0.216-0.5607 0.41561-0.7207 0.59961-0.152 0.176-0.22657 0.40926-0.22657 0.69726v0.35938h-1.5723v-0.41993c0-0.36799 0.056-0.67954 0.16797-0.93554 0.12-0.256 0.25992-0.46128 0.41992-0.61328 0.168-0.152 0.37505-0.31052 0.62305-0.47852 0.25599-0.168 0.44073-0.31731 0.55273-0.44531 0.12-0.128 0.17969-0.29219 0.17969-0.49219 0-0.248-0.0839-0.4345-0.25196-0.5625-0.16-0.136-0.38387-0.20508-0.67187-0.20508-0.544 0-1.0328 0.25186-1.4648 0.75586l-1.1035-0.85156c0.352-0.408 0.75317-0.71955 1.2012-0.93555s0.95916-0.32422 1.5352-0.32422zm-0.38477 6.6367c0.288 0 0.53243 0.0988 0.73242 0.29883 0.20001 0.2 0.30079 0.4407 0.30079 0.7207s-0.10078 0.52443-0.30079 0.73243c-0.19999 0.2-0.44442 0.29882-0.73242 0.29882s-0.53047-0.0988-0.73047-0.29882c-0.192-0.2-0.28906-0.44443-0.28906-0.73243 0-0.28 0.0971-0.5207 0.28906-0.7207 0.2-0.2 0.44247-0.29883 0.73047-0.29883z" fill="#292c43"/>

	</symbol>
	<symbol id="plus">
		<path d="M21.4 18.0004V12.4004H18.4V18.0004H13V21.0004H18.4V26.4004H21.4V21.0004H27V18.0004H21.4Z"/>
	</symbol>
	<symbol id="minus">
		<path d="M13 18H27V21H13V18Z"/>
	</symbol>
	<symbol id="map">
		<path d="M10.6175 31.8423C10.8049 31.9481 11.0169 32.0024 11.232 31.9997C11.4471 31.9971 11.6577 31.9376 11.8425 31.8273L17.1949 28.6099L22.5623 31.8248C22.7511 31.9381 22.9671 31.9979 23.1873 31.9979C23.4074 31.9979 23.6235 31.9381 23.8123 31.8248L29.7997 28.2349C29.9796 28.1261 30.1284 27.9728 30.2317 27.7898C30.3351 27.6067 30.3895 27.4001 30.3897 27.1899V13.3301C30.3895 13.1146 30.3323 12.9031 30.2238 12.7169C30.1154 12.5307 29.9595 12.3766 29.7722 12.2701C29.5839 12.1673 29.3723 12.1147 29.1577 12.1173C28.9432 12.1199 28.7329 12.1777 28.5472 12.2851L23.1948 15.5001L21.0998 14.2501L20.2473 16.5776L22.0848 17.6801V28.6949L18.3349 26.4449V19.9625C17.921 20.2048 17.4518 20.3365 16.9724 20.345H16.9324C16.6547 20.3452 16.3784 20.3048 16.1124 20.225V26.4349L12.445 28.6324V17.6101L13.6249 16.9026L13.1424 15.7501L11.75 15.1776L10.59 15.8726C10.4101 15.9813 10.2613 16.1346 10.1579 16.3177C10.0546 16.5007 10.0002 16.7074 10 16.9176V30.7823C10.0001 30.9978 10.0574 31.2094 10.1658 31.3956C10.2743 31.5818 10.4301 31.7359 10.6175 31.8423ZM24.2998 17.6751L27.9447 15.4801V26.4999L24.2998 28.6949V17.6751Z" fill="#5A6487"/>
		<path d="M11.0496 12.7149L14.6845 14.2149L16.1845 17.8498C16.2446 17.9946 16.3468 18.118 16.4778 18.2041C16.6089 18.2901 16.7628 18.3348 16.9195 18.3323C17.0755 18.3309 17.2275 18.2824 17.3555 18.1932C17.4835 18.104 17.5816 17.9782 17.637 17.8323L20.8494 9.04748C20.9004 8.90783 20.9106 8.75653 20.8787 8.61131C20.8468 8.46609 20.7743 8.33296 20.6694 8.2275C20.5226 8.08157 20.324 7.99977 20.117 8C20.0257 7.9998 19.9351 8.01589 19.8495 8.0475L11.0796 11.2499C10.9337 11.3053 10.8079 11.4034 10.7187 11.5314C10.6295 11.6594 10.581 11.8114 10.5796 11.9674C10.5739 12.1248 10.6157 12.2802 10.6995 12.4135C10.7834 12.5468 10.9053 12.6518 11.0496 12.7149Z" fill="#5A6487"/>
	</symbol>
</svg>