<svg width="28" height="28" viewBox="0 0 28 28" fill="none" xmlns="http://www.w3.org/2000/svg">
<path d="M0.291636 16.6058L3.0126 11.8404L1.42319 10.9276C1.33738 10.8777 1.269 10.8026 1.22733 10.7124C1.18565 10.6223 1.17269 10.5216 1.19019 10.4238C1.2077 10.3261 1.25484 10.2361 1.3252 10.1661C1.39557 10.0961 1.48578 10.0493 1.58359 10.0323L6.86804 9.1428C7.23023 9.07906 7.60331 9.14385 7.92281 9.32596C8.2423 9.50807 8.48815 9.79608 8.61786 10.1402L10.4989 15.1651C10.5312 15.2576 10.5347 15.3578 10.5088 15.4524C10.4829 15.5469 10.429 15.6314 10.3541 15.6946C10.2791 15.7578 10.1868 15.7968 10.0893 15.8064C9.9917 15.816 9.89353 15.7958 9.80773 15.7484L8.22415 14.8297L6.83888 17.2445L0 17.2736C0.0696662 17.04 0.167603 16.8157 0.291636 16.6058ZM2.59556 23.5642C2.86019 24.0202 3.24017 24.3985 3.69731 24.6611C4.15446 24.9237 4.67267 25.0614 5.19988 25.0603H10.1927C10.3065 25.0604 10.4192 25.0376 10.5241 24.9933C10.6289 24.9491 10.7239 24.8843 10.8033 24.8027C10.8826 24.7211 10.9449 24.6245 10.9863 24.5185C11.0277 24.4124 11.0474 24.2992 11.0443 24.1854L10.9655 19.8838C10.9617 19.66 10.8699 19.4466 10.71 19.29C10.5501 19.1334 10.3349 19.046 10.111 19.0468L0.06416 19.0847C0.123011 19.2665 0.199186 19.4423 0.291636 19.6096L2.59556 23.5642ZM23.4563 24.9816L20.0004 19.073H17.2153V17.2415C17.212 17.1433 17.1788 17.0483 17.1203 16.9694C17.0617 16.8904 16.9804 16.8312 16.8874 16.7995C16.7943 16.7678 16.6937 16.7653 16.5992 16.7921C16.5046 16.819 16.4204 16.874 16.3579 16.9499L12.9632 21.0941C12.7305 21.3766 12.6032 21.7312 12.6032 22.0973C12.6032 22.4633 12.7305 22.818 12.9632 23.1005L16.3754 27.2301C16.4392 27.3059 16.5247 27.3603 16.6204 27.3859C16.7161 27.4116 16.8173 27.4073 16.9105 27.3736C17.0036 27.3399 17.0842 27.2784 17.1413 27.1975C17.1984 27.1165 17.2293 27.02 17.2299 26.921V25.0895L22.7243 25.0807C22.9666 25.0768 23.2075 25.0435 23.4417 24.9816H23.4563ZM27.5976 19.6009C27.8612 19.1442 28 18.6262 28 18.099C28 17.5717 27.8612 17.0537 27.5976 16.597L25.0807 12.2779C24.9645 12.0848 24.7764 11.9457 24.5577 11.891C24.3391 11.8363 24.1076 11.8706 23.9142 11.9863L20.2221 14.1939C20.029 14.3102 19.8899 14.4983 19.8352 14.717C19.7805 14.9356 19.8148 15.167 19.9304 15.3605L24.9787 24.0367C25.1074 23.8916 25.2216 23.7343 25.3199 23.5671L27.5976 19.6009ZM22.0827 10.9393L23.9521 5.92022C23.985 5.82731 23.9887 5.72657 23.9628 5.63148C23.9369 5.53638 23.8826 5.45145 23.8072 5.38805C23.7317 5.32464 23.6387 5.28577 23.5406 5.27664C23.4425 5.26751 23.3439 5.28855 23.258 5.33695L21.6744 6.2556L18.9155 1.50193C18.7931 1.29027 18.6452 1.09439 18.4752 0.918655L15.0805 6.86221L16.4804 9.27112L14.8968 10.1898C14.812 10.2403 14.7447 10.3156 14.704 10.4055C14.6632 10.4954 14.6508 10.5956 14.6686 10.6927C14.6864 10.7898 14.7334 10.8791 14.8034 10.9487C14.8733 11.0184 14.9629 11.0649 15.0601 11.0822L20.3475 11.9571C20.71 12.0159 21.0816 11.9464 21.3983 11.7606C21.7151 11.5748 21.9571 11.2844 22.0827 10.9393ZM16.3083 0H11.7355C11.2081 0.0011055 10.6903 0.141028 10.2342 0.405699C9.77804 0.67037 9.39963 1.05046 9.13697 1.50776L6.65223 5.85606C6.59641 5.95394 6.56056 6.06192 6.54678 6.17375C6.533 6.28559 6.54154 6.39904 6.57192 6.50755C6.6023 6.61605 6.65392 6.71745 6.72377 6.80586C6.79362 6.89427 6.88033 6.96795 6.97886 7.02261L10.7439 9.10489C10.8414 9.16094 10.9491 9.19712 11.0607 9.21133C11.1723 9.22554 11.2856 9.21749 11.394 9.18767C11.5025 9.15784 11.604 9.10682 11.6926 9.03755C11.7812 8.96828 11.8553 8.88213 11.9104 8.78409L16.8887 0.0699928C16.698 0.0277388 16.5036 0.00429565 16.3083 0Z" fill="#5BB95B"/>
</svg>
