<svg width="28" height="28" viewBox="0 0 28 28" fill="none" xmlns="http://www.w3.org/2000/svg">
<path d="M18.3077 22.4622H19.3846V8.07981L13.3689 2.06411H19.3846V1.07692C19.3846 0.482462 19.8671 0 20.4615 0H24.7692C25.3637 0 25.8462 0.482462 25.8462 1.07692V22.4622H26.9231C27.5175 22.4622 28 22.9447 28 23.5391V26.7699C28 27.3644 27.5175 27.8468 26.9231 27.8468H18.3077C17.7132 27.8468 17.2308 27.3644 17.2308 26.7699V23.5391C17.2308 22.9447 17.7132 22.4622 18.3077 22.4622Z" fill="#859DE0"/>
<path d="M10.3236 2.06445L16.7852 8.526H14.4461L7.98453 2.06445H10.3236Z" fill="#859DE0"/>
<path d="M4.93884 2.06445L11.4004 8.526H9.06131L2.59976 2.06445H4.93884Z" fill="#859DE0"/>
<path d="M0.129155 2.63867L6.01562 8.52514H1.07685C0.482385 8.52514 -7.72476e-05 8.04268 -7.72476e-05 7.44822V3.14052C-7.72476e-05 2.95852 0.0494618 2.78944 0.129155 2.63867Z" fill="#859DE0"/>
<path d="M4.11064 22.415C4.49456 22.6003 4.82553 22.7989 5.10355 23.0107C5.38156 23.2225 5.69267 23.5204 6.03688 23.9043L7.94326 25.9894L6.11631 27.7369L0 20.9852L6.11631 14.2334L7.94326 15.9809L6.03688 18.066C5.69267 18.4499 5.38156 18.7478 5.10355 18.9596C4.82553 19.1715 4.49456 19.37 4.11064 19.5554H14V22.415H4.11064Z" fill="#859DE0"/>
</svg>
