<?xml version="1.0" encoding="UTF-8"?>
<!-- Created with Inkscape (http://www.inkscape.org/) -->
<svg width="5.0271mm" height="3.7042mm" version="1.1" viewBox="0 0 5.0271 3.7042" xmlns="http://www.w3.org/2000/svg" xmlns:cc="http://creativecommons.org/ns#" xmlns:dc="http://purl.org/dc/elements/1.1/" xmlns:rdf="http://www.w3.org/1999/02/22-rdf-syntax-ns#">
 <metadata>
  <rdf:RDF>
   <cc:Work rdf:about="">
    <dc:format>image/svg+xml</dc:format>
    <dc:type rdf:resource="http://purl.org/dc/dcmitype/StillImage"/>
    <dc:title/>
   </cc:Work>
  </rdf:RDF>
 </metadata>
 <g transform="translate(-139.57 -161)">
  <g transform="matrix(.26458 0 0 .26458 79.451 124.53)" fill="#241c1c">
   <g transform="translate(227.21 137.86)" fill="#292c43">
    <path d="m1 0c-0.55228 0-1 0.44772-1 1 0 0.55228 0.44772 1 1 1zm17 2c0.5523 0 1-0.44772 1-1 0-0.55228-0.4477-1-1-1zm-17 4c-0.55228 0-1 0.44772-1 1s0.44772 1 1 1zm17 2c0.5523 0 1-0.44772 1-1s-0.4477-1-1-1zm-17 4c-0.55228 0-1 0.4477-1 1s0.44772 1 1 1zm17 2c0.5523 0 1-0.4477 1-1s-0.4477-1-1-1zm-17-12h17v-2h-17zm0 6h17v-2h-17zm0 6h17v-2h-17z" fill="#292c43"/>
   </g>
  </g>
 </g>
</svg>
