<svg width="4.4097mm" height="5.2916mm" version="1.1" viewBox="0 0 4.4097 5.2916" xmlns="http://www.w3.org/2000/svg">
 <defs>
  <clipPath id="clip0-9">
   <path d="m0 0h40v40h-40z" fill="#fff"/>
  </clipPath>
 </defs>
 <g transform="translate(52.871 -215.55)">
  <g transform="matrix(.26458 0 0 .26458 -18.218 144.83)" fill="none">
   <g transform="matrix(3.7795 0 0 3.7795 -53.546 -627.91)">
    <g transform="matrix(.26458 0 0 .26458 51.149 165.26)" fill="none">
     <g transform="matrix(3.7795,0,0,3.7795,-308.6,-672.95)">
      <g transform="matrix(.26458 0 0 .26458 51.149 165.26)">
       <g fill="#2b3250">
        <g transform="matrix(1 0 0 1 -167.47 308.96)" fill="none">
         <g clip-path="url(#clip0-9)" fill="#fff">
          <path d="m27.833 10h-13.333c-0.5 0-0.8333 0.3333-0.8333 0.8333s0.3333 0.8334 0.8333 0.8334h12.5v15c0 0.5 0.3334 0.8333 0.8334 0.8333s0.8333-0.3333 0.8333-0.8333v-15.833c0-0.5-0.3333-0.8333-0.8333-0.8333z"/>
          <path d="m12.833 30h11.667c0.5 0 0.8333-0.3334 0.8333-0.8334v-15c0-0.5-0.3333-0.8333-0.8333-0.8333h-11.667c-0.5 0-0.8333 0.3333-0.8333 0.8333v15c0 0.5 0.3333 0.8334 0.8333 0.8334zm2.5-12.5h5.8334c0.5 0 0.8333 0.3333 0.8333 0.8333s-0.3333 0.8333-0.8333 0.8333h-5.8334c-0.5 0-0.8333-0.3333-0.8333-0.8333s0.3333-0.8333 0.8333-0.8333zm0 3.3333h5.8334c0.5 0 0.8333 0.3333 0.8333 0.8333s-0.3333 0.8334-0.8333 0.8334h-5.8334c-0.5 0-0.8333-0.3334-0.8333-0.8334s0.3333-0.8333 0.8333-0.8333zm0 3.3333h4.1667c0.5 0 0.8333 0.3334 0.8333 0.8334s-0.3333 0.8333-0.8333 0.8333h-4.1667c-0.5 0-0.8333-0.3333-0.8333-0.8333s0.3333-0.8334 0.8333-0.8334z"/>
         </g>
        </g>
       </g>
      </g>
     </g>
    </g>
   </g>
  </g>
 </g>
</svg>
