<svg width="40" height="40" viewBox="0 0 40 40" fill="none" xmlns="http://www.w3.org/2000/svg">
<g clip-path="url(#clip0)">
<path d="M27.8332 10H14.4998C13.9998 10 13.6665 10.3333 13.6665 10.8333C13.6665 11.3333 13.9998 11.6667 14.4998 11.6667H26.9998V26.6667C26.9998 27.1667 27.3332 27.5 27.8332 27.5C28.3332 27.5 28.6665 27.1667 28.6665 26.6667V10.8333C28.6665 10.3333 28.3332 10 27.8332 10Z" fill="white"/>
<path d="M12.8333 29.9997H24.5C25 29.9997 25.3333 29.6663 25.3333 29.1663V14.1663C25.3333 13.6663 25 13.333 24.5 13.333H12.8333C12.3333 13.333 12 13.6663 12 14.1663V29.1663C12 29.6663 12.3333 29.9997 12.8333 29.9997ZM15.3333 17.4997H21.1667C21.6667 17.4997 22 17.833 22 18.333C22 18.833 21.6667 19.1663 21.1667 19.1663H15.3333C14.8333 19.1663 14.5 18.833 14.5 18.333C14.5 17.833 14.8333 17.4997 15.3333 17.4997ZM15.3333 20.833H21.1667C21.6667 20.833 22 21.1663 22 21.6663C22 22.1663 21.6667 22.4997 21.1667 22.4997H15.3333C14.8333 22.4997 14.5 22.1663 14.5 21.6663C14.5 21.1663 14.8333 20.833 15.3333 20.833ZM15.3333 24.1663H19.5C20 24.1663 20.3333 24.4997 20.3333 24.9997C20.3333 25.4997 20 25.833 19.5 25.833H15.3333C14.8333 25.833 14.5 25.4997 14.5 24.9997C14.5 24.4997 14.8333 24.1663 15.3333 24.1663Z" fill="white"/>
</g>
<defs>
<clipPath id="clip0">
<path d="M0 0H40V40H0V0Z" fill="white"/>
</clipPath>
</defs>
</svg>
