<?xml version="1.0" encoding="UTF-8" standalone="no"?>
<!-- Created with Inkscape (http://www.inkscape.org/) -->

<svg
   xmlns:dc="http://purl.org/dc/elements/1.1/"
   xmlns:cc="http://creativecommons.org/ns#"
   xmlns:rdf="http://www.w3.org/1999/02/22-rdf-syntax-ns#"
   xmlns:svg="http://www.w3.org/2000/svg"
   xmlns="http://www.w3.org/2000/svg"
   xmlns:sodipodi="http://sodipodi.sourceforge.net/DTD/sodipodi-0.dtd"
   xmlns:inkscape="http://www.inkscape.org/namespaces/inkscape"
   width="17"
   height="19"
   viewBox="0 0 4.4979167 5.0270835"
   version="1.1"
   id="svg8"
   sodipodi:docname="drawing-1.svg"
   inkscape:version="0.92.4 (5da689c313, 2019-01-14)">
  <defs
     id="defs2" />
  <sodipodi:namedview
     id="base"
     pagecolor="#ffffff"
     bordercolor="#666666"
     borderopacity="1.0"
     inkscape:pageopacity="0.0"
     inkscape:pageshadow="2"
     inkscape:zoom="4.04"
     inkscape:cx="-12.496284"
     inkscape:cy="39.965623"
     inkscape:document-units="mm"
     inkscape:current-layer="g993"
     showgrid="false"
     inkscape:snap-page="false"
     inkscape:window-width="1440"
     inkscape:window-height="838"
     inkscape:window-x="-8"
     inkscape:window-y="-8"
     inkscape:window-maximized="1"
     fit-margin-top="0"
     fit-margin-left="0"
     fit-margin-right="0"
     fit-margin-bottom="0"
     units="px" />
  <metadata
     id="metadata5">
    <rdf:RDF>
      <cc:Work
         rdf:about="">
        <dc:format>image/svg+xml</dc:format>
        <dc:type
           rdf:resource="http://purl.org/dc/dcmitype/StillImage" />
        <dc:title></dc:title>
      </cc:Work>
    </rdf:RDF>
  </metadata>
  <g
     inkscape:label="Layer 1"
     inkscape:groupmode="layer"
     id="layer1"
     transform="translate(-150.5304,-169.34469)">
    <g
       style="fill:#241c1c"
       id="g835"
       transform="matrix(0.26458333,0,0,0.26458333,79.450595,124.52946)">
      <g
         style="fill:#241f1c;fill-opacity:1"
         id="g955"
         transform="translate(249.13258,151.16509)">
        <g
           style="fill:none"
           id="g977"
           transform="translate(27.718155,-36.877464)">
          <rect
             id="rect957"
             transform="matrix(0.707107,-0.707107,-0.707107,-0.707107,16.1953,12.0937)"
             height="1.97737"
             width="7.2808199"
             y="-0.70710701"
             x="-5.9604599e-08"
             style="fill:#ffffff;stroke:#ffffff" />
          <path
             id="path959"
             d="m 19.6157,8.5637 1.8301,3.1256 1.5447,-6.67893 -6.6791,1.54445 3.1255,1.83004 0.1128,0.06605 z"
             inkscape:connector-curvature="0"
             style="fill:#ffffff;stroke:#ffffff" />
          <rect
             id="rect961"
             transform="matrix(-0.707107,0.707107,0.707107,0.707107,10.8047,14.9063)"
             height="1.97737"
             width="7.2808199"
             y="0.70710701"
             x="5.9604599e-08"
             style="fill:#ffffff;stroke:#ffffff" />
          <path
             id="path963"
             d="M 8.38428,19.4363 6.55421,16.3107 5.00949,22.9896 11.6886,21.4452 8.56312,19.6151 8.45033,19.5491 Z"
             inkscape:connector-curvature="0"
             style="fill:#ffffff;stroke:#ffffff" />
        </g>
        <g
           style="fill:none"
           id="g993"
           transform="translate(-35.113208,-37.076757)">
          <path
             id="path979"
             d="M 9.500001,-2.3937008e-7 C 4.8055803,-2.3937008e-7 1,3.7529099 1,8.3823499 1,11.9488 3.25852,14.995 6.4420407,16.2059 L 2.4999999,19 11.688201,16.4843 C 15.3222,15.5323 18,12.2657 18,8.3823499 18,3.7529099 14.1944,-2.3937008e-7 9.500001,-2.3937008e-7 Z"
             inkscape:connector-curvature="0"
             style="fill:#292c43;fill-opacity:1;stroke-width:0.99999988" />
          <path
             id="path981"
             d="m 9.5983013,4.5039098 c 0.5439977,0 1.0080017,0.092 1.3920007,0.276 0.383996,0.1760001 0.672002,0.4160001 0.864,0.7200001 0.191998,0.2959999 0.287999,0.62 0.287999,0.972 0,0.3279999 -0.05601,0.608 -0.167999,0.84 -0.112002,0.2319999 -0.248002,0.42 -0.408,0.564 -0.159999,0.136 -0.372,0.296 -0.635999,0.48 -0.320004,0.216 -0.56,0.416 -0.720004,0.6 -0.151999,0.176 -0.2279892,0.408 -0.2279892,0.696 V 10.0119 H 8.4103008 V 9.5919099 c 0,-0.368 0.055998,-0.68 0.1679997,-0.936 0.1200001,-0.256 0.2600002,-0.46 0.42,-0.612 0.1680003,-0.152 0.3759998,-0.312 0.6240003,-0.48 0.2559985,-0.168 0.4400022,-0.316 0.5520012,-0.4440001 0.119997,-0.1279999 0.179996,-0.2919999 0.179996,-0.4919999 0,-0.248 -0.08398,-0.4360001 -0.251997,-0.564 -0.1600003,-0.136 -0.3840003,-0.2040001 -0.672,-0.2040001 -0.5439999,0 -1.0320002,0.2520001 -1.4640005,0.756 L 6.8623007,5.7639099 c 0.352,-0.4080001 0.7519998,-0.72 1.1999999,-0.9360001 0.4479999,-0.216 0.9600005,-0.324 1.5360007,-0.324 z M 9.2143008,11.1399 c 0.2879997,0 0.5320007,0.1 0.7319985,0.3 0.2000017,0.2 0.3000007,0.44 0.3000007,0.72 0,0.279999 -0.1,0.524 -0.3000007,0.732 -0.1999978,0.2 -0.4439988,0.3 -0.7319985,0.3 -0.2879996,0 -0.5319997,-0.1 -0.7320002,-0.3 -0.1919999,-0.2 -0.2879998,-0.444 -0.2879998,-0.732 0,-0.28 0.096001,-0.52 0.2879998,-0.72 0.2000005,-0.2 0.4440006,-0.3 0.7320002,-0.3 z"
             inkscape:connector-curvature="0"
             style="fill:#ffffff;fill-opacity:1;stroke-width:0.99999988" />
          <g
             style="fill:none"
             id="g1009"
             transform="translate(53.628727,55.292076)">
            <path
               id="path995"
               d="M 9.5,0 C 4.80558,0 1,3.75291 1,8.38235 1,11.9488 3.25852,14.995 6.44204,16.2059 L 2.5,19 11.6882,16.4843 C 15.3222,15.5323 18,12.2657 18,8.38235 18,3.75291 14.1944,0 9.5,0 Z"
               inkscape:connector-curvature="0"
               style="fill:#ffffff" />
            <path
               id="path997"
               d="m 9.5983,4.50391 c 0.544,0 1.008,0.092 1.392,0.276 0.384,0.176 0.672,0.416 0.864,0.72 0.192,0.296 0.288,0.62 0.288,0.972 0,0.328 -0.056,0.608 -0.168,0.84 -0.112,0.232 -0.248,0.42 -0.408,0.564 -0.16,0.136 -0.372,0.296 -0.636,0.48 -0.32,0.216 -0.56,0.416 -0.72,0.6 -0.152,0.176 -0.22799,0.408 -0.22799,0.696 V 10.0119 H 8.4103 V 9.59191 c 0,-0.368 0.056,-0.68 0.168,-0.936 0.12,-0.256 0.26,-0.46 0.42,-0.612 0.168,-0.152 0.376,-0.312 0.624,-0.48 0.256,-0.168 0.44,-0.316 0.552,-0.444 0.12,-0.128 0.18,-0.292 0.18,-0.492 0,-0.248 -0.084,-0.436 -0.252,-0.564 -0.16,-0.136 -0.384,-0.204 -0.672,-0.204 -0.544,0 -1.032,0.252 -1.464,0.756 l -1.104,-0.852 c 0.352,-0.408 0.752,-0.72 1.2,-0.936 0.448,-0.216 0.96,-0.324 1.536,-0.324 z m -0.384,6.63599 c 0.288,0 0.532,0.1 0.732,0.3 0.2,0.2 0.3,0.44 0.3,0.72 0,0.28 -0.1,0.524 -0.3,0.732 -0.2,0.2 -0.444,0.3 -0.732,0.3 -0.288,0 -0.532,-0.1 -0.732,-0.3 -0.192,-0.2 -0.288,-0.444 -0.288,-0.732 0,-0.28 0.096,-0.52 0.288,-0.72 0.2,-0.2 0.444,-0.3 0.732,-0.3 z"
               inkscape:connector-curvature="0"
               style="fill:#302551" />
          </g>
        </g>
      </g>
    </g>
  </g>
</svg>
