<svg width="40" height="40" viewBox="0 0 40 40" fill="none" xmlns="http://www.w3.org/2000/svg">
<path d="M8.00368 33.5075C8.00368 32.9552 8.45139 32.5075 9.00368 32.5075H21.7082C22.2605 32.5075 22.7082 32.9552 22.7082 33.5075V33.9582C22.7082 34.5105 22.2605 34.9582 21.7082 34.9582H9.00368C8.45139 34.9582 8.00368 34.5105 8.00368 33.9582V33.5075ZM13.9128 17.3709C13.5222 16.9802 13.5224 16.3468 13.9132 15.9563L15.966 13.9057C16.3567 13.5155 16.9896 13.5157 17.3799 13.9061L33.293 29.8214C33.6835 30.2119 33.6834 30.8451 33.2929 31.2356L31.2418 33.2867C30.8512 33.6773 30.2181 33.6773 29.8275 33.2867L13.9128 17.3709ZM21.1642 8.70679C21.5547 8.31641 22.1877 8.31644 22.5782 8.70686L28.096 14.2236C28.4865 14.6141 28.4866 15.2473 28.096 15.6379L26.0429 17.691C25.6522 18.0817 25.0187 18.0815 24.6283 17.6907L19.1136 12.1701C18.7234 11.7795 18.7236 11.1465 19.1141 10.7562L21.1642 8.70679ZM10.7583 19.1044C11.1488 18.7139 11.7819 18.7139 12.1725 19.1044L17.6902 24.6221C18.0807 25.0127 18.0807 25.6458 17.6902 26.0364L15.6391 28.0875C15.2485 28.478 14.6154 28.478 14.2248 28.0875L8.70711 22.5698C8.31658 22.1792 8.31658 21.5461 8.70711 21.1556L10.7583 19.1044Z" fill="#F09456"/>
</svg>
