<svg width="51" height="36" viewBox="0 0 51 36" fill="none" xmlns="http://www.w3.org/2000/svg">
<rect x="5" y="6" width="46" height="24" rx="12" fill="#F2F4F7"/>
<circle opacity="0.1" cx="38.002" cy="18" r="2" fill="white"/>
<g filter="url(#filter0_d)">
<circle cx="18.002" cy="18" r="10" fill="white"/>
</g>
<circle cx="18.002" cy="18" r="4" fill="#EEBD68"/>
<path d="M18.002 10.5V13M18.002 23V25.5M23.002 18H25.502M13.002 18H10.502M22.002 14L23.502 12.5M14.002 14L12.502 12.5M22.002 22L23.502 23.5M12.502 23.5L14.002 22" stroke="#EEBD68" stroke-linecap="round" stroke-linejoin="round"/>
<path fill-rule="evenodd" clip-rule="evenodd" d="M44.4163 23.7373C43.9555 23.81 43.4832 23.8478 43.002 23.8478C38.0314 23.8478 34.002 19.8184 34.002 14.8478C34.002 13.4711 34.311 12.1667 34.8636 11C32.5489 12.4018 31.002 14.9442 31.002 17.8479C31.002 22.2661 34.5837 25.8479 39.002 25.8479C41.0902 25.8479 42.9916 25.0477 44.4163 23.7373Z" fill="#BDC4DB"/>
<defs>
<filter id="filter0_d" x="0.00195312" y="0" width="36" height="36" filterUnits="userSpaceOnUse" color-interpolation-filters="sRGB">
<feFlood flood-opacity="0" result="BackgroundImageFix"/>
<feColorMatrix in="SourceAlpha" type="matrix" values="0 0 0 0 0 0 0 0 0 0 0 0 0 0 0 0 0 0 127 0"/>
<feOffset/>
<feGaussianBlur stdDeviation="4"/>
<feColorMatrix type="matrix" values="0 0 0 0 0 0 0 0 0 0 0 0 0 0 0 0 0 0 0.15 0"/>
<feBlend mode="normal" in2="BackgroundImageFix" result="effect1_dropShadow"/>
<feBlend mode="normal" in="SourceGraphic" in2="effect1_dropShadow" result="shape"/>
</filter>
</defs>
</svg>
