<svg width="40" height="40" viewBox="0 0 40 40" fill="none" xmlns="http://www.w3.org/2000/svg">
<path d="M20.0002 22.4291C21.5782 22.4291 22.8573 21.1499 22.8573 19.572C22.8573 17.994 21.5782 16.7148 20.0002 16.7148C18.4223 16.7148 17.1431 17.994 17.1431 19.572C17.1431 21.1499 18.4223 22.4291 20.0002 22.4291Z" fill="white"/>
<path d="M19.9999 23.8564C16.8442 23.8564 14.2856 25.135 14.2856 26.7136V29.5707H25.7142V26.7136C25.7142 25.135 23.1556 23.8564 19.9999 23.8564Z" fill="white"/>
<path d="M25.7142 16.7148C24.9071 16.7148 24.1614 16.872 23.5171 17.1306C23.9985 17.8248 24.2857 18.6634 24.2857 19.572C24.2857 20.0763 24.1828 20.552 24.0228 21.0006H29.9999V19.572C29.9999 17.9934 28.0814 16.7148 25.7142 16.7148Z" fill="white"/>
<path d="M14.2859 15.2857C15.4694 15.2857 16.4288 14.3263 16.4288 13.1429C16.4288 11.9594 15.4694 11 14.2859 11C13.1025 11 12.1431 11.9594 12.1431 13.1429C12.1431 14.3263 13.1025 15.2857 14.2859 15.2857Z" fill="white"/>
<path d="M25.7141 15.2857C26.8976 15.2857 27.857 14.3263 27.857 13.1429C27.857 11.9594 26.8976 11 25.7141 11C24.5307 11 23.5713 11.9594 23.5713 13.1429C23.5713 14.3263 24.5307 15.2857 25.7141 15.2857Z" fill="white"/>
<path d="M15.7143 19.572C15.7143 18.6634 16.0014 17.8248 16.4829 17.1306C15.8386 16.872 15.0929 16.7148 14.2857 16.7148C11.9186 16.7148 10 17.9934 10 19.572V21.0006H15.9771C15.8171 20.552 15.7143 20.0763 15.7143 19.572Z" fill="white"/>
</svg>
