<svg width="24" height="24" viewBox="0 0 24 24" fill="none" xmlns="http://www.w3.org/2000/svg">
<path fill-rule="evenodd" clip-rule="evenodd" d="M13.3662 0H10.6338V2.75898C8.64644 3.05369 6.8026 3.98231 5.38044 5.41242C3.95884 6.84196 3.04068 8.69003 2.75665 10.6782H0V13.4105H2.75686C3.04287 15.4057 3.96759 17.2594 5.3984 18.6902C6.82921 20.121 8.68289 21.0457 10.6782 21.3318V24H13.4105V21.2853C15.3979 20.9906 17.2417 20.062 18.6639 18.6319C20.0855 17.2024 21.0036 15.3543 21.2877 13.3662H24V10.6338H21.2853C20.9906 8.64644 20.062 6.8026 18.6319 5.38044C17.2024 3.95884 15.3543 3.04068 13.3662 2.75665V0ZM7.33227 7.33227C8.23904 6.42551 9.38702 5.80496 10.6338 5.54041V8.04923H13.3662V5.54041C14.613 5.80496 15.761 6.42551 16.6677 7.33227C17.5745 8.23904 18.195 9.38702 18.4596 10.6338H15.9508V13.3662H18.4596C18.195 14.613 17.5745 15.761 16.6677 16.6677C15.761 17.5745 14.613 18.195 13.3662 18.4596V15.9508H10.6338V18.4596C9.38702 18.195 8.23904 17.5745 7.33227 16.6677C6.42551 15.761 5.80496 14.613 5.54041 13.3662H8.04923V10.6338H5.54041C5.80496 9.38702 6.42551 8.23904 7.33227 7.33227Z" fill="white"/>
<path d="M12 14C13.1046 14 14 13.1046 14 12C14 10.8954 13.1046 10 12 10C10.8954 10 10 10.8954 10 12C10 13.1046 10.8954 14 12 14Z" fill="white"/>
</svg>
