<svg width="25" height="28" viewBox="0 0 25 28" fill="none" xmlns="http://www.w3.org/2000/svg">
<path d="M3.50319 6.71741C3.50319 7.06421 3.40024 7.4032 3.20739 7.69143C3.01454 7.97966 2.74047 8.20416 2.41991 8.33648C2.09934 8.4688 1.74672 8.50298 1.40671 8.4347C1.0667 8.36641 0.754617 8.19874 0.509997 7.95291C0.265376 7.70709 0.099233 7.39419 0.0326185 7.05385C-0.033996 6.71351 0.00191685 6.36105 0.135806 6.04115C0.269696 5.72124 0.495536 5.44827 0.784709 5.25684C1.07388 5.06541 1.41337 4.96412 1.76017 4.96582C2.22323 4.96809 2.66656 5.15363 2.99319 5.48187C3.31983 5.81011 3.5032 6.25434 3.50319 6.71741ZM1.76017 11.115C1.41289 11.1133 1.07295 11.2149 0.783528 11.4068C0.49411 11.5987 0.26828 11.8724 0.134732 12.193C0.00118267 12.5135 -0.0340574 12.8666 0.0334886 13.2072C0.101035 13.5479 0.268318 13.8608 0.514085 14.1061C0.759851 14.3515 1.07301 14.5183 1.41377 14.5852C1.75453 14.6522 2.10751 14.6164 2.42787 14.4823C2.74823 14.3483 3.0215 14.122 3.21296 13.8323C3.40443 13.5425 3.50545 13.2024 3.50319 12.8551C3.50019 12.3941 3.31549 11.9527 2.98918 11.627C2.66287 11.3012 2.22126 11.1172 1.76017 11.115ZM1.76017 17.2641C1.41373 17.2641 1.07508 17.3669 0.787034 17.5593C0.498986 17.7518 0.274479 18.0254 0.141905 18.3454C0.0093312 18.6655 -0.0253562 19.0177 0.0422295 19.3574C0.109815 19.6972 0.276638 20.0093 0.521603 20.2543C0.766568 20.4992 1.07867 20.6661 1.41845 20.7337C1.75822 20.8012 2.11041 20.7666 2.43047 20.634C2.75054 20.5014 3.0241 20.2769 3.21657 19.9889C3.40903 19.7008 3.51176 19.3622 3.51176 19.0157C3.51214 18.7855 3.46711 18.5574 3.37925 18.3445C3.29139 18.1317 3.16243 17.9383 2.99974 17.7753C2.83706 17.6124 2.64383 17.4831 2.43113 17.3949C2.21843 17.3067 1.99043 17.2613 1.76017 17.2613V17.2641ZM6.55491 7.83466H13.4327L13.9242 5.59731H6.54919C6.2525 5.59731 5.96796 5.71517 5.75817 5.92496C5.54838 6.13475 5.43052 6.41929 5.43052 6.71598C5.43052 7.01268 5.54838 7.29722 5.75817 7.50701C5.96796 7.7168 6.2525 7.83466 6.54919 7.83466H6.55491ZM12.5698 11.7465H6.54919C6.2525 11.7465 5.96796 11.8643 5.75817 12.0741C5.54838 12.2839 5.43052 12.5684 5.43052 12.8651C5.43052 13.1618 5.54838 13.4464 5.75817 13.6562C5.96796 13.866 6.2525 13.9838 6.54919 13.9838H12.0783L12.5698 11.7465ZM5.42623 19.0129C5.42698 19.3089 5.54494 19.5927 5.7543 19.802C5.96366 20.0114 6.2474 20.1294 6.54348 20.1301H10.7153L11.2068 17.8928H6.54919C6.25262 17.8935 5.96845 18.0119 5.75901 18.2218C5.54956 18.4318 5.43194 18.7163 5.43194 19.0129H5.42623ZM12.6183 22.3503C12.506 21.9715 12.4912 21.5705 12.5755 21.1845L16.8902 1.61122C16.948 1.34793 17.0572 1.09862 17.2115 0.877554C17.3658 0.656486 17.5621 0.467986 17.7892 0.32283C18.0164 0.177674 18.2699 0.0787067 18.5353 0.031586C18.8008 -0.0155347 19.0729 -0.0098855 19.3361 0.0482108L22.4793 0.739705C23.0113 0.85667 23.4752 1.17985 23.7693 1.63838C24.0634 2.0969 24.1636 2.65333 24.048 3.18565L19.7333 22.7589C19.6436 23.1461 19.4567 23.5041 19.1904 23.799L15.7986 27.6594C15.6803 27.794 15.528 27.8944 15.3576 27.9502C15.1872 28.006 15.005 28.0151 14.83 27.9766C14.655 27.938 14.4935 27.8533 14.3623 27.7312C14.2312 27.609 14.1351 27.454 14.0842 27.2822L12.6183 22.3503ZM14.2642 21.9989L14.9471 24.2848L16.2644 24.5705L17.9446 22.6646C18.0169 22.5831 18.068 22.485 18.0931 22.3789L18.1703 22.0274C16.8433 21.917 15.5372 21.6287 14.2871 21.1702L14.2013 21.5531C14.1679 21.7044 14.1902 21.8627 14.2642 21.9989Z" fill="#859DE0"/>
</svg>
