<?xml version="1.0" encoding="UTF-8" standalone="no"?>
<!-- Created with Inkscape (http://www.inkscape.org/) -->

<svg
   xmlns:dc="http://purl.org/dc/elements/1.1/"
   xmlns:cc="http://creativecommons.org/ns#"
   xmlns:rdf="http://www.w3.org/1999/02/22-rdf-syntax-ns#"
   xmlns:svg="http://www.w3.org/2000/svg"
   xmlns="http://www.w3.org/2000/svg"
   xmlns:sodipodi="http://sodipodi.sourceforge.net/DTD/sodipodi-0.dtd"
   xmlns:inkscape="http://www.inkscape.org/namespaces/inkscape"
   width="8.4968195mm"
   height="2.7484918mm"
   viewBox="0 0 8.4968195 2.7484918"
   version="1.1"
   id="svg8"
   sodipodi:docname="drawing-1.svg"
   inkscape:version="0.92.4 (5da689c313, 2019-01-14)">
  <defs
     id="defs2" />
  <sodipodi:namedview
     id="base"
     pagecolor="#ffffff"
     bordercolor="#666666"
     borderopacity="1.0"
     inkscape:pageopacity="0.0"
     inkscape:pageshadow="2"
     inkscape:zoom="4.04"
     inkscape:cx="3.4152117"
     inkscape:cy="50.908697"
     inkscape:document-units="mm"
     inkscape:current-layer="g835"
     showgrid="false"
     inkscape:snap-page="false"
     inkscape:window-width="1440"
     inkscape:window-height="838"
     inkscape:window-x="-8"
     inkscape:window-y="-8"
     inkscape:window-maximized="1"
     fit-margin-top="0"
     fit-margin-left="0"
     fit-margin-right="0"
     fit-margin-bottom="0" />
  <metadata
     id="metadata5">
    <rdf:RDF>
      <cc:Work
         rdf:about="">
        <dc:format>image/svg+xml</dc:format>
        <dc:type
           rdf:resource="http://purl.org/dc/dcmitype/StillImage" />
        <dc:title></dc:title>
      </cc:Work>
    </rdf:RDF>
  </metadata>
  <g
     inkscape:label="Layer 1"
     inkscape:groupmode="layer"
     id="layer1"
     transform="translate(-146.32047,-174.51864)">
    <g
       style="fill:#241c1c"
       id="g835"
       transform="matrix(0.26458333,0,0,0.26458333,79.450595,124.52946)">
      <g
         style="fill:#292c43;fill-opacity:1"
         id="g933"
         transform="translate(251.8647,188.88947)">
        <path
           id="path922"
           d="M 4.90384,0.634 V 10 h -1.288 V 2.006 L 1.43184,3.336 0.871836,2.426 3.76984,0.634 Z m 5.44066,-0.14 c 1.036,0 1.8153,0.415333 2.338,1.246 0.532,0.82133 0.798,2.016 0.798,3.584 0,1.568 -0.266,2.76733 -0.798,3.598 -0.5227,0.83067 -1.302,1.246 -2.338,1.246 -1.03602,0 -1.82002,-0.41533 -2.35202,-1.246 -0.52267,-0.83067 -0.784,-2.03 -0.784,-3.598 0,-1.568 0.26133,-2.76267 0.784,-3.584 0.532,-0.830667 1.316,-1.246 2.35202,-1.246 z m 0,1.022 c -0.60669,0 -1.05936,0.29867 -1.35802,0.896 -0.28934,0.59733 -0.434,1.568 -0.434,2.912 0,1.344 0.14466,2.31933 0.434,2.926 0.29866,0.59733 0.75133,0.896 1.35802,0.896 0.5973,0 1.0453,-0.29867 1.344,-0.896 0.2986,-0.60667 0.448,-1.582 0.448,-2.926 0,-1.33467 -0.1494,-2.30067 -0.448,-2.898 -0.2987,-0.60667 -0.7467,-0.91 -1.344,-0.91 z m 7.8066,-1.022 c 1.036,0 1.8154,0.415333 2.338,1.246 0.532,0.82133 0.798,2.016 0.798,3.584 0,1.568 -0.266,2.76733 -0.798,3.598 -0.5226,0.83067 -1.302,1.246 -2.338,1.246 -1.036,0 -1.82,-0.41533 -2.352,-1.246 -0.5226,-0.83067 -0.784,-2.03 -0.784,-3.598 0,-1.568 0.2614,-2.76267 0.784,-3.584 0.532,-0.830667 1.316,-1.246 2.352,-1.246 z m 0,1.022 c -0.6066,0 -1.0593,0.29867 -1.358,0.896 -0.2893,0.59733 -0.434,1.568 -0.434,2.912 0,1.344 0.1447,2.31933 0.434,2.926 0.2987,0.59733 0.7514,0.896 1.358,0.896 0.5974,0 1.0454,-0.29867 1.344,-0.896 0.2987,-0.60667 0.448,-1.582 0.448,-2.926 0,-1.33467 -0.1493,-2.30067 -0.448,-2.898 -0.2986,-0.60667 -0.7466,-0.91 -1.344,-0.91 z M 30.6338,0.0459996 31.5298,0.634 l -6.482,9.8 -0.896,-0.588 z M 24.9498,0.494 c 0.672,0 1.218,0.214666 1.638,0.644 0.4293,0.42933 0.644,1.00333 0.644,1.722 0,0.71867 -0.2147,1.29267 -0.644,1.722 -0.42,0.42933 -0.966,0.644 -1.638,0.644 -0.6627,0 -1.2087,-0.21467 -1.638,-0.644 -0.42,-0.42933 -0.63,-1.00333 -0.63,-1.722 0,-0.71867 0.21,-1.29267 0.63,-1.722 0.4293,-0.429334 0.9753,-0.644 1.638,-0.644 z m 0,0.868 c -0.4107,0 -0.7047,0.14 -0.882,0.42 -0.168,0.28 -0.252,0.63933 -0.252,1.078 0,0.42933 0.084,0.78867 0.252,1.078 0.1773,0.28 0.4713,0.42 0.882,0.42 0.756,0 1.134,-0.49933 1.134,-1.498 0,-0.42933 -0.084,-0.784 -0.252,-1.064 -0.168,-0.28933 -0.462,-0.434 -0.882,-0.434 z m 5.768,4.074 c 0.672,0 1.218,0.21467 1.638,0.644 0.42,0.42933 0.63,1.00333 0.63,1.722 0,0.71867 -0.21,1.29267 -0.63,1.722 -0.42,0.42933 -0.966,0.644 -1.638,0.644 -0.672,0 -1.2227,-0.21467 -1.652,-0.644 -0.42,-0.42933 -0.63,-1.00333 -0.63,-1.722 0,-0.71867 0.21,-1.29267 0.63,-1.722 0.4293,-0.42933 0.98,-0.644 1.652,-0.644 z m 0,0.882 c -0.4107,0 -0.7047,0.14 -0.882,0.42 -0.168,0.27067 -0.252,0.62533 -0.252,1.064 0,0.42933 0.084,0.78867 0.252,1.078 0.1773,0.28 0.4713,0.42 0.882,0.42 0.756,0 1.134,-0.49933 1.134,-1.498 0,-0.42933 -0.084,-0.784 -0.252,-1.064 -0.168,-0.28 -0.462,-0.42 -0.882,-0.42 z"
           inkscape:connector-curvature="0"
           style="fill:#292c43;fill-opacity:1" />
      </g>
    </g>
  </g>
</svg>
