<svg width="16.666" height="20" version="1.1" viewBox="0 0 4.4097 5.2916" xmlns="http://www.w3.org/2000/svg">
 <defs>
  <clipPath id="clip0">
   <path d="m0 0h40v40h-40z" fill="#fff"/>
  </clipPath>
 </defs>
 <g transform="translate(-49.251 -173.8)">
  <g transform="matrix(.26458 0 0 .26458 51.149 165.26)" fill="none">
   <g transform="translate(-10.687 19.956)" fill="#292c43">
    <g transform="translate(-8.4853 2.3234)" fill="#292c43">
     <g clip-path="url(#clip0)" fill="#292c43">
      <path d="m27.833 10h-13.333c-0.5 0-0.8333 0.3333-0.8333 0.8333s0.3333 0.8334 0.8333 0.8334h12.5v15c0 0.5 0.3334 0.8333 0.8334 0.8333s0.8333-0.3333 0.8333-0.8333v-15.833c0-0.5-0.3333-0.8333-0.8333-0.8333z"/>
      <path d="m12.833 30h11.667c0.5 0 0.8333-0.3334 0.8333-0.8334v-15c0-0.5-0.3333-0.8333-0.8333-0.8333h-11.667c-0.5 0-0.8333 0.3333-0.8333 0.8333v15c0 0.5 0.3333 0.8334 0.8333 0.8334zm2.5-12.5h5.8334c0.5 0 0.8333 0.3333 0.8333 0.8333s-0.3333 0.8333-0.8333 0.8333h-5.8334c-0.5 0-0.8333-0.3333-0.8333-0.8333s0.3333-0.8333 0.8333-0.8333zm0 3.3333h5.8334c0.5 0 0.8333 0.3333 0.8333 0.8333s-0.3333 0.8334-0.8333 0.8334h-5.8334c-0.5 0-0.8333-0.3334-0.8333-0.8334s0.3333-0.8333 0.8333-0.8333zm0 3.3333h4.1667c0.5 0 0.8333 0.3334 0.8333 0.8334s-0.3333 0.8333-0.8333 0.8333h-4.1667c-0.5 0-0.8333-0.3333-0.8333-0.8333s0.3333-0.8334 0.8333-0.8334z"/>
     </g>
    </g>
   </g>
  </g>
 </g>
</svg>
