<svg width="26" height="11" viewBox="0 0 26 11" fill="none" xmlns="http://www.w3.org/2000/svg">
<path d="M4.292 3.028C4.16133 3.29867 4.02133 3.532 3.872 3.728C3.72267 3.924 3.51267 4.14333 3.242 4.386L1.772 5.73L0.54 4.442L5.3 0.129999L10.06 4.442L8.828 5.73L7.358 4.386C7.08733 4.14333 6.87733 3.924 6.728 3.728C6.57867 3.532 6.43867 3.29867 6.308 3.028L6.308 10H4.292L4.292 3.028ZM22.2357 7.816C22.3664 7.54533 22.5064 7.312 22.6557 7.116C22.8051 6.92 23.0151 6.70067 23.2857 6.458L24.7557 5.114L25.9877 6.402L21.2277 10.714L16.4677 6.402L17.6997 5.114L19.1697 6.458C19.4404 6.70067 19.6504 6.92 19.7997 7.116C19.9491 7.312 20.0891 7.54533 20.2197 7.816V0.843999H22.2357V7.816Z" fill="#859DE0"/>
</svg>
