<svg width="5.2917mm" height="5.937mm" version="1.1" viewBox="0 0 5.2917 5.937" xmlns="http://www.w3.org/2000/svg">
 <g transform="translate(-41.199 -150.4)">
  <g transform="matrix(.26458 0 0 .26458 38.554 148.02)" fill="#292c43">
   <path d="m17.44 9.3267c5.3569-1.3923 10.808 1.7935 12.224 7.1269 1.4159 5.3333-1.7699 10.808-7.1269 12.201l-10.549 2.7847 2.6431-4.0354c-2.0531-1.298-3.6342-3.3511-4.295-5.8762-1.4159-5.3333 1.7699-10.808 7.1033-12.201zm5.1604 4.4727c-0.8134-0.8347-2.4694-1.1259-3.6235-0.7995-1.154 0.3264-1.6346 0.772-2.5999 1.9148l1.3814 1.0819c0.6213-0.7323 1.3259-1.0985 2.1137-1.0985 0.4327 0 0.7712 0.1054 1.0153 0.3162 0.2552 0.1997 0.3828 0.4827 0.3828 0.8488 0 0.2996-0.0888 0.5437-0.2663 0.7324-0.1665 0.1886-0.4383 0.4105-0.8156 0.6657-0.355 0.2441-0.6435 0.4716-0.8654 0.6824-0.2219 0.1997-0.4161 0.4771-0.5825 0.8322-0.1554 0.3439-0.2331 0.7656-0.2331 1.2649v0.6491h1.9806v-0.5659c0-0.4216 0.111-0.7601 0.3329-1.0153s0.5603-0.5326 1.0153-0.8321c0.355-0.2441 0.6435-0.4661 0.8654-0.6658s0.4106-0.4549 0.5659-0.7656c0.1553-0.3218 0.233-0.7046 0.233-1.1484 0-0.4882-0.0865-1.2626-0.9-2.0973zm-2.1125 9.1042c-0.2663-0.2663-0.588-0.3994-0.9653-0.3994s-0.6935 0.1331-0.9487 0.3994c-0.2552 0.2552-0.3828 0.5715-0.3828 0.9487 0 0.3662 0.1276 0.6824 0.3828 0.9487 0.2663 0.2663 0.5825 0.3995 0.9487 0.3995 0.3773 0 0.699-0.1332 0.9653-0.3995s0.3995-0.5825 0.3995-0.9487c0-0.3772-0.1332-0.6935-0.3995-0.9487z" clip-rule="evenodd" fill="#292c43" fill-rule="evenodd"/>
  </g>
 </g>
</svg>
