<svg width="26" height="25" viewBox="0 0 26 25" fill="none" xmlns="http://www.w3.org/2000/svg">
<path d="M8.67272 0.00166212C7.87979 -0.0247118 7.10863 0.263665 6.52757 0.803844C5.94651 1.34402 5.60273 2.09213 5.57129 2.88487C5.57129 3.13115 5.66912 3.36733 5.84326 3.54147C6.0174 3.71561 6.25359 3.81345 6.49986 3.81345C6.74613 3.81345 6.98232 3.71561 7.15646 3.54147C7.3306 3.36733 7.42843 3.13115 7.42843 2.88487C7.46014 2.58497 7.60825 2.30947 7.84092 2.1176C8.0736 1.92574 8.37226 1.83281 8.67272 1.8588H17.327C17.6275 1.83281 17.9261 1.92574 18.1588 2.1176C18.3915 2.30947 18.5396 2.58497 18.5713 2.88487C18.5713 3.13115 18.6691 3.36733 18.8433 3.54147C19.0174 3.71561 19.2536 3.81345 19.4999 3.81345C19.7461 3.81345 19.9823 3.71561 20.1565 3.54147C20.3306 3.36733 20.4284 3.13115 20.4284 2.88487C20.397 2.09213 20.0532 1.34402 19.4721 0.803844C18.8911 0.263665 18.1199 -0.0247118 17.327 0.00166212H8.67272Z" fill="#5BB95B"/>
<path d="M0.970368 9.28753H25.0296C25.287 9.28753 25.5338 9.18529 25.7158 9.00332C25.8978 8.82134 26 8.57452 26 8.31717V7.5511C26 7.02654 25.7916 6.52346 25.4207 6.15254C25.0498 5.78162 24.5467 5.57324 24.0221 5.57324H1.97787C1.45331 5.57324 0.950232 5.78162 0.579312 6.15254C0.208392 6.52346 1.11084e-05 7.02654 1.11084e-05 7.5511V8.31253C-0.000600474 8.44035 0.0240471 8.56703 0.0725382 8.68529C0.121029 8.80356 0.192408 8.91108 0.282575 9.00168C0.372742 9.09227 0.47992 9.16417 0.597953 9.21322C0.715986 9.26228 0.842547 9.28753 0.970368 9.28753Z" fill="#5BB95B"/>
<path d="M1.97786 24.1436H24.0221C24.5467 24.1436 25.0498 23.9352 25.4207 23.5642C25.7916 23.1933 26 22.6903 26 22.1657V12.0025C26 11.7747 25.9095 11.5562 25.7484 11.3951C25.5873 11.234 25.3689 11.1436 25.1411 11.1436H16.5982C16.3827 11.1436 16.1761 11.2292 16.0237 11.3815C15.8713 11.5339 15.7857 11.7406 15.7857 11.9561C15.8022 12.655 15.5626 13.3359 15.1119 13.8703C14.6612 14.4048 14.0306 14.7561 13.3389 14.8578C12.9457 14.9061 12.5467 14.8698 12.1685 14.7516C11.7904 14.6334 11.4419 14.4358 11.1461 14.1722C10.8504 13.9085 10.6143 13.5848 10.4536 13.2227C10.2929 12.8606 10.2113 12.4683 10.2143 12.0721V11.9561C10.2143 11.7406 10.1287 11.5339 9.97631 11.3815C9.82393 11.2292 9.61727 11.1436 9.40178 11.1436H0.858928C0.631126 11.1436 0.412655 11.234 0.251574 11.3951C0.090494 11.5562 0 11.7747 0 12.0025V22.1657C0 22.6903 0.208381 23.1933 0.579301 23.5642C0.950221 23.9352 1.4533 24.1436 1.97786 24.1436Z" fill="#5BB95B"/>
<path d="M12.7868 11.1731C12.6045 11.1731 12.4297 11.2455 12.3009 11.3744C12.172 11.5032 12.0996 11.678 12.0996 11.8603V12.0738C12.1373 12.289 12.2497 12.4841 12.417 12.6246C12.5843 12.7651 12.7958 12.8422 13.0143 12.8422C13.2327 12.8422 13.4442 12.7651 13.6115 12.6246C13.7788 12.4841 13.8912 12.289 13.9289 12.0738V11.8463C13.9289 11.6641 13.8565 11.4893 13.7276 11.3604C13.5988 11.2316 13.424 11.1592 13.2418 11.1592L12.7868 11.1731Z" fill="#5BB95B"/>
</svg>
