<svg width="28" height="28" viewBox="0 0 28 28" fill="none" xmlns="http://www.w3.org/2000/svg">
<path d="M11.6667 24.1816H1.06061C0.475152 24.1816 0 24.6093 0 25.1362V27.0453C0 27.5722 0.475152 27.9998 1.06061 27.9998H11.6667C12.2521 27.9998 12.7273 27.5722 12.7273 27.0453V25.1362C12.7273 24.6093 12.2521 24.1816 11.6667 24.1816Z" fill="#F09456"/>
<path d="M11.6667 17.8184H1.06061C0.475152 17.8184 0 18.246 0 18.7729V20.682C0 21.2089 0.475152 21.6365 1.06061 21.6365H11.6667C12.2521 21.6365 12.7273 21.2089 12.7273 20.682V18.7729C12.7273 18.246 12.2521 17.8184 11.6667 17.8184Z" fill="#F09456"/>
<path d="M11.6667 11.4541H1.06061C0.475152 11.4541 0 11.8817 0 12.4086V14.3177C0 14.8446 0.475152 15.2723 1.06061 15.2723H11.6667C12.2521 15.2723 12.7273 14.8446 12.7273 14.3177V12.4086C12.7273 11.8817 12.2521 11.4541 11.6667 11.4541Z" fill="#F09456"/>
<path d="M26.9391 24.1816H16.3331C15.7476 24.1816 15.2725 24.6093 15.2725 25.1362V27.0453C15.2725 27.5722 15.7476 27.9998 16.3331 27.9998H26.9391C27.5246 27.9998 27.9997 27.5722 27.9997 27.0453V25.1362C27.9997 24.6093 27.5246 24.1816 26.9391 24.1816Z" fill="#F09456"/>
<path d="M26.9391 17.8184H16.3331C15.7476 17.8184 15.2725 18.246 15.2725 18.7729V20.682C15.2725 21.2089 15.7476 21.6365 16.3331 21.6365H26.9391C27.5246 21.6365 27.9997 21.2089 27.9997 20.682V18.7729C27.9997 18.246 27.5246 17.8184 26.9391 17.8184Z" fill="#F09456"/>
<path d="M15.2687 15.2727H24.1819V6.35956H21.9536V11.469L10.4868 0L8.90918 1.57763L20.3782 13.0444H15.2687V15.2727Z" fill="#F09456"/>
</svg>
