<svg width="7.5114mm" height="6.8792mm" version="1.1" viewBox="0 0 7.5114 6.8792" xmlns="http://www.w3.org/2000/svg">
 <g transform="translate(-97.069 -142.96)">
  <g transform="matrix(.26458 0 0 .26458 95.481 141.11)" fill="none">
   <path d="m25.086 15.532-3.2791 4.0931c0.0868 0.6021-0.0181 1.2162-0.2999 1.7553-0.2818 0.5392-0.7261 0.9759-1.27 1.2483s-1.1598 0.3667-1.7603 0.2694c-0.6005-0.0972-1.1551-0.381-1.5852-0.8112-0.4302-0.4301-0.714-0.9847-0.8112-1.5852-0.0973-0.6005-3e-3 -1.2164 0.2694-1.7603s0.7091-0.9882 1.2483-1.27c0.5391-0.2818 1.1532-0.3867 1.7553-0.2999l4.0931-3.2791c0.2174-0.2174 0.5123-0.3396 0.8198-0.3396s0.6024 0.1222 0.8198 0.3396 0.3396 0.5123 0.3396 0.8198-0.1222 0.6024-0.3396 0.8198zm-19.069 3.815c-0.09256 1.8019 0.19314 3.6032 0.83872 5.288s1.6367 3.2157 2.9097 4.4944c0.23947 0.2389 0.56397 0.3732 0.90237 0.3732 0.3383 0 0.6628-0.1343 0.9023-0.3732l1.9206-1.909c0.1281-0.1286 0.226-0.2842 0.2865-0.4554s0.0821-0.3537 0.0632-0.5343c-0.0188-0.1806-0.0777-0.3547-0.1723-0.5097-0.0945-0.155-0.2225-0.287-0.3744-0.3864-0.2405-0.1514-0.5256-0.2155-0.8077-0.1818-0.2821 0.0338-0.5441 0.1634-0.7421 0.3672l-1.0138 1.0139c-1.2188-1.5257-1.9864-3.362-2.2161-5.3011h1.7381c0.1258 0.0019 0.2508-0.0213 0.3676-0.0682s0.2231-0.1166 0.3126-0.2051c0.0895-0.0884 0.1606-0.1939 0.2089-0.3101s0.073-0.2409 0.0726-0.3667v-0.5504c0-0.2513-0.0998-0.4922-0.2774-0.6698-0.1777-0.1777-0.4186-0.2775-0.6698-0.2775h-1.7381c0.22526-1.9386 0.98778-3.7756 2.2016-5.3039l1.2311 1.2311c0.1781 0.1774 0.4192 0.277 0.6706 0.277s0.4925-0.0996 0.6706-0.277l0.3823-0.3824c0.0882-0.088 0.1582-0.1925 0.206-0.3076 0.0477-0.115 0.0723-0.2384 0.0723-0.363s-0.0246-0.2479-0.0723-0.363c-0.0478-0.1151-0.1178-0.2196-0.206-0.3076l-1.2311-1.2311c1.5283-1.2138 3.3654-1.9763 5.304-2.2016v1.738c0 0.1244 0.0245 0.2476 0.0721 0.3625s0.1174 0.2194 0.2053 0.3073c0.088 0.088 0.1924 0.1577 0.3073 0.2053 0.115 0.0477 0.2381 0.0722 0.3625 0.0722h0.533c0.2508 0.0023 0.4922-0.0949 0.6714-0.2703s0.2815-0.4147 0.2846-0.6654v-1.7381c2.3125 0.27443 4.469 1.3069 6.1329 2.9362 1.6638 1.6293 2.7413 3.7636 3.0643 6.0699 0.9663 0.6195 1.8164 1.4039 2.5115 2.3174 0.0202-0.2897 0.0318-0.5794 0.0318-0.8691 0.0147-3.3907-1.2995-6.6523-3.6608-9.0857-2.3614-2.4334-5.5821-3.8449-8.9717-3.932-3.3897-0.08714-6.6786 1.157-9.1619 3.4659-2.4833 2.3088-3.9633 5.4986-4.1229 8.8856zm13.971 8.2789h-3.2704c-0.0678-1e-4 -0.1349 0.0132-0.1975 0.039-0.0627 0.0259-0.1196 0.0638-0.1675 0.1117l-2.7635 2.7635c-0.107 0.1073-0.1797 0.2439-0.2091 0.3925-0.0295 0.1486-0.0143 0.3026 0.0436 0.4426s0.156 0.2598 0.2818 0.3441c0.1259 0.0844 0.2738 0.1297 0.4253 0.1301h7.0305c-0.2648-0.5851-0.4331-1.2092-0.4983-1.8481-0.081-0.7955-0.0182-1.5992 0.1854-2.3725zm10.559 5.3735c4.9476-0.7734 3.9628-4.9563 3.2617-6.8247-0.0298-0.0846-0.0851-0.1578-0.1583-0.2096-0.0731-0.0519-0.1605-0.0799-0.2501-0.0801-0.071-4e-4 -0.141 0.0169-0.2037 0.0503-0.0627 0.0333-0.1162 0.0818-0.1555 0.1409-0.4607 0.6592-1.0831 1.1889-1.8076 1.5382 0.5127-4.6349-2.3608-6.5641-3.7455-7.3231-0.0687-0.0383-0.1465-0.0572-0.2252-0.0545-0.0786 0.0027-0.155 0.0268-0.2209 0.0698-0.0659 0.0429-0.1188 0.103-0.153 0.1739-0.0342 0.0708-0.0484 0.1497-0.0411 0.228 0.1246 1.9292-1.6801 4.4813-2.7374 5.7935-0.7544 0.9047-1.1209 2.0708-1.0197 3.2444 0.2897 2.7084 2.9258 3.1603 3.8006 3.2357h0.0174c0.0284-3e-4 0.0565-0.0065 0.0824-0.0183 0.0259-0.0117 0.049-0.0289 0.0679-0.0502 0.0188-0.0213 0.033-0.0463 0.0415-0.0735 0.0086-0.0271 0.0113-0.0557 8e-3 -0.084-0.0749-0.6857 0.0121-1.3795 0.2541-2.0255s0.6322-1.2262 1.1393-1.6939c0.0594-0.0552 0.1376-0.0859 0.2187-0.0859s0.1592 0.0307 0.2187 0.0859c0.5087 0.4689 0.8999 1.051 1.142 1.6992 0.242 0.6481 0.3281 1.3442 0.2513 2.0318-0.0044 0.0299-2e-3 0.0605 7e-3 0.0894 0.0089 0.0289 0.0242 0.0555 0.0448 0.0777s0.0458 0.0396 0.074 0.0508c0.0281 0.0111 0.0584 0.0159 0.0886 0.0138z" fill="#f09456"/>
  </g>
 </g>
</svg>
