<svg width="28" height="26" viewBox="0 0 28 26" fill="none" xmlns="http://www.w3.org/2000/svg">
<path d="M26 5.87691H3.055C2.8092 5.8865 2.56803 5.80823 2.3747 5.65614C2.18137 5.50404 2.04853 5.28806 2 5.04691C1.975 4.90211 1.98223 4.75357 2.02116 4.61187C2.06009 4.47017 2.12978 4.33879 2.22525 4.22709C2.32073 4.11538 2.43965 4.02609 2.57356 3.96556C2.70747 3.90504 2.85307 3.87477 3 3.87691H22.08C22.4635 3.87691 22.8432 3.80139 23.1974 3.65464C23.5517 3.5079 23.8736 3.29281 24.1448 3.02166C24.4159 2.75052 24.631 2.42862 24.7777 2.07435C24.9245 1.72008 25 1.34037 25 0.956913C24.9996 0.821398 24.9704 0.68751 24.9146 0.564057C24.8587 0.440604 24.7773 0.330383 24.6757 0.240644C24.5742 0.150905 24.4548 0.0836827 24.3254 0.0433979C24.196 0.00311307 24.0595 -0.00932077 23.925 0.00691365L2.06 2.63191C1.49254 2.70031 0.969729 2.97403 0.590228 3.40143C0.210727 3.82883 0.000778635 4.38034 0 4.95191V22.1667C0 22.523 0.0819478 23.0219 0.184419 23.5065C0.394373 24.4993 1.16745 25.2724 2.16029 25.4823C2.64482 25.5847 3.14368 25.6667 3.5 25.6667H24.5C24.8563 25.6667 25.3552 25.5847 25.8397 25.4823C26.8326 25.2724 27.6057 24.4993 27.8156 23.5064C27.9181 23.0218 28 22.523 28 22.1667V7.87691C28 7.34648 27.7893 6.83777 27.4142 6.4627C27.0391 6.08763 26.5304 5.87691 26 5.87691Z" fill="#5BB95B"/>
<path d="M11.3168 14.3503V9.91699H8.51683L8.51683 14.3503H4.0835V17.1503H8.51683V21.5837H11.3168V17.1503H15.7502V14.3503H11.3168Z" fill="#181E2F"/>
<circle cx="22.75" cy="15.75" r="1.75" fill="#181E2F"/>
</svg>
