<svg width="20" height="5.1613" version="1.1" viewBox="0 0 5.2917 1.3656" xmlns="http://www.w3.org/2000/svg">
 <g transform="translate(-48.156 -181.79)">
  <g transform="matrix(.26458 0 0 .26458 51.149 165.26)" fill="none">
   <g transform="translate(-10.687 19.956)" fill="#292c43">
    <g transform="translate(-10.623 25.521)">
     <path d="m12.581 22.161c-1.4252 0-2.5806-1.1554-2.5806-2.5807 0-1.4252 1.1554-2.5806 2.5806-2.5806 1.4253 0 2.5807 1.1554 2.5807 2.5806 0 1.4253-1.1554 2.5807-2.5807 2.5807zm14.839 0c-1.4253 0-2.5807-1.1554-2.5807-2.5807 0-1.4252 1.1554-2.5806 2.5807-2.5806 1.4252 0 2.5806 1.1554 2.5806 2.5806 0 1.4253-1.1554 2.5807-2.5806 2.5807zm-7.4194 0c-1.4253 0-2.5806-1.1554-2.5806-2.5807 0-1.4252 1.1553-2.5806 2.5806-2.5806s2.5806 1.1554 2.5806 2.5806c0 1.4253-1.1553 2.5807-2.5806 2.5807z" clip-rule="evenodd" fill="#292c43" fill-rule="evenodd"/>
    </g>
    <g transform="translate(-10.623 25.521)">
     <path d="m12.581 22.161c-1.4252 0-2.5806-1.1554-2.5806-2.5807 0-1.4252 1.1554-2.5806 2.5806-2.5806 1.4253 0 2.5807 1.1554 2.5807 2.5806 0 1.4253-1.1554 2.5807-2.5807 2.5807zm14.839 0c-1.4253 0-2.5807-1.1554-2.5807-2.5807 0-1.4252 1.1554-2.5806 2.5807-2.5806 1.4252 0 2.5806 1.1554 2.5806 2.5806 0 1.4253-1.1554 2.5807-2.5806 2.5807zm-7.4194 0c-1.4253 0-2.5806-1.1554-2.5806-2.5807 0-1.4252 1.1553-2.5806 2.5806-2.5806s2.5806 1.1554 2.5806 2.5806c0 1.4253-1.1553 2.5807-2.5806 2.5807z" clip-rule="evenodd" fill="#292c43" fill-rule="evenodd"/>
    </g>
   </g>
  </g>
 </g>
</svg>
