<svg width="20.637mm" height="14.817mm" version="1.1" viewBox="0 0 20.637 14.817" xmlns="http://www.w3.org/2000/svg">
 <g transform="translate(18.218 -144.83)" fill="none">
  <g transform="matrix(.26458 0 0 .26458 -18.218 144.83)">
   <g fill="#fff" stroke="#5a6487" stroke-width="2">
    <circle cx="50" cy="28" r="27" opacity=".2"/>
    <circle cx="42" cy="28" r="27" opacity=".5"/>
    <circle cx="34" cy="28" r="27"/>
   </g>
   <circle cx="8" cy="28" r="6" fill="#5a6487" stroke="#fff" stroke-width="4"/>
   <path d="m32.567 23.4h-4.52v3.4c0.6266-0.3333 1.2466-0.5 1.86-0.5 1.04 0 1.88 0.3867 2.52 1.16 0.64 0.76 0.96 1.8133 0.96 3.16 0 0.92-0.1934 1.7333-0.58 2.44-0.3734 0.7067-0.9067 1.26-1.6 1.66-0.6934 0.3867-1.5 0.58-2.42 0.58-0.84 0-1.5734-0.16-2.2-0.48-0.6267-0.3333-1.2-0.8-1.72-1.4l1.42-1.3c0.36 0.4133 0.7266 0.7267 1.1 0.94 0.3866 0.2 0.82 0.3 1.3 0.3 0.68 0 1.2066-0.2333 1.58-0.7 0.3733-0.4667 0.56-1.1467 0.56-2.04 0-1.6933-0.6134-2.54-1.84-2.54-0.2667 0-0.52 0.04-0.76 0.12-0.24 0.0667-0.5067 0.1867-0.8 0.36h-1.74v-7.02h7.18zm7.2317 0.96v3.02h2.72v1.98h-2.72v3.02h-2.1v-3.02h-2.7v-1.98h2.7v-3.02z" fill="#2b3250"/>
  </g>
  <g transform="matrix(.26458 0 0 .26458 -18.218 144.83)">
   <g fill="#2b3250" stroke="#fff" stroke-width="2">
    <circle cx="50" cy="28" r="27" opacity=".2"/>
    <circle cx="42" cy="28" r="27" opacity=".5"/>
    <circle cx="34" cy="28" r="27"/>
   </g>
   <circle cx="8" cy="28" r="6" fill="#fff" stroke="#2b3250" stroke-width="4"/>
   <path d="m32.567 23.4h-4.52v3.4c0.6266-0.3333 1.2466-0.5 1.86-0.5 1.04 0 1.88 0.3867 2.52 1.16 0.64 0.76 0.96 1.8133 0.96 3.16 0 0.92-0.1934 1.7333-0.58 2.44-0.3734 0.7067-0.9067 1.26-1.6 1.66-0.6934 0.3867-1.5 0.58-2.42 0.58-0.84 0-1.5734-0.16-2.2-0.48-0.6267-0.3333-1.2-0.8-1.72-1.4l1.42-1.3c0.36 0.4133 0.7266 0.7267 1.1 0.94 0.3866 0.2 0.82 0.3 1.3 0.3 0.68 0 1.2066-0.2333 1.58-0.7 0.3733-0.4667 0.56-1.1467 0.56-2.04 0-1.6933-0.6134-2.54-1.84-2.54-0.2667 0-0.52 0.04-0.76 0.12-0.24 0.0667-0.5067 0.1867-0.8 0.36h-1.74v-7.02h7.18zm7.2317 0.96v3.02h2.72v1.98h-2.72v3.02h-2.1v-3.02h-2.7v-1.98h2.7v-3.02z" fill="#fff"/>
  </g>
 </g>
</svg>
