<?xml version="1.0" encoding="UTF-8"?>
<!-- Created with Inkscape (http://www.inkscape.org/) -->
<svg width="4.4979mm" height="5.0271mm" version="1.1" viewBox="0 0 4.4979 5.0271" xmlns="http://www.w3.org/2000/svg" xmlns:cc="http://creativecommons.org/ns#" xmlns:dc="http://purl.org/dc/elements/1.1/" xmlns:rdf="http://www.w3.org/1999/02/22-rdf-syntax-ns#">
 <metadata>
  <rdf:RDF>
   <cc:Work rdf:about="">
    <dc:format>image/svg+xml</dc:format>
    <dc:type rdf:resource="http://purl.org/dc/dcmitype/StillImage"/>
    <dc:title/>
   </cc:Work>
  </rdf:RDF>
 </metadata>
 <g transform="translate(-119.86 -165.9)">
  <g transform="matrix(.26458 0 0 .26458 79.451 124.53)" fill="#241c1c">
   <g transform="translate(227.21 137.86)" fill="#292c43">
    <path d="m1 0c-0.55228 0-1 0.44772-1 1 0 0.55228 0.44772 1 1 1zm17 2c0.5523 0 1-0.44772 1-1 0-0.55228-0.4477-1-1-1zm-17 4c-0.55228 0-1 0.44772-1 1s0.44772 1 1 1zm17 2c0.5523 0 1-0.44772 1-1s-0.4477-1-1-1zm-17 4c-0.55228 0-1 0.4477-1 1s0.44772 1 1 1zm17 2c0.5523 0 1-0.4477 1-1s-0.4477-1-1-1zm-17-12h17v-2h-17zm0 6h17v-2h-17zm0 6h17v-2h-17z" fill="#292c43"/>
   </g>
   <g transform="translate(151.71 156.36)">
    <path d="M 9.5,0 C 4.80558,0 1,3.75291 1,8.38235 1,11.9488 3.25852,14.995 6.44204,16.2059 L 2.5,19 11.6882,16.4843 C 15.3222,15.5323 18,12.2657 18,8.38235 18,3.75291 14.1944,0 9.5,0 Z" fill="#292c43"/>
    <path d="m9.5983 4.5039c0.544 0 1.008 0.092 1.392 0.276 0.384 0.176 0.672 0.416 0.864 0.72 0.192 0.296 0.288 0.62 0.288 0.972 0 0.328-0.056 0.608-0.168 0.84s-0.248 0.42-0.408 0.564c-0.16 0.136-0.372 0.296-0.636 0.48-0.32 0.216-0.56 0.416-0.72 0.6-0.152 0.176-0.22799 0.408-0.22799 0.696v0.35999h-1.572v-0.41999c0-0.368 0.056-0.68 0.168-0.936 0.12-0.256 0.26-0.46 0.42-0.612 0.168-0.152 0.376-0.312 0.624-0.48 0.256-0.168 0.44-0.316 0.552-0.444 0.12-0.128 0.18-0.292 0.18-0.492 0-0.248-0.084-0.436-0.252-0.564-0.16-0.136-0.384-0.204-0.672-0.204-0.544 0-1.032 0.252-1.464 0.756l-1.104-0.852c0.352-0.408 0.752-0.72 1.2-0.936s0.96-0.324 1.536-0.324zm-0.384 6.636c0.288 0 0.532 0.1 0.732 0.3s0.3 0.44 0.3 0.72-0.1 0.524-0.3 0.732c-0.2 0.2-0.444 0.3-0.732 0.3s-0.532-0.1-0.732-0.3c-0.192-0.2-0.288-0.444-0.288-0.732 0-0.28 0.096-0.52 0.288-0.72 0.2-0.2 0.444-0.3 0.732-0.3z" fill="#fffeff"/>
   </g>
  </g>
 </g>
</svg>
