<svg width="19.976" height="20" version="1.1" viewBox="0 0 5.2854 5.2918" xmlns="http://www.w3.org/2000/svg">
 <g transform="translate(-60.27 -169.01)">
  <g transform="matrix(.26458 0 0 .26458 51.149 165.26)" fill="none">
   <g transform="translate(-10.687 19.956)" fill="#292c43">
    <g transform="translate(35.162 -15.783)" fill="#292c43">
     <path d="m28.511 12.499-1.0311-1.0311c-1.9568-1.9568-5.1341-1.9568-7.0909 0l-3.7875 3.7875c-0.2315 0.2315-0.4208 0.484-0.6102 0.7365-1.01 1.4729-1.1363 3.3876-0.3788 4.9658 0.1684 0.3577 0.3788 0.6943 0.6313 1.01 0.1052 0.1262 0.2314 0.2525 0.3366 0.3787l1.0311 1.031c0.1262 0.1263 0.2525 0.2315 0.3787 0.3367l2.2094-2.1673c0.0631-0.0631 0.1262-0.1683 0.1262-0.2525-0.1262-0.0631-0.2314-0.1683-0.3366-0.2735l-1.0311-1.031c-0.1052-0.1053-0.1893-0.2315-0.2735-0.3367-0.2104-0.3577-0.2735-0.7575-0.1894-1.1363 0.0631-0.3156 0.2104-0.6312 0.4629-0.8837l3.8085-3.8085c0.6523-0.6523 1.7044-0.6523 2.3567 0l1.031 1.031c0.6523 0.6523 0.6523 1.7044 0 2.3567l-0.9468 0.9468c0.6943 1.2415 0.9258 2.6513 0.6943 4.019l2.5881-2.5881c1.9779-1.9569 1.9779-5.1342 0.0211-7.091z"/>
     <path d="m24.366 19.022c-0.1684-0.3577-0.3788-0.6944-0.6313-1.01-0.1052-0.1263-0.2314-0.2525-0.3366-0.3788l-1.0311-1.031c-0.1262-0.1263-0.2525-0.2315-0.3787-0.3367l-2.2094 2.1673c-0.0841 0.0842-0.1262 0.1683-0.1262 0.2525 0.1262 0.0631 0.2525 0.1473 0.3366 0.2525l1.0311 1.031c0.1052 0.1052 0.1894 0.2315 0.2525 0.3367 0.2104 0.3577 0.2735 0.7575 0.1894 1.1362-0.0632 0.3157-0.2105 0.6313-0.463 0.8838l-3.7874 3.8295c-0.6523 0.6523-1.7044 0.6523-2.3567 0l-1.031-1.031c-0.6523-0.6523-0.6523-1.7044 0-2.3567l0.9469-0.9468c-0.6944-1.2415-0.9259-2.6512-0.6944-4.0189l-2.6092 2.6091c-1.9568 1.9569-1.9568 5.1341 0 7.091l1.0311 1.031c1.9568 1.9569 5.1341 1.9569 7.091 0l3.8085-3.8085c0.2314-0.2314 0.4208-0.4629 0.6102-0.7364 0.9889-1.473 1.1152-3.3877 0.3577-4.9658z"/>
    </g>
   </g>
  </g>
 </g>
</svg>
