<svg width="26" height="28" viewBox="0 0 26 28" fill="none" xmlns="http://www.w3.org/2000/svg">
<path d="M12.9999 0L0 4.99996V7.99993C0 8.59992 0.399997 8.99992 0.999991 8.99992H24.9998C25.5998 8.99992 25.9998 8.59992 25.9998 7.99993V4.99996L12.9999 0ZM12.9999 6.99994C11.8999 6.99994 10.9999 6.09995 10.9999 4.99996C10.9999 3.89997 11.8999 2.99997 12.9999 2.99997C14.0999 2.99997 14.9999 3.89997 14.9999 4.99996C14.9999 6.09995 14.0999 6.99994 12.9999 6.99994Z" fill="#31ABC4"/>
<path d="M24.9998 24.9999H23.9998V13C23.9998 11.9 23.0998 11 21.9998 11C20.8998 11 19.9998 11.9 19.9998 13V24.9999H14.9999V13C14.9999 11.9 14.0999 11 12.9999 11C11.8999 11 10.9999 11.9 10.9999 13V24.9999H5.99995V13.1C5.99995 12 4.99996 11 3.89997 11C2.89998 11 1.99998 11.8 1.99998 12.9V24.9999H0.999991C0.399997 24.9999 0 25.3999 0 25.9999V27.9999H25.9998V25.9999C25.9998 25.3999 25.5998 24.9999 24.9998 24.9999Z" fill="#31ABC4"/>
</svg>
