<svg width="4.3766mm" height="5.9469mm" version="1.1" viewBox="0 0 4.3766 5.9469" xmlns="http://www.w3.org/2000/svg">
 <g transform="translate(24.276 -226.33)">
  <g transform="matrix(.26458 0 0 .26458 -18.218 144.83)" fill="none">
   <g transform="matrix(3.7795 0 0 3.7795 -53.546 -627.91)">
    <g transform="matrix(.26458 0 0 .26458 51.149 165.26)" fill="none">
     <g transform="matrix(3.7795,0,0,3.7795,-308.6,-672.95)">
      <g transform="matrix(.26458 0 0 .26458 51.149 165.26)">
       <g fill="#2b3250">
        <g transform="matrix(.24117 0 0 .281 -248.3 323.52)" fill="#fffffc">
         <path d="m843.11 136.1 9.7068 7.0769c3.7232-2.7181 8.8647-4.3996 14.549-4.3996 11.369 0 20.577 6.7177 20.577 15.003v24.994h-13.718l27.436 19.998v-45c0-13.811-15.336-24.994-34.295-24.994-9.4741 0-18.051 2.7997-24.256 7.3217zm24.256 62.672c-11.369 0-20.577-6.7177-20.577-15.003v-25.002h13.718l-27.436-19.998v45c0 13.803 15.358 25.002 34.295 25.002 9.4741 0 18.051-2.7997 24.245-7.3217l-9.6957-7.0769c-3.7232 2.7181-8.8647 4.3996-14.549 4.3996z" fill="#fffffc" stroke-width=".095104"/>
        </g>
       </g>
      </g>
     </g>
    </g>
   </g>
  </g>
 </g>
</svg>
