<svg width="6.3498mm" height="6.3502mm" version="1.1" viewBox="0 0 6.3498 6.3502" xmlns="http://www.w3.org/2000/svg">
 <g transform="translate(-97.157 -143.72)">
  <g transform="matrix(.26458 0 0 .26458 95.041 141.6)" fill="#f2696d">
   <path d="m14 31.001c0 0.5499-0.4503 1.0001-0.9999 1.0001h-3.9998c-0.54989 0-1.0002-0.4502-1.0002-1.0001v-3.9998c0-0.5499 0.45029-0.9999 1.0002-0.9999h3.9998c0.5496 0 0.9999 0.45 0.9999 0.9999z"/>
   <path d="m21.999 31.001c0 0.5499-0.4503 1.0001-0.9999 1.0001h-3.9998c-0.5499 0-1.0002-0.4502-1.0002-1.0001v-3.9998c0-0.5499 0.4503-0.9999 1.0002-0.9999h3.9998c0.5496 0 0.9999 0.45 0.9999 0.9999z"/>
   <path d="m29.999 31.001c0 0.5499-0.4503 1.0001-0.9999 1.0001h-3.9998c-0.5499 0-1.0002-0.4502-1.0002-1.0001v-3.9998c0-0.5499 0.4503-0.9999 1.0002-0.9999h3.9998c0.5496 0 0.9999 0.45 0.9999 0.9999z"/>
   <path d="m14 23.001c0 0.5499-0.4503 0.9998-0.9999 0.9998h-3.9998c-0.54989 0-1.0002-0.4499-1.0002-0.9998v-3.9998c0-0.5499 0.45029-0.9999 1.0002-0.9999h3.9998c0.5496 0 0.9999 0.45 0.9999 0.9999z"/>
   <path d="m21.999 23.001c0 0.5499-0.4503 0.9998-0.9999 0.9998h-3.9998c-0.5499 0-1.0002-0.4499-1.0002-0.9998v-3.9998c0-0.5499 0.4503-0.9999 1.0002-0.9999h3.9998c0.5496 0 0.9999 0.45 0.9999 0.9999z"/>
   <path d="m27.3 24.537c-0.5088 0.2097-1.0965-0.0333-1.3065-0.5411l-1.5311-3.6951c-0.2097-0.5076 0.0333-1.0955 0.5412-1.3064l3.6959-1.5315c0.5076-0.2109 1.0953 0.0333 1.3056 0.5412l1.5311 3.6962c0.2097 0.5076-0.0333 1.0953-0.5412 1.3056z"/>
   <path d="m14 15.002c0 0.5499-0.4503 0.9999-0.9999 0.9999h-3.9998c-0.54989 0-1.0002-0.45-1.0002-0.9999v-3.9998c0-0.5499 0.45029-0.9998 1.0002-0.9998h3.9998c0.5496 0 0.9999 0.4499 0.9999 0.9998z"/>
   <path d="m21.006 15.997c-0.21 0.5075-0.7989 0.7517-1.3065 0.5411l-3.6953-1.5311c-0.5079-0.21-0.7521-0.7989-0.5412-1.3065l1.5303-3.695c0.2109-0.5076 0.7988-0.75209 1.3064-0.5412l3.6963 1.5312c0.5075 0.21 0.7508 0.7989 0.5408 1.3064z"/>
   <path d="m31.708 11.121c0.3888 0.3888 0.3888 1.0254 0 1.4142l-2.828 2.8289c-0.3885 0.3888-1.0254 0.3888-1.4139 0l-2.8283-2.8289c-0.3885-0.3888-0.3885-1.0254 0-1.4142l2.8283-2.8292c0.3885-0.38849 1.0254-0.38849 1.4139 0z"/>
  </g>
 </g>
</svg>
