<svg width="26" height="27" viewBox="0 0 26 27" fill="none" xmlns="http://www.w3.org/2000/svg">
<path d="M0.00367615 25.5075C0.00367615 24.9552 0.451391 24.5075 1.00368 24.5075H13.7082C14.2605 24.5075 14.7082 24.9552 14.7082 25.5075V25.9582C14.7082 26.5105 14.2605 26.9582 13.7082 26.9582H1.00368C0.451391 26.9582 0.00367615 26.5105 0.00367615 25.9582V25.5075ZM5.91282 9.37088C5.52218 8.98021 5.52236 8.34677 5.91322 7.95632L7.96605 5.90567C8.35665 5.51548 8.98956 5.51567 9.37993 5.9061L25.293 21.8214C25.6835 22.2119 25.6834 22.8451 25.2929 23.2356L23.2418 25.2867C22.8512 25.6773 22.2181 25.6773 21.8275 25.2867L5.91282 9.37088ZM13.1642 0.706793C13.5547 0.316411 14.1877 0.31644 14.5782 0.706856L20.096 6.22361C20.4865 6.61413 20.4866 7.24734 20.096 7.63789L18.0429 9.69105C17.6522 10.0817 17.0187 10.0815 16.6283 9.69067L11.1136 4.17014C10.7234 3.77951 10.7236 3.14653 11.1141 2.75618L13.1642 0.706793ZM2.75825 11.1044C3.14878 10.7139 3.78194 10.7139 4.17247 11.1044L9.6902 16.6221C10.0807 17.0127 10.0807 17.6458 9.6902 18.0364L7.63905 20.0875C7.24853 20.478 6.61536 20.478 6.22484 20.0875L0.707107 14.5698C0.316582 14.1792 0.316583 13.5461 0.707107 13.1556L2.75825 11.1044Z" fill="#F09456"/>
</svg>
