<svg width="5.2916mm" height="4.9135mm" version="1.1" viewBox="0 0 5.2916 4.9135" xmlns="http://www.w3.org/2000/svg">
 <g transform="translate(12.883 -165.42)">
  <g transform="matrix(.26458 0 0 .26458 -18.218 144.83)" fill="none">
   <g transform="matrix(3.7795 0 0 3.7795 -53.546 -627.91)">
    <g transform="matrix(.26458 0 0 .26458 51.149 165.26)" fill="none">
     <g transform="matrix(3.7795,0,0,3.7795,-308.6,-672.95)">
      <g transform="matrix(.26458 0 0 .26458 51.149 165.26)">
       <g fill="#2b3250">
        <g transform="matrix(1 0 0 1 -14.327 118.51)" fill="#fff">
         <path d="m20 22.429c1.578 0 2.8571-1.2792 2.8571-2.8571 0-1.578-1.2791-2.8572-2.8571-2.8572-1.5779 0-2.8571 1.2792-2.8571 2.8572 0 1.5779 1.2792 2.8571 2.8571 2.8571z"/>
         <path d="m20 23.856c-3.1557 0-5.7143 1.2786-5.7143 2.8572v2.8571h11.429v-2.8571c0-1.5786-2.5586-2.8572-5.7143-2.8572z"/>
         <path d="m25.714 16.715c-0.8071 0-1.5528 0.1572-2.1971 0.4158 0.4814 0.6942 0.7686 1.5328 0.7686 2.4414 0 0.5043-0.1029 0.98-0.2629 1.4286h5.9771v-1.4286c0-1.5786-1.9185-2.8572-4.2857-2.8572z"/>
         <path d="m14.286 15.286c1.1835 0 2.1429-0.9594 2.1429-2.1428 0-1.1835-0.9594-2.1429-2.1429-2.1429-1.1834 0-2.1428 0.9594-2.1428 2.1429 0 1.1834 0.9594 2.1428 2.1428 2.1428z"/>
         <path d="m25.714 15.286c1.1835 0 2.1429-0.9594 2.1429-2.1428 0-1.1835-0.9594-2.1429-2.1429-2.1429-1.1834 0-2.1428 0.9594-2.1428 2.1429 0 1.1834 0.9594 2.1428 2.1428 2.1428z"/>
         <path d="m15.714 19.572c0-0.9086 0.2871-1.7472 0.7686-2.4414-0.6443-0.2586-1.39-0.4158-2.1972-0.4158-2.3671 0-4.2857 1.2786-4.2857 2.8572v1.4286h5.9771c-0.16-0.4486-0.2628-0.9243-0.2628-1.4286z"/>
        </g>
       </g>
      </g>
     </g>
    </g>
   </g>
  </g>
 </g>
</svg>
