<svg width="26" height="26" viewBox="0 0 26 26" fill="none" xmlns="http://www.w3.org/2000/svg">
<path d="M9.28619 3.71438H1.85742L5.29973 0.272079C5.47399 0.097812 5.71017 0 5.95655 0H13.0006L9.28619 3.71438Z" fill="#F09456"/>
<path d="M26.0006 0.928596V20.8934C26.0006 21.1856 25.8628 21.4608 25.6291 21.6363L23.2179 23.4449L23.2151 5.10728C23.2151 4.33809 22.5914 3.71469 21.8222 3.71469H14.8574L18.5718 0H25.072C25.5849 0 26.0006 0.415701 26.0006 0.928596Z" fill="#F09456"/>
<path d="M20.4291 5.57129H13.9289V8.35708H8.35736V5.57129H0.928596C0.415702 5.57129 0 5.98699 0 6.49989V25.0718C0 25.5847 0.415702 26.0004 0.928596 26.0004H20.4291C20.942 26.0004 21.3577 25.5847 21.3577 25.0718V6.49989C21.3577 5.98699 20.942 5.57129 20.4291 5.57129ZM13.4646 22.286H12.0717V19.5002H13.4646C14.2326 19.5002 14.8575 18.8753 14.8575 18.1073C14.8575 17.3394 14.2326 16.7144 13.4646 16.7144H9.28596V18.4556C9.28596 18.8515 9.08724 19.213 8.77276 19.39C8.4623 19.5646 8.08591 19.5315 7.80021 19.291L4.08582 16.1573C3.85182 15.9604 3.71438 15.6509 3.71438 15.3219C3.71438 14.9928 3.85182 14.6833 4.08582 14.4864L7.80021 11.3524C8.08188 11.1147 8.45765 11.076 8.77276 11.2534C9.08724 11.4304 9.28596 11.792 9.28596 12.1878V13.9287H13.4646C15.7688 13.9287 17.6433 15.8032 17.6433 18.1073C17.6433 20.4115 15.7688 22.286 13.4646 22.286Z" fill="#F09456"/>
</svg>
