<svg width="40" height="40" viewBox="0 0 40 40" fill="none" xmlns="http://www.w3.org/2000/svg">
<path fill-rule="evenodd" clip-rule="evenodd" d="M17.4396 9.32669C22.7965 7.93436 28.2479 11.1202 29.6638 16.4536C31.0797 21.7869 27.8939 27.2619 22.5369 28.6542L11.9882 31.4389L14.6313 27.4035C12.5782 26.1055 10.9971 24.0524 10.3363 21.5273C8.92036 16.194 12.1062 10.719 17.4396 9.32669ZM22.6 13.7994C21.7866 12.9647 20.1306 12.6735 18.9765 12.9999C17.8225 13.3263 17.3419 13.7719 16.3766 14.9147L17.758 15.9966C18.3793 15.2643 19.0839 14.8981 19.8717 14.8981C20.3044 14.8981 20.6429 15.0035 20.887 15.2143C21.1422 15.414 21.2698 15.697 21.2698 16.0631C21.2698 16.3627 21.181 16.6068 21.0035 16.7955C20.837 16.9841 20.5652 17.206 20.1879 17.4612C19.8329 17.7053 19.5444 17.9328 19.3225 18.1436C19.1006 18.3433 18.9064 18.6207 18.74 18.9758C18.5846 19.3197 18.5069 19.7414 18.5069 20.2407V20.8898H20.4875V20.3239C20.4875 19.9023 20.5985 19.5638 20.8204 19.3086C21.0423 19.0534 21.3807 18.776 21.8357 18.4765C22.1907 18.2324 22.4792 18.0104 22.7011 17.8107C22.923 17.611 23.1117 17.3558 23.267 17.0451C23.4223 16.7233 23.5 16.3405 23.5 15.8967C23.5 15.4085 23.4135 14.6341 22.6 13.7994ZM20.4875 22.9036C20.2212 22.6373 19.8995 22.5042 19.5222 22.5042C19.1449 22.5042 18.8287 22.6373 18.5735 22.9036C18.3183 23.1588 18.1907 23.4751 18.1907 23.8523C18.1907 24.2185 18.3183 24.5347 18.5735 24.801C18.8398 25.0673 19.156 25.2005 19.5222 25.2005C19.8995 25.2005 20.2212 25.0673 20.4875 24.801C20.7538 24.5347 20.887 24.2185 20.887 23.8523C20.887 23.4751 20.7538 23.1588 20.4875 22.9036Z" fill="white"/>
</svg>
