<svg width="27" height="27" viewBox="0 0 27 27" fill="none" xmlns="http://www.w3.org/2000/svg">
<path d="M25.5369 5.35086H6.2952L5.21875 2.25604C5.21875 1.85237 4.94963 1.58325 4.54596 1.4487L1.85482 0.103126C1.31659 -0.165989 0.509246 0.103126 0.105575 0.775911C-0.163539 1.4487 0.105575 2.25604 0.643804 2.52515L2.79672 3.60161C4.27685 7.90744 3.4695 4.94718 6.2952 19.0757L6.64356 20.7022C6.74231 21.1633 7.14976 21.4928 7.62134 21.493C9.6931 21.4939 11.812 21.4977 11.812 21.4977H17.7326C19.141 21.4977 20.8407 21.4954 21.7865 21.494C22.2197 21.4933 22.6022 21.2137 22.7353 20.8015L23.2494 19.2102L26.8825 7.1001C27.017 6.1582 26.4788 5.35086 25.5369 5.35086Z" fill="#F09456"/>
<circle cx="21" cy="25" r="2" fill="#F09456"/>
<circle cx="8" cy="25" r="2" fill="#F09456"/>
</svg>
