<?xml version="1.0" encoding="UTF-8"?>
<!-- Created with Inkscape (http://www.inkscape.org/) -->
<svg width="6.35mm" height="6.35mm" version="1.1" viewBox="0 0 6.35 6.35" xmlns="http://www.w3.org/2000/svg" xmlns:cc="http://creativecommons.org/ns#" xmlns:dc="http://purl.org/dc/elements/1.1/" xmlns:rdf="http://www.w3.org/1999/02/22-rdf-syntax-ns#">
 <metadata>
  <rdf:RDF>
   <cc:Work rdf:about="">
    <dc:format>image/svg+xml</dc:format>
    <dc:type rdf:resource="http://purl.org/dc/dcmitype/StillImage"/>
    <dc:title/>
   </cc:Work>
  </rdf:RDF>
 </metadata>
 <g transform="translate(-137.21 -155.2)">
  <g transform="matrix(.26458 0 0 .26458 79.451 124.53)" fill="#241c1c">
   <g transform="translate(218.3 115.92)" fill="#292c43">
    <path d="m13.366 0h-2.7324v2.759c-1.9874 0.29471-3.8312 1.2233-5.2534 2.6534-1.4216 1.4295-2.3398 3.2776-2.6238 5.2658h-2.7566v2.7323h2.7569c0.28601 1.9952 1.2107 3.8489 2.6415 5.2797s3.2845 2.3555 5.2798 2.6416v2.6682h2.7323v-2.7147c1.9874-0.2947 3.8312-1.2233 5.2534-2.6534 1.4216-1.4295 2.3397-3.2776 2.6238-5.2657h2.7123v-2.7324h-2.7147c-0.2947-1.9874-1.2233-3.8312-2.6534-5.2534-1.4295-1.4216-3.2776-2.3398-5.2657-2.6238zm-6.0339 7.3323c0.90677-0.90676 2.0548-1.5273 3.3015-1.7919v2.5088h2.7324v-2.5088c1.2468 0.26455 2.3948 0.8851 3.3015 1.7919 0.9068 0.90677 1.5273 2.0548 1.7919 3.3015h-2.5088v2.7324h2.5088c-0.2646 1.2468-0.8851 2.3948-1.7919 3.3015-0.9067 0.9068-2.0547 1.5273-3.3015 1.7919v-2.5088h-2.7324v2.5088c-1.2468-0.2646-2.3948-0.8851-3.3015-1.7919-0.90676-0.9067-1.5273-2.0547-1.7919-3.3015h2.5088v-2.7324h-2.5088c0.26455-1.2468 0.8851-2.3948 1.7919-3.3015z" clip-rule="evenodd" fill-rule="evenodd"/>
    <path d="m12 14c1.1046 0 2-0.8954 2-2s-0.8954-2-2-2-2 0.8954-2 2 0.8954 2 2 2z"/>
   </g>
  </g>
 </g>
</svg>
