<?xml version="1.0" encoding="UTF-8"?><!DOCTYPE svg PUBLIC "-//W3C//DTD SVG 1.1//EN" "http://www.w3.org/Graphics/SVG/1.1/DTD/svg11.dtd"><svg xmlns="http://www.w3.org/2000/svg"><symbol id="hamburger" viewBox="0 0 22 18"><path fill="#FFF" d="M0 2h22V0H0zm0 8h22V8H0zm0 8h22v-2H0z"/></symbol><symbol id="logo" viewBox="0 0 211 32"><title>pricefon.com</title><path d="M9.063 21.489c-2.119 0-3.39-1.47-3.39-4.378v-.262c0-2.875 1.271-4.41 3.39-4.41 2.054 0 3.358 1.437 3.358 4.443v.261c0 2.81-1.173 4.346-3.358 4.346zM0 31.289h5.836v-8.232c.847 1.699 2.706 2.908 5.281 2.908 4.01 0 7.238-2.94 7.238-8.822v-.26c0-5.849-3.228-8.855-7.205-8.855-2.576 0-4.336 1.373-5.314 3.006V8.486H0V31.29zm20.963-5.717H26.8V17.47c0-2.744 1.956-3.855 5.51-3.757V8.257c-2.641-.033-4.434 1.078-5.51 3.627V8.486h-5.836v17.086zm17.018-18.72c1.826 0 3.228-1.274 3.228-3.005 0-1.732-1.402-3.039-3.228-3.039-1.825 0-3.195 1.307-3.195 3.039 0 1.731 1.37 3.005 3.195 3.005zm-2.901 18.72h5.835V8.486H35.08v17.086zm17.507.393c5.51 0 8.411-2.81 8.574-7.123h-5.249c-.195 1.863-1.336 2.843-2.966 2.843-2.217 0-3.358-1.536-3.358-4.509v-.261c0-2.875 1.206-4.345 3.26-4.345 1.695 0 2.478.882 2.738 2.483h5.478c-.327-5.195-4.174-7.025-8.347-7.025-5.02 0-9.096 3.267-9.096 8.952v.261c0 5.75 3.88 8.724 8.966 8.724zm19.3 0c5.151 0 8.118-2.19 8.64-6.045H75.05c-.228 1.144-1.044 2.026-2.967 2.026-2.087 0-3.39-1.307-3.554-3.561h11.998v-1.536c0-6.142-4.01-8.82-8.672-8.82-5.151 0-9.227 3.462-9.227 8.951v.261c0 5.587 3.913 8.724 9.26 8.724zm-3.292-10.88c.293-2.058 1.5-3.201 3.26-3.201 1.89 0 2.901 1.143 3 3.201h-6.26zm15.322 10.487h5.804v-13.1h3.455V8.486h-3.455V6.983c0-1.11.586-1.862 1.956-1.862a5.35 5.35 0 0 1 1.597.228V1.07c-.782-.196-1.597-.36-2.673-.36-4.043 0-6.684 2.026-6.684 6.273v1.503h-2.151v3.986h2.151v13.1zm19.464.393c5.249 0 9.324-3.333 9.324-8.887v-.261c0-5.424-4.043-8.789-9.292-8.789-5.281 0-9.356 3.463-9.356 8.952v.261c0 5.522 4.075 8.724 9.324 8.724zm.032-4.346c-2.25 0-3.39-1.6-3.39-4.54v-.262c0-2.875 1.206-4.41 3.39-4.41 2.217 0 3.358 1.6 3.358 4.475v.261c0 2.843-1.173 4.476-3.358 4.476zm11.835 3.953h5.836V16c0-2.189 1.173-3.234 2.901-3.234 1.696 0 2.445.947 2.445 2.875v9.931h5.836V14.464c0-4.377-2.282-6.436-5.575-6.436-2.836 0-4.694 1.438-5.607 3.202V8.486h-5.836v17.086zm23.44.36c1.957 0 3.424-1.47 3.424-3.3 0-1.83-1.467-3.3-3.423-3.3-1.924 0-3.326 1.47-3.326 3.3 0 1.83 1.402 3.3 3.326 3.3zm14.052.033c5.51 0 8.412-2.81 8.575-7.123h-5.25c-.195 1.863-1.336 2.843-2.966 2.843-2.217 0-3.358-1.536-3.358-4.509v-.261c0-2.875 1.206-4.345 3.26-4.345 1.695 0 2.478.882 2.739 2.483h5.477c-.326-5.195-4.173-7.025-8.346-7.025-5.021 0-9.096 3.267-9.096 8.952v.261c0 5.75 3.88 8.724 8.965 8.724zm19.366 0c5.249 0 9.324-3.333 9.324-8.887v-.261c0-5.424-4.043-8.789-9.292-8.789-5.281 0-9.356 3.463-9.356 8.952v.261c0 5.522 4.075 8.724 9.324 8.724zm.032-4.346c-2.25 0-3.39-1.6-3.39-4.54v-.262c0-2.875 1.206-4.41 3.39-4.41 2.217 0 3.358 1.6 3.358 4.475v.261c0 2.843-1.173 4.476-3.358 4.476zm11.835 3.953h5.836v-9.899c0-1.862 1.043-2.875 2.608-2.875 1.337 0 2.184.85 2.184 2.581v10.193h5.77v-9.899c0-1.862 1.044-2.875 2.609-2.875 1.337 0 2.184.85 2.184 2.581v10.193H211V14.4c0-4.28-2.347-6.37-5.575-6.37-2.152 0-4.173.849-5.64 2.842-.815-1.863-2.38-2.843-4.63-2.843-2.64 0-4.433 1.438-5.346 3.071V8.486h-5.836v17.086z" fill="#FFF" fill-rule="evenodd"/></symbol><symbol id="star" viewBox="69 -2 16 16"><path fill-rule="evenodd" d="M77.309 9.95l-3.9 2.05.745-4.342L71 4.584l4.36-.634L77.308 0l1.95 3.95 4.359.634-3.155 3.074.745 4.342z"/></symbol><symbol id="user" viewBox="0 0 30 30"><g fill="none" fill-rule="evenodd"><ellipse stroke="#FFF" transform="rotate(22 14.905 9.001)" cx="14.905" cy="9.001" rx="4.45" ry="4.515"/><path d="M25.544 25.709l-.99-.147c.65-4.397-1.745-8.696-5.862-10.36-4.91-1.983-10.526.45-12.542 5.439a9.81 9.81 0 0 0-.648 4.894l-.992.123a10.81 10.81 0 0 1 .713-5.392c2.221-5.498 8.419-8.183 13.844-5.99 4.55 1.837 7.193 6.583 6.477 11.433z" fill="#FFF" fill-rule="nonzero" stroke-width="0"/></g></symbol><symbol id="controls-image" viewBox="-1 0 22 17"><g fill="none" fill-rule="evenodd"><rect transform="rotate(90 10 8.5)" x="2.481" y="-1.33" width="15.038" height="19.661" rx="1.538"/><rect x="15.385" y="3.091" width="2.005" height="2.07" rx="1.003"/><rect x="5.99" y="4.34" width="8.02" height="8.278" rx="4.01"/></g></symbol><symbol id="cta-barcode" viewBox="1017 219 20 13"><path d="M1019.5 220.324v10.373m8-10.373v10.373m2-10.373v10.373m3-10.373v10.373m2-10.373v10.373m-11-10.373v10.373m3-10.373v10.373" fill="none" fill-rule="evenodd" stroke-linecap="square"/></symbol><symbol id="cta-cashback" viewBox="12 8 8 12"><path d="M15.997 19.937h-.916v-.916c-.925-.069-1.666-.35-2.222-.845-.556-.494-.836-1.12-.84-1.876h1.168c.037.456.222.83.554 1.12.333.293.78.473 1.34.54v-3.554l-.547-.15c-.734-.196-1.296-.513-1.688-.95-.392-.438-.588-.971-.588-1.6 0-.747.253-1.36.759-1.839.505-.478 1.194-.76 2.064-.847v-.957h.916v.95c.848.073 1.532.352 2.054.837.522.485.794 1.1.817 1.842h-1.162a1.511 1.511 0 0 0-.489-1.087c-.312-.296-.719-.473-1.22-.533v3.343l.588.144c.843.223 1.464.55 1.863.98.399.431.598.988.598 1.672 0 .811-.267 1.462-.8 1.952s-1.283.773-2.249.85v.924zm1.866-3.63c0-.456-.15-.822-.45-1.098-.302-.275-.773-.481-1.416-.618v3.39c.597-.031 1.057-.193 1.38-.485.324-.292.486-.688.486-1.19zm-4.43-4.67c0 .402.14.737.421 1.006.28.268.69.46 1.227.574v-3.145c-.478.028-.873.188-1.183.482-.31.294-.464.655-.464 1.084z" stroke-width="0" fill-rule="evenodd"/></symbol><symbol id="cta-delete" viewBox="-1 -1 13 17"><g fill="none" fill-rule="evenodd"><path d="M2.5 7.23v5.502m3-5.502v5.502m3-5.502v5.502" stroke-linecap="square"/><path d="M0 5h11v10.2H0zm0-3h11v3H0zm4-2h2.75v1.8H4z"/></g></symbol><symbol id="cta-document" viewBox="-1 -1 19 23"><g fill="none" fill-rule="evenodd"><path d="M0 0h17v21.2H0z"/><path d="M2.53 4.5h11.646m-11.646 9h11.646m-11.646 3h11.646M2.53 7.5h11.646m-11.646 3h11.646" stroke-linecap="square"/></g></symbol><symbol id="cta-edit" viewBox="0 0 16 17"><title>&#x43A;&#x430;&#x440;&#x430;&#x43D;&#x434;&#x430;&#x448;&#x438;&#x43A;</title><g fill="none" fill-rule="evenodd"><path d="M8.341 13.514L.538 15.659l2.146-7.802L9.731.81l5.657 5.657zm.282-.136L2.713 7.47m4.084 3.643l6.805-6.805M4.978 9.295l6.805-6.805"/><path d="M3.732 14.632L1.46 12.36" stroke-linejoin="round"/></g></symbol><symbol id="cta-facebook-filled" viewBox="26 22 8 16"><path d="M30.636 26.522v-1.205c0-.589.391-.724.668-.724h1.69V22.01L30.667 22c-2.586 0-3.171 1.925-3.171 3.157v1.365H26v3.012h1.506v7.534h3.016v-7.534h2.236l.274-3.012h-2.396" stroke-width="0" fill-rule="evenodd"/></symbol><symbol id="cta-favourites" viewBox="0 0 13 13"><title>Star</title><path d="M6.309 9.95L2.409 12l.745-4.342L0 4.584l4.36-.634L6.308 0l1.95 3.95 4.359.634-3.155 3.074.745 4.342z" fill="none" fill-rule="evenodd"/></symbol><symbol id="cta-gplus" viewBox="0 0 16 10"><path d="M4.837 4.63h4.58l.008.508c0 2.72-1.888 4.712-4.5 4.712a4.925 4.925 0 1 1 3.456-8.433l-1.013.874a3.593 3.593 0 1 0-2.443 6.227c1.513 0 2.64-.98 3.005-2.576H4.842L4.837 4.63zM16 4.684V5.89h-1.89v1.89h-1.207V5.89h-1.89V4.684h1.89v-1.89h1.206v1.89H16z" fill="#FFF" stroke="#fff" fill-rule="evenodd"/></symbol><symbol id="cta-groupbuying" viewBox="0 0 30 30"><title>&#x438;&#x43A;&#x43E;&#x43D;&#x43A;&#x430; &#x441;&#x43E;&#x432;&#x43C;&#x435;&#x441;&#x442;&#x43D;&#x44B;&#x435; &#x43F;&#x43E;&#x43A;&#x443;&#x43F;&#x43A;&#x438;</title><g stroke-width="0"><path d="M14.685 28.37c-2.88 0-5.624-.89-7.916-2.52v-7.97c0-2.31 1.88-4.188 4.193-4.188a4.19 4.19 0 0 1 4.192 4.188v10.394l-.001.089a14.56 14.56 0 0 1-.468.008zm1.469-.096V17.88a5.19 5.19 0 0 0-5.192-5.188 5.194 5.194 0 0 0-5.193 5.188v8.476a14.622 14.622 0 0 0 8.916 3.015c.46 0 .916-.022 1.365-.063a5.18 5.18 0 0 0 .104-1.034z"/><path d="M24.385 20.201A4.192 4.192 0 1 0 16 20.188v8.12a13.634 13.634 0 0 0 8.385-3.967V20.2zm-9.27 9.163A5.241 5.241 0 0 1 15 28.266v-8.078a5.192 5.192 0 1 1 10.385.013v4.544a14.643 14.643 0 0 1-10.27 4.62zM7.923 9.808a3.041 3.041 0 0 0 3.039 3.038A3.041 3.041 0 0 0 14 9.808a3.041 3.041 0 0 0-3.038-3.039 3.041 3.041 0 0 0-3.039 3.039zm-1 0a4.041 4.041 0 0 1 4.039-4.039A4.041 4.041 0 0 1 15 9.808a4.041 4.041 0 0 1-4.038 4.038 4.041 4.041 0 0 1-4.039-4.038z"/><path d="M17.154 12.115a3.041 3.041 0 0 0 3.038 3.039 3.041 3.041 0 0 0 3.039-3.039 3.041 3.041 0 0 0-3.039-3.038 3.041 3.041 0 0 0-3.038 3.038zm-1 0a4.041 4.041 0 0 1 4.038-4.038 4.041 4.041 0 0 1 4.039 4.038 4.041 4.041 0 0 1-4.039 4.039 4.041 4.041 0 0 1-4.038-4.039z"/></g></symbol><symbol id="cta-ok" viewBox="0 0 9 15"><path d="M4.417 5.502a1.61 1.61 0 1 1 0-3.218 1.61 1.61 0 0 1 0 3.218m0-5.502a3.893 3.893 0 1 1 0 7.786 3.893 3.893 0 0 1 0-7.786zm1.348 10.846l2.332 2.34c.41.414.411 1.087.002 1.502a1.04 1.04 0 0 1-1.485.001L4.35 12.457l-2.057 2.218a1.04 1.04 0 0 1-1.484.027A1.072 1.072 0 0 1 .782 13.2l2.214-2.342C1.406 10.547.443 9.787.393 9.747a1.071 1.071 0 0 1-.162-1.494 1.041 1.041 0 0 1 1.475-.164c.01.008 1.018.775 2.643.776 1.626-.001 2.613-.768 2.623-.776a1.041 1.041 0 0 1 1.475.164c.363.458.29 1.126-.162 1.494-.049.04-.975.78-2.52 1.099z" fill="#FFF" fill-rule="evenodd"/></symbol><symbol id="cta-pay" viewBox="0 0 34 19"><g fill-rule="evenodd"><path fill="none" d="M32.308.538l.558 15.99L1.885 17.61 1.327 1.62z"/><ellipse transform="rotate(88 17.506 9.02)" cx="17.506" cy="9.021" rx="8" ry="8.5" fill="none"/><path d="M32.738 6.037a2.5 2.5 0 1 0 .218 4.968L33 12h.069a3.5 3.5 0 1 1-.375-6.965l.044 1.002zM2 12.609a2.5 2.5 0 1 0 0-4.986V6.621l.07-.003A3.5 3.5 0 1 1 2 13.611v-1.002z" fill-rule="nonzero" stroke-width="0"/><path d="M15.067 6.34c-.03-.85.683-1.533 1.966-1.674l.115 3.303c-1.71-.256-2.05-.765-2.08-1.629zm5.234 4.51c.035 1.014-.858 1.787-2.08 1.939l-.128-3.673c1.68.257 2.172.72 2.208 1.734zm-2.89 4.643l.904-.032-.061-1.74c1.987-.18 3.37-1.435 3.315-2.997-.062-1.768-1.248-2.372-3.512-2.65l-.12-3.426c1.138.098 1.785.624 2.052 1.671l1.195-.041c-.255-1.583-1.436-2.475-3.28-2.562l-.043-1.247-.904.032L17 3.734c-1.91.177-3.189 1.333-3.139 2.758.057 1.645 1.29 2.247 3.324 2.519l.133 3.81c-1.874-.086-2.275-1.019-2.465-2.082l-1.287.045c.239 1.57 1.16 2.895 3.784 2.968l.061 1.74z" stroke-width="0"/></g></symbol><symbol id="cta-scroll-left" viewBox="0 0 7 12"><title>Path</title><path d="M6.328 9.914v1.414L.864 5.864 6.328.399v1.415l-4.05 4.05z" stroke-width="0"/></symbol><symbol id="cta-scroll-right" viewBox="0 0 7 12"><title>Path</title><path d="M.864 9.914v1.414l5.464-5.464L.864.399v1.415l4.05 4.05z" stroke-width="0"/></symbol><symbol id="cta-search" viewBox="5 6 22 18"><g fill="none" fill-rule="evenodd" transform="rotate(22 -14.325 29.301)"><ellipse cx="4.45" cy="4.515" rx="4.45" ry="4.515"/><path d="M9.27 4.892h7.417" stroke-linecap="square"/></g></symbol><symbol id="cta-twitter" viewBox="0 0 15 13"><path d="M4.717 12.19c5.714 0 8.942-4.826 8.748-9.154A6.24 6.24 0 0 0 15 1.443a6.15 6.15 0 0 1-1.767.484A3.083 3.083 0 0 0 14.585.225a6.182 6.182 0 0 1-1.953.747 3.08 3.08 0 0 0-5.244 2.807A8.734 8.734 0 0 1 1.044.563a3.08 3.08 0 0 0 .952 4.109 3.064 3.064 0 0 1-1.395-.385c-.033 1.426.989 2.76 2.469 3.056a3.078 3.078 0 0 1-1.39.053 3.08 3.08 0 0 0 2.875 2.137A6.185 6.185 0 0 1 0 10.807a8.71 8.71 0 0 0 4.717 1.383z" fill="#FFF" fill-rule="evenodd"/></symbol><symbol id="cta-user" viewBox="0 0 30 30"><title>&#x438;&#x43A;&#x43E;&#x43D;&#x43A;&#x430; &#x43F;&#x43E;&#x43B;&#x44C;&#x437;&#x43E;&#x432;&#x430;&#x442;&#x435;&#x43B;&#x44C;</title><g fill="none" fill-rule="evenodd"><ellipse cx="5.075" cy="4.588" rx="4.45" ry="4.515" transform="rotate(22 -1.361 32.078)"/><path d="M25.098 25.642c.673-4.553-1.773-9.12-6.17-10.896-5.167-2.088-11.074.47-13.193 5.714a10.31 10.31 0 0 0-.68 5.143"/></g></symbol><symbol id="cta-view" viewBox="0 0 24 12"><title>&#x438;&#x43A;&#x43E;&#x43D;&#x43A;&#x430;_&#x441;&#x43C;&#x43E;&#x442;&#x440;&#x435;&#x442;&#x44C;</title><g fill="none" fill-rule="evenodd"><path d="M.5 5.998C3.122 2.66 7.297.5 12 .5c4.702 0 8.878 2.162 11.5 5.502C20.878 9.34 16.703 11.5 12 11.5 7.298 11.5 3.122 9.338.5 5.998z"/><ellipse cx="12" cy="6" rx="3.5" ry="3.5"/></g></symbol><symbol id="cta-vk-filled" viewBox="6 10 16 10"><path d="M18.63 15.005s1.845-2.593 2.028-3.445c.061-.304-.073-.475-.391-.475h-1.6c-.367 0-.501.158-.611.39 0 0-.865 1.837-1.918 2.995-.338.374-.51.487-.697.487-.15 0-.22-.125-.22-.463v-2.958c0-.414-.048-.536-.39-.536h-2.566c-.195 0-.317.113-.317.268 0 .39.598.478.598 1.534v2.179c0 .438-.024.609-.232.609-.55 0-1.857-1.887-2.59-4.03-.146-.438-.305-.56-.72-.56h-1.6c-.233 0-.404.158-.404.39 0 .426.5 2.398 2.468 5.04 1.32 1.777 3.054 2.74 4.618 2.74.952 0 1.184-.16 1.184-.56v-1.365c0-.34.135-.486.33-.486.22 0 .608.07 1.515.961 1.075 1.023 1.149 1.45 1.735 1.45h1.796c.183 0 .354-.086.354-.39 0-.402-.525-1.12-1.332-1.973-.33-.438-.867-.913-1.038-1.132-.244-.256-.171-.402 0-.67"/></symbol><symbol id="cta-vk" viewBox="6 10 16 10"><path d="M18.63 15.005s1.845-2.593 2.028-3.445c.061-.304-.073-.475-.391-.475h-1.6c-.367 0-.501.158-.611.39 0 0-.865 1.837-1.918 2.995-.338.374-.51.487-.697.487-.15 0-.22-.125-.22-.463v-2.958c0-.414-.048-.536-.39-.536h-2.566c-.195 0-.317.113-.317.268 0 .39.598.478.598 1.534v2.179c0 .438-.024.609-.232.609-.55 0-1.857-1.887-2.59-4.03-.146-.438-.305-.56-.72-.56h-1.6c-.233 0-.404.158-.404.39 0 .426.5 2.398 2.468 5.04 1.32 1.777 3.054 2.74 4.618 2.74.952 0 1.184-.16 1.184-.56v-1.365c0-.34.135-.486.33-.486.22 0 .608.07 1.515.961 1.075 1.023 1.149 1.45 1.735 1.45h1.796c.183 0 .354-.086.354-.39 0-.402-.525-1.12-1.332-1.973-.33-.438-.867-.913-1.038-1.132-.244-.256-.171-.402 0-.67" fill="none"/></symbol><symbol id="cta-yandex" viewBox="0 0 7 14"><path d="M5.272 1.246h-.786c-1.189 0-2.339.786-2.339 3.067 0 2.205 1.055 2.914 2.339 2.914h.786v-5.98zM4.045 8.455l-2.339 5.252H0L2.569 8.09C1.36 7.477.556 6.365.556 4.313.556 1.438 2.377 0 4.544 0h2.204v13.707H5.272V8.455H4.045z" fill="#FFF" fill-rule="evenodd"/></symbol><symbol id="filters-brand" viewBox="0 0 18 18"><title>&#x438;&#x43A;&#x43E;&#x43D;&#x43A;&#x430;_&#x431;&#x440;&#x435;&#x43D;&#x434;</title><g fill="#FFF"><path d="M2.83 2.753l-.206-.807.59.589-.59.59-.59-.59.809.205-1.078 4.24 9.006 9.005 5.304-5.303-9.006-9.006-4.24 1.077zm14.423 7.929l-6.482 6.482-9.93-9.93 1.194-4.7.59-.588L7.322.752l9.93 9.93z"/><path d="M5.25 5.16a.415.415 0 0 0 .003-.586.415.415 0 0 0-.587.003.415.415 0 0 0-.003.586c.162.162.424.16.587-.002zm.59.59a1.248 1.248 0 0 1-1.766.003 1.248 1.248 0 0 1 .003-1.765 1.248 1.248 0 0 1 1.765-.003 1.248 1.248 0 0 1-.003 1.765z"/></g></symbol><symbol id="filters-price" viewBox="0 0 16 14"><title>&#x438;&#x43A;&#x43E;&#x43D;&#x43A;&#x430;_&#x43A;&#x43E;&#x448;&#x435;&#x43B;&#x435;&#x43A;</title><g fill="#FFF"><path d="M13.979.778H2.194a.782.782 0 0 0-.774.777v10.872c0 .432.347.778.774.778H13.98a.782.782 0 0 0 .774-.778V1.555a.774.774 0 0 0-.774-.777zm0-.778c.858 0 1.552.695 1.552 1.555v10.872a1.56 1.56 0 0 1-1.552 1.555H2.194a1.552 1.552 0 0 1-1.552-1.555V1.555A1.56 1.56 0 0 1 2.194 0H13.98z"/><path d="M14.861 4.674h-5.37c-1.18 0-2.13.957-2.13 2.138 0 1.19.953 2.14 2.13 2.14h5.37V4.673zm.778-.778v5.833H9.49a2.907 2.907 0 0 1-2.907-2.916A2.91 2.91 0 0 1 9.49 3.896h6.149z"/><path d="M8.796 6.749c0 .285.224.517.499.517a.508.508 0 0 0 .499-.517.508.508 0 0 0-.499-.517.508.508 0 0 0-.499.517zm-.778 0c0-.71.566-1.295 1.277-1.295s1.277.586 1.277 1.295-.566 1.295-1.277 1.295a1.286 1.286 0 0 1-1.277-1.295z"/></g></symbol><symbol id="filters-tech" viewBox="0 0 15 16"><title>Shape</title><path d="M6.529.267c-.27.016-.427.186-.519.383L5.6 2.092c-.261.088-.51.196-.753.316l-1.323-.733a.554.554 0 0 0-.645.092L1.507 3.133a.547.547 0 0 0-.084.634l.728 1.308a6.03 6.03 0 0 0-.318.758L.385 6.25A.549.549 0 0 0 0 6.758V8.7a.55.55 0 0 0 .385.517l1.448.408c.09.263.195.514.318.758l-.728 1.309a.547.547 0 0 0 .084.633l1.372 1.367a.554.554 0 0 0 .645.091l1.314-.725c.245.122.499.22.762.309l.41 1.441a.551.551 0 0 0 .519.392h1.942a.553.553 0 0 0 .519-.392l.41-1.441c.263-.089.517-.187.762-.309l1.314.725a.554.554 0 0 0 .645-.091l1.372-1.367a.547.547 0 0 0 .084-.633l-.728-1.309c.123-.244.229-.495.318-.758l1.448-.408A.55.55 0 0 0 15 8.7V6.758a.55.55 0 0 0-.385-.508l-1.448-.417a5.961 5.961 0 0 0-.318-.758l.728-1.308a.547.547 0 0 0-.084-.634l-1.372-1.366a.554.554 0 0 0-.645-.092l-1.323.733a5.947 5.947 0 0 0-.753-.316L8.99.65a.551.551 0 0 0-.519-.383H6.529zm.402 1.066h1.138l.369 1.292c.05.176.199.32.376.367.395.108.77.267 1.122.466.16.09.367.09.527 0l1.18-.658.804.8-.661 1.183a.542.542 0 0 0 .008.525c.2.35.352.724.46 1.117.052.176.2.32.377.367l1.298.375v1.125l-1.298.375a.545.545 0 0 0-.377.375c-.108.393-.26.758-.46 1.108a.542.542 0 0 0-.008.525l.661 1.183-.804.8-1.18-.658a.548.548 0 0 0-.527 0c-.352.2-.727.358-1.122.467a.545.545 0 0 0-.376.366l-.369 1.3H6.931l-.368-1.3a.545.545 0 0 0-.377-.366A4.914 4.914 0 0 1 5.064 12a.548.548 0 0 0-.527 0l-1.18.658-.804-.8.661-1.183a.542.542 0 0 0-.008-.525c-.2-.35-.352-.715-.46-1.108a.545.545 0 0 0-.377-.375L1.07 8.292V7.167l1.298-.375a.545.545 0 0 0 .377-.367c.108-.393.26-.767.46-1.117a.542.542 0 0 0 .008-.525L2.553 3.6l.804-.8 1.18.658c.16.09.367.09.527 0a4.913 4.913 0 0 1 1.122-.466.545.545 0 0 0 .376-.367l.369-1.292zm.569 3.2c-1.769 0-3.214 1.44-3.214 3.2 0 1.761 1.445 3.2 3.214 3.2s3.214-1.439 3.214-3.2c0-1.76-1.445-3.2-3.214-3.2zm0 1.067a2.13 2.13 0 0 1 2.143 2.133A2.13 2.13 0 0 1 7.5 9.867a2.13 2.13 0 0 1-2.143-2.134A2.13 2.13 0 0 1 7.5 5.6z" fill="#FFF" fill-rule="evenodd"/></symbol><symbol id="flags-ru" viewBox="0 0 20 15"><title>&#x44F;&#x437;&#x44B;&#x43A;</title><g fill="none" fill-rule="evenodd"><path fill="#FFF" d="M0 0h20v5H0z"/><path fill="#4990E2" d="M0 5h20v5H0z"/><path fill="#D0011B" d="M0 10h20v5H0z"/></g></symbol><symbol id="payment-systems-cc" viewBox="0 -1 25 16"><g fill="none" fill-rule="evenodd"><path d="M1.467 1.006v11.09c0 .555.45 1.006 1.004 1.006h20.03a1 1 0 0 0 1.004-1.006V1.006C23.505.451 23.055 0 22.5 0H2.47a1 1 0 0 0-1.004 1.006zm-1 0A2 2 0 0 1 2.47-1H22.5c1.107 0 2.004.9 2.004 2.006v11.09a2 2 0 0 1-2.004 2.006H2.47a2.005 2.005 0 0 1-2.004-2.006V1.006z" fill="#000" fill-rule="nonzero"/><path fill="#000" d="M1 3h23v3H1z"/><path d="M1.417 3.5H23.95m-22.9 0h22.533" stroke="#000" stroke-linecap="square"/></g></symbol><symbol id="payment-systems-paypal" viewBox="0 0 256 302"><path fill="#27346A" d="M217.168 23.507C203.234 7.625 178.045.816 145.823.816h-93.52a13.392 13.392 0 0 0-13.227 11.295L.136 259.076c-.774 4.87 2.997 9.281 7.933 9.281h57.735l14.5-91.972-.45 2.88c1.032-6.501 6.593-11.295 13.177-11.295h27.436c53.898 0 96.101-21.893 108.428-85.222.367-1.873.684-3.696.958-5.477-1.557-.824-1.557-.824 0 0 3.672-23.406-.024-39.338-12.685-53.764"/><path fill="#27346A" d="M102.397 68.84a11.732 11.732 0 0 1 5.053-1.141h73.318c8.682 0 16.781.566 24.182 1.756 2.122.341 4.178.732 6.176 1.182 1.998.441 3.938.94 5.818 1.49a85.11 85.11 0 0 1 2.772.857c3.638 1.215 7.025 2.63 10.139 4.287 3.671-23.416-.025-39.339-12.687-53.765C203.226 7.625 178.045.816 145.823.816H52.295c-6.584 0-12.187 4.794-13.219 11.295L.136 259.068c-.774 4.878 2.997 9.281 7.925 9.281h57.744L95.888 77.58a11.714 11.714 0 0 1 6.509-8.74z"/><path fill="#2790C3" d="M228.896 82.749c-12.327 63.321-54.53 85.222-108.428 85.222H93.024c-6.584 0-12.145 4.794-13.168 11.295L61.817 293.621c-.674 4.262 2.622 8.125 6.934 8.125h48.67c5.76 0 10.663-4.195 11.563-9.881l.475-2.48 9.172-58.135.592-3.214a11.71 11.71 0 0 1 11.563-9.88h7.283c47.146 0 84.064-19.154 94.852-74.55 4.504-23.149 2.173-42.478-9.738-56.054-3.613-4.112-8.1-7.508-13.327-10.28-.285 1.79-.592 3.604-.96 5.477z"/><path fill="#1F264F" d="M216.952 72.127a90.31 90.31 0 0 0-5.818-1.49 109.915 109.915 0 0 0-6.177-1.174c-7.408-1.199-15.499-1.765-24.189-1.765h-73.31c-1.806 0-3.521.408-5.053 1.148a11.682 11.682 0 0 0-6.509 8.74l-15.583 98.798-.45 2.88c1.024-6.501 6.584-11.295 13.169-11.295h27.444c53.898 0 96.102-21.893 108.429-85.222.366-1.873.675-3.688.958-5.477-3.122-1.648-6.502-3.072-10.139-4.279a88.434 88.434 0 0 0-2.772-.864"/></symbol><symbol id="payment-systems-phone" viewBox="0 0 14 25"><title>Group 2</title><g stroke="#000" fill="none" fill-rule="evenodd"><rect x=".5" y=".5" width="13" height="23.67" rx="1"/><ellipse cx="6.995" cy="20.335" rx="1.165" ry="1.165"/><path d="M5 3.417h4" stroke-linecap="square"/></g></symbol><symbol id="payment-systems-webmoney" viewBox="0 0 209.038 208.081"><g fill-rule="evenodd" clip-rule="evenodd" fill="#006AB4"><path d="M123.722 182.263c-13.251-14.789-26.211-29.252-39.43-44.007l11.04-10.103c-9.578-10.8-18.716-21.104-28.147-31.736 2.746-2.436 5.092-4.759 7.69-6.754 2.865-2.201 3.228-4.012.489-6.778-4.916-4.968-9.506-10.261-14.188-15.458-3.746-4.158-7.427-8.377-11.431-12.9l43.707-39.449 14.279 15.431L132.753 8.59l13.623 15.141 9.943-8.975C123.744-7.281 63.207-8.056 25.167 36.175-12.765 80.28-7.277 146.292 37.972 184.315c41.778 35.106 100.605 28.027 131.143.162l-21.249-24.291c-8.27 7.562-16.08 14.702-24.144 22.077z"/><path d="M68.819 53.63c-.697.656-.639 3.264.079 4.094 6.619 7.658 13.461 15.125 20.815 23.287l25.592-23.072-23.033-25.626c-8.28 7.458-15.973 14.274-23.453 21.317zm64.067 46.351l-23.074-25.662L84.28 97.396l22.999 25.681 25.607-23.096zm15.21 44.387c.732-.688.841-3.258.171-4.031-6.73-7.788-13.686-15.383-20.997-23.498l-25.534 23.13 23.023 25.591c8.133-7.325 15.837-14.15 23.337-21.192zm31.528-21.42c.568-.536.773-2.41.314-2.939-5.184-5.971-10.529-11.8-16.081-17.943l-19.408 17.535c6.147 6.803 11.679 12.926 17.573 19.447 6.155-5.588 11.95-10.768 17.602-16.1zm-.969 17.93c-6.012 5.128-11.854 10.457-18.014 15.975l17.567 19.482 19.388-17.54c-5.421-6.038-10.458-11.759-15.67-17.314-.637-.681-2.715-1.078-3.271-.603zm-64.733-99.197c-.707.681-.712 3.211-.024 4.036 4.249 5.103 8.715 10.034 13.309 14.831.744.775 3.068 1.271 3.684.746 5.994-5.115 11.781-10.474 17.796-15.916l-17.482-19.453c-6.087 5.482-11.81 10.488-17.283 15.756zm32.358 58.359l19.398-17.572-17.58-19.399-19.411 17.524 17.593 19.447zm49.498 21.266l13.26-12.11-12.047-13.141c-4.541 4.103-8.572 7.745-13.183 11.909 4.148 4.623 7.875 8.775 11.97 13.342zm-31.345-73.131l13.213-12.091-12.027-13.197L152.405 34.9l12.028 13.275zm7.24 27.234c8.268 9.539 8.27 9.537 17.463 1.177.734-.668 1.838-1.195 2.133-2.017.417-1.156.813-2.99.218-3.729-3.073-3.812-6.464-7.366-10.065-11.366l-13.174 11.817c1.53 1.845 2.456 3 3.425 4.118z"/></g></symbol><symbol id="payment-systems-yandex" viewBox="0 0 165.652 219.343"><g fill-rule="evenodd" clip-rule="evenodd"><path fill="#FACA0C" d="M0 105.8C0 89.8 13.006 80 13.006 80l101.66-80v90.314h50.985v129.029H15.292C.254 219.343 0 203.857 0 203.857V105.8z"/><path fill="#0C0C0C" d="M79.002 81.286c7.139-3.085 12.725 0 12.725 7.229s-5.586 15.486-12.725 18.829c-7.139 3.115-12.754 0-12.754-7.229.001-7.486 5.616-15.743 12.754-18.829z"/><path fill="#D9AE28" d="M20.399 206.428l94.268-64.513V90.314h25.478v77.429z"/></g></symbol><symbol id="platform-android" viewBox="0 0 22 27"><title>&#x430;&#x43D;&#x434;&#x440;&#x43E;&#x438;&#x434;</title><path d="M1.596 8.522A1.6 1.6 0 0 0 0 10.124v6.731a1.6 1.6 0 0 0 1.596 1.602 1.6 1.6 0 0 0 1.596-1.602v-6.731a1.6 1.6 0 0 0-1.596-1.602m20.374 1.602a1.6 1.6 0 0 0-1.596-1.602 1.6 1.6 0 0 0-1.596 1.602v6.731a1.6 1.6 0 0 0 1.596 1.602 1.6 1.6 0 0 0 1.596-1.602v-6.731zM3.843 8.802h-.08v10.563c0 .882.719 1.603 1.597 1.603h1.345v3.681A1.6 1.6 0 0 0 8.3 26.251a1.6 1.6 0 0 0 1.596-1.602v-3.681h2.178v3.681a1.6 1.6 0 0 0 1.596 1.602 1.6 1.6 0 0 0 1.596-1.602v-3.681h1.345c.877 0 1.595-.721 1.595-1.603V8.802H3.843zM7.7 4.315a.68.68 0 0 1 .678.68.68.68 0 0 1-.678.682.68.68 0 0 1-.678-.681.68.68 0 0 1 .678-.681zm6.57 0a.68.68 0 0 1 .678.68.68.68 0 0 1-.678.682.68.68 0 0 1-.678-.681.68.68 0 0 1 .678-.681zm3.923 3.926v-.773a5.83 5.83 0 0 0-.098-.647c-.395-1.88-1.701-3.471-3.492-4.396l1.102-2.04A.26.26 0 0 0 15.6.032a.259.259 0 0 0-.351.104l-1.116 2.067a7.904 7.904 0 0 0-3.135-.639 7.903 7.903 0 0 0-3.156.648L6.722.136A.259.259 0 0 0 6.37.032a.26.26 0 0 0-.105.353l1.108 2.051c-1.707.888-2.97 2.384-3.418 4.156a5.823 5.823 0 0 0-.173 1.649h14.411z" stroke-width="0" fill-rule="evenodd"/></symbol><symbol id="platform-ios" viewBox="0 -1 20 26"><path d="M13.608 3.888c.857-1.03 1.436-2.461 1.278-3.888-1.235.05-2.73.815-3.617 1.844-.794.912-1.49 2.369-1.304 3.767 1.379.107 2.785-.694 3.643-1.723m3.092 9.049c-.03-3.084 2.536-4.562 2.651-4.636-1.442-2.093-3.69-2.38-4.49-2.413-1.912-.191-3.731 1.117-4.702 1.117-.968 0-2.465-1.088-4.051-1.06-2.085.031-4.007 1.202-5.08 3.053-2.165 3.726-.554 9.245 1.556 12.267 1.032 1.48 2.261 3.14 3.876 3.081 1.555-.061 2.143-.997 4.023-.997s2.409.997 4.054.967c1.673-.031 2.733-1.508 3.758-2.991 1.184-1.716 1.672-3.378 1.7-3.463-.037-.017-3.262-1.242-3.295-4.925" fill-rule="evenodd"/></symbol><symbol id="sections-brands" viewBox="0 0 26 27"><title>&#x438;&#x43A;&#x43E;&#x43D;&#x43A;&#x430;_&#x431;&#x440;&#x435;&#x43D;&#x434;</title><g transform="rotate(143 9.388 12.993)" stroke="#FFF" fill="none" fill-rule="evenodd"><path d="M0 0h13.333v21.065l-6.06 3.718H6.06L0 21.065z"/><ellipse transform="matrix(1 0 0 -1 0 39.13)" cx="6.667" cy="19.565" rx="1.333" ry="1.304"/></g></symbol><symbol id="sections-cashback" viewBox="0 0 32 31"><title>&#x438;&#x43A;&#x43E;&#x43D;&#x43A;&#x430;_&#x43A;&#x44D;&#x448;&#x431;&#x44D;&#x43A;</title><g transform="translate(.669 .9)"><ellipse cx="15.336" cy="14.968" rx="14.835" ry="14.468" fill="none" fill-rule="evenodd"/><path stroke-width="0" d="M12.702 11.16c0 1.168.544 1.856 2.576 2.24V8.968c-1.6.064-2.576.88-2.576 2.192zm5.968 5.584c0-1.52-.72-2.112-2.752-2.464v4.928c1.68-.08 2.752-1.104 2.752-2.464zm-3.392 5.216v-2.048c-2.592-.128-3.616-1.616-3.84-3.392h.864c.192 1.36.864 2.528 2.976 2.672v-5.024c-2.272-.384-3.408-1.216-3.408-2.944 0-1.712 1.392-2.912 3.408-2.992v-1.44h.64v1.456c1.888.128 3.056 1.168 3.296 2.864h-.816c-.256-1.296-1.04-2.032-2.48-2.144v4.528c2.432.4 3.616 1.104 3.616 3.184 0 1.76-1.424 3.168-3.616 3.248v2.032h-.64z"/></g></symbol><symbol id="sections-groupbuying" viewBox="0 0 26 26"><title>&#x438;&#x43A;&#x43E;&#x43D;&#x43A;&#x430; &#x441;&#x43E;&#x432;&#x43C;&#x435;&#x441;&#x442;&#x43D;&#x44B;&#x435; &#x43F;&#x43E;&#x43A;&#x443;&#x43F;&#x43A;&#x438;</title><g fill="none" fill-rule="evenodd"><rect x=".5" y=".5" width="24.45" height="24.45" rx="12.225"/><path d="M13.42 24.9c-.346.033-.697.05-1.051.05-2.584 0-4.965-.906-6.869-2.431v-6.836c0-2.31 1.795-4.183 4-4.183 2.21 0 4 1.873 4 4.183v8.383c0 .285-.027.564-.08.834zm8.08-3.632c-1.993 2.192-4.794 3.59-7.91 3.682a4.317 4.317 0 0 1-.09-.876v-6.438c0-2.284 1.795-4.136 4-4.136 2.21 0 4 1.85 4 4.146v3.622z"/><rect x="6.5" y="5.5" width="6" height="6" rx="3"/><rect x="14.5" y="7.5" width="6" height="6" rx="3"/></g></symbol><symbol id="sections-phone" viewBox="0 0 14 25"><g fill="#FFF" stroke-width="0"><path d="M4.5 3.917v-1h5v1zM7 21a.667.667 0 1 0 0-1.333A.667.667 0 0 0 7 21zm0 1a1.667 1.667 0 1 1 0-3.333A1.667 1.667 0 0 1 7 22z"/><path d="M1 2.003v20.66c0 .55.449 1.004 1.002 1.004h9.996c.546 0 1.002-.45 1.002-1.004V2.003C13 1.453 12.551 1 11.998 1H2.002C1.456 1 1 1.45 1 2.003zm-1 0C0 .898.902 0 2.002 0h9.996C13.103 0 14 .9 14 2.003v20.66a2.007 2.007 0 0 1-2.002 2.004H2.002c-1.105 0-2.002-.9-2.002-2.004V2.003z"/></g></symbol><symbol id="sections-promocode" viewBox="0 0 21 21"><title>&#x438;&#x43A;&#x43E;&#x43D;&#x43A;&#x430;_&#x441;&#x43A;&#x438;&#x434;&#x43A;&#x438;</title><g stroke="#FFF" fill="none" fill-rule="evenodd"><path d="M13.843 6.843L7.5 13.5" stroke-linecap="square"/><ellipse cx="12.665" cy="12.665" rx="1.165" ry="1.165"/><ellipse cx="8.665" cy="7.665" rx="1.165" ry="1.165"/><ellipse cx="10.32" cy="10.32" rx="9.82" ry="9.82"/></g></symbol><symbol id="sections-review" viewBox="0 0 21 17"><title>Group 3</title><g stroke="#FFF" fill="none" fill-rule="evenodd"><path d="M14.653 13.59h4.564c.594 0 1.063-.47 1.063-1.05V1.55c0-.584-.476-1.05-1.063-1.05H1.563C.97.5.5.97.5 1.549V12.54c0 .583.476 1.05 1.063 1.05h10.383l2.66 2.851.047-2.852z"/><g transform="translate(4 6)"><circle transform="rotate(90 1.995 1.435)" cx="1.995" cy="1.435" r="1.165"/><ellipse transform="rotate(90 6.334 1.435)" cx="6.334" cy="1.435" rx="1.165" ry="1.164"/><ellipse transform="rotate(90 10.664 1.435)" cx="10.664" cy="1.435" rx="1.165" ry="1.164"/></g></g></symbol><symbol id="sections-shops" viewBox="0 0 17 16"><title>Group 2</title><g transform="rotate(90 8.5 8.5)" stroke="#FFF" fill="none" fill-rule="evenodd"><path d="M.5 1.303c0-.552.442-.91.977-.8l8.636 1.765c.54.11.977.645.977 1.2V13.2c0 .552-.442 1.087-.977 1.193L.5 16.29V1.303z"/><circle cx="14.48" cy="12.5" r="1"/><ellipse cx="14.48" cy="3.5" rx="1" ry="1"/></g></symbol><symbol id="sections-tablet" viewBox="0 0 17 22"><g fill="#FFF" stroke-width="0"><path d="M1 1.992v18.016c0 .537.451.992 1.007.992h12.986A.998.998 0 0 0 16 20.008V1.992C16 1.455 15.549 1 14.993 1H2.007A.998.998 0 0 0 1 1.992zm-1 0C0 .888.9 0 2.007 0h12.986C16.096 0 17 .897 17 1.992v18.016C17 21.112 16.1 22 14.993 22H2.007A2.007 2.007 0 0 1 0 20.008V1.992z"/><path d="M8.5 19a.5.5 0 1 0 0-1 .5.5 0 0 0 0 1zm0 1a1.5 1.5 0 1 1 0-3 1.5 1.5 0 0 1 0 3zm-8-4.083v-1h16.002v1z"/></g></symbol><symbol id="sections-tracktrace" viewBox="0 0 22 28"><path d="M19.945 22.013V7.75a2.534 2.534 0 0 0-2.11-2.493V4.122h1.055V1h-5.232v3.122h1.055v1.136a2.534 2.534 0 0 0-2.11 2.493v4.768H9.397V7.751a2.533 2.533 0 0 0-2.11-2.493V4.122h1.055V1H3.11v3.122h1.055v1.136a2.533 2.533 0 0 0-2.11 2.493v14.262H1v5.232h9.451v-5.232H9.397v-5.317h3.206v5.317H11.55v5.232H21v-5.232h-1.055zM14.671 3.11V2.013h3.207V3.11H14.67zm2.152 1.012V5.22h-1.097V4.122h1.097zm-2.11 9.41v2.152H7.287v-2.152h7.426zM4.123 3.11V2.013h3.206V3.11H4.122zm2.151 1.012V5.22H5.177V4.122h1.097zM9.44 23.025v3.207H2.013v-3.207h7.426zm-1.055-1.012H3.068V7.75a1.52 1.52 0 0 1 1.518-1.519h2.279a1.52 1.52 0 0 1 1.519 1.52v4.767h-2.11v4.177h2.11v5.317zm5.232-5.317h2.11V12.52h-2.11V7.751a1.52 1.52 0 0 1 1.519-1.519h2.279a1.52 1.52 0 0 1 1.518 1.52v14.26h-5.316v-5.316zm6.371 9.536h-7.426v-3.207h7.425v3.207z" fill="#FFF" stroke="#9B9B9B" stroke-width=".4" fill-rule="evenodd"/></symbol><symbol id="social-instagram" viewBox="0 0 23 23"><g fill="none" fill-rule="evenodd" stroke="#FFF"><rect x=".5" y=".5" width="22" height="22" rx="4"/><rect x="6.5" y="6.5" width="10" height="10" rx="5"/><rect x="17" y="4" width="1" height="1" rx=".5"/></g></symbol><symbol id="social-vk" viewBox="0 0 23 23"><title>&#x432;&#x43A;</title><g fill="none" fill-rule="evenodd"><rect stroke="#FFF" x=".5" y=".5" width="22" height="22" rx="4"/><path d="M15.63 12.005s1.845-2.593 2.028-3.445c.061-.304-.073-.475-.391-.475h-1.6c-.367 0-.501.158-.611.39 0 0-.865 1.837-1.918 2.995-.338.374-.51.487-.697.487-.15 0-.22-.125-.22-.463V8.536c0-.414-.048-.536-.39-.536H9.265c-.195 0-.317.113-.317.268 0 .39.598.478.598 1.534v2.179c0 .438-.024.609-.232.609-.55 0-1.857-1.887-2.59-4.03-.146-.438-.305-.56-.72-.56h-1.6C4.17 8 4 8.158 4 8.39c0 .426.5 2.398 2.468 5.04 1.32 1.777 3.054 2.74 4.618 2.74.952 0 1.184-.16 1.184-.56v-1.365c0-.34.135-.486.33-.486.22 0 .608.07 1.515.961 1.075 1.023 1.149 1.45 1.735 1.45h1.796c.183 0 .354-.086.354-.39 0-.402-.525-1.12-1.332-1.973-.33-.438-.867-.913-1.038-1.132-.244-.256-.171-.402 0-.67" fill="#FFF"/></g></symbol><symbol id="specs-body" viewBox="0 0 13 20"><title>&#x43F;&#x430;&#x440;&#x430;&#x43C;&#x435;&#x442;&#x440;&#x44B;_&#x44D;&#x43A;&#x440;&#x430;&#x43D;</title><g fill="none" fill-rule="evenodd"><path d="M1 1.99v16.02a1 1 0 0 0 1.003.99h8.994A.995.995 0 0 0 12 18.01V1.99A1 1 0 0 0 10.997 1H2.003A.995.995 0 0 0 1 1.99zm-1 0C0 .892.894 0 2.003 0h8.994C12.103 0 13 .898 13 1.99v16.02c0 1.099-.894 1.99-2.003 1.99H2.003A2.001 2.001 0 0 1 0 18.01V1.99z" fill="#FFF" fill-rule="nonzero"/><rect fill-opacity=".3" fill="#CBCACB" x="6" y="17" width="1" height="1" rx=".5"/><rect fill-opacity=".3" fill="#CBCACB" x="2" y="2" width="9" height="14" rx="1"/></g></symbol><symbol id="specs-camera" viewBox="7 8 18 15"><g fill="none" fill-rule="evenodd" transform="translate(7 9)"><rect stroke="#FFF" stroke-width=".842" transform="rotate(90 9 6.5)" x="2.684" y="-1.733" width="12.632" height="16.467" rx="1.684"/><rect fill="#FFF" x="13.632" y="1.733" width="1.684" height="1.733" rx=".842" stroke-width="0"/><rect stroke="#FFF" stroke-width=".842" x="5.63" y="3.021" width="6.74" height="6.937" rx="3.37"/></g></symbol><symbol id="specs-cpu" viewBox="0 0 16 15"><title>Group 30</title><g fill="#FFF" fill-rule="evenodd"><path d="M2 4H.52a.5.5 0 0 0 0 1H2V4zm11 0h2.144a.5.5 0 1 1 0 1H13V4zM2 7H.52a.5.5 0 0 0 0 1H2V7zm11 0h2a.5.5 0 1 1 0 1h-2V7zM2 10H.52a.5.5 0 1 0 0 1H2v-1zm11 0h2.144a.5.5 0 1 1 0 1H13v-1zm-2-8V.5a.5.5 0 1 0-1 0V2h1zm0 11v1.533a.5.5 0 1 1-1 0V13h1zM8 2V.5a.5.5 0 0 0-1 0V2h1zm0 11v1.533a.5.5 0 1 1-1 0V13h1zM5 2V.5a.5.5 0 0 0-1 0V2h1zm0 11v1.533a.5.5 0 1 1-1 0V13h1z" fill-rule="nonzero"/><path d="M11.317 2.421H3.683c-.695 0-1.262.569-1.262 1.269v7.436c0 .699.567 1.269 1.262 1.269h7.634c.695 0 1.262-.569 1.262-1.27V3.69c0-.699-.567-1.269-1.262-1.269zm0-.842a2.11 2.11 0 0 1 2.104 2.111v7.436a2.11 2.11 0 0 1-2.104 2.11H3.683a2.11 2.11 0 0 1-2.104-2.11V3.69a2.11 2.11 0 0 1 2.104-2.111h7.634z" fill-rule="nonzero"/><rect x="8" y="9" width="1.684" height="1.733" rx=".842"/></g></symbol><symbol id="specs-price" viewBox="67 1277 27 28"><g fill="none" fill-rule="evenodd" transform="translate(68.535 1278.75)"><ellipse stroke="#FFF" stroke-width="1.68" cx="11.97" cy="12.16" rx="11.97" ry="12.16"/><path d="M9.448 8.392c0-.992.768-1.76 2.112-1.872v3.856c-1.776-.368-2.112-.976-2.112-1.984zm5.296 5.472c0 1.184-.96 2.048-2.24 2.176v-4.288c1.744.368 2.24.928 2.24 2.112zM11.56 19.16h.944v-2.032c2.08-.128 3.568-1.536 3.568-3.36 0-2.064-1.216-2.816-3.568-3.232v-4c1.184.16 1.84.8 2.08 2.032h1.248c-.208-1.856-1.408-2.944-3.328-3.12V3.992h-.944v1.44c-2 .128-3.376 1.424-3.376 3.088 0 1.92 1.264 2.672 3.376 3.072v4.448c-1.952-.176-2.336-1.28-2.496-2.528H7.72c.192 1.84 1.104 3.424 3.84 3.616v2.032z" fill="#FFF"/></g></symbol><symbol id="specs-screen" viewBox="9 5 13 20"><g fill="none" fill-rule="evenodd" transform="translate(9 5)"><rect stroke="#CBCACB" opacity=".3" x=".5" y=".5" width="12" height="19" rx="2"/><rect fill="#CBCACB" opacity=".3" x="6" y="17" width="1" height="1" rx=".5"/><rect fill="#FFF" x="2" y="2" width="9" height="14" rx="1"/></g></symbol><symbol id="specs-storage" viewBox="0 0 18 15"><title>Rectangle 4</title><path d="M15.784 1c.93 0 1.683.752 1.683 1.677v9.277c0 .927-.745 1.678-1.686 1.678h-2.373v-1h-2.175v1H2.69c-.933 0-1.69-.75-1.69-1.684V4.844L4.695 1h11.089zM3.234 6.816h3m-3 2h3m-3 2h3" stroke="#FFF" fill="none" fill-rule="evenodd" stroke-linecap="round"/></symbol><symbol id="specs-tech" viewBox="0 0 15 16"><title>Shape</title><path d="M6.529.267c-.27.016-.427.186-.519.383L5.6 2.092c-.261.088-.51.196-.753.316l-1.323-.733a.554.554 0 0 0-.645.092L1.507 3.133a.547.547 0 0 0-.084.634l.728 1.308a6.03 6.03 0 0 0-.318.758L.385 6.25A.549.549 0 0 0 0 6.758V8.7a.55.55 0 0 0 .385.517l1.448.408c.09.263.195.514.318.758l-.728 1.309a.547.547 0 0 0 .084.633l1.372 1.367a.554.554 0 0 0 .645.091l1.314-.725c.245.122.499.22.762.309l.41 1.441a.551.551 0 0 0 .519.392h1.942a.553.553 0 0 0 .519-.392l.41-1.441c.263-.089.517-.187.762-.309l1.314.725a.554.554 0 0 0 .645-.091l1.372-1.367a.547.547 0 0 0 .084-.633l-.728-1.309c.123-.244.229-.495.318-.758l1.448-.408A.55.55 0 0 0 15 8.7V6.758a.55.55 0 0 0-.385-.508l-1.448-.417a5.961 5.961 0 0 0-.318-.758l.728-1.308a.547.547 0 0 0-.084-.634l-1.372-1.366a.554.554 0 0 0-.645-.092l-1.323.733a5.947 5.947 0 0 0-.753-.316L8.99.65a.551.551 0 0 0-.519-.383H6.529zm.402 1.066h1.138l.369 1.292c.05.176.199.32.376.367.395.108.77.267 1.122.466.16.09.367.09.527 0l1.18-.658.804.8-.661 1.183a.542.542 0 0 0 .008.525c.2.35.352.724.46 1.117.052.176.2.32.377.367l1.298.375v1.125l-1.298.375a.545.545 0 0 0-.377.375c-.108.393-.26.758-.46 1.108a.542.542 0 0 0-.008.525l.661 1.183-.804.8-1.18-.658a.548.548 0 0 0-.527 0c-.352.2-.727.358-1.122.467a.545.545 0 0 0-.376.366l-.369 1.3H6.931l-.368-1.3a.545.545 0 0 0-.377-.366A4.914 4.914 0 0 1 5.064 12a.548.548 0 0 0-.527 0l-1.18.658-.804-.8.661-1.183a.542.542 0 0 0-.008-.525c-.2-.35-.352-.715-.46-1.108a.545.545 0 0 0-.377-.375L1.07 8.292V7.167l1.298-.375a.545.545 0 0 0 .377-.367c.108-.393.26-.767.46-1.117a.542.542 0 0 0 .008-.525L2.553 3.6l.804-.8 1.18.658c.16.09.367.09.527 0a4.913 4.913 0 0 1 1.122-.466.545.545 0 0 0 .376-.367l.369-1.292zm.569 3.2c-1.769 0-3.214 1.44-3.214 3.2 0 1.761 1.445 3.2 3.214 3.2s3.214-1.439 3.214-3.2c0-1.76-1.445-3.2-3.214-3.2zm0 1.067a2.13 2.13 0 0 1 2.143 2.133A2.13 2.13 0 0 1 7.5 9.867a2.13 2.13 0 0 1-2.143-2.134A2.13 2.13 0 0 1 7.5 5.6z" fill="#FFF" fill-rule="evenodd"/></symbol><symbol id="cta-primary-scroll-right" viewBox="17 11 8 16"><path stroke-width="0" d="M17.62 22.33v4.242l7.285-7.286L17.62 12v4.243l3.044 3.043z"/></symbol></svg>