<?xml version="1.0" encoding="utf-8" ?>
<svg xmlns="http://www.w3.org/2000/svg" xmlns:xlink="http://www.w3.org/1999/xlink" width="21" height="21">
	<defs>
		<clipPath id="clip_0">
			<path d="M17 0L4 0Q3.79499 0 3.59314 0.0186425Q3.39129 0.037285 3.19425 0.0744179Q2.99721 0.111551 2.8066 0.166871Q2.61598 0.222192 2.43334 0.295249Q2.2507 0.368306 2.07752 0.458503Q1.90434 0.5487 1.74204 0.655303Q1.57974 0.761905 1.42964 0.884043Q1.27953 1.00618 1.14286 1.14286Q1.00618 1.27953 0.884043 1.42964Q0.761905 1.57974 0.655303 1.74204Q0.5487 1.90434 0.458503 2.07752Q0.368306 2.2507 0.295249 2.43334Q0.222192 2.61598 0.166871 2.8066Q0.111551 2.99721 0.0744179 3.19425Q0.037285 3.39129 0.0186425 3.59314Q0 3.79499 0 4L0 17Q0 17.205 0.0186425 17.4069Q0.037285 17.6087 0.0744179 17.8058Q0.111551 18.0028 0.166871 18.1934Q0.222192 18.384 0.295249 18.5667Q0.368306 18.7493 0.458503 18.9225Q0.5487 19.0957 0.655303 19.258Q0.761905 19.4203 0.884043 19.5704Q1.00618 19.7205 1.14286 19.8571Q1.27953 19.9938 1.42964 20.116Q1.57974 20.2381 1.74204 20.3447Q1.90434 20.4513 2.07752 20.5415Q2.2507 20.6317 2.43334 20.7048Q2.61598 20.7778 2.8066 20.8331Q2.99721 20.8884 3.19425 20.9256Q3.39129 20.9627 3.59314 20.9814Q3.79499 21 4 21L17 21Q17.205 21 17.4069 20.9814Q17.6087 20.9627 17.8058 20.9256Q18.0028 20.8884 18.1934 20.8331Q18.384 20.7778 18.5667 20.7048Q18.7493 20.6317 18.9225 20.5415Q19.0957 20.4513 19.258 20.3447Q19.4203 20.2381 19.5704 20.116Q19.7205 19.9938 19.8571 19.8571Q19.9938 19.7205 20.116 19.5704Q20.2381 19.4203 20.3447 19.258Q20.4513 19.0957 20.5415 18.9225Q20.6317 18.7493 20.7048 18.5667Q20.7778 18.384 20.8331 18.1934Q20.8884 18.0028 20.9256 17.8058Q20.9627 17.6087 20.9814 17.4069Q21 17.205 21 17L21 4Q21 3.79499 20.9814 3.59314Q20.9627 3.39129 20.9256 3.19425Q20.8884 2.99721 20.8331 2.8066Q20.7778 2.61598 20.7048 2.43334Q20.6317 2.2507 20.5415 2.07752Q20.4513 1.90434 20.3447 1.74204Q20.2381 1.57974 20.116 1.42964Q19.9938 1.27953 19.8571 1.14286Q19.7205 1.00618 19.5704 0.884043Q19.4203 0.761905 19.258 0.655303Q19.0957 0.5487 18.9225 0.458503Q18.7493 0.368306 18.5667 0.295249Q18.384 0.222192 18.1934 0.166871Q18.0028 0.111551 17.8058 0.0744179Q17.6087 0.037285 17.4069 0.0186425Q17.205 0 17 0Z" clip-rule="nonzero"/>
		</clipPath>
	</defs>
	<g clip-path="url(#clip_0)">
		<path fill="none" stroke="rgb(255,255,255)" stroke-width="2" stroke-linecap="round" stroke-linejoin="round" d="M4 0L17 0Q17.205 0 17.4069 0.0186425Q17.6087 0.037285 17.8058 0.0744179Q18.0028 0.111551 18.1934 0.166871Q18.384 0.222192 18.5667 0.295249Q18.7493 0.368306 18.9225 0.458503Q19.0957 0.5487 19.258 0.655303Q19.4203 0.761905 19.5704 0.884043Q19.7205 1.00618 19.8571 1.14286Q19.9938 1.27953 20.116 1.42964Q20.2381 1.57974 20.3447 1.74204Q20.4513 1.90434 20.5415 2.07752Q20.6317 2.2507 20.7048 2.43334Q20.7778 2.61598 20.8331 2.8066Q20.8884 2.99721 20.9256 3.19425Q20.9627 3.39129 20.9814 3.59314Q21 3.79499 21 4L21 17Q21 17.205 20.9814 17.4069Q20.9627 17.6087 20.9256 17.8058Q20.8884 18.0028 20.8331 18.1934Q20.7778 18.384 20.7048 18.5667Q20.6317 18.7493 20.5415 18.9225Q20.4513 19.0957 20.3447 19.258Q20.2381 19.4203 20.116 19.5704Q19.9938 19.7205 19.8571 19.8571Q19.7205 19.9938 19.5704 20.116Q19.4203 20.2381 19.258 20.3447Q19.0957 20.4513 18.9225 20.5415Q18.7493 20.6317 18.5667 20.7048Q18.384 20.7778 18.1934 20.8331Q18.0028 20.8884 17.8058 20.9256Q17.6087 20.9627 17.4069 20.9814Q17.205 21 17 21L4 21Q3.79499 21 3.59314 20.9814Q3.39129 20.9627 3.19425 20.9256Q2.99721 20.8884 2.8066 20.8331Q2.61598 20.7778 2.43334 20.7048Q2.2507 20.6317 2.07752 20.5415Q1.90434 20.4513 1.74204 20.3447Q1.57974 20.2381 1.42964 20.116Q1.27953 19.9938 1.14286 19.8571Q1.00618 19.7205 0.884043 19.5704Q0.761905 19.4203 0.655303 19.258Q0.5487 19.0957 0.458503 18.9225Q0.368306 18.7493 0.295249 18.5667Q0.222192 18.384 0.166871 18.1934Q0.111551 18.0028 0.0744179 17.8058Q0.037285 17.6087 0.0186425 17.4069Q0 17.205 0 17L0 4Q0 3.79499 0.0186425 3.59314Q0.037285 3.39129 0.0744179 3.19425Q0.111551 2.99721 0.166871 2.8066Q0.222192 2.61598 0.295249 2.43334Q0.368306 2.2507 0.458503 2.07752Q0.5487 1.90434 0.655303 1.74204Q0.761905 1.57974 0.884043 1.42964Q1.00618 1.27953 1.14286 1.14286Q1.27953 1.00618 1.42964 0.884043Q1.57974 0.761905 1.74204 0.655303Q1.90434 0.5487 2.07752 0.458503Q2.2507 0.368306 2.43334 0.295249Q2.61598 0.222192 2.8066 0.166871Q2.99721 0.111551 3.19425 0.0744179Q3.39129 0.037285 3.59314 0.0186425Q3.79499 0 4 0Z"/>
	</g>
	<path fill="rgb(155,155,155)" stroke="none" transform="translate(8.08942 12.463)" d="M0.142561 0L0 3.01303L3.48566 0.212397L0.142561 0Z"/>
	<path fill="rgb(216,216,216)" stroke="none" transform="translate(6.58087 6.6564)" d="M0 4.86718L1.4881 8.69129L8.09268 0L0 4.86718Z"/>
	<path fill="rgb(255,255,255)" stroke="none" transform="translate(2.99994 5.16177)" d="M13.2877 0.0266179L0.270408 4.7131C-0.0973483 4.84543 -0.0876166 5.34156 0.285091 5.46078L3.64202 6.53554L11.2862 1.86168L5.23204 7.21156L9.94509 10.6004C10.4354 10.9529 11.1464 10.7159 11.2957 10.1502L13.8434 0.494441C13.9255 0.183044 13.6042 -0.0874262 13.2877 0.0266179"/>

</svg>